<svg xmlns="http://www.w3.org/2000/svg" viewBox="0 0 1920 1080"><defs><style>.cls-1{fill:none;stroke:#041323;stroke-linecap:round;stroke-linejoin:round;}</style></defs><g id="Layer_4" data-name="Layer 4"><path class="cls-1" d="M1297.11,521l-281.28-1.26,28.21-2.56a74.21,74.21,0,0,0,29.37-9.35,32.88,32.88,0,0,1,12.49-4c13.86-1.5,1.12,11,1.12,11s12.51-9.81,18.77-8.57,10.06-15,32-17.57,4.24,15.37,4.24,15.37,12.58-7.36,32.19-8.15c5.22-.2,9.39-47.08,48.73-46.66s8.27,44.34,8.27,44.34,22.66-10.46,32-3.28c6.93,5.36-1.79,17.08-1.79,17.08s17.43-23.31,35.75-22.58"/><path class="cls-1" d="M763.73,297.17,960,296.29l-33.69-3.07a24.05,24.05,0,0,0-15.2-8.05c-9.67-1.05-.78,7.64-.78,7.64s-8.74-6.85-13.11-6-7-10.46-22.3-12.27-3,10.73-3,10.73-8.78-5.13-22.46-5.68c-3.64-.15-6.55-32.86-34-32.56S809.73,278,809.73,278s-15.82-7.29-22.31-2.28c-4.83,3.73,1.25,11.92,1.25,11.92s-12.15-16.27-24.94-15.76"/><path class="cls-1" d="M1919.66,400.29l-380.7-1.7,65.34-5.95S1615,379,1633.8,377s1.51,14.82,1.51,14.82,16.94-13.28,25.41-11.6S1674.34,360,1704,356.45s5.75,20.8,5.75,20.8,17-9.95,43.56-11c7.07-.28,12.71-63.73,66-63.15s11.2,60,11.2,60,30.67-14.15,43.26-4.43c9.37,7.25-2.42,23.12-2.42,23.12s23.58-31.56,48.38-30.57"/></g></svg>