<svg xmlns="http://www.w3.org/2000/svg" viewBox="0 0 3840 1080"><defs><style>.cls-1{fill:none;stroke:#041323;stroke-linecap:round;stroke-linejoin:round;}</style></defs><g id="Layer_4" data-name="Layer 4"><path class="cls-1" d="M2129.58,521l-281.29-1.26,28.22-2.56a74.17,74.17,0,0,0,29.36-9.35,32.88,32.88,0,0,1,12.49-4c13.86-1.5,1.12,11,1.12,11s12.52-9.81,18.77-8.57,10.06-15,32-17.57,4.24,15.37,4.24,15.37,12.58-7.36,32.19-8.15c5.22-.2,9.39-47.08,48.73-46.66s8.27,44.34,8.27,44.34,22.66-10.46,32-3.28c6.93,5.36-1.79,17.08-1.79,17.08s17.43-23.31,35.76-22.58"/><path class="cls-1" d="M1723.73,297.17l196.27-.88-33.69-3.07a24.05,24.05,0,0,0-15.2-8.05c-9.67-1.05-.78,7.64-.78,7.64s-8.74-6.85-13.11-6-7-10.46-22.3-12.27-3,10.73-3,10.73-8.78-5.13-22.46-5.68c-3.64-.15-6.55-32.86-34-32.56s-5.77,30.93-5.77,30.93-15.82-7.29-22.31-2.28c-4.83,3.73,1.25,11.92,1.25,11.92s-12.15-16.27-24.94-15.76"/><path class="cls-1" d="M763.73,297.17,960,296.29l-33.69-3.07a24.05,24.05,0,0,0-15.2-8.05c-9.67-1.05-.78,7.64-.78,7.64s-8.74-6.85-13.11-6-7-10.46-22.3-12.27-3,10.73-3,10.73-8.78-5.13-22.46-5.68c-3.64-.15-6.55-32.86-34-32.56S809.73,278,809.73,278s-15.82-7.29-22.31-2.28c-4.83,3.73,1.25,11.92,1.25,11.92s-12.15-16.27-24.94-15.76"/><path class="cls-1" d="M2879.66,400.29l-380.7-1.7,65.34-5.95S2575,379,2593.8,377s1.51,14.82,1.51,14.82,16.94-13.28,25.41-11.6S2634.34,360,2664,356.45s5.75,20.8,5.75,20.8,17-9.95,43.56-11c7.07-.28,12.71-63.73,65.95-63.15s11.2,60,11.2,60,30.67-14.15,43.26-4.43c9.37,7.25-2.42,23.12-2.42,23.12s23.58-31.56,48.38-30.57"/><path class="cls-1" d="M3157,521l-281.29-1.26,28.22-2.56a74.26,74.26,0,0,0,29.37-9.35,32.82,32.82,0,0,1,12.49-4c13.86-1.5,1.11,11,1.11,11s12.52-9.81,18.78-8.57,10.06-15,32-17.57,4.25,15.37,4.25,15.37,12.58-7.36,32.19-8.15c5.22-.2,9.39-47.08,48.72-46.66s8.27,44.34,8.27,44.34,22.67-10.46,32-3.28c6.92,5.36-1.79,17.08-1.79,17.08S3138.71,484,3157,484.68"/><path class="cls-1" d="M2302.19,297.17l196.27-.88-33.68-3.07a24.06,24.06,0,0,0-15.21-8.05c-9.67-1.05-.78,7.64-.78,7.64s-8.74-6.85-13.1-6-7-10.46-22.31-12.27-3,10.73-3,10.73-8.78-5.13-22.46-5.68c-3.64-.15-6.55-32.86-34-32.56s-5.77,30.93-5.77,30.93-15.81-7.29-22.3-2.28c-4.83,3.73,1.25,11.92,1.25,11.92s-12.16-16.27-24.95-15.76"/><path class="cls-1" d="M3840,400.29l-380.7-1.7,65.34-5.95s10.74-13.6,29.5-15.62,1.51,14.82,1.51,14.82,16.94-13.28,25.41-11.6,13.61-20.29,43.26-23.79,5.75,20.8,5.75,20.8,17-9.95,43.56-11c7.06-.28,12.71-63.73,65.95-63.15s11.19,60,11.19,60,30.68-14.15,43.26-4.43c9.38,7.25-2.42,23.12-2.42,23.12s23.58-31.56,48.39-30.57"/><path class="cls-1" d="M826.51,521l-281.29-1.26,28.22-2.56a74.17,74.17,0,0,0,29.36-9.35,32.88,32.88,0,0,1,12.49-4c13.86-1.5,1.12,11,1.12,11s12.52-9.81,18.78-8.57,10-15,32-17.57,4.25,15.37,4.25,15.37,12.57-7.36,32.18-8.15c5.22-.2,9.39-47.08,48.73-46.66s8.27,44.34,8.27,44.34,22.67-10.46,32-3.28c6.93,5.36-1.78,17.08-1.78,17.08s17.42-23.31,35.75-22.58"/><path class="cls-1" d="M0,297.17l196.27-.88-33.68-3.07a24.06,24.06,0,0,0-15.21-8.05c-9.67-1.05-.78,7.64-.78,7.64s-8.74-6.85-13.1-6-7-10.46-22.31-12.27-3,10.73-3,10.73-8.78-5.13-22.46-5.68c-3.64-.15-6.55-32.86-34-32.56S46,278,46,278s-15.81-7.29-22.3-2.28C18.87,279.43,25,287.62,25,287.62S12.79,271.35,0,271.86"/><path class="cls-1" d="M1449.06,400.29l-380.71-1.7,65.35-5.95s10.74-13.6,29.49-15.62,1.52,14.82,1.52,14.82,16.94-13.28,25.41-11.6,13.61-20.29,43.26-23.79,5.74,20.8,5.74,20.8,17-9.95,43.57-11c7.06-.28,12.7-63.73,66-63.15s11.19,60,11.19,60,30.67-14.15,43.26-4.43c9.37,7.25-2.42,23.12-2.42,23.12s23.58-31.56,48.39-30.57"/><path class="cls-1" d="M503.85,429.76l-230.78-1,39.62-3.61a28.3,28.3,0,0,1,17.88-9.47c11.36-1.23.91,9,.91,9s10.27-8.05,15.41-7,8.25-12.3,26.22-14.42,3.48,12.61,3.48,12.61,10.32-6,26.41-6.68c4.28-.17,7.7-38.63,40-38.28s6.78,36.37,6.78,36.37,18.6-8.58,26.23-2.68c5.68,4.39-1.47,14-1.47,14s14.3-19.13,29.33-18.53"/></g></svg>