<svg xmlns="http://www.w3.org/2000/svg" viewBox="0 0 282.29 72.83"><defs><style>.cls-1{fill:none;stroke:#041323;stroke-linecap:round;stroke-linejoin:round;}</style></defs><g id="Layer_2" data-name="Layer 2"><g id="Layer_4" data-name="Layer 4"><path class="cls-1" d="M281.79,72.33.5,71.07l28.22-2.56a74.17,74.17,0,0,0,29.36-9.35,32.88,32.88,0,0,1,12.49-4c13.86-1.5,1.12,10.95,1.12,10.95s12.52-9.81,18.78-8.57,10.06-15,32-17.57,4.25,15.37,4.25,15.37,12.58-7.36,32.18-8.15C164.08,47,168.25.08,207.59.5s8.27,44.34,8.27,44.34,22.67-10.46,32-3.28c6.93,5.36-1.78,17.08-1.78,17.08s17.42-23.31,35.75-22.58"/></g></g></svg>