<svg xmlns="http://www.w3.org/2000/svg" viewBox="0 0 1094.77 353.51"><defs><style>.cls-1,.cls-9{fill:#4a90ee;}.cls-2,.cls-5{fill:none;}.cls-2,.cls-3,.cls-5,.cls-6,.cls-8,.cls-9{stroke:#041323;stroke-linecap:round;stroke-linejoin:round;}.cls-2{stroke-width:0.45px;}.cls-3{fill:#ee9646;}.cls-3,.cls-5,.cls-6,.cls-8,.cls-9{stroke-width:0.45px;}.cls-4,.cls-8{fill:#fff;}.cls-6,.cls-7{fill:#041323;}</style></defs><g id="Layer_2" data-name="Layer 2"><g id="Illustrtions"><path class="cls-1" d="M1092.82,353.28H.22V297.13c87.49-10.27,178.94,10.7,270.8,20.12,101.78,10.43,231.24-46.37,274-51.94s93.31,31,118.18,15.74,50.8-10.5,79.67-34.43S819.36,226,848.77,220.06s44.38-25.78,108.54-1.19,135.76,19.31,135.76,19.31Z"/><path class="cls-2" d="M1092.82,353.28H.22V297.13c87.49-10.27,178.94,10.7,270.8,20.12,101.78,10.43,231.24-46.37,274-51.94s93.31,31,118.18,15.74,50.8-10.5,79.67-34.43S819.36,226,848.77,220.06s44.38-25.78,108.54-1.19,135.76,19.31,135.76,19.31Z"/><polygon class="cls-3" points="662.44 352.32 682.49 312.45 712.85 292.11 723.02 302.28 736.14 241.7 891.22 223.13 919.52 234.62 938.39 237.87 972.88 259.09 983.79 257.32 1017.4 270 1032.73 290.93 1094.54 308.62 1094.54 352.32 662.44 352.32"/><polygon class="cls-4" points="690.26 320.23 720.63 299.88 730.8 310.06 743.92 249.47 898.99 230.9 927.29 242.4 946.16 245.64 980.65 266.87 991.56 265.1 1022.29 276.69 1017.4 270 983.79 257.32 972.88 259.09 938.39 237.87 919.52 234.62 891.22 223.13 736.14 241.7 723.02 302.28 712.85 292.11 682.49 312.45 662.44 352.32 674.12 352.32 690.26 320.23"/><line class="cls-5" x1="730.49" y1="352.32" x2="741.67" y2="324.91"/><line class="cls-5" x1="723.03" y1="352.88" x2="743.92" y2="249.47"/><line class="cls-5" x1="753.85" y1="257.79" x2="905.25" y2="237.13"/><polygon class="cls-4" points="780.81 313.41 972.88 259.09 905.09 269.03 794.08 297.49 780.81 313.41"/><polygon class="cls-6" points="788.03 352.32 798.35 324.91 885.32 318.06 1007.08 281.79 972.88 281.79 1017.4 270 1032.73 290.93 1094.54 308.62 1094.54 352.32 788.03 352.32"/><polygon class="cls-4" points="797.76 324.32 891.6 300.52 848.61 308.29 966.75 278.9 1006.36 272.66 972.88 281.79 1007.08 281.79 885.32 318.06 797.76 324.32"/><polygon class="cls-4" points="783.46 291.08 873.13 270 956.36 252.14 866.82 276.49 788.99 294.18 783.46 291.08"/><polygon class="cls-4" points="794.08 265.87 918.26 245.1 762.01 265.2 794.08 265.87"/><polygon class="cls-6" points="692.81 352.32 711.97 310.39 712.85 292.11 723.02 302.28 717.13 352.32 692.81 352.32"/><polygon class="cls-6" points="741.67 324.91 762.01 265.2 794.08 265.87 765.33 272.95 741.67 324.91"/><polygon class="cls-6" points="756.26 352.32 783.46 291.08 788.99 294.18 866.82 276.49 959.98 251.16 972.88 259.09 867.93 278.26 794.08 297.49 780.81 313.41 767.87 352.32 756.26 352.32"/><polygon class="cls-5" points="662.44 352.32 682.49 312.45 712.85 292.11 723.02 302.28 736.14 241.7 891.22 223.13 919.52 234.62 938.39 237.87 972.88 259.09 983.79 257.32 1017.4 270 1032.73 290.93 1094.54 308.62 1094.54 352.32 662.44 352.32"/><polygon class="cls-5" points="832.38 252.14 1025.53 352.32 1093.07 352.32 862.4 252.14 832.38 252.14"/><polygon class="cls-5" points="885.03 252.57 1094.54 352.32 1094.54 336.11 897.61 252.88 885.03 252.57"/><polyline class="cls-5" points="736.14 241.7 762.01 265.2 765.33 272.95 783.46 291.08 794.08 297.49 780.81 313.41 798.35 324.91"/><polyline class="cls-5" points="745.28 352.32 773.61 281.23 850.88 265.87"/><line class="cls-5" x1="674.12" y1="352.32" x2="690.26" y2="320.23"/><line class="cls-5" x1="791.33" y1="320.31" x2="919.1" y2="283.3"/><path class="cls-7" d="M888.4,129.67l9.21,110.17H883.16L865.62,139.41l-2.06,100.43H847.49L837.32,135.18l2.47-16.29s7.7,9.8,30.11,12.68L877,110.89l5.75,19.9Z"/><path class="cls-5" d="M888.4,129.67l9.21,110.17H883.16L865.62,139.41l-2.06,100.43H847.49L837.32,135.18l2.47-16.29s7.7,9.8,30.11,12.68L877,110.89l5.75,19.9Z"/><polygon class="cls-7" points="886.04 130.79 888.45 130.31 888.4 129.67 885.86 130.17 886.04 130.79"/><polygon class="cls-5" points="886.04 130.79 888.45 130.31 888.4 129.67 885.86 130.17 886.04 130.79"/><path class="cls-7" d="M873.21,131.57l5.28-15.42L877,110.89l-6.91,20.2C871.08,131.26,872.12,131.43,873.21,131.57Z"/><path class="cls-5" d="M873.21,131.57l5.28-15.42L877,110.89l-6.91,20.2C871.08,131.26,872.12,131.43,873.21,131.57Z"/><path class="cls-4" d="M842.7,121.6a18.41,18.41,0,0,1-2.91-2.71l-2.47,16.29,10.17,104.66h3.32L845.38,184l14.52-.21L845,180.43l-4.39-45.25Z"/><path class="cls-5" d="M842.7,121.6a18.41,18.41,0,0,1-2.91-2.71l-2.47,16.29,10.17,104.66h3.32L845.38,184l14.52-.21L845,180.43l-4.39-45.25Z"/><polygon class="cls-4" points="865.62 139.41 883.16 239.84 886.48 239.84 876.88 184.86 888.45 183.7 875.92 180.71 868.94 139.41 865.62 139.41"/><polygon class="cls-5" points="865.62 139.41 883.16 239.84 886.48 239.84 876.88 184.86 888.45 183.7 875.92 180.71 868.94 139.41 865.62 139.41"/><line class="cls-5" x1="874.98" y1="139.41" x2="852.87" y2="139.41"/><path class="cls-8" d="M849.92,11.21l-1.27,16a5,5,0,0,0,4.94,5.34h3.11v7.3h13.64V10H850.88Z"/><polygon class="cls-8" points="830.76 103.04 833.71 124.42 837.32 135.18 839.79 118.89 841.82 103.04 830.76 103.04"/><polygon class="cls-8" points="899.9 107.89 888.4 129.67 885.52 120.07 890.24 104.81 899.9 107.89"/><path class="cls-7" d="M870.41,31.92s12-16.44,6-25.21C871-1.1,859.5,1.77,859.5,1.77c-4.86,1.11-9.58-1.54-9.58-1.54-3.68,4.64,0,11,0,11l.07-.07a3,3,0,0,1,2.15-.89h1.41a1,1,0,0,1,1,1v2a2.79,2.79,0,0,0,.8,1.95l.85.85v6.15h0a1.14,1.14,0,0,0,1.15-1.14v-2A1.66,1.66,0,0,1,859,17.47h0a1.65,1.65,0,0,1,1.65,1.66v1.69a12.09,12.09,0,0,0,3,8l.87,1A6.22,6.22,0,0,0,869,31.87Z"/><path class="cls-5" d="M870.41,31.92s12-16.44,6-25.21C871-1.1,859.5,1.77,859.5,1.77c-4.86,1.11-9.58-1.54-9.58-1.54-3.68,4.64,0,11,0,11l.07-.07a3,3,0,0,1,2.15-.89h1.41a1,1,0,0,1,1,1v2a2.79,2.79,0,0,0,.8,1.95l.85.85v6.15h0a1.14,1.14,0,0,0,1.15-1.14v-2A1.66,1.66,0,0,1,859,17.47h0a1.65,1.65,0,0,1,1.65,1.66v1.69a12.09,12.09,0,0,0,3,8l.87,1A6.22,6.22,0,0,0,869,31.87Z"/><path class="cls-4" d="M851.91,2.21s4.72,2.66,9.58,1.55c0,0,8.66-2.16,14.46,2.37C870.41-.95,859.5,1.77,859.5,1.77c-4.86,1.11-9.58-1.54-9.58-1.54-3.68,4.64,0,11,0,11l.84-.84C850.11,8.11,849.79,4.88,851.91,2.21Z"/><path class="cls-5" d="M851.91,2.21s4.72,2.66,9.58,1.55c0,0,8.66-2.16,14.46,2.37C870.41-.95,859.5,1.77,859.5,1.77c-4.86,1.11-9.58-1.54-9.58-1.54-3.68,4.64,0,11,0,11l.84-.84C850.11,8.11,849.79,4.88,851.91,2.21Z"/><path class="cls-1" d="M843,43.66l11.78-3.78.52-1.55a3.88,3.88,0,0,1,3.12-2.58l10.29-1.45a6,6,0,0,1,6.07,3.05l.53,1,17.17,11-6.19,45.11V104l11,23.88-14.59,2.87L877,110.89l-7.07,20.68s-24-1.22-30.52-13.38l5.86-13.6.56-19.13L843,103h-13.6l6.45-50.85A10.31,10.31,0,0,1,843,43.66Z"/><path class="cls-5" d="M843,43.66l11.78-3.78.52-1.55a3.88,3.88,0,0,1,3.12-2.58l10.29-1.45a6,6,0,0,1,6.07,3.05l.53,1,17.17,11-6.19,45.11V104l11,23.88-14.59,2.87L877,110.89l-7.07,20.68s-24-1.22-30.52-13.38l5.86-13.6.56-19.13L843,103h-13.6l6.45-50.85A10.31,10.31,0,0,1,843,43.66Z"/><path class="cls-4" d="M897.31,127.92l0-.06-6.08-.08a10.38,10.38,0,0,1-9.28-6l-5-10.84,5.75,19.9Z"/><path class="cls-4" d="M862.15,125.32c-6.88-1.27-16.57-4.1-21.4-10.3l-1.37,3.17c6.53,12.16,30.52,13.38,30.52,13.38L877,110.89l-4,8.8A9.89,9.89,0,0,1,862.15,125.32Z"/><polygon class="cls-4" points="845.61 86.65 843.03 97.79 830.1 97.79 829.43 103.04 843.03 103.04 845.61 86.65"/><path class="cls-4" d="M846.39,43.66l11.79-3.78.52-1.55a3.88,3.88,0,0,1,3.11-2.58l9.25-1.3a6.12,6.12,0,0,0-2.38-.15l-10.29,1.45a3.88,3.88,0,0,0-3.12,2.58l-.52,1.55L843,43.66a10.31,10.31,0,0,0-7.09,8.53L829.43,103h3.43l6.45-50.85A10.3,10.3,0,0,1,846.39,43.66Z"/><path class="cls-1" d="M892.45,49.31l.69.37a5.09,5.09,0,0,1,2.5,3.1l10.67,37.83a5.44,5.44,0,0,1-.22,3.56L900.3,108,889,104.44l3.72-12.86-4.87-8.66Z"/><path class="cls-5" d="M892.45,49.31l.69.37a5.09,5.09,0,0,1,2.5,3.1l10.67,37.83a5.44,5.44,0,0,1-.22,3.56L900.3,108,889,104.44l3.72-12.86-4.87-8.66Z"/><polygon class="cls-4" points="888.65 76.97 895.52 90.78 891.23 105 888.99 104.44 892.71 91.58 887.84 82.92 888.65 76.97"/><path class="cls-5" d="M892.45,49.31l.69.37a5.09,5.09,0,0,1,2.5,3.1l10.67,37.83a5.44,5.44,0,0,1-.22,3.56L900.3,108,889,104.44l3.72-12.86-4.87-8.66Z"/><path class="cls-1" d="M862.82,239.84v11.88a.42.42,0,0,1-.42.42h-30v-1.43a6.59,6.59,0,0,1,6.6-6.6h4.75l3.76-4.27Z"/><path class="cls-5" d="M862.82,239.84v11.88a.42.42,0,0,1-.42.42h-30v-1.43a6.59,6.59,0,0,1,6.6-6.6h4.75l3.76-4.27Z"/><path class="cls-1" d="M862.82,239.84v11.88a.42.42,0,0,1-.42.42h-30v-1.43a6.59,6.59,0,0,1,6.6-6.6h4.75l3.76-4.27Z"/><path class="cls-5" d="M862.82,239.84v11.88a.42.42,0,0,1-.42.42h-30v-1.43a6.59,6.59,0,0,1,6.6-6.6h4.75l3.76-4.27Z"/><line class="cls-1" x1="832.57" y1="249.13" x2="862.82" y2="249.13"/><line class="cls-5" x1="832.57" y1="249.13" x2="862.82" y2="249.13"/><path class="cls-1" d="M884.27,239.84l-.53,10.41a2.5,2.5,0,0,0,2.5,2.63h10.59a2.63,2.63,0,0,0,2.55-3.26L897,239.84Z"/><path class="cls-5" d="M884.27,239.84l-.53,10.41a2.5,2.5,0,0,0,2.5,2.63h10.59a2.63,2.63,0,0,0,2.55-3.26L897,239.84Z"/><line class="cls-9" x1="883.8" y1="249.13" x2="893.83" y2="249.13"/><line class="cls-8" x1="829.95" y1="98.98" x2="840.12" y2="98.98"/><line class="cls-8" x1="902.04" y1="103.86" x2="891.42" y2="100.76"/><path class="cls-5" d="M876.82,108V62.19a30.46,30.46,0,0,0-.68-6.38l-3-13.79"/><line class="cls-8" x1="854.75" y1="39.88" x2="875.28" y2="38.33"/><path class="cls-5" d="M845.8,85.46l4.55-22a9.67,9.67,0,0,0-1.13-6.84h0"/><path class="cls-8" d="M856.37,26.43H857a2.81,2.81,0,0,0,2.6-1.74L860.74,22"/><path class="cls-5" d="M843,43.66l11.78-3.78.52-1.55a3.88,3.88,0,0,1,3.12-2.58l10.29-1.45a6,6,0,0,1,6.07,3.05l.53,1,17.17,11-6.19,45.11V104l11,23.88-14.59,2.87L877,110.89l-7.07,20.68s-24-1.22-30.52-13.38l5.86-13.6.56-19.13L843,103h-13.6l6.45-50.85A10.31,10.31,0,0,1,843,43.66Z"/></g></g></svg>