<svg xmlns="http://www.w3.org/2000/svg" viewBox="0 0 1094.77 392.15"><defs><style>.cls-1,.cls-4{fill:none;}.cls-1,.cls-10,.cls-2,.cls-4,.cls-5,.cls-6,.cls-8{stroke:#041323;stroke-linecap:round;stroke-linejoin:round;}.cls-1,.cls-10,.cls-5,.cls-6,.cls-8{stroke-width:0.45px;}.cls-2{fill:#f6f8fd;}.cls-2,.cls-4{stroke-width:0.45px;}.cls-10,.cls-3{fill:#4a90ee;}.cls-5{fill:#ee9646;}.cls-6,.cls-7{fill:#fff;}.cls-8,.cls-9{fill:#041323;}</style></defs><g id="Layer_2" data-name="Layer 2"><g id="Illustrtions"><path class="cls-1" d="M992.43,74.05,820.6,73.28l29.49-2.68a21.09,21.09,0,0,1,13.31-7.06c8.47-.91.69,6.69.69,6.69s7.64-6,11.46-5.23,6.15-9.16,19.53-10.74,2.59,9.39,2.59,9.39,7.69-4.5,19.67-5c3.18-.12,5.73-28.76,29.76-28.5s5,27.08,5,27.08,13.85-6.38,19.53-2c4.23,3.27-1.09,10.44-1.09,10.44s10.64-14.25,21.84-13.8"/><path class="cls-2" d="M1092.73,345.87l.27-123.52s-76.83,5.67-145.69-20.72-84.92-5.06-116.48,1.28-82.64,2.81-113.62,28.5c-25,20.73-39.58,29.73-65.3,31-23.42,1.16-44.76-4.75-64.87-8.94-76.68-15.95-123.5-39.45-176.65-20-87.34,32-119.26,12.77-204.92,48.35C75.86,335.64.22,335.78.22,335.78v32s623.63,23.89,1092.51-21.86"/><path class="cls-2" d="M.4,381.78H773.48V342.05c-61.9-7.27-126.61,7.57-191.61,14.24-72,7.38-163.61-32.81-193.88-36.75s-81.57,35.2-140-13.23c-20.43-16.93-54.1-14.61-74.91-18.79s-31.41-18.24-76.81-.84S.22,300.34.22,300.34Z"/><path class="cls-3" d="M1092.82,391.93H.22V335.78c87.49-10.28,178.94,10.7,270.8,20.11C372.8,366.32,502.26,309.53,545,304s93.31,31,118.18,15.74,50.8-10.49,79.67-34.43,76.47-20.65,105.88-26.55,44.38-25.79,108.54-1.2,135.76,19.32,135.76,19.32Z"/><path class="cls-4" d="M1092.82,391.93H.22V335.78c87.49-10.28,178.94,10.7,270.8,20.11C372.8,366.32,502.26,309.53,545,304s93.31,31,118.18,15.74,50.8-10.49,79.67-34.43,76.47-20.65,105.88-26.55,44.38-25.79,108.54-1.2,135.76,19.32,135.76,19.32Z"/><circle class="cls-5" cx="788.03" cy="72.89" r="27.23"/><path class="cls-6" d="M895.86,32.65l-127-.57,12.74-1.16a33.45,33.45,0,0,0,13.25-4.22,15,15,0,0,1,5.64-1.82c6.25-.67.5,4.95.5,4.95s5.65-4.43,8.48-3.87,4.54-6.77,14.42-7.93S825.85,25,825.85,25a33.75,33.75,0,0,1,14.53-3.67c2.35-.1,4.24-21.26,22-21.06s3.74,20,3.74,20,10.23-4.72,14.42-1.48c3.13,2.42-.81,7.71-.81,7.71s7.87-10.52,16.14-10.2"/><polygon class="cls-5" points="662.44 390.96 682.49 351.1 712.85 330.76 723.02 340.93 736.14 280.35 891.22 261.77 919.52 273.27 938.39 276.51 972.88 297.74 983.79 295.97 1017.4 308.65 1032.73 329.58 1094.54 347.27 1094.54 390.96 662.44 390.96"/><polygon class="cls-7" points="690.26 358.87 720.63 338.53 730.8 348.7 743.92 288.12 898.99 269.54 927.29 281.04 946.16 284.28 980.65 305.51 991.56 303.74 1022.29 315.33 1017.4 308.65 983.79 295.97 972.88 297.74 938.39 276.51 919.52 273.27 891.22 261.77 736.14 280.35 723.02 340.93 712.85 330.76 682.49 351.1 662.44 390.96 674.12 390.96 690.26 358.87"/><line class="cls-1" x1="730.49" y1="390.96" x2="741.67" y2="363.56"/><line class="cls-1" x1="723.03" y1="391.53" x2="743.92" y2="288.12"/><line class="cls-1" x1="753.85" y1="296.43" x2="905.25" y2="275.77"/><polygon class="cls-7" points="780.81 352.06 972.88 297.74 905.09 307.68 794.08 336.14 780.81 352.06"/><polygon class="cls-8" points="788.03 390.96 798.35 363.56 885.32 356.7 1007.08 320.44 972.88 320.44 1017.4 308.65 1032.73 329.58 1094.54 347.27 1094.54 390.96 788.03 390.96"/><polygon class="cls-7" points="797.76 362.97 891.6 339.17 848.61 346.94 966.75 317.55 1006.36 311.31 972.88 320.44 1007.08 320.44 885.32 356.7 797.76 362.97"/><polygon class="cls-7" points="783.46 329.73 873.13 308.65 956.36 290.79 866.82 315.13 788.99 332.82 783.46 329.73"/><polygon class="cls-7" points="794.08 304.52 918.26 283.75 762.01 303.85 794.08 304.52"/><polygon class="cls-8" points="692.81 390.96 711.97 349.04 712.85 330.76 723.02 340.93 717.13 390.96 692.81 390.96"/><polygon class="cls-8" points="741.67 363.56 762.01 303.85 794.08 304.52 765.33 311.6 741.67 363.56"/><polygon class="cls-8" points="756.26 390.96 783.46 329.73 788.99 332.82 866.82 315.13 959.98 289.8 972.88 297.74 867.93 316.9 794.08 336.14 780.81 352.06 767.87 390.96 756.26 390.96"/><polygon class="cls-1" points="662.44 390.96 682.49 351.1 712.85 330.76 723.02 340.93 736.14 280.35 891.22 261.77 919.52 273.27 938.39 276.51 972.88 297.74 983.79 295.97 1017.4 308.65 1032.73 329.58 1094.54 347.27 1094.54 390.96 662.44 390.96"/><polygon class="cls-1" points="832.38 290.79 1025.53 390.96 1093.07 390.96 862.4 290.79 832.38 290.79"/><polygon class="cls-1" points="885.03 291.22 1094.54 390.96 1094.54 374.75 897.61 291.53 885.03 291.22"/><polyline class="cls-1" points="736.14 280.35 762.01 303.85 765.33 311.6 783.46 329.73 794.08 336.14 780.81 352.06 798.35 363.56"/><polyline class="cls-1" points="745.28 390.96 773.61 319.87 850.88 304.52"/><line class="cls-1" x1="674.12" y1="390.96" x2="690.26" y2="358.87"/><line class="cls-1" x1="791.33" y1="358.95" x2="919.1" y2="321.95"/><path class="cls-9" d="M888.4,168.32l9.21,110.16H883.16L865.62,178.06l-2.06,100.42H847.49L837.32,173.82l2.47-16.28s7.7,9.8,30.11,12.67L877,149.54l5.75,19.9Z"/><path class="cls-1" d="M888.4,168.32l9.21,110.16H883.16L865.62,178.06l-2.06,100.42H847.49L837.32,173.82l2.47-16.28s7.7,9.8,30.11,12.67L877,149.54l5.75,19.9Z"/><polygon class="cls-9" points="886.04 169.44 888.45 168.96 888.4 168.32 885.86 168.82 886.04 169.44"/><polygon class="cls-1" points="886.04 169.44 888.45 168.96 888.4 168.32 885.86 168.82 886.04 169.44"/><path class="cls-9" d="M873.21,170.21l5.28-15.42L877,149.54l-6.91,20.2C871.08,169.91,872.12,170.07,873.21,170.21Z"/><path class="cls-1" d="M873.21,170.21l5.28-15.42L877,149.54l-6.91,20.2C871.08,169.91,872.12,170.07,873.21,170.21Z"/><path class="cls-7" d="M842.7,160.24a18.14,18.14,0,0,1-2.91-2.7l-2.47,16.28,10.17,104.66h3.32l-5.43-55.82,14.52-.21L845,219.08l-4.39-45.26Z"/><path class="cls-1" d="M842.7,160.24a18.14,18.14,0,0,1-2.91-2.7l-2.47,16.28,10.17,104.66h3.32l-5.43-55.82,14.52-.21L845,219.08l-4.39-45.26Z"/><polygon class="cls-7" points="865.62 178.06 883.16 278.48 886.48 278.48 876.88 223.51 888.45 222.35 875.92 219.35 868.94 178.06 865.62 178.06"/><polygon class="cls-1" points="865.62 178.06 883.16 278.48 886.48 278.48 876.88 223.51 888.45 222.35 875.92 219.35 868.94 178.06 865.62 178.06"/><line class="cls-1" x1="874.98" y1="178.06" x2="852.87" y2="178.06"/><path class="cls-6" d="M849.92,49.85l-1.27,16a5,5,0,0,0,4.94,5.35h3.11v7.29h13.64V48.67H850.88Z"/><polygon class="cls-6" points="830.76 141.69 833.71 163.06 837.32 173.82 839.79 157.54 841.82 141.69 830.76 141.69"/><polygon class="cls-6" points="899.9 146.53 888.4 168.32 885.52 158.71 890.24 143.46 899.9 146.53"/><path class="cls-9" d="M870.41,70.56s12-16.43,6-25.2c-5.38-7.81-16.88-4.94-16.88-4.94-4.86,1.1-9.58-1.55-9.58-1.55-3.68,4.64,0,11,0,11l.07-.06a3,3,0,0,1,2.15-.9h1.41a1,1,0,0,1,1,1V52a2.75,2.75,0,0,0,.8,1.94l.85.85v6.16h0a1.14,1.14,0,0,0,1.15-1.14v-2A1.66,1.66,0,0,1,859,56.12h0a1.65,1.65,0,0,1,1.65,1.66v1.69a12.11,12.11,0,0,0,3,8l.87,1A6.18,6.18,0,0,0,869,70.51Z"/><path class="cls-1" d="M870.41,70.56s12-16.43,6-25.2c-5.38-7.81-16.88-4.94-16.88-4.94-4.86,1.1-9.58-1.55-9.58-1.55-3.68,4.64,0,11,0,11l.07-.06a3,3,0,0,1,2.15-.9h1.41a1,1,0,0,1,1,1V52a2.75,2.75,0,0,0,.8,1.94l.85.85v6.16h0a1.14,1.14,0,0,0,1.15-1.14v-2A1.66,1.66,0,0,1,859,56.12h0a1.65,1.65,0,0,1,1.65,1.66v1.69a12.11,12.11,0,0,0,3,8l.87,1A6.18,6.18,0,0,0,869,70.51Z"/><path class="cls-7" d="M851.91,40.86s4.72,2.65,9.58,1.55c0,0,8.66-2.16,14.46,2.37-5.54-7.08-16.45-4.36-16.45-4.36-4.86,1.1-9.58-1.55-9.58-1.55-3.68,4.64,0,11,0,11l.84-.84C850.11,46.75,849.79,43.53,851.91,40.86Z"/><path class="cls-1" d="M851.91,40.86s4.72,2.65,9.58,1.55c0,0,8.66-2.16,14.46,2.37-5.54-7.08-16.45-4.36-16.45-4.36-4.86,1.1-9.58-1.55-9.58-1.55-3.68,4.64,0,11,0,11l.84-.84C850.11,46.75,849.79,43.53,851.91,40.86Z"/><path class="cls-3" d="M843,82.3l11.78-3.78.52-1.54a3.85,3.85,0,0,1,3.12-2.58L868.68,73a6,6,0,0,1,6.07,3l.53,1,17.17,11-6.19,45.1v9.62l11,23.88-14.59,2.88L877,149.54l-7.07,20.67s-24-1.22-30.52-13.38l5.86-13.59.56-19.13L843,141.69h-13.6l6.45-50.86A10.32,10.32,0,0,1,843,82.3Z"/><path class="cls-1" d="M843,82.3l11.78-3.78.52-1.54a3.85,3.85,0,0,1,3.12-2.58L868.68,73a6,6,0,0,1,6.07,3l.53,1,17.17,11-6.19,45.1v9.62l11,23.88-14.59,2.88L877,149.54l-7.07,20.67s-24-1.22-30.52-13.38l5.86-13.59.56-19.13L843,141.69h-13.6l6.45-50.86A10.32,10.32,0,0,1,843,82.3Z"/><path class="cls-7" d="M897.31,166.56l0-.05-6.08-.09a10.35,10.35,0,0,1-9.28-6l-5-10.84,5.75,19.9Z"/><path class="cls-7" d="M862.15,164c-6.88-1.27-16.57-4.11-21.4-10.3l-1.37,3.16c6.53,12.16,30.52,13.38,30.52,13.38L877,149.54l-4,8.8A9.9,9.9,0,0,1,862.15,164Z"/><polygon class="cls-7" points="845.61 125.29 843.03 136.44 830.1 136.44 829.43 141.69 843.03 141.69 845.61 125.29"/><path class="cls-7" d="M846.39,82.3l11.79-3.78L858.7,77a3.85,3.85,0,0,1,3.11-2.58l9.25-1.3a5.76,5.76,0,0,0-2.38-.15L858.39,74.4A3.85,3.85,0,0,0,855.27,77l-.52,1.54L843,82.3a10.32,10.32,0,0,0-7.09,8.53l-6.45,50.86h3.43l6.45-50.86A10.31,10.31,0,0,1,846.39,82.3Z"/><path class="cls-3" d="M892.45,88l.69.36a5.09,5.09,0,0,1,2.5,3.1l10.67,37.83a5.47,5.47,0,0,1-.22,3.57l-5.79,13.84L889,143.09l3.72-12.86-4.87-8.66Z"/><path class="cls-1" d="M892.45,88l.69.36a5.09,5.09,0,0,1,2.5,3.1l10.67,37.83a5.47,5.47,0,0,1-.22,3.57l-5.79,13.84L889,143.09l3.72-12.86-4.87-8.66Z"/><polygon class="cls-7" points="888.65 115.62 895.52 129.43 891.23 143.64 888.99 143.09 892.71 130.23 887.84 121.57 888.65 115.62"/><path class="cls-1" d="M892.45,88l.69.36a5.09,5.09,0,0,1,2.5,3.1l10.67,37.83a5.47,5.47,0,0,1-.22,3.57l-5.79,13.84L889,143.09l3.72-12.86-4.87-8.66Z"/><path class="cls-3" d="M862.82,278.48v11.89a.42.42,0,0,1-.42.42h-30v-1.44a6.59,6.59,0,0,1,6.6-6.59h4.75l3.76-4.28Z"/><path class="cls-1" d="M862.82,278.48v11.89a.42.42,0,0,1-.42.42h-30v-1.44a6.59,6.59,0,0,1,6.6-6.59h4.75l3.76-4.28Z"/><path class="cls-3" d="M862.82,278.48v11.89a.42.42,0,0,1-.42.42h-30v-1.44a6.59,6.59,0,0,1,6.6-6.59h4.75l3.76-4.28Z"/><path class="cls-1" d="M862.82,278.48v11.89a.42.42,0,0,1-.42.42h-30v-1.44a6.59,6.59,0,0,1,6.6-6.59h4.75l3.76-4.28Z"/><line class="cls-3" x1="832.57" y1="287.78" x2="862.82" y2="287.78"/><line class="cls-1" x1="832.57" y1="287.78" x2="862.82" y2="287.78"/><path class="cls-3" d="M884.27,278.48l-.53,10.42a2.5,2.5,0,0,0,2.5,2.63h10.59a2.63,2.63,0,0,0,2.55-3.27L897,278.48Z"/><path class="cls-1" d="M884.27,278.48l-.53,10.42a2.5,2.5,0,0,0,2.5,2.63h10.59a2.63,2.63,0,0,0,2.55-3.27L897,278.48Z"/><line class="cls-10" x1="883.8" y1="287.78" x2="893.83" y2="287.78"/><line class="cls-6" x1="829.95" y1="137.62" x2="840.12" y2="137.62"/><line class="cls-6" x1="902.04" y1="142.5" x2="891.42" y2="139.4"/><path class="cls-1" d="M876.82,146.66V100.84a30.39,30.39,0,0,0-.68-6.38l-3-13.8"/><line class="cls-6" x1="854.75" y1="78.52" x2="875.28" y2="76.98"/><path class="cls-1" d="M845.8,124.11l4.55-22a9.71,9.71,0,0,0-1.13-6.85h0"/><path class="cls-6" d="M856.37,65.07H857a2.81,2.81,0,0,0,2.6-1.74l1.11-2.73"/><path class="cls-1" d="M843,82.3l11.78-3.78.52-1.54a3.85,3.85,0,0,1,3.12-2.58L868.68,73a6,6,0,0,1,6.07,3l.53,1,17.17,11-6.19,45.1v9.62l11,23.88-14.59,2.88L877,149.54l-7.07,20.67s-24-1.22-30.52-13.38l5.86-13.59.56-19.13L843,141.69h-13.6l6.45-50.86A10.32,10.32,0,0,1,843,82.3Z"/></g></g></svg>