<svg xmlns="http://www.w3.org/2000/svg" viewBox="0 0 1920 1080"><defs><style>.cls-1{fill:#ee9646;}.cls-1,.cls-3,.cls-4,.cls-6,.cls-8{stroke:#041323;stroke-linecap:round;stroke-linejoin:round;}.cls-2,.cls-6{fill:#fff;}.cls-3{fill:none;}.cls-4,.cls-5{fill:#041323;}.cls-7,.cls-8{fill:#4a90ee;}</style></defs><g id="Layer_5" data-name="Layer 5"><polygon class="cls-1" points="961.65 1078.91 1006.07 990.59 1073.35 945.52 1095.88 968.06 1124.95 833.83 1468.52 792.68 1531.23 818.15 1573.03 825.34 1649.45 872.37 1673.62 868.45 1748.08 896.54 1782.05 942.91 1919 982.1 1919 1078.91 961.65 1078.91"/><polygon class="cls-2" points="1023.29 1007.81 1090.57 962.74 1113.1 985.28 1142.17 851.05 1485.74 809.9 1548.45 835.37 1590.25 842.56 1666.67 889.59 1690.84 885.67 1758.94 911.35 1748.08 896.54 1673.62 868.45 1649.45 872.37 1573.03 825.34 1531.23 818.15 1468.52 792.68 1124.95 833.83 1095.88 968.06 1073.35 945.52 1006.07 990.59 961.65 1078.91 987.53 1078.91 1023.29 1007.81"/><line class="cls-3" x1="1112.43" y1="1078.91" x2="1137.2" y2="1018.19"/><line class="cls-3" x1="1095.88" y1="1080.16" x2="1142.17" y2="851.05"/><line class="cls-3" x1="1164.18" y1="869.47" x2="1499.61" y2="823.7"/><polygon class="cls-2" points="1223.91 992.72 1649.45 872.37 1499.26 894.39 1253.3 957.45 1223.91 992.72"/><polygon class="cls-4" points="1239.91 1078.91 1262.77 1018.19 1455.46 1003 1725.22 922.66 1649.45 922.66 1748.08 896.54 1782.05 942.91 1919 982.1 1919 1078.91 1239.91 1078.91"/><polygon class="cls-2" points="1261.47 1016.89 1469.36 964.16 1374.13 981.37 1635.88 916.25 1723.63 902.43 1649.45 922.66 1725.22 922.66 1455.46 1003 1261.47 1016.89"/><polygon class="cls-2" points="1229.78 943.24 1428.44 896.54 1612.84 856.97 1414.47 910.91 1242.03 950.1 1229.78 943.24"/><polygon class="cls-2" points="1253.3 887.39 1528.44 841.37 1182.27 885.9 1253.3 887.39"/><polygon class="cls-4" points="1028.93 1078.91 1071.39 986.02 1073.35 945.52 1095.88 968.06 1082.82 1078.91 1028.93 1078.91"/><polygon class="cls-4" points="1137.2 1018.19 1182.27 885.9 1253.3 887.39 1189.61 903.07 1137.2 1018.19"/><polygon class="cls-4" points="1169.53 1078.91 1229.78 943.24 1242.03 950.1 1414.47 910.91 1620.88 854.79 1649.45 872.37 1416.92 914.83 1253.3 957.45 1223.91 992.72 1195.25 1078.91 1169.53 1078.91"/><polygon class="cls-3" points="961.65 1078.91 1006.07 990.59 1073.35 945.52 1095.88 968.06 1124.95 833.83 1468.52 792.68 1531.23 818.15 1573.03 825.34 1649.45 872.37 1673.62 868.45 1748.08 896.54 1782.05 942.91 1919 982.1 1919 1078.91 961.65 1078.91"/><polygon class="cls-3" points="1338.17 856.97 1766.11 1078.91 1915.75 1078.91 1404.67 856.97 1338.17 856.97"/><polygon class="cls-3" points="1454.82 857.92 1919 1078.91 1919 1042.99 1482.69 858.6 1454.82 857.92"/><polyline class="cls-3" points="1124.95 833.83 1182.27 885.9 1189.61 903.07 1229.78 943.24 1253.3 957.45 1223.91 992.72 1262.77 1018.19"/><polyline class="cls-3" points="1145.2 1078.91 1207.95 921.4 1379.14 887.39"/><line class="cls-3" x1="987.53" y1="1078.91" x2="1023.29" y2="1007.81"/><line class="cls-3" x1="1247.21" y1="1007.99" x2="1530.3" y2="926.01"/><path class="cls-5" d="M1462.28,585.63l20.41,244.07h-32l-38.86-222.49-4.58,222.49h-35.59l-22.54-231.88,5.47-36.08s17.07,21.71,66.71,28.08L1437,544l12.74,44.09Z"/><path class="cls-3" d="M1462.28,585.63l20.41,244.07h-32l-38.86-222.49-4.58,222.49h-35.59l-22.54-231.88,5.47-36.08s17.07,21.71,66.71,28.08L1437,544l12.74,44.09Z"/><polygon class="cls-5" points="1457.05 588.11 1462.4 587.05 1462.28 585.63 1456.65 586.74 1457.05 588.11"/><polygon class="cls-3" points="1457.05 588.11 1462.4 587.05 1462.28 585.63 1456.65 586.74 1457.05 588.11"/><path class="cls-5" d="M1428.64,589.82l11.69-34.16L1437,544l-15.32,44.76C1423.91,589.15,1426.22,589.51,1428.64,589.82Z"/><path class="cls-3" d="M1428.64,589.82l11.69-34.16L1437,544l-15.32,44.76C1423.91,589.15,1426.22,589.51,1428.64,589.82Z"/><path class="cls-2" d="M1361,567.74a41.49,41.49,0,0,1-6.44-6l-5.47,36.08,22.54,231.88H1379L1367,706l32.17-.47-32.94-7.47-9.74-100.27Z"/><path class="cls-3" d="M1361,567.74a41.49,41.49,0,0,1-6.44-6l-5.47,36.08,22.54,231.88H1379L1367,706l32.17-.47-32.94-7.47-9.74-100.27Z"/><polygon class="cls-2" points="1411.82 607.21 1450.68 829.7 1458.03 829.7 1436.75 707.9 1462.4 705.33 1434.63 698.7 1419.16 607.21 1411.82 607.21"/><polygon class="cls-3" points="1411.82 607.21 1450.68 829.7 1458.03 829.7 1436.75 707.9 1462.4 705.33 1434.63 698.7 1419.16 607.21 1411.82 607.21"/><line class="cls-3" x1="1432.55" y1="607.21" x2="1383.57" y2="607.21"/><path class="cls-6" d="M1377,323.16l-2.81,35.52a11,11,0,0,0,10.93,11.83h6.91v16.17h30.21V320.55h-43.11Z"/><polygon class="cls-6" points="1334.58 526.63 1341.11 573.98 1349.11 597.82 1354.59 561.74 1359.07 526.63 1334.58 526.63"/><polygon class="cls-6" points="1487.76 537.37 1462.28 585.63 1455.9 564.35 1466.36 530.54 1487.76 537.37"/><path class="cls-5" d="M1422.43,369s26.62-36.41,13.23-55.84c-11.93-17.31-37.4-10.94-37.4-10.94-10.78,2.45-21.23-3.43-21.23-3.43-8.16,10.29,0,24.33,0,24.33l.15-.15a6.77,6.77,0,0,1,4.77-2h3.12a2.25,2.25,0,0,1,2.25,2.25v4.53a6.06,6.06,0,0,0,1.79,4.31L1391,334v13.63h0a2.53,2.53,0,0,0,2.53-2.53v-4.41a3.67,3.67,0,0,1,3.67-3.67h0a3.67,3.67,0,0,1,3.67,3.67v3.75a26.72,26.72,0,0,0,6.63,17.61l1.92,2.19a13.72,13.72,0,0,0,9.83,4.67Z"/><path class="cls-3" d="M1422.43,369s26.62-36.41,13.23-55.84c-11.93-17.31-37.4-10.94-37.4-10.94-10.78,2.45-21.23-3.43-21.23-3.43-8.16,10.29,0,24.33,0,24.33l.15-.15a6.77,6.77,0,0,1,4.77-2h3.12a2.25,2.25,0,0,1,2.25,2.25v4.53a6.06,6.06,0,0,0,1.79,4.31L1391,334v13.63h0a2.53,2.53,0,0,0,2.53-2.53v-4.41a3.67,3.67,0,0,1,3.67-3.67h0a3.67,3.67,0,0,1,3.67,3.67v3.75a26.72,26.72,0,0,0,6.63,17.61l1.92,2.19a13.72,13.72,0,0,0,9.83,4.67Z"/><path class="cls-2" d="M1381.44,303.23s10.45,5.88,21.23,3.43c0,0,19.17-4.78,32,5.26-12.28-15.69-36.45-9.66-36.45-9.66-10.78,2.45-21.23-3.43-21.23-3.43-8.16,10.29,0,24.33,0,24.33l1.86-1.86C1377.45,316.29,1376.75,309.14,1381.44,303.23Z"/><path class="cls-3" d="M1381.44,303.23s10.45,5.88,21.23,3.43c0,0,19.17-4.78,32,5.26-12.28-15.69-36.45-9.66-36.45-9.66-10.78,2.45-21.23-3.43-21.23-3.43-8.16,10.29,0,24.33,0,24.33l1.86-1.86C1377.45,316.29,1376.75,309.14,1381.44,303.23Z"/><path class="cls-7" d="M1361.62,395.05l26.11-8.37,1.16-3.42a8.53,8.53,0,0,1,6.9-5.72l22.8-3.22a13.22,13.22,0,0,1,13.44,6.77l1.18,2.16,38,24.33-13.72,99.94v21.31L1482,581.74l-32.33,6.37L1437,544l-15.67,45.8s-53.16-2.69-67.61-29.64l13-30.13,1.23-42.37-6.12,38.94h-30.13L1345.92,414A22.87,22.87,0,0,1,1361.62,395.05Z"/><path class="cls-3" d="M1361.62,395.05l26.11-8.37,1.16-3.42a8.53,8.53,0,0,1,6.9-5.72l22.8-3.22a13.22,13.22,0,0,1,13.44,6.77l1.18,2.16,38,24.33-13.72,99.94v21.31L1482,581.74l-32.33,6.37L1437,544l-15.67,45.8s-53.16-2.69-67.61-29.64l13-30.13,1.23-42.37-6.12,38.94h-30.13L1345.92,414A22.87,22.87,0,0,1,1361.62,395.05Z"/><path class="cls-2" d="M1482,581.74l-.06-.13-13.47-.18A22.92,22.92,0,0,1,1448,568l-11-24,12.74,44.09Z"/><path class="cls-2" d="M1404.11,576c-15.24-2.81-36.7-9.09-47.41-22.82l-3,7c14.45,27,67.61,29.64,67.61,29.64L1437,544l-8.94,19.5A21.94,21.94,0,0,1,1404.11,576Z"/><polygon class="cls-2" points="1367.48 490.3 1361.77 515 1333.11 515 1331.64 526.63 1361.77 526.63 1367.48 490.3"/><path class="cls-2" d="M1369.21,395.05l26.11-8.37,1.16-3.42a8.54,8.54,0,0,1,6.9-5.72l20.47-2.89a13.24,13.24,0,0,0-5.26-.33l-22.8,3.22a8.53,8.53,0,0,0-6.9,5.72l-1.16,3.42-26.11,8.37a22.87,22.87,0,0,0-15.7,18.9l-14.28,112.67h7.59L1353.51,414A22.87,22.87,0,0,1,1369.21,395.05Z"/><path class="cls-7" d="M1471.26,407.58l1.52.81a11.24,11.24,0,0,1,5.53,6.87L1502,499.08a12,12,0,0,1-.48,7.9l-12.83,30.67-25.07-7.92,8.25-28.49L1461,482.05Z"/><path class="cls-3" d="M1471.26,407.58l1.52.81a11.24,11.24,0,0,1,5.53,6.87L1502,499.08a12,12,0,0,1-.48,7.9l-12.83,30.67-25.07-7.92,8.25-28.49L1461,482.05Z"/><polygon class="cls-2" points="1462.84 468.87 1478.06 499.47 1468.56 530.95 1463.58 529.73 1471.83 501.24 1461.04 482.05 1462.84 468.87"/><path class="cls-3" d="M1471.26,407.58l1.52.81a11.24,11.24,0,0,1,5.53,6.87L1502,499.08a12,12,0,0,1-.48,7.9l-12.83,30.67-25.07-7.92,8.25-28.49L1461,482.05Z"/><path class="cls-7" d="M1405.61,829.7V856a.94.94,0,0,1-.94.94h-66.5v-3.18a14.62,14.62,0,0,1,14.61-14.62h10.54l8.33-9.47Z"/><path class="cls-3" d="M1405.61,829.7V856a.94.94,0,0,1-.94.94h-66.5v-3.18a14.62,14.62,0,0,1,14.61-14.62h10.54l8.33-9.47Z"/><path class="cls-7" d="M1405.61,829.7V856a.94.94,0,0,1-.94.94h-66.5v-3.18a14.62,14.62,0,0,1,14.61-14.62h10.54l8.33-9.47Z"/><path class="cls-3" d="M1405.61,829.7V856a.94.94,0,0,1-.94.94h-66.5v-3.18a14.62,14.62,0,0,1,14.61-14.62h10.54l8.33-9.47Z"/><line class="cls-3" x1="1338.59" y1="850.3" x2="1405.61" y2="850.3"/><path class="cls-7" d="M1453.13,829.7,1452,852.79a5.53,5.53,0,0,0,5.53,5.81H1481a5.82,5.82,0,0,0,5.65-7.23l-5.38-21.67Z"/><path class="cls-3" d="M1453.13,829.7,1452,852.79a5.53,5.53,0,0,0,5.53,5.81H1481a5.82,5.82,0,0,0,5.65-7.23l-5.38-21.67Z"/><line class="cls-8" x1="1452.08" y1="850.3" x2="1474.32" y2="850.3"/><line class="cls-6" x1="1332.78" y1="517.62" x2="1355.32" y2="517.62"/><line class="cls-6" x1="1492.5" y1="528.43" x2="1468.97" y2="521.56"/><path class="cls-3" d="M1436.64,537.65V436.12a66.45,66.45,0,0,0-1.52-14.13l-6.65-30.57"/><line class="cls-6" x1="1387.73" y1="386.68" x2="1433.21" y2="383.25"/><path class="cls-3" d="M1367.89,487.68,1378,438.92a21.44,21.44,0,0,0-2.5-15.17h0"/><path class="cls-6" d="M1391.32,356.88h1.47a6.2,6.2,0,0,0,5.74-3.86l2.46-6"/><path class="cls-3" d="M1361.62,395.05l26.11-8.37,1.16-3.42a8.53,8.53,0,0,1,6.9-5.72l22.8-3.22a13.22,13.22,0,0,1,13.44,6.77l1.18,2.16,38,24.33-13.72,99.94v21.31L1482,581.74l-32.33,6.37L1437,544l-15.67,45.8s-53.16-2.69-67.61-29.64l13-30.13,1.23-42.37-6.12,38.94h-30.13L1345.92,414A22.87,22.87,0,0,1,1361.62,395.05Z"/></g></svg>