<svg xmlns="http://www.w3.org/2000/svg" viewBox="0 0 3840 1080"><defs><style>.cls-1{fill:none;stroke:#041323;stroke-linecap:round;stroke-linejoin:round;}</style></defs><g id="Layer_4" data-name="Layer 4"><path class="cls-1" d="M363,521l281.29-1.26-28.22-2.56a74.17,74.17,0,0,1-29.36-9.35,32.88,32.88,0,0,0-12.49-4c-13.86-1.5-1.12,11-1.12,11s-12.52-9.81-18.78-8.57-10.06-15-32-17.57-4.25,15.37-4.25,15.37-12.58-7.36-32.18-8.15c-5.22-.2-9.39-47.08-48.73-46.66s-8.27,44.34-8.27,44.34-22.67-10.46-32-3.28c-6.93,5.36,1.78,17.08,1.78,17.08S381.31,484,363,484.68"/><path class="cls-1" d="M0,297.17l196.27-.88-33.68-3.07a24.06,24.06,0,0,0-15.21-8.05c-9.67-1.05-.78,7.64-.78,7.64s-8.74-6.85-13.1-6-7-10.46-22.31-12.27-3,10.73-3,10.73-8.78-5.13-22.46-5.68c-3.64-.15-6.55-32.86-34-32.56S46,278,46,278s-15.81-7.29-22.3-2.28C18.87,279.43,25,287.62,25,287.62S12.79,271.35,0,271.86"/><path class="cls-1" d="M1402.11,400.29l-380.7-1.7,65.34-5.95s10.74-13.6,29.5-15.62,1.51,14.82,1.51,14.82,16.94-13.28,25.41-11.6,13.61-20.29,43.26-23.79,5.75,20.8,5.75,20.8,17-9.95,43.56-11c7.06-.28,12.71-63.73,66-63.15s11.19,60,11.19,60,30.68-14.15,43.26-4.43c9.38,7.25-2.42,23.12-2.42,23.12s23.58-31.56,48.39-30.57"/><path class="cls-1" d="M1011.89,205.84l-174.11-.78,17.46-1.59a45.78,45.78,0,0,0,18.18-5.78,20.23,20.23,0,0,1,7.73-2.49c8.58-.93.69,6.77.69,6.77s7.75-6.07,11.62-5.3,6.23-9.28,19.79-10.88,2.63,9.51,2.63,9.51,7.78-4.55,19.92-5c3.23-.13,5.81-29.14,30.16-28.88s5.12,27.44,5.12,27.44,14-6.47,19.78-2c4.29,3.31-1.1,10.57-1.1,10.57s10.78-14.43,22.13-14"/><path class="cls-1" d="M2281.47,521l281.29-1.26-28.22-2.56a74.17,74.17,0,0,1-29.36-9.35,32.88,32.88,0,0,0-12.49-4c-13.86-1.5-1.12,11-1.12,11s-12.52-9.81-18.78-8.57-10.05-15-32-17.57-4.25,15.37-4.25,15.37-12.57-7.36-32.18-8.15c-5.22-.2-9.39-47.08-48.73-46.66s-8.27,44.34-8.27,44.34-22.67-10.46-32-3.28c-6.93,5.36,1.78,17.08,1.78,17.08s-17.42-23.31-35.75-22.58"/><path class="cls-1" d="M1918.49,297.17l196.27-.88-33.68-3.07a24.06,24.06,0,0,0-15.21-8.05c-9.67-1.05-.78,7.64-.78,7.64s-8.73-6.85-13.1-6-7-10.46-22.3-12.27-3,10.73-3,10.73-8.77-5.13-22.46-5.68c-3.64-.15-6.55-32.86-34-32.56s-5.77,30.93-5.77,30.93-15.81-7.29-22.3-2.28c-4.83,3.73,1.25,11.92,1.25,11.92s-12.16-16.27-25-15.76"/><path class="cls-1" d="M3320.6,400.29l-380.7-1.7,65.34-5.95S3016,379,3034.74,377s1.51,14.82,1.51,14.82,16.94-13.28,25.41-11.6,13.61-20.29,43.26-23.79,5.75,20.8,5.75,20.8,17-9.95,43.56-11c7.06-.28,12.71-63.73,65.95-63.15s11.19,60,11.19,60,30.68-14.15,43.26-4.43c9.38,7.25-2.42,23.12-2.42,23.12s23.58-31.56,48.39-30.57"/><path class="cls-1" d="M2930.38,205.84l-174.11-.78,17.46-1.59a45.78,45.78,0,0,0,18.18-5.78,20.23,20.23,0,0,1,7.73-2.49c8.58-.93.69,6.77.69,6.77s7.75-6.07,11.62-5.3,6.23-9.28,19.79-10.88,2.63,9.51,2.63,9.51,7.78-4.55,19.92-5c3.23-.13,5.81-29.14,30.16-28.88s5.12,27.44,5.12,27.44,14-6.47,19.79-2c4.28,3.31-1.11,10.57-1.11,10.57s10.78-14.43,22.13-14"/></g></svg>