<svg xmlns="http://www.w3.org/2000/svg" viewBox="0 0 1920 1080"><defs><style>.cls-1{fill:#4a90ee;}.cls-2{fill:none;stroke:#041323;stroke-linecap:round;stroke-linejoin:round;}</style></defs><g id="Layer_6" data-name="Layer 6"><path class="cls-1" d="M1920,1081.05H0V920.13c153.75-29.45,314.44,30.67,475.87,57.65,178.84,29.9,406.35-132.88,481.53-148.85s164,88.8,207.66,45.1,89.27-30.07,140-98.66,134.37-59.2,186-76.11,78-73.9,190.75-3.43,238.57,55.36,238.57,55.36Z"/><path class="cls-2" d="M1920,1081.05H0V920.13c153.75-29.45,314.44,30.67,475.87,57.65,178.84,29.9,406.35-132.88,481.53-148.85s164,88.8,207.66,45.1,89.27-30.07,140-98.66,134.37-59.2,186-76.11,78-73.9,190.75-3.43,238.57,55.36,238.57,55.36Z"/></g></svg>