<svg xmlns="http://www.w3.org/2000/svg" viewBox="0 0 488.33 630.04"><defs><style>.cls-1{fill:#b57aef;}.cls-1,.cls-2,.cls-3,.cls-5,.cls-7,.cls-9{stroke:#041323;stroke-linecap:round;stroke-linejoin:round;}.cls-1,.cls-2,.cls-3,.cls-5{stroke-width:1.2px;}.cls-2,.cls-6,.cls-9{fill:#fff;}.cls-3,.cls-4{fill:#041323;}.cls-5,.cls-7{fill:none;}.cls-7{stroke-width:1.39px;}.cls-8{fill:#4a90ee;}</style></defs><g id="Layer_2" data-name="Layer 2"><g id="Layer_2-2" data-name="Layer 2"><path class="cls-1" d="M235.08,446.66V579.78L96.51,599.25V466.13Z"/><polygon class="cls-2" points="96.51 599.25 63.76 571.11 63.76 437.99 96.51 466.13 96.51 599.25"/><polygon class="cls-2" points="235.08 446.66 202.33 418.51 63.76 437.99 96.51 466.13 235.08 446.66"/><path class="cls-2" d="M357.17,70.45l12.29-1.73S327.07,31.54,322.22,28Q273.17-7.5,190.66,4.08q-61.51,8.65-105.1,37t-65,69.86a176.07,176.07,0,0,0-19.85,88l32.74,28.15,3.29-33.21L126,181.32q0-25.69,16-44.67t44-22.92q24.9-3.49,39.7,9.21t14.79,39.18q0,41.28-31.14,61.6c-11,7.16-25.62,13-41.3,17.72A137.66,137.66,0,0,0,70,373.23v40.95h0l32.75,28.14V409.57l92.59-13V327.28q80.17-12.82,128.06-61.6T371.26,143Q371.26,100.39,357.17,70.45Z"/><path class="cls-1" d="M355,56.17q49,35.53,49,114.94,0,74-47.88,122.72Q326.94,323.58,285.72,340a91.23,91.23,0,0,0-57.65,84.76h0L102.74,442.32V379.94a109.55,109.55,0,0,1,83-106.23c21.15-5.3,41.94-12.43,56.37-21.85q31.12-20.33,31.14-61.59,0-26.46-14.8-39.18t-39.7-9.22q-28,3.94-44,22.92t-16,44.67L33.45,227.08A176.19,176.19,0,0,1,53.3,139q21.4-41.53,65-69.85t105.09-37Q305.92,20.64,355,56.17Z"/><path class="cls-3" d="M382.33,291.13l19.94,134.28A160.89,160.89,0,0,1,404,449h0a33.57,33.57,0,0,1-12.12,25.83l-97.13,80.67L271.81,524.3l88-77.37-20.49-75.3,5.41-83.12Z"/><polygon class="cls-2" points="278.61 524.3 366.61 446.93 341.1 355.7 339.31 371.63 359.8 446.93 271.81 524.3 294.76 555.52 298.99 552.01 278.61 524.3"/><path class="cls-3" d="M293.91,285l-6.48,30.23a101.48,101.48,0,0,0-1.94,29.09l19.05,245.05,36.56-6V354.68l3.62-66.17Z"/><path class="cls-2" d="M285.49,344.29l10.65,137.07,2-150.19-10.95-14.75A101.38,101.38,0,0,0,285.49,344.29Z"/><polygon class="cls-2" points="301.92 294.8 382.33 291.13 297.48 287.57 301.92 294.8"/><polygon class="cls-2" points="309.73 595.86 309.73 587.88 337.36 583.39 337.36 589.34 339.06 592.46 323.23 605.92 309.73 605.92 309.73 595.86"/><polygon class="cls-2" points="270.39 531.81 275.23 528.96 290.98 550.39 282.36 559.58 281.87 563.12 265.14 560.08 265.14 532.7 270.39 531.81"/><path class="cls-3" d="M270.39,531.81l-.86,18.05a11.88,11.88,0,0,0,3.94,9.45h0a12,12,0,0,0,4.28,2.47l4.12,1.34-3.55,24.23,4.91,22.3a9.18,9.18,0,0,1-2.64,8.62l-3.12,3-18.84-35.57-5-22.53h-6.24L243,536.48Z"/><path class="cls-4" d="M336.84,44.66s4.66-15.32,20-10.31,26.7,11.35,35.52,8.78c0,0,7.74,13.17-1.6,18.1,0,0,.21,19.72-10.54,24.8a65.93,65.93,0,0,0,2.41-17.35,5.42,5.42,0,0,0-4.3-5.36l-26.95-5.85a5.44,5.44,0,0,0-5.5,2.05l-10.6,14-3.22,12-8.49-11.81S312,46.67,336.84,44.66Z"/><path class="cls-5" d="M336.84,44.66s4.66-15.32,20-10.31,26.7,11.35,35.52,8.78c0,0,7.74,13.17-1.6,18.1,0,0,.21,19.72-10.54,24.8a65.93,65.93,0,0,0,2.41-17.35,5.42,5.42,0,0,0-4.3-5.36l-26.95-5.85a5.44,5.44,0,0,0-5.5,2.05l-10.6,14-3.22,12-8.49-11.81S312,46.67,336.84,44.66Z"/><path class="cls-6" d="M382.61,68.68A65.93,65.93,0,0,1,380.2,86a12.89,12.89,0,0,0,4.32-3.38A33.8,33.8,0,0,0,382.61,68.68Z"/><path class="cls-7" d="M382.61,68.68A65.93,65.93,0,0,1,380.2,86a12.89,12.89,0,0,0,4.32-3.38A33.8,33.8,0,0,0,382.61,68.68Z"/><path class="cls-6" d="M336.84,50.71s4.66-15.32,20-10.31,26.7,11.35,35.52,8.78A26.21,26.21,0,0,1,395,56.12c1.6-5.75-2.64-13-2.64-13-8.82,2.57-20.21-3.77-35.52-8.78s-20,10.31-20,10.31c-14.77,1.2-16.67,11.26-15.78,19.21C321.87,57.58,325.68,51.62,336.84,50.71Z"/><path class="cls-5" d="M336.84,50.71s4.66-15.32,20-10.31,26.7,11.35,35.52,8.78A26.21,26.21,0,0,1,395,56.12c1.6-5.75-2.64-13-2.64-13-8.82,2.57-20.21-3.77-35.52-8.78s-20,10.31-20,10.31c-14.77,1.2-16.67,11.26-15.78,19.21C321.87,57.58,325.68,51.62,336.84,50.71Z"/><path class="cls-8" d="M316.65,126.78l-40.94,22.86a20.81,20.81,0,0,0-9.86,12.45l-23.61,82.8a23.8,23.8,0,0,0-.92,6.66h0a23.94,23.94,0,0,0,4.09,13.29l11.94,17.69s13.22-16.66,31.42-10.44l-10.93-23.2,8.48-24,5.57,41.24.05,10.66,2.83,10.65,87.56,3.68,4.39-19.76-6.63-25.85,14.16-91-29.62-20.77"/><path class="cls-5" d="M316.65,126.78l-40.94,22.86a20.81,20.81,0,0,0-9.86,12.45l-23.61,82.8a23.8,23.8,0,0,0-.92,6.66h0a23.94,23.94,0,0,0,4.09,13.29l11.94,17.69s13.22-16.66,31.42-10.44l-10.93-23.2,8.48-24,5.57,41.24.05,10.66,2.83,10.65,87.56,3.68,4.39-19.76-6.63-25.85,14.16-91-29.62-20.77"/><path class="cls-6" d="M249.48,266.09a23.91,23.91,0,0,1-4.09-13.29h0a23.85,23.85,0,0,1,.92-6.66l23.61-82.8a20.81,20.81,0,0,1,9.86-12.45L320.71,128l45.1,6.59-1.18-.83-48-7-40.94,22.86a20.81,20.81,0,0,0-9.86,12.45l-23.61,82.8a23.93,23.93,0,0,0,3.17,19.95l11.94,17.69a27.43,27.43,0,0,1,1.85-2Z"/><path class="cls-5" d="M316.65,126.78l-40.94,22.86a20.81,20.81,0,0,0-9.86,12.45l-23.61,82.8a23.8,23.8,0,0,0-.92,6.66h0a23.94,23.94,0,0,0,4.09,13.29l11.94,17.69s13.22-16.66,31.42-10.44l-10.93-23.2,8.48-24,5.57,41.24.05,10.66,2.83,10.65,87.56,3.68,4.39-19.76-6.63-25.85,14.16-91-29.62-20.77"/><line class="cls-2" x1="286.32" y1="224.9" x2="297.56" y2="194.33"/><path class="cls-2" d="M260,279.81l38.1,51.36,8.28-29.05-18.64-30.34S273.05,266.71,260,279.81Z"/><path class="cls-8" d="M394.25,154.56l2.52,1.84a9.59,9.59,0,0,1,3.86,6.53l12.06,94.89a20,20,0,0,1-.58,7.89l-3.23,11.51s-6.9-9.76-22.16-5.85l-5.66-32Z"/><path class="cls-5" d="M394.25,154.56l2.52,1.84a9.59,9.59,0,0,1,3.86,6.53l12.06,94.89a20,20,0,0,1-.58,7.89l-3.23,11.51s-6.9-9.76-22.16-5.85l-5.66-32Z"/><path class="cls-6" d="M412.69,257.82l-12.06-94.89a9.59,9.59,0,0,0-3.86-6.53l-2.52-1.84-.66,4.25a9.62,9.62,0,0,1,1.56,4.12l12.06,94.89a20,20,0,0,1-.58,7.89l-2.15,7.68a16,16,0,0,1,4.4,3.83l3.23-11.51A20,20,0,0,0,412.69,257.82Z"/><path class="cls-7" d="M394.25,154.56l2.52,1.84a9.59,9.59,0,0,1,3.86,6.53l12.06,94.89a20,20,0,0,1-.58,7.89l-3.23,11.51s-6.9-9.76-22.16-5.85l-5.66-32Z"/><path class="cls-2" d="M408.88,277.22,387.66,327l-5.33-35.89,4.39-19.76S398.53,266.78,408.88,277.22Z"/><polyline class="cls-5" points="349.16 286.94 355.74 266.47 350.31 152.4"/><path class="cls-2" d="M324.65,117.07l3.12-5.83,1.83-16.82s-8.94.7-10.79-9.49c-2.54-14,13.17-15.06,13.21-4.48l0,5.07,3.22-12,10.28-13.63a6.28,6.28,0,0,1,6.34-2.35l25.78,5.6a6.26,6.26,0,0,1,4.94,6.37,88.37,88.37,0,0,1-4.32,23.28c-5.44,17-12.53,25.92-19.95,28.05v2.44L348,135.63Z"/><path class="cls-2" d="M329.6,94.42h0a22.56,22.56,0,0,0,4.56,13.51l3.17,4.18a22.53,22.53,0,0,0,18.07,9h2.93"/><polygon class="cls-4" points="328.38 105.63 325.78 93.84 329.89 93.82 328.38 105.63"/><polygon class="cls-5" points="328.38 105.63 325.78 93.84 329.89 93.82 328.38 105.63"/><path class="cls-2" d="M376.54,84.37l-.61-.8A6.94,6.94,0,0,0,372.06,81l-3.44-.84a6.81,6.81,0,0,0-3.11,0l-.71.16"/><circle class="cls-4" cx="368.79" cy="86.06" r="1.68"/><circle class="cls-5" cx="368.79" cy="86.06" r="1.68"/><path class="cls-2" d="M342.13,75.92l1-.46a6.75,6.75,0,0,1,4.49-.45l3.54.87a6.55,6.55,0,0,1,2.7,1.38l.58.5"/><circle class="cls-4" cx="348.21" cy="81.01" r="1.68"/><circle class="cls-5" cx="348.21" cy="81.01" r="1.68"/><path class="cls-2" d="M361.31,82.5s-1.65,7.23-.79,10.56-1.29,5-4.36,5.74"/><line class="cls-2" x1="353.45" y1="97.19" x2="352.12" y2="96.86"/><path class="cls-9" d="M364.54,105.92s-5.12,3.43-10.66,2.45c-7.4-1.31-10.08-6.38-10.08-6.38a70.2,70.2,0,0,0,20.74,3.93"/><polygon class="cls-8" points="348.03 135.63 337.85 154.78 316.64 126.78 324.65 117.07 348.03 135.63"/><polygon class="cls-5" points="348.03 135.63 337.85 154.78 316.64 126.78 324.65 117.07 348.03 135.63"/><polygon class="cls-8" points="348.03 135.63 359.1 151.2 364.63 133.79 358.38 123.32 348.03 135.63"/><polygon class="cls-5" points="348.03 135.63 359.1 151.2 364.63 133.79 358.38 123.32 348.03 135.63"/><path class="cls-3" d="M309.73,595.86l8.48,4.73a10.71,10.71,0,0,0,5.21,1.36h0a10.67,10.67,0,0,0,6.66-2.33l9-7.16,42,25.38a6.23,6.23,0,0,1,3,5.35h0a6.25,6.25,0,0,1-6.25,6.25H356a28.53,28.53,0,0,1-7.69-1.05l-24.85-6.89v2.41H306.9Z"/><polygon class="cls-1" points="430.5 63.81 406.02 79.33 416.24 53.56 430.5 63.81"/><ellipse class="cls-1" cx="443.79" cy="35.35" rx="43.93" ry="34.75"/><circle class="cls-2" cx="463.09" cy="35.35" r="5.31"/><circle class="cls-2" cx="443.79" cy="35.35" r="5.31"/><circle class="cls-2" cx="424.5" cy="35.35" r="5.31"/></g></g></svg>