<svg xmlns="http://www.w3.org/2000/svg" viewBox="0 0 1920 1300.13"><defs><style>.cls-1{fill:#ee9646;}.cls-1,.cls-2,.cls-4,.cls-5,.cls-7,.cls-9{stroke:#041323;stroke-linecap:round;stroke-linejoin:round;}.cls-2{fill:#f6f8fd;}.cls-3,.cls-9{fill:#4a90ee;}.cls-4{fill:none;}.cls-5,.cls-6{fill:#fff;}.cls-7,.cls-8{fill:#041323;}</style></defs><g id="Layer_3" data-name="Layer 3"><circle class="cls-1" cx="1010.22" cy="707.81" r="60.32"/><path class="cls-2" d="M1919.84,1209l.47-354s-135,16.22-256-59.41-149.24-14.47-204.7,3.68-145.21,8.06-199.66,81.68c-44,59.4-69.55,85.19-114.74,88.84-41.16,3.33-78.66-13.62-114-25.61-134.76-45.72-217-113.06-310.43-57.35-153.47,91.55-209.56,36.6-360.09,138.56C132.91,1179.66,0,1180,0,1180v91.58s1095.88,68.46,1919.84-62.64"/><path class="cls-2" d="M.31,1300.12H1358.83V1198c-108.79-20.84-222.49,21.7-336.71,40.79-126.54,21.15-287.52-94-340.71-105.32s-143.34,100.89-246-37.9c-35.9-48.53-95.07-41.89-131.64-53.85s-55.19-52.29-135-2.43S0,1078.49,0,1078.49Z"/><path class="cls-3" d="M1920,1301.18H0V1180c153.75-29.44,314.44,30.67,475.87,57.66,178.84,29.89,406.35-132.88,481.53-148.86s164,88.8,207.66,45.1,89.27-30.06,140-98.66,134.37-59.2,186-76.11,78-73.9,190.75-3.42,238.57,55.35,238.57,55.35Z"/><path class="cls-4" d="M1920,1301.18H0V1180c153.75-29.44,314.44,30.67,475.87,57.66,178.84,29.89,406.35-132.88,481.53-148.86s164,88.8,207.66,45.1,89.27-30.06,140-98.66,134.37-59.2,186-76.11,78-73.9,190.75-3.42,238.57,55.35,238.57,55.35Z"/><path class="cls-5" d="M1297.11,741.08l-281.28-1.26,28.21-2.56a74.21,74.21,0,0,0,29.37-9.35,32.88,32.88,0,0,1,12.49-4c13.86-1.5,1.12,11,1.12,11s12.51-9.81,18.77-8.57,10.06-15,32-17.57,4.24,15.37,4.24,15.37,12.58-7.36,32.19-8.15c5.22-.2,9.39-47.08,48.73-46.66s8.27,44.34,8.27,44.34,22.66-10.46,32-3.28c6.93,5.36-1.79,17.08-1.79,17.08s17.43-23.31,35.75-22.58"/><path class="cls-4" d="M763.73,517.3,960,516.42l-33.69-3.07a24.05,24.05,0,0,0-15.2-8.05c-9.67-1.05-.78,7.64-.78,7.64s-8.74-6.85-13.11-6-7-10.46-22.3-12.27-3,10.73-3,10.73-8.78-5.13-22.46-5.68c-3.64-.15-6.55-32.86-34-32.56s-5.77,30.93-5.77,30.93-15.82-7.29-22.31-2.28c-4.83,3.73,1.25,11.92,1.25,11.92S776.52,491.48,763.73,492"/><polygon class="cls-1" points="961.65 1299.04 1006.07 1210.72 1073.35 1165.65 1095.88 1188.19 1124.95 1053.96 1468.52 1012.81 1531.23 1038.29 1573.03 1045.47 1649.45 1092.5 1673.62 1088.58 1748.08 1116.67 1782.05 1163.04 1919 1202.23 1919 1299.04 961.65 1299.04"/><polygon class="cls-6" points="1023.29 1227.94 1090.57 1182.87 1113.1 1205.41 1142.17 1071.18 1485.74 1030.03 1548.45 1055.5 1590.25 1062.69 1666.67 1109.72 1690.84 1105.8 1758.94 1131.48 1748.08 1116.67 1673.62 1088.58 1649.45 1092.5 1573.03 1045.47 1531.23 1038.29 1468.52 1012.81 1124.95 1053.96 1095.88 1188.19 1073.35 1165.65 1006.07 1210.72 961.65 1299.04 987.53 1299.04 1023.29 1227.94"/><line class="cls-4" x1="1112.43" y1="1299.04" x2="1137.2" y2="1238.32"/><line class="cls-4" x1="1095.88" y1="1300.29" x2="1142.17" y2="1071.18"/><line class="cls-4" x1="1164.18" y1="1089.6" x2="1499.61" y2="1043.83"/><polygon class="cls-6" points="1223.91 1212.85 1649.45 1092.5 1499.26 1114.52 1253.3 1177.58 1223.91 1212.85"/><polygon class="cls-7" points="1239.91 1299.04 1262.77 1238.32 1455.46 1223.13 1725.22 1142.79 1649.45 1142.79 1748.08 1116.67 1782.05 1163.04 1919 1202.23 1919 1299.04 1239.91 1299.04"/><polygon class="cls-6" points="1261.47 1237.02 1469.36 1184.29 1374.13 1201.5 1635.88 1136.38 1723.63 1122.56 1649.45 1142.79 1725.22 1142.79 1455.46 1223.13 1261.47 1237.02"/><polygon class="cls-6" points="1229.78 1163.37 1428.44 1116.67 1612.84 1077.1 1414.47 1131.04 1242.03 1170.23 1229.78 1163.37"/><polygon class="cls-6" points="1253.3 1107.52 1528.44 1061.5 1182.27 1106.04 1253.3 1107.52"/><polygon class="cls-7" points="1028.93 1299.04 1071.39 1206.15 1073.35 1165.65 1095.88 1188.19 1082.82 1299.04 1028.93 1299.04"/><polygon class="cls-7" points="1137.2 1238.32 1182.27 1106.04 1253.3 1107.52 1189.61 1123.2 1137.2 1238.32"/><polygon class="cls-7" points="1169.53 1299.04 1229.78 1163.37 1242.03 1170.23 1414.47 1131.04 1620.88 1074.92 1649.45 1092.5 1416.92 1134.96 1253.3 1177.58 1223.91 1212.85 1195.25 1299.04 1169.53 1299.04"/><polygon class="cls-4" points="961.65 1299.04 1006.07 1210.72 1073.35 1165.65 1095.88 1188.19 1124.95 1053.96 1468.52 1012.81 1531.23 1038.29 1573.03 1045.47 1649.45 1092.5 1673.62 1088.58 1748.08 1116.67 1782.05 1163.04 1919 1202.23 1919 1299.04 961.65 1299.04"/><polygon class="cls-4" points="1338.17 1077.1 1766.11 1299.04 1915.75 1299.04 1404.67 1077.1 1338.17 1077.1"/><polygon class="cls-4" points="1454.82 1078.05 1919 1299.04 1919 1263.12 1482.69 1078.73 1454.82 1078.05"/><polyline class="cls-4" points="1124.95 1053.96 1182.27 1106.04 1189.61 1123.2 1229.78 1163.37 1253.3 1177.58 1223.91 1212.85 1262.77 1238.32"/><polyline class="cls-4" points="1145.2 1299.04 1207.95 1141.54 1379.14 1107.52"/><line class="cls-4" x1="987.53" y1="1299.04" x2="1023.29" y2="1227.94"/><line class="cls-4" x1="1247.21" y1="1228.12" x2="1530.3" y2="1146.14"/><path class="cls-8" d="M1462.28,805.76l20.41,244.07h-32l-38.86-222.49-4.58,222.49h-35.59L1349.11,818l5.47-36.08s17.07,21.71,66.71,28.08l15.67-45.8,12.74,44.09Z"/><path class="cls-4" d="M1462.28,805.76l20.41,244.07h-32l-38.86-222.49-4.58,222.49h-35.59L1349.11,818l5.47-36.08s17.07,21.71,66.71,28.08l15.67-45.8,12.74,44.09Z"/><polygon class="cls-8" points="1457.05 808.24 1462.4 807.18 1462.28 805.76 1456.65 806.87 1457.05 808.24"/><polygon class="cls-4" points="1457.05 808.24 1462.4 807.18 1462.28 805.76 1456.65 806.87 1457.05 808.24"/><path class="cls-8" d="M1428.64,810l11.69-34.16L1437,764.15l-15.32,44.76C1423.91,809.28,1426.22,809.64,1428.64,810Z"/><path class="cls-4" d="M1428.64,810l11.69-34.16L1437,764.15l-15.32,44.76C1423.91,809.28,1426.22,809.64,1428.64,810Z"/><path class="cls-6" d="M1361,787.87a41.49,41.49,0,0,1-6.44-6L1349.11,818l22.54,231.88H1379l-12-123.67,32.17-.47-32.94-7.47L1356.46,818Z"/><path class="cls-4" d="M1361,787.87a41.49,41.49,0,0,1-6.44-6L1349.11,818l22.54,231.88H1379l-12-123.67,32.17-.47-32.94-7.47L1356.46,818Z"/><polygon class="cls-6" points="1411.82 827.34 1450.68 1049.83 1458.03 1049.83 1436.75 928.03 1462.4 925.46 1434.63 918.83 1419.16 827.34 1411.82 827.34"/><polygon class="cls-4" points="1411.82 827.34 1450.68 1049.83 1458.03 1049.83 1436.75 928.03 1462.4 925.46 1434.63 918.83 1419.16 827.34 1411.82 827.34"/><line class="cls-4" x1="1432.55" y1="827.34" x2="1383.57" y2="827.34"/><path class="cls-5" d="M1377,543.29l-2.81,35.52a11,11,0,0,0,10.93,11.83h6.91v16.17h30.21V540.68h-43.11Z"/><polygon class="cls-5" points="1334.58 746.75 1341.11 794.11 1349.11 817.95 1354.59 781.87 1359.07 746.75 1334.58 746.75"/><polygon class="cls-5" points="1487.76 757.5 1462.28 805.76 1455.9 784.48 1466.36 750.67 1487.76 757.5"/><path class="cls-8" d="M1422.43,589.18s26.62-36.42,13.23-55.85c-11.93-17.31-37.4-10.94-37.4-10.94C1387.48,524.84,1377,519,1377,519c-8.16,10.29,0,24.33,0,24.33l.15-.15a6.77,6.77,0,0,1,4.77-2h3.12a2.25,2.25,0,0,1,2.25,2.25V548a6.06,6.06,0,0,0,1.79,4.31l1.89,1.89v13.63h0a2.53,2.53,0,0,0,2.53-2.53v-4.41a3.67,3.67,0,0,1,3.67-3.67h0a3.67,3.67,0,0,1,3.67,3.67v3.75a26.72,26.72,0,0,0,6.63,17.61l1.92,2.19a13.72,13.72,0,0,0,9.83,4.67Z"/><path class="cls-4" d="M1422.43,589.18s26.62-36.42,13.23-55.85c-11.93-17.31-37.4-10.94-37.4-10.94C1387.48,524.84,1377,519,1377,519c-8.16,10.29,0,24.33,0,24.33l.15-.15a6.77,6.77,0,0,1,4.77-2h3.12a2.25,2.25,0,0,1,2.25,2.25V548a6.06,6.06,0,0,0,1.79,4.31l1.89,1.89v13.63h0a2.53,2.53,0,0,0,2.53-2.53v-4.41a3.67,3.67,0,0,1,3.67-3.67h0a3.67,3.67,0,0,1,3.67,3.67v3.75a26.72,26.72,0,0,0,6.63,17.61l1.92,2.19a13.72,13.72,0,0,0,9.83,4.67Z"/><path class="cls-6" d="M1381.44,523.36s10.45,5.88,21.23,3.43c0,0,19.17-4.78,32,5.26-12.28-15.69-36.45-9.66-36.45-9.66C1387.48,524.84,1377,519,1377,519c-8.16,10.29,0,24.33,0,24.33l1.86-1.86C1377.45,536.42,1376.75,529.27,1381.44,523.36Z"/><path class="cls-4" d="M1381.44,523.36s10.45,5.88,21.23,3.43c0,0,19.17-4.78,32,5.26-12.28-15.69-36.45-9.66-36.45-9.66C1387.48,524.84,1377,519,1377,519c-8.16,10.29,0,24.33,0,24.33l1.86-1.86C1377.45,536.42,1376.75,529.27,1381.44,523.36Z"/><path class="cls-3" d="M1361.62,615.18l26.11-8.37,1.16-3.42a8.53,8.53,0,0,1,6.9-5.72l22.8-3.21a13.19,13.19,0,0,1,13.44,6.76l1.18,2.16,38,24.33-13.72,99.94V749L1482,801.87l-32.33,6.37L1437,764.15,1421.29,810s-53.16-2.69-67.61-29.64l13-30.13,1.23-42.37-6.12,39h-30.13l14.28-112.68A22.87,22.87,0,0,1,1361.62,615.18Z"/><path class="cls-4" d="M1361.62,615.18l26.11-8.37,1.16-3.42a8.53,8.53,0,0,1,6.9-5.72l22.8-3.21a13.19,13.19,0,0,1,13.44,6.76l1.18,2.16,38,24.33-13.72,99.94V749L1482,801.87l-32.33,6.37L1437,764.15,1421.29,810s-53.16-2.69-67.61-29.64l13-30.13,1.23-42.37-6.12,39h-30.13l14.28-112.68A22.87,22.87,0,0,1,1361.62,615.18Z"/><path class="cls-6" d="M1482,801.87l-.06-.13-13.47-.18A22.92,22.92,0,0,1,1448,788.17l-11-24,12.74,44.09Z"/><path class="cls-6" d="M1404.11,796.12c-15.24-2.81-36.7-9.09-47.41-22.82l-3,7c14.45,27,67.61,29.64,67.61,29.64l15.67-45.8-8.94,19.5A21.94,21.94,0,0,1,1404.11,796.12Z"/><polygon class="cls-6" points="1367.48 710.43 1361.77 735.13 1333.11 735.13 1331.64 746.75 1361.77 746.75 1367.48 710.43"/><path class="cls-6" d="M1369.21,615.18l26.11-8.37,1.16-3.42a8.54,8.54,0,0,1,6.9-5.72l20.47-2.89a13.06,13.06,0,0,0-5.26-.32l-22.8,3.21a8.53,8.53,0,0,0-6.9,5.72l-1.16,3.42-26.11,8.37a22.87,22.87,0,0,0-15.7,18.9l-14.28,112.68h7.59l14.28-112.68A22.87,22.87,0,0,1,1369.21,615.18Z"/><path class="cls-3" d="M1471.26,627.71l1.52.81a11.24,11.24,0,0,1,5.53,6.87L1502,719.21a12,12,0,0,1-.48,7.9l-12.83,30.67-25.07-7.92,8.25-28.49L1461,702.18Z"/><path class="cls-4" d="M1471.26,627.71l1.52.81a11.24,11.24,0,0,1,5.53,6.87L1502,719.21a12,12,0,0,1-.48,7.9l-12.83,30.67-25.07-7.92,8.25-28.49L1461,702.18Z"/><polygon class="cls-6" points="1462.84 689 1478.06 719.6 1468.56 751.08 1463.58 749.86 1471.83 721.37 1461.04 702.18 1462.84 689"/><path class="cls-4" d="M1471.26,627.71l1.52.81a11.24,11.24,0,0,1,5.53,6.87L1502,719.21a12,12,0,0,1-.48,7.9l-12.83,30.67-25.07-7.92,8.25-28.49L1461,702.18Z"/><path class="cls-3" d="M1405.61,1049.83v26.33a.94.94,0,0,1-.94.94h-66.5v-3.18a14.62,14.62,0,0,1,14.61-14.62h10.54l8.33-9.47Z"/><path class="cls-4" d="M1405.61,1049.83v26.33a.94.94,0,0,1-.94.94h-66.5v-3.18a14.62,14.62,0,0,1,14.61-14.62h10.54l8.33-9.47Z"/><path class="cls-3" d="M1405.61,1049.83v26.33a.94.94,0,0,1-.94.94h-66.5v-3.18a14.62,14.62,0,0,1,14.61-14.62h10.54l8.33-9.47Z"/><path class="cls-4" d="M1405.61,1049.83v26.33a.94.94,0,0,1-.94.94h-66.5v-3.18a14.62,14.62,0,0,1,14.61-14.62h10.54l8.33-9.47Z"/><line class="cls-4" x1="1338.59" y1="1070.43" x2="1405.61" y2="1070.43"/><path class="cls-3" d="M1453.13,1049.83l-1.17,23.09a5.53,5.53,0,0,0,5.53,5.81H1481a5.81,5.81,0,0,0,5.65-7.22l-5.38-21.68Z"/><path class="cls-4" d="M1453.13,1049.83l-1.17,23.09a5.53,5.53,0,0,0,5.53,5.81H1481a5.81,5.81,0,0,0,5.65-7.22l-5.38-21.68Z"/><line class="cls-9" x1="1452.08" y1="1070.43" x2="1474.32" y2="1070.43"/><line class="cls-5" x1="1332.78" y1="737.75" x2="1355.32" y2="737.75"/><line class="cls-5" x1="1492.5" y1="748.56" x2="1468.97" y2="741.69"/><path class="cls-4" d="M1436.64,757.78V656.25a66.45,66.45,0,0,0-1.52-14.13l-6.65-30.57"/><line class="cls-5" x1="1387.73" y1="606.81" x2="1433.21" y2="603.38"/><path class="cls-4" d="M1367.89,707.81,1378,659.05a21.44,21.44,0,0,0-2.5-15.17h0"/><path class="cls-5" d="M1391.32,577h1.47a6.2,6.2,0,0,0,5.74-3.86l2.46-6"/><path class="cls-4" d="M1361.62,615.18l26.11-8.37,1.16-3.42a8.53,8.53,0,0,1,6.9-5.72l22.8-3.21a13.19,13.19,0,0,1,13.44,6.76l1.18,2.16,38,24.33-13.72,99.94V749L1482,801.87l-32.33,6.37L1437,764.15,1421.29,810s-53.16-2.69-67.61-29.64l13-30.13,1.23-42.37-6.12,39h-30.13l14.28-112.68A22.87,22.87,0,0,1,1361.62,615.18Z"/><path class="cls-4" d="M1919.66,620.42l-380.7-1.7,65.34-5.94s10.74-13.61,29.5-15.63,1.51,14.82,1.51,14.82,16.94-13.28,25.41-11.6,13.62-20.29,43.26-23.79,5.75,20.81,5.75,20.81,17-10,43.56-11c7.07-.28,12.71-63.73,66-63.15s11.2,60,11.2,60,30.67-14.15,43.26-4.43c9.37,7.25-2.42,23.12-2.42,23.12s23.58-31.56,48.38-30.57"/></g></svg>