<?xml version="1.0" encoding="UTF-8"?>
<svg id="Illustrtions" xmlns="http://www.w3.org/2000/svg" viewBox="0 0 1920 1080">
  <defs>
    <style>
      .cls-1, .cls-2 {
        fill: #041323;
      }

      .cls-3, .cls-4 {
        fill: #4a90ee;
      }

      .cls-5 {
        fill: none;
      }

      .cls-5, .cls-4, .cls-6, .cls-7, .cls-8, .cls-2 {
        stroke: #041323;
        stroke-linecap: round;
        stroke-linejoin: round;
      }

      .cls-9, .cls-6 {
        fill: #fff;
      }

      .cls-7 {
        fill: #f6f8fd;
      }

      .cls-8 {
        fill: #ee9646;
      }
    </style>
  </defs>
  <circle class="cls-8" cx="1010.22" cy="487.68" r="60.32"/>
  <g>
    <path class="cls-7" d="M1919.84,949.06l.47-353.99s-135.01,16.23-256.01-59.4c-121-75.63-149.24-14.48-204.7,3.67-55.46,18.15-145.21,8.07-199.66,81.68-43.95,59.41-69.55,85.2-114.74,88.85-41.16,3.33-78.65-13.62-113.99-25.61-134.76-45.72-217.03-113.06-310.43-57.35-153.47,91.54-209.56,36.6-360.09,138.56C132.91,919.75,0,920.13,0,920.13v91.58s1095.88,68.45,1919.84-62.65"/>
    <path class="cls-7" d="M.31,1051.98h1358.52s0-113.86,0-113.86c-108.78-20.84-222.49,21.7-336.71,40.79-126.54,21.15-287.52-94.02-340.71-105.32-53.19-11.3-143.34,100.89-246-37.9-35.9-48.54-95.08-41.89-131.64-53.85-36.57-11.97-55.18-52.29-134.97-2.42S0,818.58,0,818.58l.31,233.4Z"/>
    <g>
      <path class="cls-3" d="M1920,1081.05H0v-160.92c153.75-29.45,314.44,30.67,475.87,57.65,178.84,29.89,406.36-132.88,481.53-148.85,75.17-15.97,163.97,88.8,207.66,45.1,43.69-43.69,89.27-30.07,140.01-98.66,50.74-68.59,134.37-59.2,186.05-76.11,51.68-16.91,77.99-73.9,190.75-3.42,112.76,70.47,238.57,55.35,238.57,55.35l-.44,329.87Z"/>
      <path class="cls-5" d="M1920,1081.05H0v-160.92c153.75-29.45,314.44,30.67,475.87,57.65,178.84,29.89,406.36-132.88,481.53-148.85,75.17-15.97,163.97,88.8,207.66,45.1,43.69-43.69,89.27-30.07,140.01-98.66,50.74-68.59,134.37-59.2,186.05-76.11,51.68-16.91,77.99-73.9,190.75-3.42,112.76,70.47,238.57,55.35,238.57,55.35l-.44,329.87Z"/>
    </g>
  </g>
  <path class="cls-6" d="M1297.11,520.95l-281.29-1.26,28.22-2.57c10.35-.94,20.29-4.27,29.37-9.34,3.35-1.87,7.54-3.49,12.49-4.03,13.86-1.5,1.12,10.95,1.12,10.95,0,0,12.52-9.81,18.78-8.57,6.26,1.24,10.06-14.99,31.96-17.58,21.9-2.58,4.25,15.37,4.25,15.37,0,0,12.58-7.36,32.19-8.14,5.22-.21,9.39-47.09,48.73-46.66,39.34.43,8.27,44.33,8.27,44.33,0,0,22.67-10.46,31.96-3.27,6.93,5.35-1.79,17.08-1.79,17.08,0,0,17.42-23.32,35.75-22.59"/>
  <path class="cls-5" d="M763.73,297.17l196.27-.88-33.69-3.07s-5.54-7.01-15.21-8.06c-9.67-1.05-.78,7.64-.78,7.64,0,0-8.73-6.85-13.1-5.98s-7.02-10.46-22.3-12.26c-15.28-1.8-2.96,10.73-2.96,10.73,0,0-8.78-5.13-22.46-5.68-3.64-.15-6.55-32.86-34-32.56-27.45.3-5.77,30.93-5.77,30.93,0,0-15.82-7.3-22.3-2.28-4.83,3.73,1.25,11.92,1.25,11.92,0,0-12.16-16.27-24.95-15.76"/>
  <g>
    <g>
      <polygon class="cls-8" points="961.65 1078.91 1006.07 990.59 1073.35 945.52 1095.88 968.06 1124.95 833.83 1468.52 792.68 1531.23 818.15 1573.03 825.34 1649.45 872.37 1673.62 868.45 1748.08 896.54 1782.05 942.91 1919 982.1 1919 1078.91 961.65 1078.91"/>
      <polygon class="cls-9" points="1023.29 1007.81 1090.57 962.74 1113.1 985.28 1142.17 851.05 1485.74 809.9 1548.45 835.37 1590.25 842.56 1666.67 889.59 1690.84 885.67 1758.94 911.35 1748.08 896.54 1673.62 868.45 1649.45 872.37 1573.03 825.34 1531.23 818.15 1468.52 792.68 1124.95 833.83 1095.88 968.06 1073.35 945.52 1006.07 990.59 961.65 1078.91 987.53 1078.91 1023.29 1007.81"/>
      <line class="cls-5" x1="1112.43" y1="1078.91" x2="1137.2" y2="1018.19"/>
      <line class="cls-5" x1="1095.88" y1="1080.16" x2="1142.17" y2="851.05"/>
      <line class="cls-5" x1="1164.18" y1="869.47" x2="1499.61" y2="823.7"/>
      <polygon class="cls-9" points="1223.91 992.72 1649.45 872.37 1499.26 894.39 1253.3 957.45 1223.91 992.72"/>
      <polygon class="cls-2" points="1239.91 1078.91 1262.77 1018.19 1455.46 1003 1725.22 922.66 1649.45 922.66 1748.08 896.54 1782.05 942.91 1919 982.1 1919 1078.91 1239.91 1078.91"/>
      <polygon class="cls-9" points="1261.47 1016.89 1469.36 964.16 1374.13 981.37 1635.88 916.25 1723.64 902.43 1649.45 922.66 1725.22 922.66 1455.46 1003 1261.47 1016.89"/>
      <polygon class="cls-9" points="1229.78 943.24 1428.45 896.54 1612.84 856.97 1414.47 910.91 1242.03 950.1 1229.78 943.24"/>
      <polygon class="cls-9" points="1253.3 887.39 1528.44 841.37 1182.27 885.91 1253.3 887.39"/>
      <polygon class="cls-2" points="1028.93 1078.91 1071.39 986.02 1073.35 945.52 1095.88 968.06 1082.82 1078.91 1028.93 1078.91"/>
      <polygon class="cls-2" points="1137.2 1018.19 1182.27 885.91 1253.3 887.39 1189.61 903.07 1137.2 1018.19"/>
      <polygon class="cls-2" points="1169.53 1078.91 1229.78 943.24 1242.03 950.1 1414.47 910.91 1620.88 854.79 1649.45 872.37 1416.92 914.83 1253.3 957.45 1223.91 992.72 1195.25 1078.91 1169.53 1078.91"/>
      <polygon class="cls-5" points="961.65 1078.91 1006.07 990.59 1073.35 945.52 1095.88 968.06 1124.95 833.83 1468.52 792.68 1531.23 818.15 1573.03 825.34 1649.45 872.37 1673.62 868.45 1748.08 896.54 1782.05 942.91 1919 982.1 1919 1078.91 961.65 1078.91"/>
      <polygon class="cls-5" points="1338.17 856.97 1766.11 1078.91 1915.75 1078.91 1404.67 856.97 1338.17 856.97"/>
      <polygon class="cls-5" points="1454.82 857.92 1919 1078.91 1919 1042.99 1482.69 858.6 1454.82 857.92"/>
      <polyline class="cls-5" points="1124.95 833.83 1182.27 885.91 1189.61 903.07 1229.78 943.24 1253.3 957.45 1223.91 992.72 1262.77 1018.19"/>
      <polyline class="cls-5" points="1145.2 1078.91 1207.95 921.41 1379.14 887.39"/>
      <line class="cls-5" x1="987.53" y1="1078.91" x2="1023.29" y2="1007.81"/>
      <line class="cls-5" x1="1247.21" y1="1007.99" x2="1530.3" y2="926.01"/>
    </g>
    <g>
      <g>
        <path class="cls-1" d="M1462.28,585.63l20.4,244.07h-32.01l-38.86-222.49-4.57,222.49h-35.6l-22.53-231.88,5.47-36.08s17.06,21.71,66.7,28.08l15.68-45.8,12.74,44.09,12.58-2.48Z"/>
        <path class="cls-5" d="M1462.28,585.63l20.4,244.07h-32.01l-38.86-222.49-4.57,222.49h-35.6l-22.53-231.88,5.47-36.08s17.06,21.71,66.7,28.08l15.68-45.8,12.74,44.09,12.58-2.48Z"/>
      </g>
      <g>
        <g>
          <polygon class="cls-1" points="1457.05 588.11 1462.4 587.05 1462.28 585.63 1456.65 586.74 1457.05 588.11"/>
          <polygon class="cls-5" points="1457.05 588.11 1462.4 587.05 1462.28 585.63 1456.65 586.74 1457.05 588.11"/>
        </g>
        <g>
          <path class="cls-1" d="M1428.64,589.82l11.69-34.16-3.36-11.64-15.32,44.76c2.26.38,4.58.73,6.99,1.04Z"/>
          <path class="cls-5" d="M1428.64,589.82l11.69-34.16-3.36-11.64-15.32,44.76c2.26.38,4.58.73,6.99,1.04Z"/>
        </g>
        <g>
          <path class="cls-9" d="M1361.02,567.74c-4.48-3.52-6.44-6-6.44-6l-5.47,36.08,22.53,231.88h7.35l-12.02-123.67,32.17-.47-32.94-7.47-9.74-100.27,4.56-30.08Z"/>
          <path class="cls-5" d="M1361.02,567.74c-4.48-3.52-6.44-6-6.44-6l-5.47,36.08,22.53,231.88h7.35l-12.02-123.67,32.17-.47-32.94-7.47-9.74-100.27,4.56-30.08Z"/>
        </g>
        <g>
          <polygon class="cls-9" points="1411.82 607.21 1450.68 829.7 1458.03 829.7 1436.75 707.9 1462.4 705.33 1434.62 698.7 1419.16 607.21 1411.82 607.21"/>
          <polygon class="cls-5" points="1411.82 607.21 1450.68 829.7 1458.03 829.7 1436.75 707.9 1462.4 705.33 1434.62 698.7 1419.16 607.21 1411.82 607.21"/>
        </g>
      </g>
      <line class="cls-5" x1="1432.55" y1="607.21" x2="1383.57" y2="607.21"/>
      <path class="cls-6" d="M1377.03,323.16l-2.82,35.52c-.51,6.38,4.54,11.84,10.94,11.84h6.9v16.17h30.21v-66.13h-43.11l-2.12,2.61Z"/>
      <polygon class="cls-6" points="1334.58 526.62 1341.11 573.98 1349.11 597.82 1354.58 561.74 1359.07 526.62 1334.58 526.62"/>
      <polygon class="cls-6" points="1487.76 537.36 1462.28 585.63 1455.91 564.35 1466.36 530.54 1487.76 537.36"/>
      <g>
        <path class="cls-1" d="M1422.43,369.04s26.62-36.41,13.23-55.85c-11.92-17.31-37.39-10.94-37.39-10.94-10.78,2.45-21.23-3.43-21.23-3.43-8.16,10.29,0,24.33,0,24.33l.15-.15c1.26-1.26,2.98-1.97,4.76-1.97h3.12c1.25,0,2.26,1.01,2.26,2.26v4.53c0,1.62.64,3.17,1.79,4.31l1.89,1.89v13.64h0c1.4,0,2.53-1.13,2.53-2.53v-4.41c0-2.03,1.64-3.67,3.67-3.67h0c2.03,0,3.67,1.64,3.67,3.67v3.75c0,6.48,2.35,12.74,6.62,17.61l1.92,2.19c2.49,2.85,6.05,4.54,9.84,4.67l3.18.11Z"/>
        <path class="cls-5" d="M1422.43,369.04s26.62-36.41,13.23-55.85c-11.92-17.31-37.39-10.94-37.39-10.94-10.78,2.45-21.23-3.43-21.23-3.43-8.16,10.29,0,24.33,0,24.33l.15-.15c1.26-1.26,2.98-1.97,4.76-1.97h3.12c1.25,0,2.26,1.01,2.26,2.26v4.53c0,1.62.64,3.17,1.79,4.31l1.89,1.89v13.64h0c1.4,0,2.53-1.13,2.53-2.53v-4.41c0-2.03,1.64-3.67,3.67-3.67h0c2.03,0,3.67,1.64,3.67,3.67v3.75c0,6.48,2.35,12.74,6.62,17.61l1.92,2.19c2.49,2.85,6.05,4.54,9.84,4.67l3.18.11Z"/>
      </g>
      <g>
        <path class="cls-9" d="M1381.44,303.23s10.45,5.88,21.23,3.43c0,0,19.17-4.78,32.04,5.26-12.27-15.69-36.44-9.66-36.44-9.66-10.78,2.45-21.23-3.43-21.23-3.43-8.16,10.29,0,24.33,0,24.33l1.86-1.86c-1.44-5.01-2.14-12.16,2.55-18.07Z"/>
        <path class="cls-5" d="M1381.44,303.23s10.45,5.88,21.23,3.43c0,0,19.17-4.78,32.04,5.26-12.27-15.69-36.44-9.66-36.44-9.66-10.78,2.45-21.23-3.43-21.23-3.43-8.16,10.29,0,24.33,0,24.33l1.86-1.86c-1.44-5.01-2.14-12.16,2.55-18.07Z"/>
      </g>
      <g>
        <path class="cls-3" d="M1361.62,395.05l26.11-8.37,1.16-3.42c1.03-3.05,3.7-5.27,6.9-5.72l22.8-3.22c5.45-.77,10.81,1.93,13.44,6.76l1.18,2.16,38.05,24.33-13.72,99.94v21.31l24.49,52.91-32.33,6.37-12.74-44.09-15.68,45.8s-53.15-2.69-67.6-29.64l12.98-30.13,1.22-42.38-6.12,38.95h-30.13l14.28-112.68c1.12-8.81,7.24-16.18,15.7-18.9Z"/>
        <path class="cls-5" d="M1361.62,395.05l26.11-8.37,1.16-3.42c1.03-3.05,3.7-5.27,6.9-5.72l22.8-3.22c5.45-.77,10.81,1.93,13.44,6.76l1.18,2.16,38.05,24.33-13.72,99.94v21.31l24.49,52.91-32.33,6.37-12.74-44.09-15.68,45.8s-53.15-2.69-67.6-29.64l12.98-30.13,1.22-42.38-6.12,38.95h-30.13l14.28-112.68c1.12-8.81,7.24-16.18,15.7-18.9Z"/>
      </g>
      <path class="cls-9" d="M1482.03,581.74l-.06-.13-13.47-.18c-8.86-.12-16.86-5.33-20.55-13.39l-10.99-24.02,12.74,44.09,32.33-6.37Z"/>
      <path class="cls-9" d="M1404.11,575.99c-15.24-2.82-36.71-9.1-47.41-22.82l-3.02,7.01c14.45,26.94,67.6,29.64,67.6,29.64l15.68-45.8-8.95,19.5c-4.19,9.13-14.03,14.3-23.9,12.48Z"/>
      <polygon class="cls-9" points="1367.48 490.3 1361.77 515 1333.11 515 1331.64 526.62 1361.77 526.62 1367.48 490.3"/>
      <path class="cls-9" d="M1369.21,395.05l26.11-8.37,1.16-3.42c1.03-3.05,3.7-5.27,6.9-5.72l20.48-2.89c-1.68-.45-3.47-.58-5.26-.33l-22.8,3.22c-3.19.45-5.86,2.66-6.9,5.72l-1.16,3.42-26.11,8.37c-8.46,2.71-14.58,10.08-15.7,18.9l-14.28,112.68h7.59l14.28-112.68c1.12-8.81,7.24-16.18,15.7-18.9Z"/>
      <g>
        <path class="cls-3" d="M1471.26,407.58l1.52.81c2.7,1.44,4.7,3.92,5.53,6.86l23.65,83.82c.74,2.61.57,5.39-.48,7.9l-12.83,30.67-25.07-7.92,8.25-28.49-10.8-19.19,10.22-74.46Z"/>
        <path class="cls-5" d="M1471.26,407.58l1.52.81c2.7,1.44,4.7,3.92,5.53,6.86l23.65,83.82c.74,2.61.57,5.39-.48,7.9l-12.83,30.67-25.07-7.92,8.25-28.49-10.8-19.19,10.22-74.46Z"/>
      </g>
      <polygon class="cls-9" points="1462.84 468.87 1478.06 499.47 1468.56 530.95 1463.58 529.73 1471.83 501.24 1461.03 482.05 1462.84 468.87"/>
      <path class="cls-5" d="M1471.26,407.58l1.52.81c2.7,1.44,4.7,3.92,5.53,6.86l23.65,83.82c.74,2.61.57,5.39-.48,7.9l-12.83,30.67-25.07-7.92,8.25-28.49-10.8-19.19,10.22-74.46Z"/>
      <g>
        <path class="cls-3" d="M1405.61,829.7v26.33c0,.52-.42.94-.94.94h-66.5v-3.18c0-8.07,6.54-14.61,14.61-14.61h10.53l8.33-9.47h33.97Z"/>
        <path class="cls-5" d="M1405.61,829.7v26.33c0,.52-.42.94-.94.94h-66.5v-3.18c0-8.07,6.54-14.61,14.61-14.61h10.53l8.33-9.47h33.97Z"/>
      </g>
      <g>
        <path class="cls-3" d="M1405.61,829.7v26.33c0,.52-.42.94-.94.94h-66.5v-3.18c0-8.07,6.54-14.61,14.61-14.61h10.53l8.33-9.47h33.97Z"/>
        <path class="cls-5" d="M1405.61,829.7v26.33c0,.52-.42.94-.94.94h-66.5v-3.18c0-8.07,6.54-14.61,14.61-14.61h10.53l8.33-9.47h33.97Z"/>
      </g>
      <line class="cls-5" x1="1338.59" y1="850.3" x2="1405.61" y2="850.3"/>
      <g>
        <path class="cls-3" d="M1453.13,829.7l-1.17,23.08c-.16,3.16,2.36,5.82,5.53,5.82h23.47c3.79,0,6.57-3.56,5.65-7.23l-5.39-21.67h-28.09Z"/>
        <path class="cls-5" d="M1453.13,829.7l-1.17,23.08c-.16,3.16,2.36,5.82,5.53,5.82h23.47c3.79,0,6.57-3.56,5.65-7.23l-5.39-21.67h-28.09Z"/>
      </g>
      <line class="cls-4" x1="1452.08" y1="850.3" x2="1474.32" y2="850.3"/>
      <line class="cls-6" x1="1332.78" y1="517.62" x2="1355.32" y2="517.62"/>
      <line class="cls-6" x1="1492.5" y1="528.43" x2="1468.97" y2="521.56"/>
      <path class="cls-5" d="M1436.64,537.65v-101.53c0-4.75-.51-9.49-1.52-14.13l-6.65-30.57"/>
      <line class="cls-6" x1="1387.73" y1="386.68" x2="1433.21" y2="383.25"/>
      <path class="cls-5" d="M1367.89,487.68l10.09-48.76c1.07-5.19.18-10.59-2.5-15.17h0"/>
      <path class="cls-6" d="M1391.32,356.88h1.47c2.52,0,4.79-1.53,5.74-3.86l2.46-6.04"/>
      <path class="cls-5" d="M1361.62,395.05l26.11-8.37,1.16-3.42c1.03-3.05,3.7-5.27,6.9-5.72l22.8-3.22c5.45-.77,10.81,1.93,13.44,6.76l1.18,2.16,38.05,24.33-13.72,99.94v21.31l24.49,52.91-32.33,6.37-12.74-44.09-15.68,45.8s-53.15-2.69-67.6-29.64l12.98-30.13,1.22-42.38-6.12,38.95h-30.13l14.28-112.68c1.12-8.81,7.24-16.18,15.7-18.9Z"/>
    </g>
  </g>
  <path class="cls-5" d="M1919.66,400.29l-380.7-1.7,65.34-5.95s10.74-13.6,29.5-15.63c18.76-2.03,1.51,14.82,1.51,14.82,0,0,16.94-13.28,25.41-11.6s13.61-20.29,43.26-23.79c29.65-3.5,5.75,20.8,5.75,20.8,0,0,17.02-9.96,43.56-11.02,7.06-.28,12.71-63.73,65.95-63.15,53.24.58,11.19,60,11.19,60,0,0,30.68-14.15,43.26-4.43,9.37,7.24-2.42,23.12-2.42,23.12,0,0,23.58-31.56,48.39-30.57"/>
</svg>