<svg xmlns="http://www.w3.org/2000/svg" viewBox="0 0 1921.44 783.23"><defs><style>.cls-1{fill:#ee9646;}.cls-1,.cls-2,.cls-4,.cls-5,.cls-7,.cls-9{stroke:#041323;stroke-linecap:round;stroke-linejoin:round;}.cls-2{fill:#f6f8fd;}.cls-3,.cls-9{fill:#4a90ee;}.cls-4{fill:none;}.cls-5,.cls-6{fill:#fff;}.cls-7,.cls-8{fill:#041323;}</style></defs><g id="Layer_2" data-name="Layer 2"><g id="Illustrtions"><circle class="cls-1" cx="1010.72" cy="189.35" r="60.32"/><path class="cls-2" d="M1920.34,650.74l.47-354s-135,16.22-256-59.41-149.24-14.47-204.7,3.68-145.21,8.06-199.66,81.67c-44,59.41-69.55,85.2-114.74,88.85-41.16,3.33-78.66-13.62-114-25.61-134.76-45.72-217-113.06-310.43-57.35-153.47,91.55-209.56,36.6-360.09,138.56C133.41,621.42.5,621.8.5,621.8v91.58s1095.88,68.46,1919.84-62.64"/><path class="cls-2" d="M.81,753.65H1359.33V639.79c-108.79-20.84-222.49,21.7-336.71,40.79-126.54,21.15-287.52-94-340.71-105.32s-143.34,100.89-246-37.9c-35.9-48.54-95.07-41.89-131.64-53.85s-55.19-52.29-135-2.43S.5,520.25.5,520.25Z"/><path class="cls-3" d="M1920.5,782.73H.5V621.8c153.75-29.44,314.44,30.67,475.87,57.65C655.21,709.35,882.72,546.57,957.9,530.6s164,88.8,207.66,45.1,89.27-30.07,140-98.66,134.37-59.2,186-76.11,78-73.9,190.75-3.42,238.57,55.35,238.57,55.35Z"/><path class="cls-4" d="M1920.5,782.73H.5V621.8c153.75-29.44,314.44,30.67,475.87,57.65C655.21,709.35,882.72,546.57,957.9,530.6s164,88.8,207.66,45.1,89.27-30.07,140-98.66,134.37-59.2,186-76.11,78-73.9,190.75-3.42,238.57,55.35,238.57,55.35Z"/><path class="cls-5" d="M1297.61,222.62l-281.28-1.26,28.21-2.56a74.05,74.05,0,0,0,29.37-9.35,33.05,33.05,0,0,1,12.49-4c13.86-1.49,1.12,11,1.12,11s12.51-9.82,18.77-8.57,10.06-15,32-17.58,4.24,15.37,4.24,15.37,12.58-7.36,32.19-8.14c5.22-.21,9.39-47.09,48.73-46.66s8.27,44.33,8.27,44.33,22.66-10.46,32-3.27c6.93,5.35-1.79,17.08-1.79,17.08s17.43-23.32,35.75-22.59"/><polygon class="cls-1" points="962.15 780.58 1006.57 692.27 1073.85 647.2 1096.38 669.73 1125.45 535.5 1469.02 494.35 1531.73 519.83 1573.53 527.01 1649.95 574.04 1674.12 570.12 1748.58 598.21 1782.55 644.58 1919.5 683.77 1919.5 780.58 962.15 780.58"/><polygon class="cls-6" points="1023.79 709.49 1091.07 664.42 1113.6 686.95 1142.67 552.72 1486.24 511.57 1548.95 537.04 1590.75 544.23 1667.17 591.26 1691.34 587.34 1759.44 613.03 1748.58 598.21 1674.12 570.12 1649.95 574.04 1573.53 527.01 1531.73 519.83 1469.02 494.35 1125.45 535.5 1096.38 669.73 1073.85 647.2 1006.57 692.27 962.15 780.58 988.03 780.58 1023.79 709.49"/><line class="cls-4" x1="1112.93" y1="780.58" x2="1137.7" y2="719.86"/><line class="cls-4" x1="1096.38" y1="781.84" x2="1142.67" y2="552.72"/><line class="cls-4" x1="1164.68" y1="571.14" x2="1500.11" y2="525.37"/><polygon class="cls-6" points="1224.41 694.39 1649.95 574.04 1499.76 596.07 1253.8 659.12 1224.41 694.39"/><polygon class="cls-7" points="1240.41 780.58 1263.27 719.86 1455.96 704.68 1725.72 624.34 1649.95 624.34 1748.58 598.21 1782.55 644.58 1919.5 683.77 1919.5 780.58 1240.41 780.58"/><polygon class="cls-6" points="1261.97 718.56 1469.86 665.83 1374.63 683.04 1636.38 617.92 1724.13 604.1 1649.95 624.34 1725.72 624.34 1455.96 704.68 1261.97 718.56"/><polygon class="cls-6" points="1230.28 644.91 1428.94 598.21 1613.34 558.64 1414.97 612.58 1242.53 651.77 1230.28 644.91"/><polygon class="cls-6" points="1253.8 589.06 1528.94 543.04 1182.77 587.58 1253.8 589.06"/><polygon class="cls-7" points="1029.43 780.58 1071.89 687.69 1073.85 647.2 1096.38 669.73 1083.32 780.58 1029.43 780.58"/><polygon class="cls-7" points="1137.7 719.86 1182.77 587.58 1253.8 589.06 1190.11 604.74 1137.7 719.86"/><polygon class="cls-7" points="1170.03 780.58 1230.28 644.91 1242.53 651.77 1414.97 612.58 1621.38 556.46 1649.95 574.04 1417.42 616.5 1253.8 659.12 1224.41 694.39 1195.75 780.58 1170.03 780.58"/><polygon class="cls-4" points="962.15 780.58 1006.57 692.27 1073.85 647.2 1096.38 669.73 1125.45 535.5 1469.02 494.35 1531.73 519.83 1573.53 527.01 1649.95 574.04 1674.12 570.12 1748.58 598.21 1782.55 644.58 1919.5 683.77 1919.5 780.58 962.15 780.58"/><polygon class="cls-4" points="1338.67 558.64 1766.61 780.58 1916.25 780.58 1405.17 558.64 1338.67 558.64"/><polygon class="cls-4" points="1455.32 559.59 1919.5 780.58 1919.5 744.67 1483.19 560.28 1455.32 559.59"/><polyline class="cls-4" points="1125.45 535.5 1182.77 587.58 1190.11 604.74 1230.28 644.91 1253.8 659.12 1224.41 694.39 1263.27 719.86"/><polyline class="cls-4" points="1145.7 780.58 1208.45 623.08 1379.64 589.06"/><line class="cls-4" x1="988.03" y1="780.58" x2="1023.79" y2="709.49"/><line class="cls-4" x1="1247.71" y1="709.67" x2="1530.8" y2="627.68"/><path class="cls-8" d="M1462.78,287.3l20.41,244.07h-32l-38.86-222.49-4.58,222.49h-35.59l-22.54-231.88,5.47-36.08s17.07,21.71,66.71,28.08l15.67-45.8,12.74,44.09Z"/><path class="cls-4" d="M1462.78,287.3l20.41,244.07h-32l-38.86-222.49-4.58,222.49h-35.59l-22.54-231.88,5.47-36.08s17.07,21.71,66.71,28.08l15.67-45.8,12.74,44.09Z"/><polygon class="cls-8" points="1457.55 289.78 1462.9 288.72 1462.78 287.3 1457.15 288.41 1457.55 289.78"/><polygon class="cls-4" points="1457.55 289.78 1462.9 288.72 1462.78 287.3 1457.15 288.41 1457.55 289.78"/><path class="cls-8" d="M1429.14,291.49l11.69-34.16-3.37-11.64-15.32,44.76C1424.41,290.83,1426.72,291.18,1429.14,291.49Z"/><path class="cls-4" d="M1429.14,291.49l11.69-34.16-3.37-11.64-15.32,44.76C1424.41,290.83,1426.72,291.18,1429.14,291.49Z"/><path class="cls-6" d="M1361.52,269.41a41.49,41.49,0,0,1-6.44-6l-5.47,36.08,22.54,231.88h7.34l-12-123.66,32.17-.48-32.94-7.47L1357,299.49Z"/><path class="cls-4" d="M1361.52,269.41a41.49,41.49,0,0,1-6.44-6l-5.47,36.08,22.54,231.88h7.34l-12-123.66,32.17-.48-32.94-7.47L1357,299.49Z"/><polygon class="cls-6" points="1412.32 308.88 1451.18 531.37 1458.53 531.37 1437.25 409.58 1462.9 407 1435.13 400.37 1419.66 308.88 1412.32 308.88"/><polygon class="cls-4" points="1412.32 308.88 1451.18 531.37 1458.53 531.37 1437.25 409.58 1462.9 407 1435.13 400.37 1419.66 308.88 1412.32 308.88"/><line class="cls-4" x1="1433.05" y1="308.88" x2="1384.07" y2="308.88"/><path class="cls-5" d="M1377.53,24.83l-2.81,35.52a11,11,0,0,0,10.93,11.84h6.91V88.35h30.21V22.22h-43.11Z"/><polygon class="cls-5" points="1335.08 228.3 1341.61 275.65 1349.61 299.49 1355.09 263.41 1359.57 228.3 1335.08 228.3"/><polygon class="cls-5" points="1488.26 239.04 1462.78 287.3 1456.4 266.02 1466.86 232.22 1488.26 239.04"/><path class="cls-8" d="M1422.93,70.72s26.62-36.42,13.23-55.85c-11.93-17.31-37.4-10.94-37.4-10.94C1388,6.38,1377.53.5,1377.53.5c-8.16,10.29,0,24.33,0,24.33l.15-.15a6.77,6.77,0,0,1,4.77-2h3.12a2.25,2.25,0,0,1,2.25,2.25v4.53a6.06,6.06,0,0,0,1.79,4.31l1.89,1.89V49.33h0a2.54,2.54,0,0,0,2.53-2.54v-4.4a3.67,3.67,0,0,1,3.67-3.68h0a3.67,3.67,0,0,1,3.67,3.68v3.74A26.72,26.72,0,0,0,1408,63.74l1.92,2.19a13.68,13.68,0,0,0,9.83,4.67Z"/><path class="cls-4" d="M1422.93,70.72s26.62-36.42,13.23-55.85c-11.93-17.31-37.4-10.94-37.4-10.94C1388,6.38,1377.53.5,1377.53.5c-8.16,10.29,0,24.33,0,24.33l.15-.15a6.77,6.77,0,0,1,4.77-2h3.12a2.25,2.25,0,0,1,2.25,2.25v4.53a6.06,6.06,0,0,0,1.79,4.31l1.89,1.89V49.33h0a2.54,2.54,0,0,0,2.53-2.54v-4.4a3.67,3.67,0,0,1,3.67-3.68h0a3.67,3.67,0,0,1,3.67,3.68v3.74A26.72,26.72,0,0,0,1408,63.74l1.92,2.19a13.68,13.68,0,0,0,9.83,4.67Z"/><path class="cls-6" d="M1381.94,4.91s10.45,5.87,21.23,3.42c0,0,19.17-4.78,32,5.26-12.28-15.69-36.45-9.66-36.45-9.66C1388,6.38,1377.53.5,1377.53.5c-8.16,10.29,0,24.33,0,24.33l1.86-1.86C1378,18,1377.25,10.81,1381.94,4.91Z"/><path class="cls-4" d="M1381.94,4.91s10.45,5.87,21.23,3.42c0,0,19.17-4.78,32,5.26-12.28-15.69-36.45-9.66-36.45-9.66C1388,6.38,1377.53.5,1377.53.5c-8.16,10.29,0,24.33,0,24.33l1.86-1.86C1378,18,1377.25,10.81,1381.94,4.91Z"/><path class="cls-3" d="M1362.12,96.73l26.11-8.38,1.16-3.42a8.56,8.56,0,0,1,6.9-5.72l22.8-3.21a13.19,13.19,0,0,1,13.44,6.76l1.18,2.16,38,24.33L1458,209.19V230.5l24.49,52.91-32.33,6.37-12.74-44.09-15.67,45.8s-53.16-2.69-67.61-29.64l13-30.12,1.23-42.38-6.12,39h-30.13l14.28-112.68A22.86,22.86,0,0,1,1362.12,96.73Z"/><path class="cls-4" d="M1362.12,96.73l26.11-8.38,1.16-3.42a8.56,8.56,0,0,1,6.9-5.72l22.8-3.21a13.19,13.19,0,0,1,13.44,6.76l1.18,2.16,38,24.33L1458,209.19V230.5l24.49,52.91-32.33,6.37-12.74-44.09-15.67,45.8s-53.16-2.69-67.61-29.64l13-30.12,1.23-42.38-6.12,39h-30.13l14.28-112.68A22.86,22.86,0,0,1,1362.12,96.73Z"/><path class="cls-6" d="M1482.53,283.41l-.06-.13L1469,283.1a22.92,22.92,0,0,1-20.54-13.39l-11-24,12.74,44.09Z"/><path class="cls-6" d="M1404.61,277.67c-15.24-2.82-36.7-9.1-47.41-22.83l-3,7c14.45,26.95,67.61,29.64,67.61,29.64l15.67-45.8-8.94,19.5A22,22,0,0,1,1404.61,277.67Z"/><polygon class="cls-6" points="1367.98 191.97 1362.27 216.67 1333.61 216.67 1332.14 228.3 1362.27 228.3 1367.98 191.97"/><path class="cls-6" d="M1369.71,96.72l26.11-8.37,1.16-3.42a8.57,8.57,0,0,1,6.9-5.72l20.47-2.88a12.89,12.89,0,0,0-5.26-.33l-22.8,3.21a8.56,8.56,0,0,0-6.9,5.72l-1.16,3.42-26.11,8.37a22.89,22.89,0,0,0-15.7,18.9L1332.14,228.3h7.59L1354,115.62A22.89,22.89,0,0,1,1369.71,96.72Z"/><path class="cls-3" d="M1471.76,109.25l1.52.82a11.19,11.19,0,0,1,5.53,6.86l23.65,83.82a12,12,0,0,1-.48,7.9l-12.83,30.67-25.07-7.92,8.25-28.49-10.8-19.19Z"/><path class="cls-4" d="M1471.76,109.25l1.52.82a11.19,11.19,0,0,1,5.53,6.86l23.65,83.82a12,12,0,0,1-.48,7.9l-12.83,30.67-25.07-7.92,8.25-28.49-10.8-19.19Z"/><polygon class="cls-6" points="1463.34 170.54 1478.56 201.14 1469.06 232.62 1464.08 231.4 1472.33 202.91 1461.54 183.72 1463.34 170.54"/><path class="cls-4" d="M1471.76,109.25l1.52.82a11.19,11.19,0,0,1,5.53,6.86l23.65,83.82a12,12,0,0,1-.48,7.9l-12.83,30.67-25.07-7.92,8.25-28.49-10.8-19.19Z"/><path class="cls-3" d="M1406.11,531.37V557.7a.94.94,0,0,1-.94.94h-66.5v-3.18a14.62,14.62,0,0,1,14.61-14.62h10.54l8.33-9.47Z"/><path class="cls-4" d="M1406.11,531.37V557.7a.94.94,0,0,1-.94.94h-66.5v-3.18a14.62,14.62,0,0,1,14.61-14.62h10.54l8.33-9.47Z"/><path class="cls-3" d="M1406.11,531.37V557.7a.94.94,0,0,1-.94.94h-66.5v-3.18a14.62,14.62,0,0,1,14.61-14.62h10.54l8.33-9.47Z"/><path class="cls-4" d="M1406.11,531.37V557.7a.94.94,0,0,1-.94.94h-66.5v-3.18a14.62,14.62,0,0,1,14.61-14.62h10.54l8.33-9.47Z"/><line class="cls-3" x1="1339.09" y1="551.97" x2="1406.11" y2="551.97"/><line class="cls-4" x1="1339.09" y1="551.97" x2="1406.11" y2="551.97"/><path class="cls-3" d="M1453.63,531.37l-1.17,23.09a5.53,5.53,0,0,0,5.53,5.82h23.46a5.82,5.82,0,0,0,5.65-7.23l-5.38-21.68Z"/><path class="cls-4" d="M1453.63,531.37l-1.17,23.09a5.53,5.53,0,0,0,5.53,5.82h23.46a5.82,5.82,0,0,0,5.65-7.23l-5.38-21.68Z"/><line class="cls-9" x1="1452.58" y1="551.97" x2="1474.82" y2="551.97"/><line class="cls-5" x1="1333.28" y1="219.29" x2="1355.82" y2="219.29"/><line class="cls-5" x1="1493" y1="230.1" x2="1469.47" y2="223.23"/><path class="cls-4" d="M1437.14,239.32V137.79a66.45,66.45,0,0,0-1.52-14.13L1429,93.09"/><line class="cls-5" x1="1388.23" y1="88.35" x2="1433.71" y2="84.92"/><path class="cls-4" d="M1368.39,189.35l10.09-48.76a21.44,21.44,0,0,0-2.5-15.17h0"/><path class="cls-5" d="M1391.82,58.55h1.47a6.19,6.19,0,0,0,5.74-3.86l2.46-6"/><path class="cls-4" d="M1362.12,96.73l26.11-8.38,1.16-3.42a8.56,8.56,0,0,1,6.9-5.72l22.8-3.21a13.19,13.19,0,0,1,13.44,6.76l1.18,2.16,38,24.33L1458,209.19V230.5l24.49,52.91-32.33,6.37-12.74-44.09-15.67,45.8s-53.16-2.69-67.61-29.64l13-30.12,1.23-42.38-6.12,39h-30.13l14.28-112.68A22.86,22.86,0,0,1,1362.12,96.73Z"/><path class="cls-4" d="M1920.16,102l-380.7-1.7,65.34-5.94s10.74-13.6,29.5-15.63,1.51,14.82,1.51,14.82,16.94-13.28,25.41-11.6,13.62-20.29,43.26-23.79,5.75,20.81,5.75,20.81,17-10,43.56-11c7.07-.28,12.71-63.73,66-63.15s11.2,60,11.2,60,30.67-14.15,43.26-4.42c9.37,7.24-2.42,23.11-2.42,23.11s23.58-31.55,48.38-30.57"/></g></g></svg>