<svg xmlns="http://www.w3.org/2000/svg" xmlns:xlink="http://www.w3.org/1999/xlink" viewBox="0 0 865 864.5"><defs><style>.cls-1,.cls-19,.cls-4{fill:none;}.cls-2{clip-path:url(#clip-path);}.cls-3{fill:#eaecef;}.cls-13,.cls-14,.cls-15,.cls-16,.cls-17,.cls-18,.cls-4,.cls-5,.cls-6,.cls-7{stroke:#041323;}.cls-13,.cls-14,.cls-15,.cls-16,.cls-17,.cls-18,.cls-19,.cls-4,.cls-5,.cls-6,.cls-7{stroke-linecap:round;stroke-linejoin:round;}.cls-5,.cls-9{fill:#b57aef;}.cls-11,.cls-6{fill:#fff;}.cls-7,.cls-8{fill:#041323;}.cls-10,.cls-17{fill:#4a90ee;}.cls-12,.cls-16{fill:#ee9646;}.cls-13{fill:#f6f8fd;}.cls-14{fill:url(#linear-gradient);}.cls-15{fill:url(#linear-gradient-2);}.cls-18{fill:#97c9ff;}.cls-19{stroke:#f2f2f2;}</style><clipPath id="clip-path" transform="translate(0.5)"><rect class="cls-1" width="864" height="864" rx="150"/></clipPath><linearGradient id="linear-gradient" x1="742.41" y1="259.58" x2="748.44" y2="259.58" gradientTransform="translate(-221.88 716.73) rotate(-63.6)" gradientUnits="userSpaceOnUse"><stop offset="0" stop-color="#c5daef"/><stop offset="0.99" stop-color="#e9f2fb"/></linearGradient><linearGradient id="linear-gradient-2" x1="742.4" y1="261.18" x2="746.96" y2="261.18" xlink:href="#linear-gradient"/></defs><g id="Layer_2" data-name="Layer 2"><g id="Layer_2-2" data-name="Layer 2"><g class="cls-2"><rect class="cls-3" x="0.5" width="864" height="864"/><path class="cls-4" d="M70,188.55,198.39,188l-22-2a15.8,15.8,0,0,0-10-5.27c-6.32-.68-.51,5-.51,5s-5.71-4.48-8.57-3.91-4.59-6.84-14.58-8-1.94,7-1.94,7a34.22,34.22,0,0,0-14.69-3.71c-2.38-.1-4.28-21.49-22.24-21.3S100.11,176,100.11,176s-10.34-4.78-14.59-1.5c-3.16,2.44.82,7.8.82,7.8S78.39,171.67,70,172" transform="translate(0.5)"/><path class="cls-4" d="M779.2,127.49l-193.35-.87,33.18-3a23.74,23.74,0,0,1,15-7.93c9.53-1,.77,7.52.77,7.52s8.61-6.74,12.91-5.89,6.91-10.3,22-12.08,2.92,10.57,2.92,10.57,8.64-5.06,22.12-5.6c3.59-.15,6.46-32.37,33.5-32.07s5.68,30.47,5.68,30.47,15.58-7.19,22-2.25c4.76,3.68-1.23,11.74-1.23,11.74s12-16,24.58-15.53" transform="translate(0.5)"/><polygon class="cls-5" points="318.51 521.84 342.87 549.56 342.87 583.45 342.72 583.31 351.53 593.34 351.53 722.17 318.51 722.17 318.51 521.84"/><polygon class="cls-6" points="342.72 583.31 342.87 583.45 342.87 549.56 318.51 521.84 318.51 530.75 335.05 549.56 335.05 583.45 334.89 583.31 343.7 593.34 343.7 722.17 351.53 722.17 351.53 593.34 342.72 583.31"/><rect class="cls-7" x="285.69" y="521.84" width="32.82" height="200.34"/><polygon class="cls-8" points="149.34 722.17 149.34 271.24 79.21 271.24 79.21 157.6 0.5 157.6 0.5 722.17 149.34 722.17"/><polygon class="cls-5" points="79.21 157.6 118.86 202.74 118.86 271.24 79.21 271.24 79.21 157.6"/><polygon class="cls-6" points="79.21 157.6 79.21 163.78 113.44 202.74 113.44 271.24 118.86 271.24 118.86 202.74 79.21 157.6"/><polygon class="cls-5" points="188.99 720.61 188.99 317.24 149.34 272.11 149.34 722.17 188.99 722.17 188.99 720.61"/><polygon class="cls-6" points="149.34 272.11 149.34 283.15 179.28 317.24 179.28 720.61 179.28 722.17 188.99 722.17 188.99 720.61 188.99 317.24 149.34 272.11"/><polygon class="cls-5" points="242.41 396.06 282.06 441.2 282.06 496.36 281.81 496.13 296.15 512.46 296.15 722.17 242.41 722.17 242.41 396.06"/><polygon class="cls-6" points="281.81 496.13 282.06 496.36 282.06 441.2 242.41 396.06 242.41 407.97 271.61 441.2 271.61 496.36 271.35 496.13 285.69 512.46 285.69 722.17 296.15 722.17 296.15 512.46 281.81 496.13"/><rect class="cls-7" x="188.99" y="396.06" width="53.43" height="326.11"/><polyline class="cls-5" points="560.08 440.15 525.79 479.18 525.79 526.88 526.01 526.69 513.61 540.81 513.61 722.17 560.08 722.17 560.08 440.15"/><polygon class="cls-7" points="560.08 722.17 560.08 440.15 606.28 440.15 606.28 721.88 560.08 722.17"/><polygon class="cls-5" points="667.22 263.08 611.39 326.62 611.39 404.28 611.75 403.96 591.56 426.95 591.56 722.17 667.22 722.17 667.22 263.08"/><polygon class="cls-7" points="667.22 722.17 667.22 263.08 715.66 263.08 715.66 722.05 667.22 722.17"/><polygon class="cls-9" points="864.5 722.05 715.66 722.05 715.66 156.59 864.5 49.7 864.5 722.05"/><polygon class="cls-6" points="535.98 526.69 535.76 526.88 535.76 479.18 560.08 451.5 560.08 440.15 525.79 479.18 525.79 526.88 526.01 526.69 513.61 540.81 513.61 722.17 523.58 722.17 523.58 540.81 535.98 526.69"/><polygon class="cls-6" points="621.73 403.96 621.37 404.28 621.37 326.62 667.22 274.43 667.22 263.08 611.39 326.62 611.39 404.28 611.75 403.96 591.56 426.95 591.56 722.17 601.53 722.17 601.53 426.95 621.73 403.96"/><polygon class="cls-6" points="864.5 61.06 864.5 49.7 715.66 156.59 715.66 722.05 731.48 722.05 731.48 156.59 864.5 61.06"/><rect class="cls-7" x="0.5" y="722.17" width="864" height="141.83"/><path class="cls-10" d="M254.44,279.45a.74.74,0,0,1,.37-1h0a.75.75,0,0,1,1,.37h0a.76.76,0,0,1-.37,1h0a.85.85,0,0,1-.31.06h0A.74.74,0,0,1,254.44,279.45Zm5.82-2.64a.76.76,0,0,1,.38-1h0a.75.75,0,0,1,1,.38h0a.75.75,0,0,1-.37,1h0a.87.87,0,0,1-.31.07h0A.77.77,0,0,1,260.26,276.81Zm5.83-2.65a.75.75,0,0,1,.37-1h0a.75.75,0,0,1,1,.37h0a.75.75,0,0,1-.38,1h0a.67.67,0,0,1-.31.07h0A.75.75,0,0,1,266.09,274.16Zm5.83-2.65a.74.74,0,0,1,.37-1h0a.74.74,0,0,1,1,.37h0a.74.74,0,0,1-.37,1h0a.7.7,0,0,1-.31.07h0A.74.74,0,0,1,271.92,271.51Zm5.82-2.65a.75.75,0,0,1,.38-1h0a.75.75,0,0,1,1,.37h0a.75.75,0,0,1-.37,1h0a.7.7,0,0,1-.31.07h0A.75.75,0,0,1,277.74,268.86Zm5.83-2.65a.75.75,0,0,1,.37-1h0a.76.76,0,0,1,1,.38h0a.75.75,0,0,1-.38,1h0a.81.81,0,0,1-.31.06h0A.75.75,0,0,1,283.57,266.21Zm5.83-2.64a.74.74,0,0,1,.37-1h0a.73.73,0,0,1,1,.37h0a.75.75,0,0,1-.37,1h0a.7.7,0,0,1-.31.07h0A.75.75,0,0,1,289.4,263.57Zm5.82-2.65a.75.75,0,0,1,.38-1h0a.75.75,0,0,1,1,.37h0a.75.75,0,0,1-.37,1h0a.7.7,0,0,1-.31.07h0A.75.75,0,0,1,295.22,260.92Zm5.83-2.65a.75.75,0,0,1,.37-1h0a.77.77,0,0,1,1,.37h0a.75.75,0,0,1-.38,1h0a.67.67,0,0,1-.31.07h0A.75.75,0,0,1,301.05,258.27Zm5.83-2.64a.75.75,0,0,1,.37-1h0a.75.75,0,0,1,1,.38h0a.74.74,0,0,1-.37,1h0a.85.85,0,0,1-.31.06h0A.74.74,0,0,1,306.88,255.63ZM312.7,253a.75.75,0,0,1,.38-1h0a.74.74,0,0,1,1,.37h0a.75.75,0,0,1-.37,1h0a.7.7,0,0,1-.31.07h0A.75.75,0,0,1,312.7,253Zm5.83-2.65a.75.75,0,0,1,.37-1h0a.75.75,0,0,1,1,.37h0a.75.75,0,0,1-.38,1h0a.67.67,0,0,1-.31.07h0A.75.75,0,0,1,318.53,250.33Zm5.83-2.65a.74.74,0,0,1,.37-1h0a.75.75,0,0,1,1,.37h0a.76.76,0,0,1-.37,1h0a.85.85,0,0,1-.31.06h0A.74.74,0,0,1,324.36,247.68Zm5.82-2.64a.76.76,0,0,1,.38-1h0a.75.75,0,0,1,1,.38h0a.75.75,0,0,1-.37,1h0a.87.87,0,0,1-.31.07h0A.77.77,0,0,1,330.18,245Zm5.83-2.65a.75.75,0,0,1,.37-1h0a.75.75,0,0,1,1,.37h0a.75.75,0,0,1-.38,1h0a.67.67,0,0,1-.31.07h0A.75.75,0,0,1,336,242.39Zm5.83-2.65a.74.74,0,0,1,.37-1h0a.74.74,0,0,1,1,.37h0a.73.73,0,0,1-.37,1h0a.67.67,0,0,1-.31.07h0A.74.74,0,0,1,341.84,239.74Zm5.82-2.65a.75.75,0,0,1,.38-1h0a.75.75,0,0,1,1,.37h0a.75.75,0,0,1-.37,1h0a.7.7,0,0,1-.31.07h0A.75.75,0,0,1,347.66,237.09Zm5.83-2.65a.75.75,0,0,1,.37-1h0a.76.76,0,0,1,1,.38h0a.75.75,0,0,1-.38,1h0a.81.81,0,0,1-.31.06h0A.75.75,0,0,1,353.49,234.44Zm5.83-2.64a.74.74,0,0,1,.37-1h0a.73.73,0,0,1,1,.37h0a.75.75,0,0,1-.37,1h0a.7.7,0,0,1-.31.07h0A.75.75,0,0,1,359.32,231.8Zm5.83-2.65a.73.73,0,0,1,.37-1h0a.75.75,0,0,1,1,.37h0a.74.74,0,0,1-.37,1h0a.7.7,0,0,1-.31.07h0A.73.73,0,0,1,365.15,229.15ZM371,226.5a.75.75,0,0,1,.37-1h0a.77.77,0,0,1,1,.37h0a.76.76,0,0,1-.38,1h0a.81.81,0,0,1-.31.06h0A.75.75,0,0,1,371,226.5Zm5.83-2.64a.75.75,0,0,1,.37-1h0a.75.75,0,0,1,1,.37h0a.75.75,0,0,1-.37,1h0a.87.87,0,0,1-.31.07h0A.76.76,0,0,1,376.8,223.86Zm5.82-2.65a.76.76,0,0,1,.38-1h0a.75.75,0,0,1,1,.38h0a.75.75,0,0,1-.37,1h0a.7.7,0,0,1-.31.07h0A.77.77,0,0,1,382.62,221.21Zm5.83-2.65a.75.75,0,0,1,.37-1h0a.75.75,0,0,1,1,.37h0a.75.75,0,0,1-.38,1h0a.66.66,0,0,1-.3.07h0A.75.75,0,0,1,388.45,218.56Zm5.83-2.65a.75.75,0,0,1,.37-1h0a.75.75,0,0,1,1,.37h0a.76.76,0,0,1-.37,1h0a.81.81,0,0,1-.31.06h0A.74.74,0,0,1,394.28,215.91Zm5.82-2.64a.76.76,0,0,1,.38-1h0a.75.75,0,0,1,1,.38h0a.75.75,0,0,1-.37,1h0a.87.87,0,0,1-.31.07h0A.77.77,0,0,1,400.1,213.27Zm5.83-2.65a.75.75,0,0,1,.37-1h0a.75.75,0,0,1,1,.37h0a.75.75,0,0,1-.38,1h0a.67.67,0,0,1-.31.07h0A.75.75,0,0,1,405.93,210.62Zm5.83-2.65a.74.74,0,0,1,.37-1h0a.74.74,0,0,1,1,.37h0a.74.74,0,0,1-.37,1h0a.7.7,0,0,1-.31.07h0A.74.74,0,0,1,411.76,208Zm5.82-2.65a.75.75,0,0,1,.38-1h0a.75.75,0,0,1,1,.37h0a.75.75,0,0,1-.37,1h0a.7.7,0,0,1-.31.07h0A.75.75,0,0,1,417.58,205.32Zm5.83-2.64a.76.76,0,0,1,.37-1h0a.76.76,0,0,1,1,.38h0a.75.75,0,0,1-.38,1h0a.82.82,0,0,1-.3.07h0A.77.77,0,0,1,423.41,202.68Zm5.83-2.65a.76.76,0,0,1,.37-1h0a.75.75,0,0,1,1,.38h0a.74.74,0,0,1-.37,1h0a.67.67,0,0,1-.31.07h0A.76.76,0,0,1,429.24,200Zm5.82-2.65a.75.75,0,0,1,.38-1h0a.75.75,0,0,1,1,.37h0a.75.75,0,0,1-.37,1h0a.7.7,0,0,1-.31.07h0A.75.75,0,0,1,435.06,197.38Zm5.83-2.65a.75.75,0,0,1,.37-1h0a.77.77,0,0,1,1,.37h0a.76.76,0,0,1-.38,1h0a.81.81,0,0,1-.31.06h0A.75.75,0,0,1,440.89,194.73Zm5.83-2.64a.75.75,0,0,1,.37-1h0a.75.75,0,0,1,1,.37h0a.75.75,0,0,1-.37,1h0a.82.82,0,0,1-.31.07h0A.77.77,0,0,1,446.72,192.09Zm5.82-2.65a.76.76,0,0,1,.38-1h0a.75.75,0,0,1,1,.38h0a.75.75,0,0,1-.37,1h0a.7.7,0,0,1-.31.07h0A.77.77,0,0,1,452.54,189.44Zm5.83-2.65a.75.75,0,0,1,.37-1h0a.76.76,0,0,1,1,.37h0a.75.75,0,0,1-.38,1h0a.66.66,0,0,1-.3.07h0A.75.75,0,0,1,458.37,186.79Zm5.83-2.65a.75.75,0,0,1,.37-1h0a.75.75,0,0,1,1,.37h0a.76.76,0,0,1-.37,1h0a.85.85,0,0,1-.31.06h0A.74.74,0,0,1,464.2,184.14ZM470,181.5a.76.76,0,0,1,.38-1h0a.75.75,0,0,1,1,.38h0a.75.75,0,0,1-.37,1h0a.87.87,0,0,1-.31.07h0A.77.77,0,0,1,470,181.5Zm5.83-2.65a.77.77,0,0,1,.37-1h0a.76.76,0,0,1,1,.38h0a.75.75,0,0,1-.38,1h0a.67.67,0,0,1-.31.07h0A.77.77,0,0,1,475.85,178.85Zm5.83-2.65a.74.74,0,0,1,.37-1h0a.74.74,0,0,1,1,.37h0a.74.74,0,0,1-.37,1h0a.7.7,0,0,1-.31.07h0A.74.74,0,0,1,481.68,176.2Zm5.82-2.65a.75.75,0,0,1,.38-1h0a.75.75,0,0,1,1,.37h0a.77.77,0,0,1-.37,1h0a.85.85,0,0,1-.31.06h0A.75.75,0,0,1,487.5,173.55ZM486,172.16a.75.75,0,0,1,.74-.75h0a.75.75,0,0,1,.75.75h0a.74.74,0,0,1-.75.75h0A.74.74,0,0,1,486,172.16Zm-6.4,0a.75.75,0,0,1,.75-.75h0a.76.76,0,0,1,.75.75h0a.75.75,0,0,1-.75.75h0A.74.74,0,0,1,479.63,172.16Zm-6.4,0a.75.75,0,0,1,.75-.75h0a.76.76,0,0,1,.75.75h0a.75.75,0,0,1-.75.75h0A.74.74,0,0,1,473.23,172.16Zm-6.4,0a.75.75,0,0,1,.75-.75h0a.76.76,0,0,1,.75.75h0a.75.75,0,0,1-.75.75h0A.74.74,0,0,1,466.83,172.16Zm-6.4,0a.75.75,0,0,1,.75-.75h0a.76.76,0,0,1,.75.75h0a.75.75,0,0,1-.75.75h0A.74.74,0,0,1,460.43,172.16Zm-6.4,0a.75.75,0,0,1,.74-.75h0a.75.75,0,0,1,.75.75h0a.74.74,0,0,1-.75.75h0A.74.74,0,0,1,454,172.16Zm-6.4,0a.75.75,0,0,1,.75-.75h0a.76.76,0,0,1,.75.75h0a.75.75,0,0,1-.75.75h0A.74.74,0,0,1,447.63,172.16Zm-6.4,0a.75.75,0,0,1,.75-.75h0a.76.76,0,0,1,.75.75h0a.75.75,0,0,1-.75.75h0A.74.74,0,0,1,441.23,172.16Zm-6.4,0a.75.75,0,0,1,.75-.75h0a.76.76,0,0,1,.75.75h0a.75.75,0,0,1-.75.75h0A.74.74,0,0,1,434.83,172.16Zm-6.4,0a.75.75,0,0,1,.75-.75h0a.76.76,0,0,1,.75.75h0a.75.75,0,0,1-.75.75h0A.74.74,0,0,1,428.43,172.16Zm-6.4,0a.75.75,0,0,1,.75-.75h0a.76.76,0,0,1,.75.75h0a.75.75,0,0,1-.75.75h0A.74.74,0,0,1,422,172.16Zm-6.4,0a.75.75,0,0,1,.75-.75h0a.76.76,0,0,1,.75.75h0a.75.75,0,0,1-.75.75h0A.74.74,0,0,1,415.63,172.16Zm-6.4,0a.75.75,0,0,1,.75-.75h0a.76.76,0,0,1,.75.75h0a.75.75,0,0,1-.75.75h0A.74.74,0,0,1,409.23,172.16Zm-6.4,0a.75.75,0,0,1,.75-.75h0a.76.76,0,0,1,.75.75h0a.75.75,0,0,1-.75.75h0A.74.74,0,0,1,402.83,172.16Zm-6.4,0a.75.75,0,0,1,.75-.75h0a.76.76,0,0,1,.75.75h0a.75.75,0,0,1-.75.75h0A.74.74,0,0,1,396.43,172.16Zm-6.4,0a.75.75,0,0,1,.75-.75h0a.76.76,0,0,1,.75.75h0a.75.75,0,0,1-.75.75h0A.74.74,0,0,1,390,172.16Zm-6.4,0a.75.75,0,0,1,.75-.75h0a.76.76,0,0,1,.75.75h0a.75.75,0,0,1-.75.75h0A.74.74,0,0,1,383.63,172.16Zm-6.4,0a.75.75,0,0,1,.75-.75h0a.76.76,0,0,1,.75.75h0a.75.75,0,0,1-.75.75h0A.74.74,0,0,1,377.23,172.16Zm-6.4,0a.75.75,0,0,1,.75-.75h0a.76.76,0,0,1,.75.75h0a.75.75,0,0,1-.75.75h0A.74.74,0,0,1,370.83,172.16Zm-6.4,0a.75.75,0,0,1,.75-.75h0a.76.76,0,0,1,.75.75h0a.75.75,0,0,1-.75.75h0A.74.74,0,0,1,364.43,172.16Zm-6.4,0a.75.75,0,0,1,.75-.75h0a.76.76,0,0,1,.75.75h0a.75.75,0,0,1-.75.75h0A.74.74,0,0,1,358,172.16Z" transform="translate(0.5)"/><path class="cls-10" d="M593.46,279.19a.76.76,0,0,1,.75-.75h0a.76.76,0,0,1,.76.75h0a.76.76,0,0,1-.76.75h0A.76.76,0,0,1,593.46,279.19Zm-6.4,0a.76.76,0,0,1,.75-.75h0a.75.75,0,0,1,.75.75h0a.75.75,0,0,1-.75.75h0A.76.76,0,0,1,587.06,279.19Zm-6.4,0a.76.76,0,0,1,.76-.75h0a.76.76,0,0,1,.75.75h0a.76.76,0,0,1-.75.75h0A.76.76,0,0,1,580.66,279.19Zm-6.4,0a.76.76,0,0,1,.75-.75h0a.76.76,0,0,1,.76.75h0a.76.76,0,0,1-.76.75h0A.76.76,0,0,1,574.26,279.19Zm-6.4,0a.76.76,0,0,1,.76-.75h0a.76.76,0,0,1,.75.75h0a.76.76,0,0,1-.75.75h0A.76.76,0,0,1,567.86,279.19Zm-6.4,0a.76.76,0,0,1,.75-.75h0a.76.76,0,0,1,.76.75h0a.76.76,0,0,1-.76.75h0A.76.76,0,0,1,561.46,279.19Zm-6.4,0a.76.76,0,0,1,.75-.75h0a.75.75,0,0,1,.75.75h0a.75.75,0,0,1-.75.75h0A.76.76,0,0,1,555.06,279.19Zm-6.4,0a.76.76,0,0,1,.76-.75h0a.76.76,0,0,1,.75.75h0a.76.76,0,0,1-.75.75h0A.76.76,0,0,1,548.66,279.19Zm-6.4,0a.76.76,0,0,1,.75-.75h0a.76.76,0,0,1,.76.75h0a.76.76,0,0,1-.76.75h0A.76.76,0,0,1,542.26,279.19Zm-6.4,0a.76.76,0,0,1,.76-.75h0a.76.76,0,0,1,.75.75h0a.76.76,0,0,1-.75.75h0A.76.76,0,0,1,535.86,279.19Zm-6.4,0a.76.76,0,0,1,.75-.75h0a.76.76,0,0,1,.76.75h0a.76.76,0,0,1-.76.75h0A.76.76,0,0,1,529.46,279.19Zm-6.39,0a.75.75,0,0,1,.74-.75h0a.75.75,0,0,1,.75.75h0a.75.75,0,0,1-.75.75h0A.75.75,0,0,1,523.07,279.19Zm-6.41,0a.76.76,0,0,1,.76-.75h0a.76.76,0,0,1,.75.75h0a.76.76,0,0,1-.75.75h0A.76.76,0,0,1,516.66,279.19Zm-6.4,0a.76.76,0,0,1,.75-.75h0a.76.76,0,0,1,.76.75h0a.76.76,0,0,1-.76.75h0A.76.76,0,0,1,510.26,279.19Zm-6.4,0a.76.76,0,0,1,.76-.75h0a.76.76,0,0,1,.75.75h0a.76.76,0,0,1-.75.75h0A.76.76,0,0,1,503.86,279.19Zm-6.4,0a.76.76,0,0,1,.75-.75h0a.76.76,0,0,1,.76.75h0a.76.76,0,0,1-.76.75h0A.76.76,0,0,1,497.46,279.19Zm-6.39,0a.75.75,0,0,1,.75-.75h0a.75.75,0,0,1,.74.75h0a.75.75,0,0,1-.74.75h0A.75.75,0,0,1,491.07,279.19Zm-6.41,0a.76.76,0,0,1,.76-.75h0a.76.76,0,0,1,.75.75h0a.76.76,0,0,1-.75.75h0A.76.76,0,0,1,484.66,279.19Zm-6.4,0a.76.76,0,0,1,.75-.75h0a.76.76,0,0,1,.76.75h0a.76.76,0,0,1-.76.75h0A.76.76,0,0,1,478.26,279.19Zm-6.4,0a.76.76,0,0,1,.76-.75h0a.75.75,0,0,1,.74.75h0a.75.75,0,0,1-.74.75h0A.76.76,0,0,1,471.86,279.19Zm-6.4,0a.76.76,0,0,1,.76-.75h0a.76.76,0,0,1,.75.75h0a.76.76,0,0,1-.75.75h0A.76.76,0,0,1,465.46,279.19Zm-6.39,0a.75.75,0,0,1,.75-.75h0a.75.75,0,0,1,.74.75h0a.75.75,0,0,1-.74.75h0A.75.75,0,0,1,459.07,279.19Zm-6.41,0a.76.76,0,0,1,.76-.75h0a.76.76,0,0,1,.75.75h0a.76.76,0,0,1-.75.75h0A.76.76,0,0,1,452.66,279.19Zm-6.4,0a.76.76,0,0,1,.75-.75h0a.76.76,0,0,1,.76.75h0a.76.76,0,0,1-.76.75h0A.76.76,0,0,1,446.26,279.19Zm-6.4,0a.76.76,0,0,1,.76-.75h0a.75.75,0,0,1,.74.75h0a.75.75,0,0,1-.74.75h0A.76.76,0,0,1,439.86,279.19Zm-6.4,0a.76.76,0,0,1,.76-.75h0a.76.76,0,0,1,.75.75h0a.76.76,0,0,1-.75.75h0A.76.76,0,0,1,433.46,279.19Zm-6.39,0a.75.75,0,0,1,.75-.75h0a.75.75,0,0,1,.74.75h0a.75.75,0,0,1-.74.75h0A.75.75,0,0,1,427.07,279.19Zm-6.4,0a.75.75,0,0,1,.75-.75h0a.76.76,0,0,1,.75.75h0a.76.76,0,0,1-.75.75h0A.75.75,0,0,1,420.67,279.19Zm-6.4,0a.75.75,0,0,1,.74-.75h0a.76.76,0,0,1,.76.75h0a.76.76,0,0,1-.76.75h0A.75.75,0,0,1,414.27,279.19Zm-6.4,0a.75.75,0,0,1,.75-.75h0a.75.75,0,0,1,.74.75h0a.75.75,0,0,1-.74.75h0A.75.75,0,0,1,407.87,279.19Zm-6.41,0a.76.76,0,0,1,.76-.75h0a.76.76,0,0,1,.75.75h0a.76.76,0,0,1-.75.75h0A.76.76,0,0,1,401.46,279.19Zm-6.39,0a.75.75,0,0,1,.75-.75h0a.75.75,0,0,1,.74.75h0a.75.75,0,0,1-.74.75h0A.75.75,0,0,1,395.07,279.19Zm-6.4,0a.75.75,0,0,1,.75-.75h0a.76.76,0,0,1,.75.75h0a.76.76,0,0,1-.75.75h0A.75.75,0,0,1,388.67,279.19Zm-6.4,0a.75.75,0,0,1,.74-.75h0a.76.76,0,0,1,.76.75h0a.76.76,0,0,1-.76.75h0A.75.75,0,0,1,382.27,279.19Zm-6.4,0a.75.75,0,0,1,.75-.75h0a.75.75,0,0,1,.74.75h0a.75.75,0,0,1-.74.75h0A.75.75,0,0,1,375.87,279.19Zm-6.41,0a.76.76,0,0,1,.76-.75h0a.76.76,0,0,1,.75.75h0a.76.76,0,0,1-.75.75h0A.76.76,0,0,1,369.46,279.19Zm-6.39,0a.75.75,0,0,1,.75-.75h0a.75.75,0,0,1,.74.75h0a.75.75,0,0,1-.74.75h0A.75.75,0,0,1,363.07,279.19Zm-6.4,0a.75.75,0,0,1,.75-.75h0a.76.76,0,0,1,.75.75h0a.76.76,0,0,1-.75.75h0A.75.75,0,0,1,356.67,279.19Zm-6.41,0a.76.76,0,0,1,.76-.75h0a.76.76,0,0,1,.75.75h0a.76.76,0,0,1-.75.75h0A.76.76,0,0,1,350.26,279.19Zm-6.39,0a.75.75,0,0,1,.75-.75h0a.75.75,0,0,1,.74.75h0a.75.75,0,0,1-.74.75h0A.75.75,0,0,1,343.87,279.19Zm-6.41,0a.76.76,0,0,1,.76-.75h0a.76.76,0,0,1,.75.75h0a.76.76,0,0,1-.75.75h0A.76.76,0,0,1,337.46,279.19Zm-6.39,0a.75.75,0,0,1,.75-.75h0a.75.75,0,0,1,.74.75h0a.75.75,0,0,1-.74.75h0A.75.75,0,0,1,331.07,279.19Zm-6.4,0a.75.75,0,0,1,.75-.75h0a.76.76,0,0,1,.75.75h0a.76.76,0,0,1-.75.75h0A.75.75,0,0,1,324.67,279.19Zm-6.41,0a.76.76,0,0,1,.76-.75h0a.76.76,0,0,1,.75.75h0a.76.76,0,0,1-.75.75h0A.76.76,0,0,1,318.26,279.19Zm-6.39,0a.75.75,0,0,1,.75-.75h0a.75.75,0,0,1,.74.75h0a.75.75,0,0,1-.74.75h0A.75.75,0,0,1,311.87,279.19Zm-6.41,0a.76.76,0,0,1,.76-.75h0a.76.76,0,0,1,.75.75h0a.76.76,0,0,1-.75.75h0A.76.76,0,0,1,305.46,279.19Zm-6.39,0a.75.75,0,0,1,.75-.75h0a.76.76,0,0,1,.75.75h0a.76.76,0,0,1-.75.75h0A.75.75,0,0,1,299.07,279.19Zm-6.4,0a.75.75,0,0,1,.75-.75h0a.76.76,0,0,1,.75.75h0a.76.76,0,0,1-.75.75h0A.75.75,0,0,1,292.67,279.19Zm-6.41,0a.76.76,0,0,1,.76-.75h0a.76.76,0,0,1,.75.75h0a.76.76,0,0,1-.75.75h0A.76.76,0,0,1,286.26,279.19Zm-6.39,0a.75.75,0,0,1,.75-.75h0a.75.75,0,0,1,.74.75h0a.75.75,0,0,1-.74.75h0A.75.75,0,0,1,279.87,279.19Zm-6.41,0a.76.76,0,0,1,.76-.75h0a.76.76,0,0,1,.75.75h0a.76.76,0,0,1-.75.75h0A.76.76,0,0,1,273.46,279.19Zm-6.39,0a.75.75,0,0,1,.74-.75h0a.76.76,0,0,1,.76.75h0a.76.76,0,0,1-.76.75h0A.75.75,0,0,1,267.07,279.19Zm-6.4,0a.75.75,0,0,1,.75-.75h0a.76.76,0,0,1,.75.75h0a.76.76,0,0,1-.75.75h0A.75.75,0,0,1,260.67,279.19Zm-6.4,0a.75.75,0,0,1,.75-.75h0a.76.76,0,0,1,.75.75h0a.76.76,0,0,1-.75.75h0A.75.75,0,0,1,254.27,279.19Z" transform="translate(0.5)"/><path class="cls-10" d="M611.25,405.06a.76.76,0,0,1,.76-.75h0a.75.75,0,0,1,.74.75h0a.75.75,0,0,1-.74.75h0A.76.76,0,0,1,611.25,405.06Zm-6.4,0a.76.76,0,0,1,.75-.75h0a.75.75,0,0,1,.75.75h0a.75.75,0,0,1-.75.75h0A.76.76,0,0,1,604.85,405.06Zm-6.4,0a.76.76,0,0,1,.75-.75h0a.75.75,0,0,1,.75.75h0a.75.75,0,0,1-.75.75h0A.76.76,0,0,1,598.45,405.06Zm-6.4,0a.76.76,0,0,1,.75-.75h0a.75.75,0,0,1,.75.75h0a.75.75,0,0,1-.75.75h0A.76.76,0,0,1,592.05,405.06Zm-6.4,0a.76.76,0,0,1,.75-.75h0a.75.75,0,0,1,.75.75h0a.75.75,0,0,1-.75.75h0A.76.76,0,0,1,585.65,405.06Zm-6.4,0a.76.76,0,0,1,.75-.75h0a.75.75,0,0,1,.75.75h0a.75.75,0,0,1-.75.75h0A.76.76,0,0,1,579.25,405.06Zm-6.4,0a.76.76,0,0,1,.75-.75h0a.75.75,0,0,1,.75.75h0a.75.75,0,0,1-.75.75h0A.76.76,0,0,1,572.85,405.06Zm-6.4,0a.76.76,0,0,1,.75-.75h0a.75.75,0,0,1,.75.75h0a.75.75,0,0,1-.75.75h0A.76.76,0,0,1,566.45,405.06Zm-6.4,0a.76.76,0,0,1,.75-.75h0a.75.75,0,0,1,.75.75h0a.75.75,0,0,1-.75.75h0A.76.76,0,0,1,560.05,405.06Zm-6.4,0a.76.76,0,0,1,.75-.75h0a.75.75,0,0,1,.75.75h0a.75.75,0,0,1-.75.75h0A.76.76,0,0,1,553.65,405.06Zm-6.4,0a.76.76,0,0,1,.75-.75h0a.75.75,0,0,1,.75.75h0a.75.75,0,0,1-.75.75h0A.76.76,0,0,1,547.25,405.06Zm-6.4,0a.76.76,0,0,1,.75-.75h0a.75.75,0,0,1,.75.75h0a.75.75,0,0,1-.75.75h0A.76.76,0,0,1,540.85,405.06Zm-6.4,0a.76.76,0,0,1,.75-.75h0a.75.75,0,0,1,.75.75h0a.75.75,0,0,1-.75.75h0A.76.76,0,0,1,534.45,405.06Zm-6.4,0a.76.76,0,0,1,.75-.75h0a.75.75,0,0,1,.75.75h0a.75.75,0,0,1-.75.75h0A.76.76,0,0,1,528.05,405.06Zm-6.4,0a.76.76,0,0,1,.75-.75h0a.75.75,0,0,1,.75.75h0a.75.75,0,0,1-.75.75h0A.76.76,0,0,1,521.65,405.06Zm-6.4,0a.76.76,0,0,1,.75-.75h0a.75.75,0,0,1,.75.75h0a.75.75,0,0,1-.75.75h0A.76.76,0,0,1,515.25,405.06Zm-6.4,0a.76.76,0,0,1,.75-.75h0a.75.75,0,0,1,.75.75h0a.75.75,0,0,1-.75.75h0A.76.76,0,0,1,508.85,405.06Zm-6.4,0a.76.76,0,0,1,.75-.75h0a.75.75,0,0,1,.75.75h0a.75.75,0,0,1-.75.75h0A.76.76,0,0,1,502.45,405.06Zm-6.4,0a.76.76,0,0,1,.75-.75h0a.75.75,0,0,1,.75.75h0a.75.75,0,0,1-.75.75h0A.76.76,0,0,1,496.05,405.06Zm-6.4,0a.76.76,0,0,1,.75-.75h0a.75.75,0,0,1,.75.75h0a.75.75,0,0,1-.75.75h0A.76.76,0,0,1,489.65,405.06Zm-6.4,0a.76.76,0,0,1,.75-.75h0a.75.75,0,0,1,.75.75h0a.75.75,0,0,1-.75.75h0A.76.76,0,0,1,483.25,405.06Zm-6.4,0a.76.76,0,0,1,.75-.75h0a.75.75,0,0,1,.75.75h0a.75.75,0,0,1-.75.75h0A.76.76,0,0,1,476.85,405.06Zm-6.4,0a.76.76,0,0,1,.75-.75h0a.75.75,0,0,1,.75.75h0a.75.75,0,0,1-.75.75h0A.76.76,0,0,1,470.45,405.06Zm-6.4,0a.76.76,0,0,1,.75-.75h0a.75.75,0,0,1,.75.75h0a.75.75,0,0,1-.75.75h0A.76.76,0,0,1,464.05,405.06Zm-6.4,0a.76.76,0,0,1,.75-.75h0a.75.75,0,0,1,.75.75h0a.75.75,0,0,1-.75.75h0A.76.76,0,0,1,457.65,405.06Zm-6.4,0a.76.76,0,0,1,.76-.75h0a.75.75,0,0,1,.74.75h0a.75.75,0,0,1-.74.75h0A.76.76,0,0,1,451.25,405.06Zm-6.4,0a.76.76,0,0,1,.75-.75h0a.75.75,0,0,1,.75.75h0a.75.75,0,0,1-.75.75h0A.76.76,0,0,1,444.85,405.06Zm-6.4,0a.76.76,0,0,1,.75-.75h0a.75.75,0,0,1,.75.75h0a.75.75,0,0,1-.75.75h0A.76.76,0,0,1,438.45,405.06Zm-6.4,0a.76.76,0,0,1,.75-.75h0a.75.75,0,0,1,.75.75h0a.75.75,0,0,1-.75.75h0A.76.76,0,0,1,432.05,405.06Zm-6.4,0a.76.76,0,0,1,.75-.75h0a.75.75,0,0,1,.75.75h0a.75.75,0,0,1-.75.75h0A.76.76,0,0,1,425.65,405.06Zm-6.4,0a.76.76,0,0,1,.75-.75h0a.75.75,0,0,1,.75.75h0a.75.75,0,0,1-.75.75h0A.76.76,0,0,1,419.25,405.06Zm-6.4,0a.76.76,0,0,1,.75-.75h0a.75.75,0,0,1,.75.75h0a.75.75,0,0,1-.75.75h0A.76.76,0,0,1,412.85,405.06Zm-6.4,0a.76.76,0,0,1,.75-.75h0a.76.76,0,0,1,.76.75h0a.76.76,0,0,1-.76.75h0A.76.76,0,0,1,406.45,405.06Zm-6.39,0a.75.75,0,0,1,.74-.75h0a.75.75,0,0,1,.75.75h0a.75.75,0,0,1-.75.75h0A.75.75,0,0,1,400.06,405.06Zm-6.41,0a.76.76,0,0,1,.75-.75h0a.75.75,0,0,1,.75.75h0a.75.75,0,0,1-.75.75h0A.76.76,0,0,1,393.65,405.06Zm-6.4,0a.76.76,0,0,1,.75-.75h0a.75.75,0,0,1,.75.75h0a.75.75,0,0,1-.75.75h0A.76.76,0,0,1,387.25,405.06Zm-6.4,0a.76.76,0,0,1,.75-.75h0a.75.75,0,0,1,.75.75h0a.75.75,0,0,1-.75.75h0A.76.76,0,0,1,380.85,405.06Zm-6.4,0a.76.76,0,0,1,.75-.75h0a.75.75,0,0,1,.75.75h0a.75.75,0,0,1-.75.75h0A.76.76,0,0,1,374.45,405.06Zm-6.4,0a.76.76,0,0,1,.75-.75h0a.75.75,0,0,1,.75.75h0a.75.75,0,0,1-.75.75h0A.76.76,0,0,1,368.05,405.06Zm-6.4,0a.76.76,0,0,1,.75-.75h0a.75.75,0,0,1,.75.75h0a.75.75,0,0,1-.75.75h0A.76.76,0,0,1,361.65,405.06Zm-6.4,0a.76.76,0,0,1,.75-.75h0a.75.75,0,0,1,.75.75h0a.75.75,0,0,1-.75.75h0A.76.76,0,0,1,355.25,405.06Zm-6.4,0a.76.76,0,0,1,.75-.75h0a.75.75,0,0,1,.75.75h0a.75.75,0,0,1-.75.75h0A.76.76,0,0,1,348.85,405.06Zm-6.39,0a.75.75,0,0,1,.75-.75h0a.76.76,0,0,1,.75.75h0a.76.76,0,0,1-.75.75h0A.75.75,0,0,1,342.46,405.06Zm-6.4,0a.75.75,0,0,1,.75-.75h0a.75.75,0,0,1,.74.75h0a.75.75,0,0,1-.74.75h0A.75.75,0,0,1,336.06,405.06Zm-6.41,0a.76.76,0,0,1,.75-.75h0a.75.75,0,0,1,.75.75h0a.75.75,0,0,1-.75.75h0A.76.76,0,0,1,329.65,405.06Zm-6.4,0a.76.76,0,0,1,.75-.75h0a.75.75,0,0,1,.75.75h0a.75.75,0,0,1-.75.75h0A.76.76,0,0,1,323.25,405.06Zm-6.4,0a.76.76,0,0,1,.75-.75h0a.75.75,0,0,1,.75.75h0a.75.75,0,0,1-.75.75h0A.76.76,0,0,1,316.85,405.06Zm-6.4,0a.76.76,0,0,1,.75-.75h0a.75.75,0,0,1,.75.75h0a.75.75,0,0,1-.75.75h0A.76.76,0,0,1,310.45,405.06Zm-6.4,0a.76.76,0,0,1,.75-.75h0a.75.75,0,0,1,.75.75h0a.75.75,0,0,1-.75.75h0A.76.76,0,0,1,304.05,405.06Zm-6.4,0a.76.76,0,0,1,.75-.75h0a.75.75,0,0,1,.75.75h0a.75.75,0,0,1-.75.75h0A.76.76,0,0,1,297.65,405.06Zm-6.4,0a.76.76,0,0,1,.75-.75h0a.76.76,0,0,1,.76.75h0a.76.76,0,0,1-.76.75h0A.76.76,0,0,1,291.25,405.06Zm-6.39,0a.75.75,0,0,1,.74-.75h0a.75.75,0,0,1,.75.75h0a.75.75,0,0,1-.75.75h0A.75.75,0,0,1,284.86,405.06Zm-6.41,0a.76.76,0,0,1,.75-.75h0a.75.75,0,0,1,.75.75h0a.75.75,0,0,1-.75.75h0A.76.76,0,0,1,278.45,405.06Zm-6.4,0a.76.76,0,0,1,.75-.75h0a.75.75,0,0,1,.75.75h0a.75.75,0,0,1-.75.75h0A.76.76,0,0,1,272.05,405.06Zm-6.4,0a.76.76,0,0,1,.75-.75h0a.75.75,0,0,1,.75.75h0a.75.75,0,0,1-.75.75h0A.76.76,0,0,1,265.65,405.06Zm-6.4,0a.76.76,0,0,1,.75-.75h0a.75.75,0,0,1,.75.75h0a.75.75,0,0,1-.75.75h0A.76.76,0,0,1,259.25,405.06Zm-6.4,0a.76.76,0,0,1,.75-.75h0a.75.75,0,0,1,.75.75h0a.75.75,0,0,1-.75.75h0A.76.76,0,0,1,252.85,405.06Zm-6.4,0a.76.76,0,0,1,.75-.75h0a.75.75,0,0,1,.75.75h0a.75.75,0,0,1-.75.75h0A.76.76,0,0,1,246.45,405.06Zm-6.39,0a.75.75,0,0,1,.75-.75h0a.76.76,0,0,1,.75.75h0a.76.76,0,0,1-.75.75h0A.75.75,0,0,1,240.06,405.06Zm-6.4,0a.75.75,0,0,1,.75-.75h0a.76.76,0,0,1,.75.75h0a.76.76,0,0,1-.75.75h0A.75.75,0,0,1,233.66,405.06Z" transform="translate(0.5)"/><rect class="cls-6" x="291.67" y="145.49" width="67.58" height="67.58" rx="33.79"/><circle class="cls-6" cx="325.46" cy="179.28" r="16.76"/><circle class="cls-6" cx="325.46" cy="179.28" r="11.52"/><circle class="cls-6" cx="325.46" cy="179.28" r="5.44"/><circle class="cls-9" cx="325.46" cy="179.28" r="16.76"/><circle class="cls-4" cx="325.46" cy="179.28" r="16.76"/><circle class="cls-11" cx="325.46" cy="179.28" r="11.52"/><circle class="cls-4" cx="325.46" cy="179.28" r="11.52"/><circle class="cls-12" cx="325.46" cy="179.28" r="5.44"/><circle class="cls-4" cx="325.46" cy="179.28" r="5.44"/><path class="cls-13" d="M321.42,171.52h22.69a.78.78,0,0,1,.78.78v.36a.78.78,0,0,1-.78.78H321.42a0,0,0,0,1,0,0v-1.91A0,0,0,0,1,321.42,171.52Z" transform="translate(701.08 96.71) rotate(140.98)"/><polygon class="cls-14" points="340.38 167.01 343.53 164.46 343.79 161.97 340.75 164.44 340.38 167.01"/><polygon class="cls-15" points="340.4 167.04 343.55 164.48 346.03 164.74 343 167.21 340.4 167.04"/><path class="cls-16" d="M345.54,164.7l-2.47-.25.26-2.47a.05.05,0,0,0,0,0h-.05l-3,2.47a0,0,0,0,0,0,0l-.37,2.58s0,0,0,0h0l0,0,2.6.17h0l3-2.47s0,0,0,0Z" transform="translate(0.5)"/><rect class="cls-6" x="491.09" y="145.49" width="67.58" height="67.58" rx="33.79"/><path class="cls-16" d="M526.21,177.06a41,41,0,0,1,5.11,1.89,9,9,0,0,1,3.38,2.76,7.75,7.75,0,0,1,1.39,4.78,8.17,8.17,0,0,1-1.24,4.39,8.71,8.71,0,0,1-3.7,3.22,13.51,13.51,0,0,1-6,1.21h0v3.53h-1.68v-3.61a13,13,0,0,1-7.47-2.85,8.88,8.88,0,0,1-3.2-6.37h6.61a5,5,0,0,0,1.24,2.8,4.91,4.91,0,0,0,2.82,1.57v-8.65l-.88-.26a38.85,38.85,0,0,1-5.14-1.83,8.8,8.8,0,0,1-3.35-2.74,7.76,7.76,0,0,1-1.39-4.83,7.59,7.59,0,0,1,1.39-4.54,9.07,9.07,0,0,1,3.84-3,14.42,14.42,0,0,1,5.53-1.1v-3.7h1.68v3.75a12,12,0,0,1,7.3,2.66,8.87,8.87,0,0,1,3.06,6h-6.7a4.66,4.66,0,0,0-1.17-2.49,4.4,4.4,0,0,0-2.49-1.34v8.37Zm-5.82-2.67a9.15,9.15,0,0,0,3,1.74v-7.94a4.85,4.85,0,0,0-3,1,3.24,3.24,0,0,0-1.08,2.6A3.36,3.36,0,0,0,520.39,174.39Zm7.89,15a3.66,3.66,0,0,0,1.15-2.8A3.34,3.34,0,0,0,528.3,184a9.39,9.39,0,0,0-3.19-1.69v8.24A4.58,4.58,0,0,0,528.28,189.43Z" transform="translate(0.5)"/><rect class="cls-6" x="167.32" y="371.27" width="67.58" height="67.58" rx="33.79"/><rect class="cls-5" x="183.67" y="408.73" width="4.71" height="14.71" rx="2.35"/><rect class="cls-5" x="192.77" y="402.97" width="4.71" height="20.47" rx="2.35"/><rect class="cls-5" x="201.88" y="408.73" width="4.71" height="14.71" rx="2.35"/><rect class="cls-5" x="210.99" y="397.02" width="4.71" height="26.42" rx="2.35"/><path class="cls-17" d="M214.73,387.62a1.13,1.13,0,0,0-1.3-.92l-2.36.4a1.09,1.09,0,0,0-.73.46,1.12,1.12,0,0,0,0,1.25,1.13,1.13,0,0,0,.67.49L204,399.05l-8.95-6a1.32,1.32,0,0,0-1.45,0l-9.85,6.65a1.29,1.29,0,0,0-.55.83,1.33,1.33,0,0,0,.2,1,1.3,1.3,0,0,0,1.8.34l9.13-6.16,9.27,6.24a1.3,1.3,0,0,0,.72.22,1.32,1.32,0,0,0,1.06-.55l7.66-10.77a1.14,1.14,0,0,0,1.86,0,1.15,1.15,0,0,0,.19-.84Z" transform="translate(0.5)"/><rect class="cls-6" x="615.44" y="371.27" width="67.58" height="67.58" rx="33.79"/><path class="cls-16" d="M637.62,424.73h-1.11a2.16,2.16,0,0,1-2.1-1.63L631,409.44h4.61L637.73,420l1.34,2.09A1.72,1.72,0,0,1,637.62,424.73Z" transform="translate(0.5)"/><path class="cls-16" d="M637.69,416h-1a.67.67,0,0,1-.66-.56l-.42-2.82a.66.66,0,0,1,.65-.76h0a.66.66,0,0,1,.6.36l1.41,2.82A.66.66,0,0,1,637.69,416Z" transform="translate(0.5)"/><path class="cls-16" d="M638,404a7.52,7.52,0,0,1-3.11,6.39l-1.63-.09a3.67,3.67,0,0,1-1.64-.47l-2,.17a1.08,1.08,0,0,1-.82-.29,7.91,7.91,0,0,1-2.26-5.71,8.1,8.1,0,0,1,1.91-5.37h0l1.49-.36a4,4,0,0,1,.76-1.19,4.72,4.72,0,0,1,1.55-.27C635.43,396.82,638,400,638,404Z" transform="translate(0.5)"/><path class="cls-16" d="M638.85,403.17c0,3.13-1,5.86-2.46,7.32l-1.52-.09-1.63-.09a3.67,3.67,0,0,1-1.64-.47,3.78,3.78,0,0,1-1.69-1.92,13.75,13.75,0,0,1,0-9.52l.06-.12a4,4,0,0,1,.76-1.19,4.38,4.38,0,0,1,1.93-1.27l2.53-.82C637.29,395.94,638.85,399.24,638.85,403.17Z" transform="translate(0.5)"/><ellipse class="cls-6" cx="636.87" cy="402.62" rx="4.46" ry="7.9"/><path class="cls-16" d="M659.38,386l-22.22,11.61a3.29,3.29,0,0,0-1.36,1,6.3,6.3,0,0,0-1.18,5.16,6.69,6.69,0,0,0,2.14,4.05,6.56,6.56,0,0,0,2.81.88l25.16,1.89Z" transform="translate(0.5)"/><path class="cls-6" d="M670,396.7c-1-6.45-4.84-11.2-8.48-10.61s-5.73,6.3-4.68,12.75,4.84,11.2,8.48,10.61S671.07,403.15,670,396.7Z" transform="translate(0.5)"/><path class="cls-16" d="M659.63,387.55c-2.1,1.92-3.12,6.26-2.34,11,.66,4.07,2.46,7.42,4.59,9,2.1-1.92,3.11-6.26,2.34-11C663.56,392.53,661.76,389.17,659.63,387.55Z" transform="translate(0.5)"/><path class="cls-6" d="M666,399.17,658.54,403A18.88,18.88,0,0,1,657,395.3l7.91.11Z" transform="translate(0.5)"/><ellipse class="cls-16" cx="665.22" cy="397.32" rx="1" ry="2.08" transform="translate(-84.07 201.88) rotate(-16.24)"/><path class="cls-16" d="M670.59,396.61c-1.14-7-5.26-12.17-9.21-11.53s-6.23,6.84-5.09,13.85,5.26,12.18,9.21,11.53S671.73,403.62,670.59,396.61Zm-5.38,12c-3.39.55-6.93-3.95-7.92-10.05s1-11.5,4.33-12,6.92,3.95,7.92,10.06S668.59,408.09,665.21,408.64Z" transform="translate(0.5)"/><rect class="cls-6" x="187.93" y="247.66" width="67.58" height="67.58" rx="33.79"/><path class="cls-17" d="M237.9,281.45a16.68,16.68,0,1,0-19.28,16.47V286.27h-4.24v-4.82h4.24v-3.68c0-4.18,2.49-6.49,6.3-6.49a25.34,25.34,0,0,1,3.73.33v4.1h-2.1a2.42,2.42,0,0,0-2.72,2.61v3.13h4.62l-.74,4.82h-3.88v11.65A16.68,16.68,0,0,0,237.9,281.45Z" transform="translate(0.5)"/><path class="cls-6" d="M227.71,286.27l.74-4.82h-4.62v-3.13a2.42,2.42,0,0,1,2.72-2.61h2.1v-4.1a25.34,25.34,0,0,0-3.73-.33c-3.81,0-6.3,2.31-6.3,6.49v3.68h-4.24v4.82h4.24v11.65a17.07,17.07,0,0,0,5.21,0V286.27Z" transform="translate(0.5)"/><rect class="cls-6" x="594.83" y="247.55" width="67.58" height="67.58" rx="33.79"/><path class="cls-18" d="M614.42,275.07h28.93a1.83,1.83,0,0,1,1.83,1.83v20.21A1.87,1.87,0,0,1,643.3,299H614.47a1.87,1.87,0,0,1-1.87-1.87V276.9A1.83,1.83,0,0,1,614.42,275.07Z"/><path class="cls-17" d="M642.79,275.07H614a1.9,1.9,0,0,0-1.88,1.7l13.4,9.78a5.55,5.55,0,0,0,6.63-.06l12.55-9.55A1.88,1.88,0,0,0,642.79,275.07Z" transform="translate(0.5)"/><path class="cls-13" d="M640.3,268.22H616.55V280l9,6.53a5.55,5.55,0,0,0,6.63-.06l8.17-6.22Z" transform="translate(0.5)"/><rect class="cls-17" x="620.52" y="270.95" width="16.69" height="1.21"/><rect class="cls-13" x="620.52" y="275.07" width="16.69" height="1.21"/><rect class="cls-13" x="620.52" y="279.19" width="8.1" height="1.21"/><path class="cls-17" d="M614,299h28.84a1.43,1.43,0,0,0,.93-2.5l-13.41-12.07a2.9,2.9,0,0,0-3.87,0l-13.61,12a1.45,1.45,0,0,0,.15,2.29A1.86,1.86,0,0,0,614,299Z" transform="translate(0.5)"/><path class="cls-10" d="M201,372a.74.74,0,0,1-.46-1h0a.75.75,0,0,1,1-.46h0a.75.75,0,0,1,.45,1h0a.75.75,0,0,1-.7.5h0A.7.7,0,0,1,201,372Zm2.14-6a.74.74,0,0,1-.45-.95h0a.74.74,0,0,1,.95-.46h0a.75.75,0,0,1,.46,1h0a.75.75,0,0,1-.71.5h0A.79.79,0,0,1,203.17,365.94Zm2.15-6a.74.74,0,0,1-.46-1h0a.75.75,0,0,1,1-.46h0a.75.75,0,0,1,.46,1h0a.75.75,0,0,1-.71.5h0A.74.74,0,0,1,205.32,359.91Zm2.14-6a.73.73,0,0,1-.45-.95h0a.75.75,0,0,1,1-.46h0a.75.75,0,0,1,.45,1h0a.74.74,0,0,1-.7.5h0A.8.8,0,0,1,207.46,353.88Zm2.15-6a.75.75,0,0,1-.45-1h0a.74.74,0,0,1,1-.46h0a.75.75,0,0,1,.46,1h0a.75.75,0,0,1-.71.5h0A.73.73,0,0,1,209.61,347.86Zm2.15-6a.75.75,0,0,1-.46-1h0a.75.75,0,0,1,1-.46h0a.75.75,0,0,1,.46,1h0a.75.75,0,0,1-.71.5h0A.73.73,0,0,1,211.76,341.83Zm2.14-6a.75.75,0,0,1-.45-1h0a.76.76,0,0,1,1-.46h0a.75.75,0,0,1,.45,1h0a.75.75,0,0,1-.7.5h0A.78.78,0,0,1,213.9,335.8Zm2.15-6a.75.75,0,0,1-.45-1h0a.74.74,0,0,1,1-.46h0a.75.75,0,0,1,.46,1h0a.75.75,0,0,1-.71.5h0A.73.73,0,0,1,216.05,329.77Zm2.15-6a.75.75,0,0,1-.46-1h0a.75.75,0,0,1,1-.45h0a.73.73,0,0,1,.45.95h0a.73.73,0,0,1-.7.5h0A.73.73,0,0,1,218.2,323.74Zm2.14-6a.75.75,0,0,1-.45-1h0a.75.75,0,0,1,1-.45h0a.73.73,0,0,1,.45.95h0a.75.75,0,0,1-.71.5h0A.77.77,0,0,1,220.34,317.71Z" transform="translate(0.5)"/><path class="cls-10" d="M645.35,369.76a.75.75,0,0,1,.45-1h0a.75.75,0,0,1,1,.45h0a.75.75,0,0,1-.46,1h0a.69.69,0,0,1-.25,0h0A.73.73,0,0,1,645.35,369.76Zm-2.15-6a.75.75,0,0,1,.45-1h0a.75.75,0,0,1,1,.45h0a.75.75,0,0,1-.45,1h0a.77.77,0,0,1-.25,0h0A.76.76,0,0,1,643.2,363.73Zm-2.15-6a.76.76,0,0,1,.46-1h0a.75.75,0,0,1,1,.45h0a.76.76,0,0,1-.46,1h0a.74.74,0,0,1-.25.05h0A.76.76,0,0,1,641.05,357.7Zm-2.14-6a.75.75,0,0,1,.45-1h0a.75.75,0,0,1,1,.45h0a.75.75,0,0,1-.46,1h0a.7.7,0,0,1-.25.05h0A.75.75,0,0,1,638.91,351.67Zm-2.15-6a.75.75,0,0,1,.45-1h0a.75.75,0,0,1,1,.45h0a.75.75,0,0,1-.45,1h0a.8.8,0,0,1-.26.05h0A.75.75,0,0,1,636.76,345.64Zm-2.15-6a.75.75,0,0,1,.46-1h0a.75.75,0,0,1,1,.45h0a.76.76,0,0,1-.46,1h0a.74.74,0,0,1-.25.05h0A.75.75,0,0,1,634.61,339.61Zm-2.14-6a.75.75,0,0,1,.45-1h0a.75.75,0,0,1,1,.46h0a.74.74,0,0,1-.46.95h0a.7.7,0,0,1-.25.05h0A.74.74,0,0,1,632.47,333.58Zm-2.15-6a.75.75,0,0,1,.46-1h0a.74.74,0,0,1,1,.46h0a.73.73,0,0,1-.45.95h0a.79.79,0,0,1-.25.05h0A.75.75,0,0,1,630.32,327.55Zm-2.15-6a.76.76,0,0,1,.46-1h0a.75.75,0,0,1,1,.46h0a.75.75,0,0,1-.46,1h0a1.09,1.09,0,0,1-.25,0h0A.75.75,0,0,1,628.17,321.52Zm-2.14-6a.75.75,0,0,1,.45-1h0a.76.76,0,0,1,1,.46h0a.75.75,0,0,1-.45,1h0a.78.78,0,0,1-.26,0h0A.75.75,0,0,1,626,315.49Z" transform="translate(0.5)"/><path class="cls-10" d="M623.85,248.06a.75.75,0,0,1,0-1.06h0a.75.75,0,0,1,1.06.05h0a.75.75,0,0,1-.05,1.06h0a.74.74,0,0,1-.51.19h0A.75.75,0,0,1,623.85,248.06Zm-4.34-4.7a.75.75,0,0,1,0-1.06h0a.76.76,0,0,1,1.06,0h0a.75.75,0,0,1,0,1.06h0a.74.74,0,0,1-.5.2h0A.76.76,0,0,1,619.51,243.36Zm-4.33-4.71a.74.74,0,0,1,0-1.06h0a.75.75,0,0,1,1.06,0h0a.74.74,0,0,1,0,1.05h0a.73.73,0,0,1-.51.2h0A.72.72,0,0,1,615.18,238.65Zm-4.34-4.7a.75.75,0,0,1,0-1.06h0a.76.76,0,0,1,1.06,0h0a.75.75,0,0,1,0,1.06h0a.78.78,0,0,1-.51.2h0A.74.74,0,0,1,610.84,234Zm-4.34-4.71a.76.76,0,0,1,0-1.06h0a.75.75,0,0,1,1.06,0h0a.76.76,0,0,1,0,1.06h0a.77.77,0,0,1-.51.19h0A.75.75,0,0,1,606.5,229.24Zm-4.34-4.7a.75.75,0,0,1,0-1.06h0a.75.75,0,0,1,1.06,0h0a.76.76,0,0,1,0,1.06h0a.78.78,0,0,1-.51.2h0A.75.75,0,0,1,602.16,224.54Zm-4.34-4.71a.76.76,0,0,1,0-1.06h0a.75.75,0,0,1,1.06,0h0a.75.75,0,0,1,0,1.06h0a.75.75,0,0,1-.51.19h0A.75.75,0,0,1,597.82,219.83Zm-4.34-4.7a.75.75,0,0,1,0-1.06h0a.74.74,0,0,1,1.05,0h0a.74.74,0,0,1,0,1.06h0a.74.74,0,0,1-.51.2h0A.75.75,0,0,1,593.48,215.13Zm-4.34-4.71a.75.75,0,0,1,.05-1.06h0a.75.75,0,0,1,1.06,0h0a.75.75,0,0,1,0,1.06h0a.73.73,0,0,1-.5.19h0A.76.76,0,0,1,589.14,210.42Zm-4.34-4.7a.75.75,0,0,1,.05-1.06h0a.76.76,0,0,1,1.06,0h0a.75.75,0,0,1,0,1.06h0a.74.74,0,0,1-.5.2h0A.76.76,0,0,1,584.8,205.72ZM580.47,201a.75.75,0,0,1,0-1.06h0a.75.75,0,0,1,1.06.05h0a.76.76,0,0,1,0,1.06h0a.77.77,0,0,1-.51.19h0A.74.74,0,0,1,580.47,201Zm-4.34-4.7a.75.75,0,0,1,0-1.06h0a.75.75,0,0,1,1.06,0h0a.75.75,0,0,1,0,1.06h0a.78.78,0,0,1-.51.2h0A.75.75,0,0,1,576.13,196.31Zm-4.34-4.71a.76.76,0,0,1,0-1.06h0a.75.75,0,0,1,1.06.05h0a.76.76,0,0,1,0,1.06h0a.77.77,0,0,1-.51.19h0A.75.75,0,0,1,571.79,191.6Zm-4.34-4.7a.75.75,0,0,1,0-1.06h0a.75.75,0,0,1,1.06,0h0a.75.75,0,0,1,0,1.06h0a.78.78,0,0,1-.51.2h0A.75.75,0,0,1,567.45,186.9Zm-4.34-4.71a.76.76,0,0,1,0-1.06h0a.75.75,0,0,1,1.06.05h0a.75.75,0,0,1,0,1.06h0a.76.76,0,0,1-.51.2h0A.76.76,0,0,1,563.11,182.19Zm-4.34-4.7a.75.75,0,0,1,.05-1.06h0a.76.76,0,0,1,1.06,0h0a.75.75,0,0,1,0,1.06h0a.74.74,0,0,1-.5.2h0A.76.76,0,0,1,558.77,177.49Z" transform="translate(0.5)"/><path class="cls-10" d="M224.43,248.11a.75.75,0,0,1,0-1.07h0a.74.74,0,0,1,1.05,0h0a.75.75,0,0,1,.05,1.06h0a.75.75,0,0,1-.55.24h0A.74.74,0,0,1,224.43,248.11Zm4.34-4.71a.75.75,0,0,1-.05-1.06h0a.76.76,0,0,1,1.06,0h0a.75.75,0,0,1,.05,1.06h0a.76.76,0,0,1-.56.24h0A.74.74,0,0,1,228.77,243.4Zm4.33-4.71a.75.75,0,0,1,0-1.06h0a.76.76,0,0,1,1.06,0h0a.75.75,0,0,1,0,1.06h0a.76.76,0,0,1-.56.24h0A.73.73,0,0,1,233.1,238.69Zm4.34-4.7a.76.76,0,0,1,0-1.06h0a.76.76,0,0,1,1.06,0h0a.75.75,0,0,1,0,1.06h0a.74.74,0,0,1-.55.24h0A.78.78,0,0,1,237.44,234Zm4.34-4.71a.74.74,0,0,1,0-1.05h0a.75.75,0,0,1,1.06,0h0a.76.76,0,0,1,0,1.06h0a.75.75,0,0,1-.55.24h0A.73.73,0,0,1,241.78,229.28Zm4.34-4.7a.75.75,0,0,1,0-1.06h0a.75.75,0,0,1,1.06,0h0a.75.75,0,0,1,0,1.06h0a.75.75,0,0,1-.55.24h0A.78.78,0,0,1,246.12,224.58Zm4.34-4.7a.76.76,0,0,1,0-1.06h0a.75.75,0,0,1,1.06,0h0a.76.76,0,0,1,0,1.06h0a.75.75,0,0,1-.55.24h0A.75.75,0,0,1,250.46,219.88Zm4.34-4.71a.75.75,0,0,1,0-1.06h0a.75.75,0,0,1,1.06,0h0a.75.75,0,0,1,0,1.06h0a.75.75,0,0,1-.55.24h0A.76.76,0,0,1,254.8,215.17Zm4.34-4.7a.74.74,0,0,1,0-1.06h0a.73.73,0,0,1,1,0h0a.75.75,0,0,1,.05,1.06h0a.75.75,0,0,1-.55.24h0A.74.74,0,0,1,259.14,210.47Zm4.34-4.71a.75.75,0,0,1-.05-1.06h0a.76.76,0,0,1,1.06,0h0a.75.75,0,0,1,.05,1.06h0a.76.76,0,0,1-.56.24h0A.74.74,0,0,1,263.48,205.76Zm4.33-4.7a.76.76,0,0,1,0-1.06h0a.75.75,0,0,1,1.06-.05h0a.75.75,0,0,1,.05,1.06h0a.76.76,0,0,1-.56.24h0A.77.77,0,0,1,267.81,201.06Zm4.34-4.71a.75.75,0,0,1,0-1.06h0a.76.76,0,0,1,1.06,0h0a.75.75,0,0,1,0,1.06h0a.74.74,0,0,1-.55.24h0A.78.78,0,0,1,272.15,196.35Zm4.34-4.7a.76.76,0,0,1,0-1.06h0a.75.75,0,0,1,1.06-.05h0a.76.76,0,0,1,0,1.06h0a.76.76,0,0,1-.55.25h0A.78.78,0,0,1,276.49,191.65Zm4.34-4.71a.75.75,0,0,1,0-1.06h0a.75.75,0,0,1,1.06,0h0a.75.75,0,0,1,0,1.06h0a.75.75,0,0,1-.55.24h0A.73.73,0,0,1,280.83,186.94Zm4.34-4.7a.76.76,0,0,1,0-1.06h0a.75.75,0,0,1,1.06-.05h0a.76.76,0,0,1,0,1.06h0a.76.76,0,0,1-.55.25h0A.76.76,0,0,1,285.17,182.24Zm4.34-4.71a.75.75,0,0,1,0-1.06h0a.74.74,0,0,1,1,0h0a.75.75,0,0,1,.05,1.06h0a.75.75,0,0,1-.55.24h0A.7.7,0,0,1,289.51,177.53Z" transform="translate(0.5)"/><path class="cls-10" d="M237.19,404.09a.75.75,0,0,1,.46-1h0a.74.74,0,0,1,.95.46h0a.75.75,0,0,1-.46,1h0a.69.69,0,0,1-.25,0h0A.73.73,0,0,1,237.19,404.09Zm6-2.12a.74.74,0,0,1,.46-1h0a.74.74,0,0,1,.95.46h0a.74.74,0,0,1-.46.95h0a.69.69,0,0,1-.24.05h0A.76.76,0,0,1,243.23,402Zm6-2.11a.75.75,0,0,1,.46-1h0a.75.75,0,0,1,1,.46h0a.75.75,0,0,1-.45,1h0a.77.77,0,0,1-.25,0h0A.75.75,0,0,1,249.27,399.86Zm6-2.11a.75.75,0,0,1,.46-1h0a.76.76,0,0,1,1,.46h0a.76.76,0,0,1-.46,1h0a.77.77,0,0,1-.25,0h0A.75.75,0,0,1,255.31,397.75Zm6-2.11a.75.75,0,0,1,.46-1h0a.75.75,0,0,1,1,.46h0a.76.76,0,0,1-.46,1h0a1.18,1.18,0,0,1-.25,0h0A.76.76,0,0,1,261.35,395.64Zm6-2.12a.75.75,0,0,1,.46-.95h0a.75.75,0,0,1,1,.46h0a.74.74,0,0,1-.46,1h0a.73.73,0,0,1-.25,0h0A.75.75,0,0,1,267.39,393.52Zm6-2.11a.76.76,0,0,1,.46-1h0a.76.76,0,0,1,1,.46h0a.75.75,0,0,1-.46,1h0a.73.73,0,0,1-.25,0h0A.75.75,0,0,1,273.43,391.41Zm6.05-2.11a.75.75,0,0,1,.45-1h0a.75.75,0,0,1,1,.46h0a.75.75,0,0,1-.46,1h0a.69.69,0,0,1-.25,0h0A.73.73,0,0,1,279.48,389.3Zm6-2.11a.74.74,0,0,1,.46-1h0a.74.74,0,0,1,.95.46h0a.74.74,0,0,1-.46.95h0a.7.7,0,0,1-.25.05h0A.75.75,0,0,1,285.52,387.19Zm6-2.12a.74.74,0,0,1,.46-.95h0a.74.74,0,0,1,1,.46h0a.74.74,0,0,1-.46.95h0a.67.67,0,0,1-.24,0h0A.75.75,0,0,1,291.56,385.07Zm6-2.11a.75.75,0,0,1,.46-1h0a.75.75,0,0,1,.95.46h0a.75.75,0,0,1-.46,1h0a.67.67,0,0,1-.24,0h0A.75.75,0,0,1,297.6,383Zm6-2.11a.75.75,0,0,1,.46-1h0a.75.75,0,0,1,1,.46h0a.76.76,0,0,1-.47,1h0a1,1,0,0,1-.24,0h0A.75.75,0,0,1,303.64,380.85Zm6-2.12a.74.74,0,0,1,.46-1h0a.75.75,0,0,1,1,.46h0a.75.75,0,0,1-.46.95h0a.79.79,0,0,1-.25.05h0A.76.76,0,0,1,309.68,378.73Zm6-2.11a.75.75,0,0,1,.46-.95h0a.75.75,0,0,1,1,.46h0a.75.75,0,0,1-.46.95h0a.73.73,0,0,1-.25,0h0A.75.75,0,0,1,315.72,376.62Zm6-2.11a.76.76,0,0,1,.46-1h0a.76.76,0,0,1,1,.46h0a.75.75,0,0,1-.46,1h0a.73.73,0,0,1-.25,0h0A.75.75,0,0,1,321.76,374.51Zm6-2.11a.76.76,0,0,1,.47-1h0a.74.74,0,0,1,1,.46h0a.75.75,0,0,1-.46,1h0a.73.73,0,0,1-.25,0h0A.75.75,0,0,1,327.8,372.4Zm6.05-2.12a.74.74,0,0,1,.46-.95h0a.74.74,0,0,1,.95.46h0a.74.74,0,0,1-.46.95h0a.7.7,0,0,1-.25.05h0A.74.74,0,0,1,333.85,370.28Zm6-2.11a.75.75,0,0,1,.46-1h0a.75.75,0,0,1,.95.46h0a.75.75,0,0,1-.46,1h0a.67.67,0,0,1-.24,0h0A.74.74,0,0,1,339.89,368.17Zm6-2.11a.75.75,0,0,1,.46-1h0a.74.74,0,0,1,.95.46h0a.75.75,0,0,1-.46,1h0a.67.67,0,0,1-.24,0h0A.75.75,0,0,1,345.93,366.06Zm6-2.11a.75.75,0,0,1,.46-1h0a.75.75,0,0,1,1,.46h0a.76.76,0,0,1-.46,1h0a1.18,1.18,0,0,1-.25,0h0A.76.76,0,0,1,352,364Zm6-2.12a.74.74,0,0,1,.46-.95h0a.75.75,0,0,1,1,.46h0a.75.75,0,0,1-.46,1h0a.77.77,0,0,1-.25,0h0A.75.75,0,0,1,358,361.83Zm6-2.11a.76.76,0,0,1,.46-1h0a.76.76,0,0,1,1,.46h0a.76.76,0,0,1-.46,1h0a.73.73,0,0,1-.25,0h0A.75.75,0,0,1,364.05,359.72Zm6-2.11a.76.76,0,0,1,.46-1h0a.76.76,0,0,1,1,.46h0a.76.76,0,0,1-.46,1h0a.73.73,0,0,1-.25,0h0A.75.75,0,0,1,370.09,357.61Zm6.05-2.12a.74.74,0,0,1,.45-.95h0a.75.75,0,0,1,1,.46h0a.74.74,0,0,1-.46.95h0a.74.74,0,0,1-.25.05h0A.74.74,0,0,1,376.14,355.49Zm6-2.11a.75.75,0,0,1,.46-1h0a.75.75,0,0,1,.95.47h0a.74.74,0,0,1-.46.95h0a.69.69,0,0,1-.25,0h0A.73.73,0,0,1,382.18,353.38Zm6-2.11a.75.75,0,0,1,.46-1h0a.75.75,0,0,1,.95.46h0a.75.75,0,0,1-.46,1h0a.67.67,0,0,1-.24,0h0A.75.75,0,0,1,388.22,351.27Zm6-2.11a.75.75,0,0,1,.46-1h0a.74.74,0,0,1,.95.46h0a.75.75,0,0,1-.46,1h0a1,1,0,0,1-.24,0h0A.76.76,0,0,1,394.26,349.16Zm6-2.12a.74.74,0,0,1,.46-1h0a.74.74,0,0,1,.95.46h0a.73.73,0,0,1-.45.95h0a.79.79,0,0,1-.25.05h0A.76.76,0,0,1,400.3,347Zm6-2.11a.74.74,0,0,1,.46-.95h0a.75.75,0,0,1,1,.45h0a.76.76,0,0,1-.46,1h0a.77.77,0,0,1-.25,0h0A.75.75,0,0,1,406.34,344.93Zm6-2.11a.76.76,0,0,1,.46-1h0a.76.76,0,0,1,1,.46h0a.76.76,0,0,1-.46,1h0a.73.73,0,0,1-.25,0h0A.75.75,0,0,1,412.38,342.82Zm6-2.11a.76.76,0,0,1,.46-1h0a.75.75,0,0,1,1,.46h0a.75.75,0,0,1-.46,1h0a1.09,1.09,0,0,1-.25,0h0A.76.76,0,0,1,418.42,340.71Zm6-2.12a.75.75,0,0,1,.46-.95h0a.75.75,0,0,1,1,.46h0a.74.74,0,0,1-.46.95h0a.69.69,0,0,1-.25,0h0A.75.75,0,0,1,424.46,338.59Zm6.05-2.11a.75.75,0,0,1,.46-1h0a.75.75,0,0,1,.95.47h0a.74.74,0,0,1-.46.95h0a.73.73,0,0,1-.25,0h0A.73.73,0,0,1,430.51,336.48Zm6-2.11a.75.75,0,0,1,.46-1h0a.74.74,0,0,1,.95.46h0a.75.75,0,0,1-.46,1h0a.69.69,0,0,1-.25,0h0A.73.73,0,0,1,436.55,334.37Zm6-2.11a.75.75,0,0,1,.46-1h0a.74.74,0,0,1,.95.46h0a.74.74,0,0,1-.46.95h0a.69.69,0,0,1-.24.05h0A.76.76,0,0,1,442.59,332.26Zm6-2.12a.74.74,0,0,1,.46-.95h0a.74.74,0,0,1,1,.46h0a.74.74,0,0,1-.46,1h0a.67.67,0,0,1-.24,0h0A.75.75,0,0,1,448.63,330.14Zm6-2.11a.75.75,0,0,1,.46-1h0a.76.76,0,0,1,1,.46h0a.76.76,0,0,1-.47,1h0a.67.67,0,0,1-.24,0h0A.75.75,0,0,1,454.67,328Zm6-2.11a.75.75,0,0,1,.46-1h0a.76.76,0,0,1,1,.46h0a.76.76,0,0,1-.46,1h0a.73.73,0,0,1-.25,0h0A.75.75,0,0,1,460.71,325.92Zm6-2.12a.75.75,0,0,1,.46-.95h0a.75.75,0,0,1,1,.46h0a.74.74,0,0,1-.46.95h0a.74.74,0,0,1-.25.05h0A.76.76,0,0,1,466.75,323.8Zm6-2.11a.76.76,0,0,1,.46-1h0a.76.76,0,0,1,1,.47h0a.74.74,0,0,1-.46.95h0a.73.73,0,0,1-.25,0h0A.75.75,0,0,1,472.79,321.69Zm6-2.11a.76.76,0,0,1,.47-1h0a.75.75,0,0,1,.95.46h0a.75.75,0,0,1-.46,1h0a.69.69,0,0,1-.25,0h0A.75.75,0,0,1,478.83,319.58Zm6.05-2.11a.75.75,0,0,1,.46-1h0a.74.74,0,0,1,1,.46h0a.75.75,0,0,1-.46,1h0a1.09,1.09,0,0,1-.25,0h0A.74.74,0,0,1,484.88,317.47Zm6-2.12a.74.74,0,0,1,.46-1h0a.74.74,0,0,1,.95.46h0a.74.74,0,0,1-.46.95h0a.69.69,0,0,1-.24.05h0A.76.76,0,0,1,490.92,315.35Zm6-2.11a.74.74,0,0,1,.46-.95h0a.73.73,0,0,1,.95.45h0a.74.74,0,0,1-.46,1h0a.67.67,0,0,1-.24,0h0A.75.75,0,0,1,497,313.24Zm6-2.11a.75.75,0,0,1,.46-1h0a.76.76,0,0,1,1,.46h0a.76.76,0,0,1-.46,1h0a.77.77,0,0,1-.25,0h0A.75.75,0,0,1,503,311.13Zm6-2.12a.74.74,0,0,1,.46-.95h0a.75.75,0,0,1,1,.46h0a.76.76,0,0,1-.46,1h0a1.18,1.18,0,0,1-.25,0h0A.76.76,0,0,1,509,309Zm6-2.11a.75.75,0,0,1,.46-.95h0a.75.75,0,0,1,1,.46h0a.75.75,0,0,1-.46.95h0a.73.73,0,0,1-.25,0h0A.75.75,0,0,1,515.08,306.9Zm6-2.11a.76.76,0,0,1,.46-1h0a.76.76,0,0,1,1,.46h0a.75.75,0,0,1-.46,1h0a.73.73,0,0,1-.25,0h0A.75.75,0,0,1,521.12,304.79Zm6-2.11a.75.75,0,0,1,.45-1h0a.75.75,0,0,1,1,.46h0a.75.75,0,0,1-.46,1h0a.73.73,0,0,1-.25,0h0A.73.73,0,0,1,527.17,302.68Zm6-2.12a.74.74,0,0,1,.46-.95h0a.74.74,0,0,1,1,.46h0a.74.74,0,0,1-.46.95h0a.7.7,0,0,1-.25.05h0A.74.74,0,0,1,533.21,300.56Zm6-2.11a.74.74,0,0,1,.46-.95h0a.74.74,0,0,1,.95.46h0a.74.74,0,0,1-.46,1h0a.69.69,0,0,1-.25,0h0A.75.75,0,0,1,539.25,298.45Zm6-2.11a.75.75,0,0,1,.46-1h0a.75.75,0,0,1,1,.46h0a.74.74,0,0,1-.46,1h0a.67.67,0,0,1-.24,0h0A.75.75,0,0,1,545.29,296.34Zm6-2.11a.75.75,0,0,1,.46-1h0a.74.74,0,0,1,1,.46h0a.75.75,0,0,1-.45,1h0a1.18,1.18,0,0,1-.25,0h0A.75.75,0,0,1,551.33,294.23Zm6-2.12a.74.74,0,0,1,.46-.95h0a.75.75,0,0,1,1,.46h0a.75.75,0,0,1-.46.95h0a.79.79,0,0,1-.25.05h0A.76.76,0,0,1,557.37,292.11Zm6-2.11a.76.76,0,0,1,.46-1h0a.77.77,0,0,1,1,.47h0a.75.75,0,0,1-.46.95h0a.73.73,0,0,1-.25,0h0A.75.75,0,0,1,563.41,290Zm6-2.11a.76.76,0,0,1,.46-1h0a.76.76,0,0,1,1,.46h0a.75.75,0,0,1-.46,1h0a.73.73,0,0,1-.25,0h0A.75.75,0,0,1,569.45,287.89Zm6-2.11a.76.76,0,0,1,.47-1h0a.74.74,0,0,1,.95.46h0a.74.74,0,0,1-.46,1h0a.74.74,0,0,1-.25,0h0A.76.76,0,0,1,575.49,285.78Zm6-2.12a.75.75,0,0,1,.47-1h0a.74.74,0,0,1,1,.46h0a.74.74,0,0,1-.46.95h0a.7.7,0,0,1-.25.05h0A.78.78,0,0,1,581.53,283.66Zm6.05-2.11a.75.75,0,0,1,.46-1h0a.75.75,0,0,1,1,.46h0a.75.75,0,0,1-.46,1h0a.69.69,0,0,1-.25,0h0A.75.75,0,0,1,587.58,281.55Zm6-2.11a.75.75,0,0,1,.46-1h0a.75.75,0,0,1,.95.46h0a.75.75,0,0,1-.46,1h0a.67.67,0,0,1-.24,0h0A.75.75,0,0,1,593.62,279.44Z" transform="translate(0.5)"/><path class="cls-17" d="M497.7,666.92l7.46,28.82a25.6,25.6,0,0,0,5.72,10.66L529,726.56l-9.07,2.35a7.47,7.47,0,0,1-4.78-.35L494.78,720l3.36,13-5.61,1.45-6.43-24.85-3.36-6.77a13.67,13.67,0,0,1-.84-10l2.62-8.68-3.33-12.88Z" transform="translate(0.5)"/><path class="cls-6" d="M510.88,706.4,523.08,720l-6.22,1.61a9,9,0,0,1-8.36-2.06l-16.31-14.82a14.28,14.28,0,0,1-4.25-7.05l-3.44-13.51,0-.08-3.33-12.88,16.51-4.27,7.46,28.82A25.6,25.6,0,0,0,510.88,706.4Z" transform="translate(0.5)"/><path class="cls-7" d="M393.59,323s-32.24,3-38.77-23.63c-8.53-34.78,33.76-38.51,46-61.83,17.29-33,44.89-25.57,51.48,9.39,6,31.88,23.65,28.18,18.62,57.15" transform="translate(0.5)"/><path class="cls-11" d="M361.67,307.08c-15.83-36.47,24.42-41.84,35.6-64.19-15.21,18.82-50.29,24.56-42.45,56.52a28.15,28.15,0,0,0,14.49,18.83A31.1,31.1,0,0,1,361.67,307.08Z" transform="translate(0.5)"/><path class="cls-4" d="M361.67,307.08c-15.83-36.47,24.42-41.84,35.6-64.19-15.21,18.82-50.29,24.56-42.45,56.52a28.15,28.15,0,0,0,14.49,18.83A31.1,31.1,0,0,1,361.67,307.08Z" transform="translate(0.5)"/><path class="cls-11" d="M452.27,247c-6.35-33.69-32.21-41.83-49.55-12.83,20.31-28.13,45.69-17.53,48.6,17,2.58,30.58,23.24,29.45,13.76,54.42l5.81-1.42C475.92,275.15,458.29,278.85,452.27,247Z" transform="translate(0.5)"/><path class="cls-4" d="M452.27,247c-6.35-33.69-32.21-41.83-49.55-12.83,20.31-28.13,45.69-17.53,48.6,17,2.58,30.58,23.24,29.45,13.76,54.42l5.81-1.42C475.92,275.15,458.29,278.85,452.27,247Z" transform="translate(0.5)"/><path class="cls-17" d="M387.21,386.92H364.57V374.07L368.2,371l10.42-60a15.23,15.23,0,0,1,10-11.79l2.15-.75v70.85Z" transform="translate(0.5)"/><path class="cls-11" d="M371.34,371l10.41-60a15.25,15.25,0,0,1,9-11.41v-1.13l-2.15.75a15.23,15.23,0,0,0-10,11.79L368.2,371l-3.63,3.08v12.85h3.13V374.07Z" transform="translate(0.5)"/><path class="cls-4" d="M387.21,386.92H364.57V374.07L368.2,371l10.42-60a15.23,15.23,0,0,1,10-11.79l2.15-.75v70.85Z" transform="translate(0.5)"/><polygon class="cls-17" points="416 286.57 391.27 298.47 384.7 335.72 392.52 389.25 444.18 389.25 469.59 302.45 441.05 285.01 415.53 318.82 416 286.57"/><path class="cls-7" d="M392,389.25v6.26l-5,11a43.86,43.86,0,0,0-3.78,21.16l17.22,242.67h35.68L419.75,436.7l54.19,235.8,32.14-5.21L454.71,408.75,444.8,393.9l-1.12-4.65Z" transform="translate(0.5)"/><polygon class="cls-11" points="455.21 408.75 445.3 393.9 444.18 389.25 440.31 389.25 441.43 393.9 451.35 408.75 502.71 667.29 474.29 671.9 474.44 672.5 506.58 667.29 455.21 408.75"/><polygon class="cls-4" points="455.21 408.75 445.3 393.9 444.18 389.25 440.31 389.25 441.43 393.9 451.35 408.75 502.71 667.29 474.29 671.9 474.44 672.5 506.58 667.29 455.21 408.75"/><path class="cls-6" d="M391.52,406.54l5-11v-6.26H392v6.26l-5,11a43.86,43.86,0,0,0-3.78,21.16l17.22,242.67H405L387.74,427.7A43.74,43.74,0,0,1,391.52,406.54Z" transform="translate(0.5)"/><path class="cls-10" d="M469.09,302.45l3.14,1.61a9.79,9.79,0,0,1,4.91,6l17.76,61-1.85,10.46-3.37,1.35,1.7-1.87-8.05-5.5-10.26,1.72-1.32-10.55-11.82-32.87Z" transform="translate(0.5)"/><path class="cls-4" d="M469.09,302.45l3.14,1.61a9.79,9.79,0,0,1,4.91,6l17.76,61-1.85,10.46-3.37,1.35,1.7-1.87-8.05-5.5-10.26,1.72-1.32-10.55-11.82-32.87Z" transform="translate(0.5)"/><path class="cls-11" d="M477.14,310a9.79,9.79,0,0,0-4.91-6l-3.14-1.61-.38,1.29.62.32a9.76,9.76,0,0,1,4.91,6L492,371l-1.63,9.25,1,.69-1.7,1.87,3.37-1.35L494.9,371Z" transform="translate(0.5)"/><path class="cls-6" d="M491.38,381l-30.79,33.86a4.32,4.32,0,0,1-3.94,1.34l-.57-.1a4.3,4.3,0,0,1-3.21-2.54l-.83-1.94-7.25,1.07a1.31,1.31,0,0,1-1.25-.54h0a1.29,1.29,0,0,1,.69-2L454.52,407l-.11-.63-4.93.43-9.87,2.78a1.5,1.5,0,0,1-1.82-.94h0a1.5,1.5,0,0,1,.86-1.88l9.83-3.94,4.35.22.09-.53-5.27-.53-9.42,3a1.44,1.44,0,0,1-1.81-.93h0a1.45,1.45,0,0,1,.76-1.74l8.82-4.12,4.78.45.08-.42-2.43-2.86-6.58-2a1,1,0,0,1-.72-1.18h0a1,1,0,0,1,1.2-.84l6.73,1.19a2,2,0,0,1,1.19.69l3.77,4.62a2.25,2.25,0,0,1,.35.62l2,6,18.32-27.51,8.62-1.44Z" transform="translate(0.5)"/><line class="cls-6" x1="452.54" y1="411.57" x2="456.4" y2="410.75"/><polyline class="cls-17" points="416.32 389.25 405.67 337.91 440.58 313.03 434.79 309.11 447.78 312.24 452.77 292.17"/><polyline class="cls-17" points="405.67 337.91 402.07 311.62 410.06 311.62 397.85 308.64 398.53 294.98"/><path class="cls-17" d="M407.52,670.37v29.77a25.51,25.51,0,0,1-2.87,11.76L392.18,736h9.37a7.42,7.42,0,0,0,4.53-1.54L423.64,721v13.41h5.79V708.71l1.55-7.39a13.62,13.62,0,0,0-1.69-9.9l-4.71-7.75v-13.3Z" transform="translate(0.5)"/><path class="cls-6" d="M404.65,711.9l-8.4,16.2h6.43a9,9,0,0,0,7.57-4.1l12.08-18.42a14.29,14.29,0,0,0,2.34-7.89l0-14-.05-.07v-13.3H407.52v29.77A25.51,25.51,0,0,1,404.65,711.9Z" transform="translate(0.5)"/><polygon class="cls-6" points="416 268.57 440.89 268.57 440.89 285.01 415.53 318.82 416 268.57"/><path class="cls-17" d="M377.46,454.62c5.39,8,7.86,25.19,7.86,25.19l3.14.33a67.67,67.67,0,0,0-8.76-27.47l-8.52-10.2v6.73" transform="translate(0.5)"/><ellipse class="cls-6" cx="410.36" cy="253.29" rx="5.25" ry="6.31"/><ellipse class="cls-6" cx="443.93" cy="253.29" rx="5.25" ry="6.31"/><ellipse class="cls-7" cx="427.48" cy="238.72" rx="21.31" ry="22.21"/><path class="cls-6" d="M427.22,276.1c2.93,0,6.48-1.72,9.46-3.59a16.51,16.51,0,0,0,7.44-11.13c.89-5,1.95-11.44,1.95-13.68,0-6.29-2.18-20.34-16.49-20.34h-4.71c-14.31,0-16.5,14-16.5,20.34,0,2.24,1.07,8.67,2,13.68a16.51,16.51,0,0,0,7.44,11.13C420.75,274.38,424.3,276.1,427.22,276.1Z" transform="translate(0.5)"/><path class="cls-6" d="M426.67,250.28s-.09,5.3-1.25,7.46,1.35,2.9,2.05,4.73" transform="translate(0.5)"/><circle class="cls-7" cx="420.05" cy="251.06" r="1.35"/><circle class="cls-7" cx="434.45" cy="251.06" r="1.35"/><path class="cls-6" d="M415.52,246.93l7.17,1.34a1.27,1.27,0,0,0,1.32-.59h0" transform="translate(0.5)"/><path class="cls-6" d="M437.78,246.93l-7.18,1.34a1.27,1.27,0,0,1-1.32-.59h0" transform="translate(0.5)"/><path class="cls-6" d="M424.1,267.22s4,2,7.22-.61" transform="translate(0.5)"/><path class="cls-7" d="M418.83,230s7.29,7.09,23,15.52c.66.35,4.49,3.2,3.22,10.37,0,0,10.61-35.06-15.65-37.77-26.81-2.76-22.75,31.93-20.29,37.77,0,0-.4-7.2,1.52-10.08S418.21,238.24,418.83,230Z" transform="translate(0.5)"/><path class="cls-11" d="M409.09,253.93a38.9,38.9,0,0,1-1.75-11.74c-.11,6.19.93,11.67,1.78,13.69C409.12,255.88,409.08,255.09,409.09,253.93Z" transform="translate(0.5)"/><path class="cls-4" d="M409.09,253.93a38.9,38.9,0,0,1-1.75-11.74c-.11,6.19.93,11.67,1.78,13.69C409.12,255.88,409.08,255.09,409.09,253.93Z" transform="translate(0.5)"/><path class="cls-11" d="M445.31,253.11a15.63,15.63,0,0,1-.25,2.77A57.65,57.65,0,0,0,447.17,240,59.31,59.31,0,0,1,445.31,253.11Z" transform="translate(0.5)"/><path class="cls-4" d="M445.31,253.11a15.63,15.63,0,0,1-.25,2.77A57.65,57.65,0,0,0,447.17,240,59.31,59.31,0,0,1,445.31,253.11Z" transform="translate(0.5)"/><path class="cls-11" d="M441.84,243.63C426.12,235.2,418,227.31,418,227.31c-.62,8.25-6.27,13.74-8.19,16.62-1.57,2.36-.79,7.63-.74,9.44.06-2.36.36-5.78,1.54-7.57,1.92-2.88,7.57-7.56,8.19-15.81,0,0,7.29,7.09,23,15.52.53.28,3.1,2.18,3.43,6.63C445.63,246.34,442.44,244,441.84,243.63Z" transform="translate(0.5)"/><path class="cls-4" d="M441.84,243.63C426.12,235.2,418,227.31,418,227.31c-.62,8.25-6.27,13.74-8.19,16.62-1.57,2.36-.79,7.63-.74,9.44.06-2.36.36-5.78,1.54-7.57,1.92-2.88,7.57-7.56,8.19-15.81,0,0,7.29,7.09,23,15.52.53.28,3.1,2.18,3.43,6.63C445.63,246.34,442.44,244,441.84,243.63Z" transform="translate(0.5)"/><path class="cls-6" d="M427,219.32c11.51,0,20.89,8.32,21.3,20.21,0-.27,0-.54,0-.81,0-12.27-9.55-22.21-21.32-22.21s-21.31,9.94-21.31,22.21c0,.27,0,.54,0,.81C406.1,227.64,415.47,219.32,427,219.32Z" transform="translate(0.5)"/><path class="cls-6" d="M368.34,386.92l-9.12,55a11.89,11.89,0,0,0,1.23,7.54l2.61,4.94a3.06,3.06,0,0,0,2.33,1.61l1.87.22h5.06a1.79,1.79,0,0,0,1.64-2.52l-1.88-4.18V446l2.55,3.36,3.51,3.36a1.08,1.08,0,0,0,1.5,0h0a1.05,1.05,0,0,0,.2-1.21l-1.57-3.32-2-8.25-4.26-9.57,13.27-43.46Z" transform="translate(0.5)"/><line class="cls-6" x1="367.76" y1="456.23" x2="364.65" y2="449.87"/><line class="cls-6" x1="371.68" y1="456.23" x2="368.57" y2="449.87"/><path class="cls-17" d="M387.63,530.57l18.3-4.19-5.66-42.07a4.18,4.18,0,0,0-4.14-3.62H395l-2.51,4.05Z" transform="translate(0.5)"/><path class="cls-11" d="M400.27,484.31a4.18,4.18,0,0,0-4.14-3.62H395l-.16.26a4.2,4.2,0,0,1,2.67,3.36l5.67,42.07-15.51,3.55-.07.64,18.3-4.19Z" transform="translate(0.5)"/><polygon class="cls-17" points="344.67 475.52 395.53 480.83 393.02 484.74 388.13 530.57 335.45 522.33 344.67 475.52"/><polygon class="cls-11" points="337.72 522.33 346.89 475.75 344.67 475.52 335.45 522.33 388.13 530.57 388.17 530.22 337.72 522.33"/><polygon class="cls-4" points="344.67 475.52 395.53 480.83 393.02 484.74 388.13 530.57 335.45 522.33 344.67 475.52"/><path class="cls-17" d="M348.36,497.87h4.47s.64-29.57,10.17-43.57L361.8,452S351.72,464.9,348.36,497.87Z" transform="translate(0.5)"/><path class="cls-17" d="M372.08,448.2s6.54,3.7,7.06,13.45-.52,39.09-.52,39.09h-3.46L376.75,464a17.57,17.57,0,0,0-1.7-8.32l-3-6.18Z" transform="translate(0.5)"/><path class="cls-17" d="M362.11,477.39l2.88.3s-2.24-19.81.72-21.65l-2-.8S360.62,456.17,362.11,477.39Z" transform="translate(0.5)"/><polyline class="cls-19" points="28.6 857.11 185.21 740.6 211.09 740.6"/><polyline class="cls-19" points="113.66 857.11 237.29 740.6 263.17 740.6"/><polyline class="cls-19" points="217 857.11 198.72 857.11 289.37 740.6 315.25 740.6 281.55 793.47"/><polyline class="cls-19" points="283.78 857.11 341.44 740.6 367.32 740.6 349.52 790.86"/><polyline class="cls-19" points="368.84 857.11 393.52 740.6 419.4 740.6 416.08 787.21"/><polyline class="cls-19" points="453.9 857.11 445.6 740.6 471.48 740.6"/><polyline class="cls-19" points="511.61 779.91 497.68 740.6 523.55 740.6 581.22 857.11"/><polyline class="cls-19" points="549.75 740.6 575.63 740.6 666.28 857.11 624.02 857.11"/><polyline class="cls-19" points="637.37 779.21 601.83 740.6 627.71 740.6 751.34 857.11 709.08 857.11 686.67 832.77"/><polyline class="cls-19" points="689.54 770.21 653.91 740.6 679.79 740.6 768.07 806.28 836.4 857.11"/><path class="cls-4" d="M469.09,302.45l3.14,1.61a9.79,9.79,0,0,1,4.91,6l17.76,61-1.85,10.46-3.37,1.35,1.7-1.87-8.05-5.5-10.26,1.72-1.32-10.55-11.82-32.87Z" transform="translate(0.5)"/><path class="cls-4" d="M387.63,530.57l18.3-4.19-5.66-42.07a4.18,4.18,0,0,0-4.14-3.62H395l-2.51,4.05Z" transform="translate(0.5)"/></g></g></g></svg>