<svg xmlns="http://www.w3.org/2000/svg" xmlns:xlink="http://www.w3.org/1999/xlink" viewBox="0 0 516.7 591.46"><defs><style>.cls-1,.cls-12{fill:#4a90ee;}.cls-2,.cls-5{fill:#fff;}.cls-10,.cls-11,.cls-12,.cls-13,.cls-14,.cls-2,.cls-4,.cls-7,.cls-8,.cls-9{stroke:#041323;stroke-linecap:round;stroke-linejoin:round;}.cls-11,.cls-3{fill:#b57aef;}.cls-4{fill:none;}.cls-10,.cls-6{fill:#ee9646;}.cls-7{fill:#f6f8fd;}.cls-8{fill:url(#linear-gradient);}.cls-9{fill:url(#linear-gradient-2);}.cls-13{fill:#97c9ff;}.cls-14{fill:#041323;}</style><linearGradient id="linear-gradient" x1="1271.42" y1="-1006.96" x2="1277.45" y2="-1006.96" gradientTransform="translate(510.46 1608.79) rotate(-63.6)" gradientUnits="userSpaceOnUse"><stop offset="0" stop-color="#c5daef"/><stop offset="0.99" stop-color="#e9f2fb"/></linearGradient><linearGradient id="linear-gradient-2" x1="1271.41" y1="-1005.35" x2="1275.97" y2="-1005.35" xlink:href="#linear-gradient"/></defs><g id="Layer_2" data-name="Layer 2"><g id="Layer_3" data-name="Layer 3"><path class="cls-1" d="M88.12,134.46a.74.74,0,0,1,.37-1h0a.75.75,0,0,1,1,.37h0a.76.76,0,0,1-.37,1h0a.85.85,0,0,1-.31.06h0A.74.74,0,0,1,88.12,134.46Zm5.82-2.64a.76.76,0,0,1,.38-1h0a.75.75,0,0,1,1,.38h0a.75.75,0,0,1-.37,1h0a.87.87,0,0,1-.31.07h0A.77.77,0,0,1,93.94,131.82Zm5.83-2.65a.75.75,0,0,1,.37-1h0a.75.75,0,0,1,1,.37h0a.75.75,0,0,1-.38,1h0a.67.67,0,0,1-.31.07h0A.75.75,0,0,1,99.77,129.17Zm5.83-2.65a.74.74,0,0,1,.37-1h0a.74.74,0,0,1,1,.37h0a.74.74,0,0,1-.37,1h0a.7.7,0,0,1-.31.07h0A.74.74,0,0,1,105.6,126.52Zm5.82-2.65a.75.75,0,0,1,.38-1h0a.75.75,0,0,1,1,.37h0a.75.75,0,0,1-.37,1h0a.7.7,0,0,1-.31.07h0A.75.75,0,0,1,111.42,123.87Zm5.83-2.65a.75.75,0,0,1,.37-1h0a.76.76,0,0,1,1,.38h0a.75.75,0,0,1-.38,1h0a.81.81,0,0,1-.31.06h0A.75.75,0,0,1,117.25,121.22Zm5.83-2.64a.74.74,0,0,1,.37-1h0a.73.73,0,0,1,1,.37h0a.75.75,0,0,1-.37,1h0a.7.7,0,0,1-.31.07h0A.75.75,0,0,1,123.08,118.58Zm5.82-2.65a.75.75,0,0,1,.38-1h0a.75.75,0,0,1,1,.37h0a.75.75,0,0,1-.37,1h0a.7.7,0,0,1-.31.07h0A.75.75,0,0,1,128.9,115.93Zm5.83-2.65a.75.75,0,0,1,.37-1h0a.77.77,0,0,1,1,.37h0a.75.75,0,0,1-.38,1h0a.67.67,0,0,1-.31.07h0A.75.75,0,0,1,134.73,113.28Zm5.83-2.64a.75.75,0,0,1,.37-1h0a.75.75,0,0,1,1,.38h0a.74.74,0,0,1-.37,1h0a.85.85,0,0,1-.31.06h0A.74.74,0,0,1,140.56,110.64Zm5.82-2.65a.75.75,0,0,1,.38-1h0a.74.74,0,0,1,1,.37h0a.75.75,0,0,1-.37,1h0a.7.7,0,0,1-.31.07h0A.75.75,0,0,1,146.38,108Zm5.83-2.65a.75.75,0,0,1,.37-1h0a.75.75,0,0,1,1,.37h0a.75.75,0,0,1-.38,1h0a.67.67,0,0,1-.31.07h0A.75.75,0,0,1,152.21,105.34Zm5.83-2.65a.74.74,0,0,1,.37-1h0a.75.75,0,0,1,1,.37h0a.76.76,0,0,1-.37,1h0a.85.85,0,0,1-.31.06h0A.74.74,0,0,1,158,102.69Zm5.82-2.64a.76.76,0,0,1,.38-1h0a.75.75,0,0,1,1,.38h0a.75.75,0,0,1-.37,1h0a.87.87,0,0,1-.31.07h0A.77.77,0,0,1,163.86,100.05Zm5.83-2.65a.75.75,0,0,1,.37-1h0a.75.75,0,0,1,1,.37h0a.75.75,0,0,1-.38,1h0a.67.67,0,0,1-.31.07h0A.75.75,0,0,1,169.69,97.4Zm5.83-2.65a.74.74,0,0,1,.37-1h0a.74.74,0,0,1,1,.37h0a.73.73,0,0,1-.37,1h0a.67.67,0,0,1-.31.07h0A.74.74,0,0,1,175.52,94.75Zm5.82-2.65a.75.75,0,0,1,.38-1h0a.75.75,0,0,1,1,.37h0a.75.75,0,0,1-.37,1h0a.7.7,0,0,1-.31.07h0A.75.75,0,0,1,181.34,92.1Zm5.83-2.65a.75.75,0,0,1,.37-1h0a.76.76,0,0,1,1,.38h0a.75.75,0,0,1-.38,1h0a.81.81,0,0,1-.31.06h0A.75.75,0,0,1,187.17,89.45ZM193,86.81a.74.74,0,0,1,.37-1h0a.73.73,0,0,1,1,.37h0a.75.75,0,0,1-.37,1h0a.7.7,0,0,1-.31.07h0A.75.75,0,0,1,193,86.81Zm5.83-2.65a.73.73,0,0,1,.37-1h0a.75.75,0,0,1,1,.37h0a.74.74,0,0,1-.37,1h0a.7.7,0,0,1-.31.07h0A.73.73,0,0,1,198.83,84.16Zm5.82-2.65a.75.75,0,0,1,.37-1h0a.77.77,0,0,1,1,.37h0a.76.76,0,0,1-.38,1h0a.81.81,0,0,1-.31.06h0A.75.75,0,0,1,204.65,81.51Zm5.83-2.64a.75.75,0,0,1,.37-1h0a.75.75,0,0,1,1,.37h0a.75.75,0,0,1-.37,1h0a.87.87,0,0,1-.31.07h0A.76.76,0,0,1,210.48,78.87Zm5.82-2.65a.76.76,0,0,1,.38-1h0a.75.75,0,0,1,1,.38h0a.75.75,0,0,1-.37,1h0a.7.7,0,0,1-.31.07h0A.77.77,0,0,1,216.3,76.22Zm5.83-2.65a.75.75,0,0,1,.37-1h0a.75.75,0,0,1,1,.37h0a.75.75,0,0,1-.38,1h0a.66.66,0,0,1-.3.07h0A.75.75,0,0,1,222.13,73.57ZM228,70.92a.75.75,0,0,1,.37-1h0a.75.75,0,0,1,1,.37h0a.76.76,0,0,1-.37,1h0a.81.81,0,0,1-.31.06h0A.74.74,0,0,1,228,70.92Zm5.82-2.64a.76.76,0,0,1,.38-1h0a.75.75,0,0,1,1,.38h0a.75.75,0,0,1-.37,1h0a.87.87,0,0,1-.31.07h0A.77.77,0,0,1,233.78,68.28Zm5.83-2.65a.75.75,0,0,1,.37-1h0a.75.75,0,0,1,1,.37h0a.75.75,0,0,1-.38,1h0a.67.67,0,0,1-.31.07h0A.75.75,0,0,1,239.61,65.63ZM245.44,63a.74.74,0,0,1,.37-1h0a.74.74,0,0,1,1,.37h0a.74.74,0,0,1-.37,1h0a.7.7,0,0,1-.31.07h0A.74.74,0,0,1,245.44,63Zm5.82-2.65a.75.75,0,0,1,.38-1h0a.75.75,0,0,1,1,.37h0a.75.75,0,0,1-.37,1h0a.7.7,0,0,1-.31.07h0A.75.75,0,0,1,251.26,60.33Zm5.83-2.64a.76.76,0,0,1,.37-1h0a.76.76,0,0,1,1,.38h0a.75.75,0,0,1-.38,1h0a.82.82,0,0,1-.3.07h0A.77.77,0,0,1,257.09,57.69ZM262.92,55a.76.76,0,0,1,.37-1h0a.75.75,0,0,1,1,.38h0a.74.74,0,0,1-.37,1h0a.67.67,0,0,1-.31.07h0A.76.76,0,0,1,262.92,55Zm5.82-2.65a.75.75,0,0,1,.38-1h0a.75.75,0,0,1,1,.37h0a.75.75,0,0,1-.37,1h0a.7.7,0,0,1-.31.07h0A.75.75,0,0,1,268.74,52.39Zm5.83-2.65a.75.75,0,0,1,.37-1h0a.77.77,0,0,1,1,.37h0a.76.76,0,0,1-.38,1h0a.81.81,0,0,1-.31.06h0A.75.75,0,0,1,274.57,49.74Zm5.83-2.64a.75.75,0,0,1,.37-1h0a.75.75,0,0,1,1,.37h0a.75.75,0,0,1-.37,1h0a.82.82,0,0,1-.31.07h0A.77.77,0,0,1,280.4,47.1Zm5.82-2.65a.76.76,0,0,1,.38-1h0a.75.75,0,0,1,1,.38h0a.75.75,0,0,1-.37,1h0a.7.7,0,0,1-.31.07h0A.77.77,0,0,1,286.22,44.45Zm5.83-2.65a.75.75,0,0,1,.37-1h0a.76.76,0,0,1,1,.37h0a.75.75,0,0,1-.38,1h0a.66.66,0,0,1-.3.07h0A.75.75,0,0,1,292.05,41.8Zm5.83-2.65a.75.75,0,0,1,.37-1h0a.75.75,0,0,1,1,.37h0a.76.76,0,0,1-.37,1h0a.85.85,0,0,1-.31.06h0A.74.74,0,0,1,297.88,39.15Zm5.82-2.64a.76.76,0,0,1,.38-1h0a.75.75,0,0,1,1,.38h0a.75.75,0,0,1-.37,1h0a.87.87,0,0,1-.31.07h0A.77.77,0,0,1,303.7,36.51Zm5.83-2.65a.77.77,0,0,1,.37-1h0a.76.76,0,0,1,1,.38h0a.75.75,0,0,1-.38,1h0a.67.67,0,0,1-.31.07h0A.77.77,0,0,1,309.53,33.86Zm5.83-2.65a.74.74,0,0,1,.37-1h0a.74.74,0,0,1,1,.37h0a.74.74,0,0,1-.37,1h0a.7.7,0,0,1-.31.07h0A.74.74,0,0,1,315.36,31.21Zm5.82-2.65a.75.75,0,0,1,.38-1h0a.75.75,0,0,1,1,.37h0a.77.77,0,0,1-.37,1h0a.85.85,0,0,1-.31.06h0A.75.75,0,0,1,321.18,28.56Zm-1.47-1.39a.75.75,0,0,1,.74-.75h0a.75.75,0,0,1,.75.75h0a.74.74,0,0,1-.75.75h0A.74.74,0,0,1,319.71,27.17Zm-6.4,0a.75.75,0,0,1,.75-.75h0a.76.76,0,0,1,.75.75h0a.75.75,0,0,1-.75.75h0A.74.74,0,0,1,313.31,27.17Zm-6.4,0a.75.75,0,0,1,.75-.75h0a.76.76,0,0,1,.75.75h0a.75.75,0,0,1-.75.75h0A.74.74,0,0,1,306.91,27.17Zm-6.4,0a.75.75,0,0,1,.75-.75h0a.76.76,0,0,1,.75.75h0a.75.75,0,0,1-.75.75h0A.74.74,0,0,1,300.51,27.17Zm-6.4,0a.75.75,0,0,1,.75-.75h0a.76.76,0,0,1,.75.75h0a.75.75,0,0,1-.75.75h0A.74.74,0,0,1,294.11,27.17Zm-6.4,0a.75.75,0,0,1,.74-.75h0a.75.75,0,0,1,.75.75h0a.74.74,0,0,1-.75.75h0A.74.74,0,0,1,287.71,27.17Zm-6.4,0a.75.75,0,0,1,.75-.75h0a.76.76,0,0,1,.75.75h0a.75.75,0,0,1-.75.75h0A.74.74,0,0,1,281.31,27.17Zm-6.4,0a.75.75,0,0,1,.75-.75h0a.76.76,0,0,1,.75.75h0a.75.75,0,0,1-.75.75h0A.74.74,0,0,1,274.91,27.17Zm-6.4,0a.75.75,0,0,1,.75-.75h0a.76.76,0,0,1,.75.75h0a.75.75,0,0,1-.75.75h0A.74.74,0,0,1,268.51,27.17Zm-6.4,0a.75.75,0,0,1,.75-.75h0a.76.76,0,0,1,.75.75h0a.75.75,0,0,1-.75.75h0A.74.74,0,0,1,262.11,27.17Zm-6.4,0a.75.75,0,0,1,.75-.75h0a.76.76,0,0,1,.75.75h0a.75.75,0,0,1-.75.75h0A.74.74,0,0,1,255.71,27.17Zm-6.4,0a.75.75,0,0,1,.75-.75h0a.76.76,0,0,1,.75.75h0a.75.75,0,0,1-.75.75h0A.74.74,0,0,1,249.31,27.17Zm-6.4,0a.75.75,0,0,1,.75-.75h0a.76.76,0,0,1,.75.75h0a.75.75,0,0,1-.75.75h0A.74.74,0,0,1,242.91,27.17Zm-6.4,0a.75.75,0,0,1,.75-.75h0a.76.76,0,0,1,.75.75h0a.75.75,0,0,1-.75.75h0A.74.74,0,0,1,236.51,27.17Zm-6.4,0a.75.75,0,0,1,.75-.75h0a.76.76,0,0,1,.75.75h0a.75.75,0,0,1-.75.75h0A.74.74,0,0,1,230.11,27.17Zm-6.4,0a.75.75,0,0,1,.75-.75h0a.76.76,0,0,1,.75.75h0a.75.75,0,0,1-.75.75h0A.74.74,0,0,1,223.71,27.17Zm-6.4,0a.75.75,0,0,1,.75-.75h0a.76.76,0,0,1,.75.75h0a.75.75,0,0,1-.75.75h0A.74.74,0,0,1,217.31,27.17Zm-6.4,0a.75.75,0,0,1,.75-.75h0a.76.76,0,0,1,.75.75h0a.75.75,0,0,1-.75.75h0A.74.74,0,0,1,210.91,27.17Zm-6.4,0a.75.75,0,0,1,.75-.75h0a.76.76,0,0,1,.75.75h0a.75.75,0,0,1-.75.75h0A.74.74,0,0,1,204.51,27.17Zm-6.4,0a.75.75,0,0,1,.75-.75h0a.76.76,0,0,1,.75.75h0a.75.75,0,0,1-.75.75h0A.74.74,0,0,1,198.11,27.17Zm-6.4,0a.75.75,0,0,1,.75-.75h0a.76.76,0,0,1,.75.75h0a.75.75,0,0,1-.75.75h0A.74.74,0,0,1,191.71,27.17Z"/><path class="cls-1" d="M427.14,134.2a.76.76,0,0,1,.75-.75h0a.76.76,0,0,1,.76.75h0a.76.76,0,0,1-.76.75h0A.76.76,0,0,1,427.14,134.2Zm-6.4,0a.76.76,0,0,1,.75-.75h0a.75.75,0,0,1,.75.75h0a.75.75,0,0,1-.75.75h0A.76.76,0,0,1,420.74,134.2Zm-6.4,0a.76.76,0,0,1,.76-.75h0a.76.76,0,0,1,.75.75h0a.76.76,0,0,1-.75.75h0A.76.76,0,0,1,414.34,134.2Zm-6.4,0a.76.76,0,0,1,.75-.75h0a.76.76,0,0,1,.76.75h0a.76.76,0,0,1-.76.75h0A.76.76,0,0,1,407.94,134.2Zm-6.4,0a.76.76,0,0,1,.76-.75h0a.76.76,0,0,1,.75.75h0a.76.76,0,0,1-.75.75h0A.76.76,0,0,1,401.54,134.2Zm-6.4,0a.76.76,0,0,1,.75-.75h0a.76.76,0,0,1,.76.75h0a.76.76,0,0,1-.76.75h0A.76.76,0,0,1,395.14,134.2Zm-6.4,0a.76.76,0,0,1,.75-.75h0a.75.75,0,0,1,.75.75h0a.75.75,0,0,1-.75.75h0A.76.76,0,0,1,388.74,134.2Zm-6.4,0a.76.76,0,0,1,.76-.75h0a.76.76,0,0,1,.75.75h0a.76.76,0,0,1-.75.75h0A.76.76,0,0,1,382.34,134.2Zm-6.4,0a.76.76,0,0,1,.75-.75h0a.76.76,0,0,1,.76.75h0a.76.76,0,0,1-.76.75h0A.76.76,0,0,1,375.94,134.2Zm-6.4,0a.76.76,0,0,1,.76-.75h0a.76.76,0,0,1,.75.75h0a.76.76,0,0,1-.75.75h0A.76.76,0,0,1,369.54,134.2Zm-6.4,0a.76.76,0,0,1,.75-.75h0a.76.76,0,0,1,.76.75h0a.76.76,0,0,1-.76.75h0A.76.76,0,0,1,363.14,134.2Zm-6.39,0a.75.75,0,0,1,.74-.75h0a.75.75,0,0,1,.75.75h0a.75.75,0,0,1-.75.75h0A.75.75,0,0,1,356.75,134.2Zm-6.41,0a.76.76,0,0,1,.76-.75h0a.76.76,0,0,1,.75.75h0a.76.76,0,0,1-.75.75h0A.76.76,0,0,1,350.34,134.2Zm-6.4,0a.76.76,0,0,1,.75-.75h0a.76.76,0,0,1,.76.75h0a.76.76,0,0,1-.76.75h0A.76.76,0,0,1,343.94,134.2Zm-6.4,0a.76.76,0,0,1,.76-.75h0a.76.76,0,0,1,.75.75h0a.76.76,0,0,1-.75.75h0A.76.76,0,0,1,337.54,134.2Zm-6.4,0a.76.76,0,0,1,.75-.75h0a.76.76,0,0,1,.76.75h0a.76.76,0,0,1-.76.75h0A.76.76,0,0,1,331.14,134.2Zm-6.39,0a.75.75,0,0,1,.75-.75h0a.75.75,0,0,1,.74.75h0a.75.75,0,0,1-.74.75h0A.75.75,0,0,1,324.75,134.2Zm-6.41,0a.76.76,0,0,1,.76-.75h0a.76.76,0,0,1,.75.75h0a.76.76,0,0,1-.75.75h0A.76.76,0,0,1,318.34,134.2Zm-6.4,0a.76.76,0,0,1,.75-.75h0a.76.76,0,0,1,.76.75h0a.76.76,0,0,1-.76.75h0A.76.76,0,0,1,311.94,134.2Zm-6.4,0a.76.76,0,0,1,.76-.75h0a.75.75,0,0,1,.74.75h0a.75.75,0,0,1-.74.75h0A.76.76,0,0,1,305.54,134.2Zm-6.4,0a.76.76,0,0,1,.76-.75h0a.76.76,0,0,1,.75.75h0a.76.76,0,0,1-.75.75h0A.76.76,0,0,1,299.14,134.2Zm-6.39,0a.75.75,0,0,1,.75-.75h0a.75.75,0,0,1,.74.75h0a.75.75,0,0,1-.74.75h0A.75.75,0,0,1,292.75,134.2Zm-6.41,0a.76.76,0,0,1,.76-.75h0a.76.76,0,0,1,.75.75h0a.76.76,0,0,1-.75.75h0A.76.76,0,0,1,286.34,134.2Zm-6.4,0a.76.76,0,0,1,.75-.75h0a.76.76,0,0,1,.76.75h0a.76.76,0,0,1-.76.75h0A.76.76,0,0,1,279.94,134.2Zm-6.4,0a.76.76,0,0,1,.76-.75h0a.75.75,0,0,1,.74.75h0a.75.75,0,0,1-.74.75h0A.76.76,0,0,1,273.54,134.2Zm-6.4,0a.76.76,0,0,1,.76-.75h0a.76.76,0,0,1,.75.75h0a.76.76,0,0,1-.75.75h0A.76.76,0,0,1,267.14,134.2Zm-6.39,0a.75.75,0,0,1,.75-.75h0a.75.75,0,0,1,.74.75h0a.75.75,0,0,1-.74.75h0A.75.75,0,0,1,260.75,134.2Zm-6.4,0a.75.75,0,0,1,.75-.75h0a.76.76,0,0,1,.75.75h0a.76.76,0,0,1-.75.75h0A.75.75,0,0,1,254.35,134.2Zm-6.4,0a.75.75,0,0,1,.74-.75h0a.76.76,0,0,1,.76.75h0a.76.76,0,0,1-.76.75h0A.75.75,0,0,1,248,134.2Zm-6.4,0a.75.75,0,0,1,.75-.75h0a.75.75,0,0,1,.74.75h0a.75.75,0,0,1-.74.75h0A.75.75,0,0,1,241.55,134.2Zm-6.41,0a.76.76,0,0,1,.76-.75h0a.76.76,0,0,1,.75.75h0a.76.76,0,0,1-.75.75h0A.76.76,0,0,1,235.14,134.2Zm-6.39,0a.75.75,0,0,1,.75-.75h0a.75.75,0,0,1,.74.75h0a.75.75,0,0,1-.74.75h0A.75.75,0,0,1,228.75,134.2Zm-6.4,0a.75.75,0,0,1,.75-.75h0a.76.76,0,0,1,.75.75h0a.76.76,0,0,1-.75.75h0A.75.75,0,0,1,222.35,134.2Zm-6.4,0a.75.75,0,0,1,.74-.75h0a.76.76,0,0,1,.76.75h0a.76.76,0,0,1-.76.75h0A.75.75,0,0,1,216,134.2Zm-6.4,0a.75.75,0,0,1,.75-.75h0a.75.75,0,0,1,.74.75h0a.75.75,0,0,1-.74.75h0A.75.75,0,0,1,209.55,134.2Zm-6.41,0a.76.76,0,0,1,.76-.75h0a.76.76,0,0,1,.75.75h0a.76.76,0,0,1-.75.75h0A.76.76,0,0,1,203.14,134.2Zm-6.39,0a.75.75,0,0,1,.75-.75h0a.75.75,0,0,1,.74.75h0a.75.75,0,0,1-.74.75h0A.75.75,0,0,1,196.75,134.2Zm-6.4,0a.75.75,0,0,1,.75-.75h0a.76.76,0,0,1,.75.75h0a.76.76,0,0,1-.75.75h0A.75.75,0,0,1,190.35,134.2Zm-6.41,0a.76.76,0,0,1,.76-.75h0a.76.76,0,0,1,.75.75h0a.76.76,0,0,1-.75.75h0A.76.76,0,0,1,183.94,134.2Zm-6.39,0a.75.75,0,0,1,.75-.75h0a.75.75,0,0,1,.74.75h0a.75.75,0,0,1-.74.75h0A.75.75,0,0,1,177.55,134.2Zm-6.41,0a.76.76,0,0,1,.76-.75h0a.76.76,0,0,1,.75.75h0a.76.76,0,0,1-.75.75h0A.76.76,0,0,1,171.14,134.2Zm-6.39,0a.75.75,0,0,1,.75-.75h0a.75.75,0,0,1,.74.75h0a.75.75,0,0,1-.74.75h0A.75.75,0,0,1,164.75,134.2Zm-6.4,0a.75.75,0,0,1,.75-.75h0a.76.76,0,0,1,.75.75h0a.76.76,0,0,1-.75.75h0A.75.75,0,0,1,158.35,134.2Zm-6.41,0a.76.76,0,0,1,.76-.75h0a.76.76,0,0,1,.75.75h0a.76.76,0,0,1-.75.75h0A.76.76,0,0,1,151.94,134.2Zm-6.39,0a.75.75,0,0,1,.75-.75h0a.75.75,0,0,1,.74.75h0a.75.75,0,0,1-.74.75h0A.75.75,0,0,1,145.55,134.2Zm-6.41,0a.76.76,0,0,1,.76-.75h0a.76.76,0,0,1,.75.75h0a.76.76,0,0,1-.75.75h0A.76.76,0,0,1,139.14,134.2Zm-6.39,0a.75.75,0,0,1,.75-.75h0a.76.76,0,0,1,.75.75h0a.76.76,0,0,1-.75.75h0A.75.75,0,0,1,132.75,134.2Zm-6.4,0a.75.75,0,0,1,.75-.75h0a.76.76,0,0,1,.75.75h0a.76.76,0,0,1-.75.75h0A.75.75,0,0,1,126.35,134.2Zm-6.41,0a.76.76,0,0,1,.76-.75h0a.76.76,0,0,1,.75.75h0a.76.76,0,0,1-.75.75h0A.76.76,0,0,1,119.94,134.2Zm-6.39,0a.75.75,0,0,1,.75-.75h0a.75.75,0,0,1,.74.75h0a.75.75,0,0,1-.74.75h0A.75.75,0,0,1,113.55,134.2Zm-6.41,0a.76.76,0,0,1,.76-.75h0a.76.76,0,0,1,.75.75h0a.76.76,0,0,1-.75.75h0A.76.76,0,0,1,107.14,134.2Zm-6.39,0a.75.75,0,0,1,.74-.75h0a.76.76,0,0,1,.76.75h0a.76.76,0,0,1-.76.75h0A.75.75,0,0,1,100.75,134.2Zm-6.4,0a.75.75,0,0,1,.75-.75h0a.76.76,0,0,1,.75.75h0a.76.76,0,0,1-.75.75h0A.75.75,0,0,1,94.35,134.2Zm-6.4,0a.75.75,0,0,1,.75-.75h0a.76.76,0,0,1,.75.75h0a.76.76,0,0,1-.75.75h0A.75.75,0,0,1,88,134.2Z"/><path class="cls-1" d="M444.93,260.07a.76.76,0,0,1,.76-.75h0a.75.75,0,0,1,.74.75h0a.75.75,0,0,1-.74.75h0A.76.76,0,0,1,444.93,260.07Zm-6.4,0a.76.76,0,0,1,.75-.75h0a.75.75,0,0,1,.75.75h0a.75.75,0,0,1-.75.75h0A.76.76,0,0,1,438.53,260.07Zm-6.4,0a.76.76,0,0,1,.75-.75h0a.75.75,0,0,1,.75.75h0a.75.75,0,0,1-.75.75h0A.76.76,0,0,1,432.13,260.07Zm-6.4,0a.76.76,0,0,1,.75-.75h0a.75.75,0,0,1,.75.75h0a.75.75,0,0,1-.75.75h0A.76.76,0,0,1,425.73,260.07Zm-6.4,0a.76.76,0,0,1,.75-.75h0a.75.75,0,0,1,.75.75h0a.75.75,0,0,1-.75.75h0A.76.76,0,0,1,419.33,260.07Zm-6.4,0a.76.76,0,0,1,.75-.75h0a.75.75,0,0,1,.75.75h0a.75.75,0,0,1-.75.75h0A.76.76,0,0,1,412.93,260.07Zm-6.4,0a.76.76,0,0,1,.75-.75h0a.75.75,0,0,1,.75.75h0a.75.75,0,0,1-.75.75h0A.76.76,0,0,1,406.53,260.07Zm-6.4,0a.76.76,0,0,1,.75-.75h0a.75.75,0,0,1,.75.75h0a.75.75,0,0,1-.75.75h0A.76.76,0,0,1,400.13,260.07Zm-6.4,0a.76.76,0,0,1,.75-.75h0a.75.75,0,0,1,.75.75h0a.75.75,0,0,1-.75.75h0A.76.76,0,0,1,393.73,260.07Zm-6.4,0a.76.76,0,0,1,.75-.75h0a.75.75,0,0,1,.75.75h0a.75.75,0,0,1-.75.75h0A.76.76,0,0,1,387.33,260.07Zm-6.4,0a.76.76,0,0,1,.75-.75h0a.75.75,0,0,1,.75.75h0a.75.75,0,0,1-.75.75h0A.76.76,0,0,1,380.93,260.07Zm-6.4,0a.76.76,0,0,1,.75-.75h0a.75.75,0,0,1,.75.75h0a.75.75,0,0,1-.75.75h0A.76.76,0,0,1,374.53,260.07Zm-6.4,0a.76.76,0,0,1,.75-.75h0a.75.75,0,0,1,.75.75h0a.75.75,0,0,1-.75.75h0A.76.76,0,0,1,368.13,260.07Zm-6.4,0a.76.76,0,0,1,.75-.75h0a.75.75,0,0,1,.75.75h0a.75.75,0,0,1-.75.75h0A.76.76,0,0,1,361.73,260.07Zm-6.4,0a.76.76,0,0,1,.75-.75h0a.75.75,0,0,1,.75.75h0a.75.75,0,0,1-.75.75h0A.76.76,0,0,1,355.33,260.07Zm-6.4,0a.76.76,0,0,1,.75-.75h0a.75.75,0,0,1,.75.75h0a.75.75,0,0,1-.75.75h0A.76.76,0,0,1,348.93,260.07Zm-6.4,0a.76.76,0,0,1,.75-.75h0a.75.75,0,0,1,.75.75h0a.75.75,0,0,1-.75.75h0A.76.76,0,0,1,342.53,260.07Zm-6.4,0a.76.76,0,0,1,.75-.75h0a.75.75,0,0,1,.75.75h0a.75.75,0,0,1-.75.75h0A.76.76,0,0,1,336.13,260.07Zm-6.4,0a.76.76,0,0,1,.75-.75h0a.75.75,0,0,1,.75.75h0a.75.75,0,0,1-.75.75h0A.76.76,0,0,1,329.73,260.07Zm-6.4,0a.76.76,0,0,1,.75-.75h0a.75.75,0,0,1,.75.75h0a.75.75,0,0,1-.75.75h0A.76.76,0,0,1,323.33,260.07Zm-6.4,0a.76.76,0,0,1,.75-.75h0a.75.75,0,0,1,.75.75h0a.75.75,0,0,1-.75.75h0A.76.76,0,0,1,316.93,260.07Zm-6.4,0a.76.76,0,0,1,.75-.75h0a.75.75,0,0,1,.75.75h0a.75.75,0,0,1-.75.75h0A.76.76,0,0,1,310.53,260.07Zm-6.4,0a.76.76,0,0,1,.75-.75h0a.75.75,0,0,1,.75.75h0a.75.75,0,0,1-.75.75h0A.76.76,0,0,1,304.13,260.07Zm-6.4,0a.76.76,0,0,1,.75-.75h0a.75.75,0,0,1,.75.75h0a.75.75,0,0,1-.75.75h0A.76.76,0,0,1,297.73,260.07Zm-6.4,0a.76.76,0,0,1,.75-.75h0a.75.75,0,0,1,.75.75h0a.75.75,0,0,1-.75.75h0A.76.76,0,0,1,291.33,260.07Zm-6.4,0a.76.76,0,0,1,.76-.75h0a.75.75,0,0,1,.74.75h0a.75.75,0,0,1-.74.75h0A.76.76,0,0,1,284.93,260.07Zm-6.4,0a.76.76,0,0,1,.75-.75h0a.75.75,0,0,1,.75.75h0a.75.75,0,0,1-.75.75h0A.76.76,0,0,1,278.53,260.07Zm-6.4,0a.76.76,0,0,1,.75-.75h0a.75.75,0,0,1,.75.75h0a.75.75,0,0,1-.75.75h0A.76.76,0,0,1,272.13,260.07Zm-6.4,0a.76.76,0,0,1,.75-.75h0a.75.75,0,0,1,.75.75h0a.75.75,0,0,1-.75.75h0A.76.76,0,0,1,265.73,260.07Zm-6.4,0a.76.76,0,0,1,.75-.75h0a.75.75,0,0,1,.75.75h0a.75.75,0,0,1-.75.75h0A.76.76,0,0,1,259.33,260.07Zm-6.4,0a.76.76,0,0,1,.75-.75h0a.75.75,0,0,1,.75.75h0a.75.75,0,0,1-.75.75h0A.76.76,0,0,1,252.93,260.07Zm-6.4,0a.76.76,0,0,1,.75-.75h0a.75.75,0,0,1,.75.75h0a.75.75,0,0,1-.75.75h0A.76.76,0,0,1,246.53,260.07Zm-6.4,0a.76.76,0,0,1,.75-.75h0a.76.76,0,0,1,.76.75h0a.76.76,0,0,1-.76.75h0A.76.76,0,0,1,240.13,260.07Zm-6.39,0a.75.75,0,0,1,.74-.75h0a.75.75,0,0,1,.75.75h0a.75.75,0,0,1-.75.75h0A.75.75,0,0,1,233.74,260.07Zm-6.41,0a.76.76,0,0,1,.75-.75h0a.75.75,0,0,1,.75.75h0a.75.75,0,0,1-.75.75h0A.76.76,0,0,1,227.33,260.07Zm-6.4,0a.76.76,0,0,1,.75-.75h0a.75.75,0,0,1,.75.75h0a.75.75,0,0,1-.75.75h0A.76.76,0,0,1,220.93,260.07Zm-6.4,0a.76.76,0,0,1,.75-.75h0a.75.75,0,0,1,.75.75h0a.75.75,0,0,1-.75.75h0A.76.76,0,0,1,214.53,260.07Zm-6.4,0a.76.76,0,0,1,.75-.75h0a.75.75,0,0,1,.75.75h0a.75.75,0,0,1-.75.75h0A.76.76,0,0,1,208.13,260.07Zm-6.4,0a.76.76,0,0,1,.75-.75h0a.75.75,0,0,1,.75.75h0a.75.75,0,0,1-.75.75h0A.76.76,0,0,1,201.73,260.07Zm-6.4,0a.76.76,0,0,1,.75-.75h0a.75.75,0,0,1,.75.75h0a.75.75,0,0,1-.75.75h0A.76.76,0,0,1,195.33,260.07Zm-6.4,0a.76.76,0,0,1,.75-.75h0a.75.75,0,0,1,.75.75h0a.75.75,0,0,1-.75.75h0A.76.76,0,0,1,188.93,260.07Zm-6.4,0a.76.76,0,0,1,.75-.75h0a.75.75,0,0,1,.75.75h0a.75.75,0,0,1-.75.75h0A.76.76,0,0,1,182.53,260.07Zm-6.39,0a.75.75,0,0,1,.75-.75h0a.76.76,0,0,1,.75.75h0a.76.76,0,0,1-.75.75h0A.75.75,0,0,1,176.14,260.07Zm-6.4,0a.75.75,0,0,1,.75-.75h0a.75.75,0,0,1,.74.75h0a.75.75,0,0,1-.74.75h0A.75.75,0,0,1,169.74,260.07Zm-6.41,0a.76.76,0,0,1,.75-.75h0a.75.75,0,0,1,.75.75h0a.75.75,0,0,1-.75.75h0A.76.76,0,0,1,163.33,260.07Zm-6.4,0a.76.76,0,0,1,.75-.75h0a.75.75,0,0,1,.75.75h0a.75.75,0,0,1-.75.75h0A.76.76,0,0,1,156.93,260.07Zm-6.4,0a.76.76,0,0,1,.75-.75h0a.75.75,0,0,1,.75.75h0a.75.75,0,0,1-.75.75h0A.76.76,0,0,1,150.53,260.07Zm-6.4,0a.76.76,0,0,1,.75-.75h0a.75.75,0,0,1,.75.75h0a.75.75,0,0,1-.75.75h0A.76.76,0,0,1,144.13,260.07Zm-6.4,0a.76.76,0,0,1,.75-.75h0a.75.75,0,0,1,.75.75h0a.75.75,0,0,1-.75.75h0A.76.76,0,0,1,137.73,260.07Zm-6.4,0a.76.76,0,0,1,.75-.75h0a.75.75,0,0,1,.75.75h0a.75.75,0,0,1-.75.75h0A.76.76,0,0,1,131.33,260.07Zm-6.4,0a.76.76,0,0,1,.75-.75h0a.76.76,0,0,1,.76.75h0a.76.76,0,0,1-.76.75h0A.76.76,0,0,1,124.93,260.07Zm-6.39,0a.75.75,0,0,1,.74-.75h0a.75.75,0,0,1,.75.75h0a.75.75,0,0,1-.75.75h0A.75.75,0,0,1,118.54,260.07Zm-6.41,0a.76.76,0,0,1,.75-.75h0a.75.75,0,0,1,.75.75h0a.75.75,0,0,1-.75.75h0A.76.76,0,0,1,112.13,260.07Zm-6.4,0a.76.76,0,0,1,.75-.75h0a.75.75,0,0,1,.75.75h0a.75.75,0,0,1-.75.75h0A.76.76,0,0,1,105.73,260.07Zm-6.4,0a.76.76,0,0,1,.75-.75h0a.75.75,0,0,1,.75.75h0a.75.75,0,0,1-.75.75h0A.76.76,0,0,1,99.33,260.07Zm-6.4,0a.76.76,0,0,1,.75-.75h0a.75.75,0,0,1,.75.75h0a.75.75,0,0,1-.75.75h0A.76.76,0,0,1,92.93,260.07Zm-6.4,0a.76.76,0,0,1,.75-.75h0a.75.75,0,0,1,.75.75h0a.75.75,0,0,1-.75.75h0A.76.76,0,0,1,86.53,260.07Zm-6.4,0a.76.76,0,0,1,.75-.75h0a.75.75,0,0,1,.75.75h0a.75.75,0,0,1-.75.75h0A.76.76,0,0,1,80.13,260.07Zm-6.39,0a.75.75,0,0,1,.75-.75h0a.76.76,0,0,1,.75.75h0a.76.76,0,0,1-.75.75h0A.75.75,0,0,1,73.74,260.07Zm-6.4,0a.75.75,0,0,1,.75-.75h0a.76.76,0,0,1,.75.75h0a.76.76,0,0,1-.75.75h0A.75.75,0,0,1,67.34,260.07Z"/><rect class="cls-2" x="124.85" y="0.5" width="67.58" height="67.58" rx="33.79"/><circle class="cls-2" cx="158.64" cy="34.29" r="16.76"/><circle class="cls-2" cx="158.64" cy="34.29" r="11.52"/><circle class="cls-2" cx="158.64" cy="34.29" r="5.44"/><circle class="cls-3" cx="158.64" cy="34.29" r="16.76"/><circle class="cls-4" cx="158.64" cy="34.29" r="16.76"/><circle class="cls-5" cx="158.64" cy="34.29" r="11.52"/><circle class="cls-4" cx="158.64" cy="34.29" r="11.52"/><circle class="cls-6" cx="158.64" cy="34.29" r="5.44"/><circle class="cls-4" cx="158.64" cy="34.29" r="5.44"/><path class="cls-7" d="M155.1,26.53H177.8a.78.78,0,0,1,.78.78v.36a.78.78,0,0,1-.78.78H155.1a0,0,0,0,1,0,0V26.53a0,0,0,0,1,0,0Z" transform="translate(313.76 -56.21) rotate(140.98)"/><polygon class="cls-8" points="173.56 22.02 176.71 19.47 176.97 16.98 173.93 19.45 173.56 22.02"/><polygon class="cls-9" points="173.58 22.05 176.73 19.49 179.21 19.75 176.18 22.21 173.58 22.05"/><path class="cls-10" d="M179.22,19.71l-2.47-.26L177,17a.05.05,0,0,0,0,0h-.05l-3,2.46s0,0,0,0L173.52,22a0,0,0,0,0,0,0h0s0,0,0,0l2.6.17h0l3-2.47s0,0,0,0A0,0,0,0,0,179.22,19.71Z"/><rect class="cls-2" x="324.27" y="0.5" width="67.58" height="67.58" rx="33.79"/><path class="cls-10" d="M359.89,32.07A39.49,39.49,0,0,1,365,34a9,9,0,0,1,3.38,2.76,7.73,7.73,0,0,1,1.39,4.78,8.17,8.17,0,0,1-1.24,4.39,8.71,8.71,0,0,1-3.7,3.22,13.51,13.51,0,0,1-6,1.21h0v3.53h-1.68V50.23a12.91,12.91,0,0,1-7.47-2.84,8.9,8.9,0,0,1-3.2-6.37h6.61a5,5,0,0,0,1.24,2.8,4.84,4.84,0,0,0,2.82,1.56V36.74l-.88-.27a37.61,37.61,0,0,1-5.14-1.82,8.89,8.89,0,0,1-3.35-2.74,7.76,7.76,0,0,1-1.39-4.83,7.57,7.57,0,0,1,1.39-4.54,9.07,9.07,0,0,1,3.84-3,14.42,14.42,0,0,1,5.53-1.1V14.73h1.68v3.75a12.09,12.09,0,0,1,7.3,2.67,8.85,8.85,0,0,1,3.06,6h-6.7a4.66,4.66,0,0,0-1.17-2.49,4.48,4.48,0,0,0-2.49-1.35v8.38Zm-5.82-2.67a9.15,9.15,0,0,0,3,1.74V23.2a4.85,4.85,0,0,0-3,1,3.22,3.22,0,0,0-1.08,2.6A3.36,3.36,0,0,0,354.07,29.4Zm7.89,15a3.64,3.64,0,0,0,1.15-2.8A3.33,3.33,0,0,0,362,39a9.39,9.39,0,0,0-3.19-1.7v8.25A4.54,4.54,0,0,0,362,44.43Z"/><rect class="cls-2" x="0.5" y="226.27" width="67.58" height="67.58" rx="33.79"/><rect class="cls-11" x="16.85" y="263.73" width="4.71" height="14.71" rx="2.35"/><rect class="cls-11" x="25.95" y="257.97" width="4.71" height="20.47" rx="2.35"/><rect class="cls-11" x="35.06" y="263.73" width="4.71" height="14.71" rx="2.35"/><rect class="cls-11" x="44.17" y="252.02" width="4.71" height="26.42" rx="2.35"/><path class="cls-12" d="M48.41,242.63a1.13,1.13,0,0,0-1.3-.92l-2.36.4a1.13,1.13,0,0,0-.1,2.2l-6.93,9.75-8.95-6a1.3,1.3,0,0,0-1.45,0l-9.85,6.65a1.3,1.3,0,0,0-.55.82,1.32,1.32,0,0,0,.2,1,1.3,1.3,0,0,0,1.8.35l9.13-6.16,9.27,6.23a1.22,1.22,0,0,0,.72.22,1.31,1.31,0,0,0,1.06-.54l7.66-10.77a1.13,1.13,0,0,0,1.86,0,1.13,1.13,0,0,0,.19-.84Z"/><rect class="cls-2" x="448.62" y="226.27" width="67.58" height="67.58" rx="33.79"/><path class="cls-10" d="M471.3,279.74h-1.11a2.16,2.16,0,0,1-2.1-1.63l-3.42-13.66h4.61L471.41,275l1.34,2.09A1.72,1.72,0,0,1,471.3,279.74Z"/><path class="cls-10" d="M471.37,271h-1a.67.67,0,0,1-.66-.57l-.42-2.81a.66.66,0,0,1,.65-.77h0a.67.67,0,0,1,.6.37L472,270A.66.66,0,0,1,471.37,271Z"/><path class="cls-10" d="M471.66,259a7.56,7.56,0,0,1-3.11,6.4l-1.63-.09a3.8,3.8,0,0,1-1.64-.47l-1.95.16a1,1,0,0,1-.82-.28,7.92,7.92,0,0,1-2.26-5.72,8.09,8.09,0,0,1,1.91-5.36h0l1.49-.36a4,4,0,0,1,.76-1.19,4.47,4.47,0,0,1,1.55-.27C469.11,251.83,471.66,255.05,471.66,259Z"/><path class="cls-10" d="M472.53,258.18c0,3.13-1,5.86-2.46,7.32l-1.52-.09-1.63-.09a3.8,3.8,0,0,1-3.33-2.39,13.75,13.75,0,0,1,0-9.52l.06-.12a4,4,0,0,1,.76-1.19,4.3,4.3,0,0,1,1.93-1.27l2.53-.83C471,251,472.53,254.25,472.53,258.18Z"/><ellipse class="cls-2" cx="470.05" cy="257.63" rx="4.46" ry="7.9"/><path class="cls-10" d="M493.06,241l-22.22,11.6a3.32,3.32,0,0,0-1.36,1,6.3,6.3,0,0,0-1.18,5.16,6.69,6.69,0,0,0,2.14,4.05,6.56,6.56,0,0,0,2.81.88l25.16,1.89Z"/><path class="cls-2" d="M503.7,251.71c-1.05-6.45-4.84-11.2-8.48-10.61s-5.73,6.3-4.68,12.75,4.84,11.2,8.48,10.61S504.75,258.16,503.7,251.71Z"/><path class="cls-10" d="M493.31,242.56c-2.1,1.92-3.12,6.26-2.34,11,.66,4.07,2.46,7.43,4.59,9,2.1-1.92,3.11-6.26,2.34-11C497.24,247.53,495.44,244.18,493.31,242.56Z"/><path class="cls-2" d="M499.66,254.17,492.22,258a18.88,18.88,0,0,1-1.51-7.68l7.91.11Z"/><ellipse class="cls-10" cx="498.9" cy="252.33" rx="1" ry="2.08" transform="translate(-50.66 149.58) rotate(-16.24)"/><path class="cls-10" d="M504.27,251.62c-1.14-7-5.26-12.17-9.21-11.53s-6.23,6.84-5.09,13.85,5.26,12.17,9.21,11.53S505.41,258.63,504.27,251.62Zm-5.38,12c-3.39.55-6.93-3.95-7.92-10.06s.95-11.49,4.33-12,6.92,3.95,7.92,10S502.27,263.1,498.89,263.65Z"/><rect class="cls-2" x="21.11" y="102.66" width="67.58" height="67.58" rx="33.79"/><path class="cls-12" d="M71.58,136.46A16.68,16.68,0,1,0,52.3,152.93V141.28H48.06v-4.82H52.3v-3.68c0-4.18,2.49-6.49,6.3-6.49a25.34,25.34,0,0,1,3.73.33v4.1h-2.1a2.42,2.42,0,0,0-2.72,2.61v3.13h4.62l-.74,4.82H57.51v11.65A16.68,16.68,0,0,0,71.58,136.46Z"/><path class="cls-2" d="M61.39,141.28l.74-4.82H57.51v-3.13a2.42,2.42,0,0,1,2.72-2.61h2.1v-4.1a25.34,25.34,0,0,0-3.73-.33c-3.81,0-6.3,2.31-6.3,6.49v3.68H48.06v4.82H52.3v11.65a17.07,17.07,0,0,0,5.21,0V141.28Z"/><rect class="cls-2" x="428.01" y="102.56" width="67.58" height="67.58" rx="33.79"/><path class="cls-13" d="M447.6,130.08h28.93a1.83,1.83,0,0,1,1.83,1.83v20.21a1.87,1.87,0,0,1-1.87,1.87H447.65a1.87,1.87,0,0,1-1.87-1.87V131.91A1.83,1.83,0,0,1,447.6,130.08Z"/><path class="cls-12" d="M476.47,130.08H447.66a1.9,1.9,0,0,0-1.88,1.7l13.4,9.78a5.55,5.55,0,0,0,6.63-.06l12.55-9.56A1.88,1.88,0,0,0,476.47,130.08Z"/><path class="cls-7" d="M474,123.23H450.23V135l8.95,6.53a5.55,5.55,0,0,0,6.63-.06l8.17-6.22Z"/><rect class="cls-12" x="453.7" y="125.96" width="16.69" height="1.21"/><rect class="cls-7" x="453.7" y="130.08" width="16.69" height="1.21"/><rect class="cls-7" x="453.7" y="134.2" width="8.1" height="1.21"/><path class="cls-12" d="M447.67,154h28.84a1.43,1.43,0,0,0,.93-2.5L464,139.41a2.91,2.91,0,0,0-3.87,0l-13.61,12a1.45,1.45,0,0,0,.15,2.29A1.86,1.86,0,0,0,447.67,154Z"/><path class="cls-1" d="M34.71,227a.74.74,0,0,1-.46-.95h0a.75.75,0,0,1,1-.46h0a.75.75,0,0,1,.45,1h0a.75.75,0,0,1-.7.5h0A.7.7,0,0,1,34.71,227Zm2.14-6a.74.74,0,0,1-.45-.95h0a.74.74,0,0,1,1-.46h0a.75.75,0,0,1,.46,1h0a.75.75,0,0,1-.71.5h0A.79.79,0,0,1,36.85,221Zm2.15-6a.74.74,0,0,1-.46-.95h0a.75.75,0,0,1,1-.46h0a.75.75,0,0,1,.46,1h0a.75.75,0,0,1-.71.5h0A.74.74,0,0,1,39,214.92Zm2.14-6a.73.73,0,0,1-.45-.95h0a.75.75,0,0,1,1-.46h0a.75.75,0,0,1,.45,1h0a.74.74,0,0,1-.7.5h0A.8.8,0,0,1,41.14,208.89Zm2.15-6a.75.75,0,0,1-.45-1h0a.74.74,0,0,1,.95-.46h0a.75.75,0,0,1,.46,1h0a.75.75,0,0,1-.71.5h0A.73.73,0,0,1,43.29,202.87Zm2.15-6a.75.75,0,0,1-.46-1h0a.75.75,0,0,1,1-.46h0a.75.75,0,0,1,.46,1h0a.75.75,0,0,1-.71.5h0A.73.73,0,0,1,45.44,196.84Zm2.14-6a.75.75,0,0,1-.45-1h0a.76.76,0,0,1,1-.46h0a.75.75,0,0,1,.45,1h0a.75.75,0,0,1-.7.5h0A.78.78,0,0,1,47.58,190.81Zm2.15-6a.75.75,0,0,1-.45-1h0a.74.74,0,0,1,.95-.46h0a.75.75,0,0,1,.46,1h0a.75.75,0,0,1-.71.5h0A.73.73,0,0,1,49.73,184.78Zm2.15-6a.75.75,0,0,1-.46-1h0a.75.75,0,0,1,1-.45h0a.73.73,0,0,1,.45.95h0a.73.73,0,0,1-.7.5h0A.73.73,0,0,1,51.88,178.75Zm2.14-6a.75.75,0,0,1-.45-1h0a.75.75,0,0,1,1-.45h0a.73.73,0,0,1,.45.95h0a.75.75,0,0,1-.71.5h0A.77.77,0,0,1,54,172.72Z"/><path class="cls-1" d="M479,224.77a.75.75,0,0,1,.45-1h0a.75.75,0,0,1,1,.45h0a.75.75,0,0,1-.46,1h0a.69.69,0,0,1-.25,0h0A.73.73,0,0,1,479,224.77Zm-2.15-6a.75.75,0,0,1,.45-1h0a.75.75,0,0,1,1,.45h0a.75.75,0,0,1-.45,1h0a.77.77,0,0,1-.25,0h0A.76.76,0,0,1,476.88,218.74Zm-2.15-6a.76.76,0,0,1,.46-1h0a.75.75,0,0,1,1,.45h0a.76.76,0,0,1-.46,1h0a.74.74,0,0,1-.25.05h0A.76.76,0,0,1,474.73,212.71Zm-2.14-6a.75.75,0,0,1,.45-1h0a.75.75,0,0,1,1,.45h0a.75.75,0,0,1-.46,1h0a.7.7,0,0,1-.25.05h0A.75.75,0,0,1,472.59,206.68Zm-2.15-6a.75.75,0,0,1,.45-1h0a.75.75,0,0,1,1,.45h0a.75.75,0,0,1-.45,1h0a.8.8,0,0,1-.26.05h0A.75.75,0,0,1,470.44,200.65Zm-2.15-6a.75.75,0,0,1,.46-1h0a.75.75,0,0,1,1,.45h0a.76.76,0,0,1-.46,1h0a.74.74,0,0,1-.25.05h0A.75.75,0,0,1,468.29,194.62Zm-2.14-6a.75.75,0,0,1,.45-1h0a.75.75,0,0,1,1,.46h0a.74.74,0,0,1-.46.95h0a.7.7,0,0,1-.25.05h0A.74.74,0,0,1,466.15,188.59Zm-2.15-6a.75.75,0,0,1,.46-1h0a.74.74,0,0,1,1,.46h0a.73.73,0,0,1-.45.95h0a.79.79,0,0,1-.25.05h0A.75.75,0,0,1,464,182.56Zm-2.15-6a.76.76,0,0,1,.46-1h0a.75.75,0,0,1,1,.46h0a.75.75,0,0,1-.46,1h0a1.09,1.09,0,0,1-.25,0h0A.75.75,0,0,1,461.85,176.53Zm-2.14-6a.75.75,0,0,1,.45-1h0a.76.76,0,0,1,1,.46h0a.75.75,0,0,1-.45,1h0a.78.78,0,0,1-.26,0h0A.75.75,0,0,1,459.71,170.5Z"/><path class="cls-1" d="M457.53,103.07a.75.75,0,0,1,.05-1.06h0a.75.75,0,0,1,1.06,0h0a.75.75,0,0,1-.05,1.06h0a.74.74,0,0,1-.51.19h0A.75.75,0,0,1,457.53,103.07Zm-4.34-4.7a.75.75,0,0,1,.05-1.06h0a.76.76,0,0,1,1.06,0h0a.75.75,0,0,1-.05,1.06h0a.74.74,0,0,1-.5.2h0A.76.76,0,0,1,453.19,98.37Zm-4.33-4.71a.74.74,0,0,1,0-1.06h0a.75.75,0,0,1,1.06.05h0a.74.74,0,0,1,0,1h0a.73.73,0,0,1-.51.2h0A.72.72,0,0,1,448.86,93.66ZM444.52,89a.75.75,0,0,1,0-1.06h0a.76.76,0,0,1,1.06,0h0a.75.75,0,0,1,0,1.06h0a.78.78,0,0,1-.51.2h0A.74.74,0,0,1,444.52,89Zm-4.34-4.71a.76.76,0,0,1,0-1.06h0a.75.75,0,0,1,1.06,0h0a.76.76,0,0,1,0,1.06h0a.77.77,0,0,1-.51.19h0A.75.75,0,0,1,440.18,84.25Zm-4.34-4.7a.75.75,0,0,1,0-1.06h0a.75.75,0,0,1,1.06,0h0a.76.76,0,0,1,0,1.06h0a.78.78,0,0,1-.51.2h0A.75.75,0,0,1,435.84,79.55Zm-4.34-4.71a.76.76,0,0,1,0-1.06h0a.75.75,0,0,1,1.06,0h0a.75.75,0,0,1,0,1.06h0a.75.75,0,0,1-.51.19h0A.75.75,0,0,1,431.5,74.84Zm-4.34-4.7a.75.75,0,0,1,0-1.06h0a.74.74,0,0,1,1.05,0h0a.74.74,0,0,1,0,1.06h0a.74.74,0,0,1-.51.2h0A.75.75,0,0,1,427.16,70.14Zm-4.34-4.71a.75.75,0,0,1,.05-1.06h0a.75.75,0,0,1,1.06,0h0a.75.75,0,0,1-.05,1.06h0a.73.73,0,0,1-.5.19h0A.76.76,0,0,1,422.82,65.43Zm-4.34-4.7a.75.75,0,0,1,0-1.06h0a.76.76,0,0,1,1.06,0h0a.75.75,0,0,1,0,1.06h0a.74.74,0,0,1-.5.2h0A.76.76,0,0,1,418.48,60.73ZM414.15,56a.75.75,0,0,1,0-1.06h0a.75.75,0,0,1,1.06,0h0a.76.76,0,0,1,0,1.06h0a.77.77,0,0,1-.51.19h0A.74.74,0,0,1,414.15,56Zm-4.34-4.7a.75.75,0,0,1,0-1.06h0a.75.75,0,0,1,1.06,0h0a.75.75,0,0,1,0,1.06h0a.78.78,0,0,1-.51.2h0A.75.75,0,0,1,409.81,51.32Zm-4.34-4.71a.76.76,0,0,1,0-1.06h0a.75.75,0,0,1,1.06.05h0a.76.76,0,0,1,0,1.06h0a.77.77,0,0,1-.51.19h0A.75.75,0,0,1,405.47,46.61Zm-4.34-4.7a.75.75,0,0,1,0-1.06h0a.75.75,0,0,1,1.06,0h0a.75.75,0,0,1,0,1.06h0a.78.78,0,0,1-.51.2h0A.75.75,0,0,1,401.13,41.91Zm-4.34-4.71a.76.76,0,0,1,0-1.06h0a.75.75,0,0,1,1.06,0h0a.75.75,0,0,1,0,1.06h0a.76.76,0,0,1-.51.2h0A.76.76,0,0,1,396.79,37.2Zm-4.34-4.7a.75.75,0,0,1,.05-1.06h0a.76.76,0,0,1,1.06,0h0a.75.75,0,0,1-.05,1.06h0a.74.74,0,0,1-.5.2h0A.76.76,0,0,1,392.45,32.5Z"/><path class="cls-1" d="M58.11,103.12a.75.75,0,0,1,0-1.07h0a.74.74,0,0,1,1,0h0a.75.75,0,0,1,.05,1.06h0a.75.75,0,0,1-.55.24h0A.74.74,0,0,1,58.11,103.12Zm4.34-4.71a.75.75,0,0,1-.05-1.06h0a.76.76,0,0,1,1.06,0h0a.75.75,0,0,1,0,1.06h0a.76.76,0,0,1-.56.24h0A.74.74,0,0,1,62.45,98.41Zm4.33-4.71a.75.75,0,0,1,0-1.06h0a.76.76,0,0,1,1.06,0h0a.75.75,0,0,1,0,1.06h0a.76.76,0,0,1-.56.24h0A.73.73,0,0,1,66.78,93.7ZM71.12,89a.76.76,0,0,1,0-1.06h0a.76.76,0,0,1,1.06,0h0a.75.75,0,0,1,0,1.06h0a.74.74,0,0,1-.55.24h0A.78.78,0,0,1,71.12,89Zm4.34-4.71a.74.74,0,0,1,0-1.05h0a.75.75,0,0,1,1.06,0h0a.76.76,0,0,1,0,1.06h0a.75.75,0,0,1-.55.24h0A.73.73,0,0,1,75.46,84.29Zm4.34-4.7a.75.75,0,0,1,0-1.06h0a.75.75,0,0,1,1.06,0h0a.75.75,0,0,1,0,1.06h0a.75.75,0,0,1-.55.24h0A.78.78,0,0,1,79.8,79.59Zm4.34-4.7a.76.76,0,0,1,0-1.06h0a.75.75,0,0,1,1.06,0h0a.76.76,0,0,1,0,1.06h0a.75.75,0,0,1-.55.24h0A.75.75,0,0,1,84.14,74.89Zm4.34-4.71a.75.75,0,0,1,0-1.06h0a.75.75,0,0,1,1.06,0h0a.75.75,0,0,1,0,1.06h0a.75.75,0,0,1-.55.24h0A.76.76,0,0,1,88.48,70.18Zm4.34-4.7a.74.74,0,0,1,0-1.06h0a.73.73,0,0,1,1,0h0a.75.75,0,0,1,0,1.06h0a.75.75,0,0,1-.55.24h0A.74.74,0,0,1,92.82,65.48Zm4.34-4.71a.75.75,0,0,1,0-1.06h0a.76.76,0,0,1,1.06,0h0a.75.75,0,0,1,0,1.06h0a.76.76,0,0,1-.56.24h0A.74.74,0,0,1,97.16,60.77Zm4.33-4.7a.76.76,0,0,1,0-1.06h0a.75.75,0,0,1,1.06,0h0a.75.75,0,0,1,0,1.06h0a.76.76,0,0,1-.56.24h0A.77.77,0,0,1,101.49,56.07Zm4.34-4.71a.75.75,0,0,1,0-1.06h0a.76.76,0,0,1,1.06,0h0a.75.75,0,0,1,0,1.06h0a.74.74,0,0,1-.55.24h0A.78.78,0,0,1,105.83,51.36Zm4.34-4.7a.76.76,0,0,1,0-1.06h0a.75.75,0,0,1,1.06-.05h0a.76.76,0,0,1,0,1.06h0a.76.76,0,0,1-.55.25h0A.78.78,0,0,1,110.17,46.66ZM114.51,42a.75.75,0,0,1,0-1.06h0a.75.75,0,0,1,1.06,0h0a.75.75,0,0,1,0,1.06h0a.75.75,0,0,1-.55.24h0A.73.73,0,0,1,114.51,42Zm4.34-4.7a.76.76,0,0,1,0-1.06h0a.75.75,0,0,1,1.06,0h0a.76.76,0,0,1,0,1.06h0a.76.76,0,0,1-.55.25h0A.76.76,0,0,1,118.85,37.25Zm4.34-4.71a.75.75,0,0,1,0-1.06h0a.74.74,0,0,1,1,0h0a.75.75,0,0,1,0,1.06h0a.75.75,0,0,1-.55.24h0A.7.7,0,0,1,123.19,32.54Z"/><path class="cls-1" d="M70.87,259.1a.75.75,0,0,1,.46-1h0a.74.74,0,0,1,1,.46h0a.75.75,0,0,1-.46,1h0a.69.69,0,0,1-.25,0h0A.73.73,0,0,1,70.87,259.1Zm6-2.12a.74.74,0,0,1,.46-1h0a.74.74,0,0,1,.95.46h0a.74.74,0,0,1-.46.95h0a.69.69,0,0,1-.24.05h0A.76.76,0,0,1,76.91,257Zm6-2.11a.75.75,0,0,1,.46-1h0a.75.75,0,0,1,1,.46h0a.75.75,0,0,1-.45,1h0a.77.77,0,0,1-.25,0h0A.75.75,0,0,1,83,254.87Zm6-2.11a.75.75,0,0,1,.46-1h0a.76.76,0,0,1,1,.46h0a.76.76,0,0,1-.46,1h0a.77.77,0,0,1-.25,0h0A.75.75,0,0,1,89,252.76Zm6-2.11a.75.75,0,0,1,.46-1h0a.75.75,0,0,1,1,.46h0a.76.76,0,0,1-.46,1h0a1.18,1.18,0,0,1-.25,0h0A.76.76,0,0,1,95,250.65Zm6-2.12a.75.75,0,0,1,.46-.95h0a.75.75,0,0,1,1,.46h0a.74.74,0,0,1-.46,1h0a.73.73,0,0,1-.25,0h0A.75.75,0,0,1,101.07,248.53Zm6-2.11a.76.76,0,0,1,.46-1h0a.76.76,0,0,1,1,.46h0a.75.75,0,0,1-.46,1h0a.73.73,0,0,1-.25,0h0A.75.75,0,0,1,107.11,246.42Zm6-2.11a.75.75,0,0,1,.45-1h0a.75.75,0,0,1,1,.46h0a.75.75,0,0,1-.46,1h0a.69.69,0,0,1-.25,0h0A.73.73,0,0,1,113.16,244.31Zm6-2.11a.74.74,0,0,1,.46-1h0a.74.74,0,0,1,1,.46h0a.74.74,0,0,1-.46,1h0a.7.7,0,0,1-.25,0h0A.75.75,0,0,1,119.2,242.2Zm6-2.12a.74.74,0,0,1,.46-1h0a.74.74,0,0,1,1,.46h0a.74.74,0,0,1-.46.95h0a.67.67,0,0,1-.24,0h0A.75.75,0,0,1,125.24,240.08Zm6-2.11a.75.75,0,0,1,.46-1h0a.75.75,0,0,1,.95.46h0a.75.75,0,0,1-.46,1h0a.67.67,0,0,1-.24,0h0A.75.75,0,0,1,131.28,238Zm6-2.11a.75.75,0,0,1,.46-1h0a.75.75,0,0,1,1,.46h0a.76.76,0,0,1-.47,1h0a1,1,0,0,1-.24,0h0A.75.75,0,0,1,137.32,235.86Zm6-2.12a.74.74,0,0,1,.46-1h0a.75.75,0,0,1,1,.46h0a.75.75,0,0,1-.46.95h0a.79.79,0,0,1-.25.05h0A.76.76,0,0,1,143.36,233.74Zm6-2.11a.75.75,0,0,1,.46-.95h0a.75.75,0,0,1,1,.46h0a.75.75,0,0,1-.46,1h0a.73.73,0,0,1-.25,0h0A.75.75,0,0,1,149.4,231.63Zm6-2.11a.76.76,0,0,1,.46-1h0a.76.76,0,0,1,1,.46h0a.75.75,0,0,1-.46,1h0a.73.73,0,0,1-.25,0h0A.75.75,0,0,1,155.44,229.52Zm6-2.11a.76.76,0,0,1,.47-1h0a.74.74,0,0,1,1,.46h0a.75.75,0,0,1-.46,1h0a.73.73,0,0,1-.25,0h0A.75.75,0,0,1,161.48,227.41Zm6.05-2.12a.74.74,0,0,1,.46-.95h0a.74.74,0,0,1,.95.46h0a.74.74,0,0,1-.46.95h0a.7.7,0,0,1-.25.05h0A.74.74,0,0,1,167.53,225.29Zm6-2.11a.75.75,0,0,1,.46-1h0a.75.75,0,0,1,.95.46h0a.75.75,0,0,1-.46,1h0a.67.67,0,0,1-.24,0h0A.74.74,0,0,1,173.57,223.18Zm6-2.11a.75.75,0,0,1,.46-1h0a.74.74,0,0,1,1,.46h0a.75.75,0,0,1-.46,1h0a.67.67,0,0,1-.24,0h0A.75.75,0,0,1,179.61,221.07Zm6-2.11a.75.75,0,0,1,.46-1h0a.75.75,0,0,1,1,.46h0a.76.76,0,0,1-.46,1h0a1.18,1.18,0,0,1-.25,0h0A.76.76,0,0,1,185.65,219Zm6-2.12a.74.74,0,0,1,.46-1h0a.75.75,0,0,1,1,.46h0a.75.75,0,0,1-.46,1h0a.77.77,0,0,1-.25,0h0A.75.75,0,0,1,191.69,216.84Zm6-2.11a.76.76,0,0,1,.46-1h0a.76.76,0,0,1,1,.46h0a.76.76,0,0,1-.46,1h0a.73.73,0,0,1-.25,0h0A.75.75,0,0,1,197.73,214.73Zm6-2.11a.76.76,0,0,1,.46-1h0a.76.76,0,0,1,1,.46h0a.76.76,0,0,1-.46,1h0a.73.73,0,0,1-.25,0h0A.75.75,0,0,1,203.77,212.62Zm6-2.12a.74.74,0,0,1,.45-.95h0a.75.75,0,0,1,1,.46h0a.74.74,0,0,1-.46,1h0a.74.74,0,0,1-.25,0h0A.74.74,0,0,1,209.82,210.5Zm6-2.11a.75.75,0,0,1,.46-1h0a.75.75,0,0,1,1,.47h0a.74.74,0,0,1-.46.95h0a.69.69,0,0,1-.25,0h0A.73.73,0,0,1,215.86,208.39Zm6-2.11a.75.75,0,0,1,.46-1h0a.75.75,0,0,1,.95.46h0a.75.75,0,0,1-.46,1h0a.67.67,0,0,1-.24,0h0A.75.75,0,0,1,221.9,206.28Zm6-2.11a.75.75,0,0,1,.46-1h0a.74.74,0,0,1,.95.46h0a.75.75,0,0,1-.46,1h0a1,1,0,0,1-.24,0h0A.76.76,0,0,1,227.94,204.17Zm6-2.12a.74.74,0,0,1,.46-1h0a.74.74,0,0,1,.95.46h0a.73.73,0,0,1-.45.95h0a.79.79,0,0,1-.25.05h0A.76.76,0,0,1,234,202.05Zm6-2.11a.74.74,0,0,1,.46-.95h0a.75.75,0,0,1,1,.45h0a.76.76,0,0,1-.46,1h0a.77.77,0,0,1-.25,0h0A.75.75,0,0,1,240,199.94Zm6-2.11a.76.76,0,0,1,.46-1h0a.76.76,0,0,1,1,.46h0a.76.76,0,0,1-.46,1h0a.73.73,0,0,1-.25,0h0A.75.75,0,0,1,246.06,197.83Zm6-2.11a.76.76,0,0,1,.46-1h0a.75.75,0,0,1,1,.46h0a.75.75,0,0,1-.46,1h0a1.09,1.09,0,0,1-.25,0h0A.76.76,0,0,1,252.1,195.72Zm6-2.12a.75.75,0,0,1,.46-.95h0a.75.75,0,0,1,1,.46h0a.74.74,0,0,1-.46.95h0a.69.69,0,0,1-.25,0h0A.75.75,0,0,1,258.14,193.6Zm6.05-2.11a.75.75,0,0,1,.46-1h0a.75.75,0,0,1,1,.47h0a.74.74,0,0,1-.46.95h0a.73.73,0,0,1-.25,0h0A.73.73,0,0,1,264.19,191.49Zm6-2.11a.75.75,0,0,1,.46-1h0a.74.74,0,0,1,.95.46h0a.75.75,0,0,1-.46,1h0a.69.69,0,0,1-.25,0h0A.73.73,0,0,1,270.23,189.38Zm6-2.11a.75.75,0,0,1,.46-1h0a.74.74,0,0,1,.95.46h0a.74.74,0,0,1-.46.95h0a.69.69,0,0,1-.24.05h0A.76.76,0,0,1,276.27,187.27Zm6-2.12a.74.74,0,0,1,.46-1h0a.74.74,0,0,1,1,.46h0a.74.74,0,0,1-.46,1h0a.67.67,0,0,1-.24,0h0A.75.75,0,0,1,282.31,185.15Zm6-2.11a.75.75,0,0,1,.46-1h0a.76.76,0,0,1,1,.46h0a.76.76,0,0,1-.47,1h0a.67.67,0,0,1-.24,0h0A.75.75,0,0,1,288.35,183Zm6-2.11a.75.75,0,0,1,.46-1h0a.76.76,0,0,1,1,.46h0a.76.76,0,0,1-.46,1h0a.73.73,0,0,1-.25,0h0A.75.75,0,0,1,294.39,180.93Zm6-2.12a.75.75,0,0,1,.46-.95h0a.75.75,0,0,1,1,.46h0a.74.74,0,0,1-.46,1h0a.74.74,0,0,1-.25,0h0A.76.76,0,0,1,300.43,178.81Zm6-2.11a.76.76,0,0,1,.46-1h0a.76.76,0,0,1,1,.47h0a.74.74,0,0,1-.46.95h0a.73.73,0,0,1-.25,0h0A.75.75,0,0,1,306.47,176.7Zm6-2.11a.76.76,0,0,1,.47-1h0a.75.75,0,0,1,.95.46h0a.75.75,0,0,1-.46,1h0a.69.69,0,0,1-.25,0h0A.75.75,0,0,1,312.51,174.59Zm6.05-2.11a.75.75,0,0,1,.46-1h0a.74.74,0,0,1,1,.46h0a.75.75,0,0,1-.46,1h0a1.09,1.09,0,0,1-.25,0h0A.74.74,0,0,1,318.56,172.48Zm6-2.12a.74.74,0,0,1,.46-1h0a.74.74,0,0,1,.95.46h0a.74.74,0,0,1-.46.95h0a.69.69,0,0,1-.24.05h0A.76.76,0,0,1,324.6,170.36Zm6-2.11a.74.74,0,0,1,.46-.95h0a.73.73,0,0,1,.95.45h0a.74.74,0,0,1-.46,1h0a.67.67,0,0,1-.24,0h0A.75.75,0,0,1,330.64,168.25Zm6-2.11a.75.75,0,0,1,.46-1h0a.76.76,0,0,1,1,.46h0a.76.76,0,0,1-.46,1h0a.77.77,0,0,1-.25,0h0A.75.75,0,0,1,336.68,166.14Zm6-2.12a.74.74,0,0,1,.46-1h0a.75.75,0,0,1,1,.46h0a.76.76,0,0,1-.46,1h0a1.18,1.18,0,0,1-.25,0h0A.76.76,0,0,1,342.72,164Zm6-2.11a.75.75,0,0,1,.46-.95h0a.75.75,0,0,1,1,.46h0a.75.75,0,0,1-.46,1h0a.73.73,0,0,1-.25,0h0A.75.75,0,0,1,348.76,161.91Zm6-2.11a.76.76,0,0,1,.46-1h0a.76.76,0,0,1,1,.46h0a.75.75,0,0,1-.46,1h0a.73.73,0,0,1-.25,0h0A.75.75,0,0,1,354.8,159.8Zm6.05-2.11a.75.75,0,0,1,.45-1h0a.75.75,0,0,1,1,.46h0a.75.75,0,0,1-.46,1h0a.73.73,0,0,1-.25,0h0A.73.73,0,0,1,360.85,157.69Zm6-2.12a.74.74,0,0,1,.46-.95h0a.74.74,0,0,1,.95.46h0a.74.74,0,0,1-.46.95h0a.7.7,0,0,1-.25.05h0A.74.74,0,0,1,366.89,155.57Zm6-2.11a.74.74,0,0,1,.46-1h0a.74.74,0,0,1,.95.46h0a.74.74,0,0,1-.46.95h0a.69.69,0,0,1-.25,0h0A.75.75,0,0,1,372.93,153.46Zm6-2.11a.75.75,0,0,1,.46-1h0a.75.75,0,0,1,.95.46h0a.74.74,0,0,1-.46,1h0a.67.67,0,0,1-.24,0h0A.75.75,0,0,1,379,151.35Zm6-2.11a.75.75,0,0,1,.46-1h0a.74.74,0,0,1,.95.46h0a.75.75,0,0,1-.45,1h0a1.18,1.18,0,0,1-.25,0h0A.75.75,0,0,1,385,149.24Zm6-2.12a.74.74,0,0,1,.46-1h0a.75.75,0,0,1,1,.46h0a.75.75,0,0,1-.46,1h0a.79.79,0,0,1-.25,0h0A.76.76,0,0,1,391.05,147.12Zm6-2.11a.76.76,0,0,1,.46-1h0a.77.77,0,0,1,1,.47h0a.75.75,0,0,1-.46.95h0a.73.73,0,0,1-.25,0h0A.75.75,0,0,1,397.09,145Zm6-2.11a.76.76,0,0,1,.46-1h0a.76.76,0,0,1,1,.46h0a.75.75,0,0,1-.46,1h0a.73.73,0,0,1-.25,0h0A.75.75,0,0,1,403.13,142.9Zm6-2.11a.76.76,0,0,1,.47-1h0a.74.74,0,0,1,.95.46h0a.74.74,0,0,1-.46,1h0a.74.74,0,0,1-.25,0h0A.76.76,0,0,1,409.17,140.79Zm6-2.12a.75.75,0,0,1,.47-.95h0a.74.74,0,0,1,.95.46h0a.74.74,0,0,1-.46.95h0a.7.7,0,0,1-.25.05h0A.78.78,0,0,1,415.21,138.67Zm6.05-2.11a.75.75,0,0,1,.46-1h0a.75.75,0,0,1,.95.46h0a.75.75,0,0,1-.46,1h0a.69.69,0,0,1-.25,0h0A.75.75,0,0,1,421.26,136.56Zm6-2.11a.75.75,0,0,1,.46-1h0a.75.75,0,0,1,.95.46h0a.75.75,0,0,1-.46,1h0a.67.67,0,0,1-.24,0h0A.75.75,0,0,1,427.3,134.45Z"/><path class="cls-12" d="M331.38,521.92l7.46,28.83a25.6,25.6,0,0,0,5.72,10.66l18.11,20.16-9.07,2.35a7.47,7.47,0,0,1-4.78-.35L328.46,575l3.36,13-5.61,1.45-6.43-24.85-3.36-6.77a13.68,13.68,0,0,1-.84-10l2.62-8.68-3.33-12.88Z"/><path class="cls-2" d="M344.56,561.41,356.76,575l-6.22,1.61a9,9,0,0,1-8.36-2.06l-16.31-14.82a14.28,14.28,0,0,1-4.25-7.05l-3.44-13.51,0-.08-3.33-12.88,16.51-4.28,7.46,28.83A25.6,25.6,0,0,0,344.56,561.41Z"/><path class="cls-14" d="M227.27,178.05S195,181,188.5,154.42c-8.53-34.78,33.76-38.51,46-61.83C251.76,59.56,279.36,67,286,102c6,31.88,23.65,28.18,18.62,57.14"/><path class="cls-5" d="M195.35,162.09c-15.83-36.47,24.42-41.84,35.6-64.19-15.21,18.82-50.29,24.56-42.45,56.52A28.15,28.15,0,0,0,203,173.25,31.19,31.19,0,0,1,195.35,162.09Z"/><path class="cls-4" d="M195.35,162.09c-15.83-36.47,24.42-41.84,35.6-64.19-15.21,18.82-50.29,24.56-42.45,56.52A28.15,28.15,0,0,0,203,173.25,31.19,31.19,0,0,1,195.35,162.09Z"/><path class="cls-5" d="M286,102c-6.35-33.69-32.21-41.83-49.55-12.83,20.31-28.13,45.69-17.53,48.6,17,2.58,30.58,23.24,29.44,13.76,54.42l5.81-1.43C309.6,130.16,292,133.86,286,102Z"/><path class="cls-4" d="M286,102c-6.35-33.69-32.21-41.83-49.55-12.83,20.31-28.13,45.69-17.53,48.6,17,2.58,30.58,23.24,29.44,13.76,54.42l5.81-1.43C309.6,130.16,292,133.86,286,102Z"/><path class="cls-12" d="M220.89,241.93H198.25V229.08l3.63-3.08,10.42-60a15.23,15.23,0,0,1,10-11.78l2.15-.75v70.84Z"/><path class="cls-5" d="M205,226l10.41-60a15.25,15.25,0,0,1,9-11.4v-1.13l-2.15.75a15.23,15.23,0,0,0-10,11.78l-10.42,60-3.63,3.08v12.85h3.13V229.08Z"/><path class="cls-4" d="M220.89,241.93H198.25V229.08l3.63-3.08,10.42-60a15.23,15.23,0,0,1,10-11.78l2.15-.75v70.84Z"/><polygon class="cls-12" points="249.18 141.58 224.45 153.48 217.88 190.73 225.7 244.26 277.36 244.26 302.77 157.45 274.23 140.02 248.71 173.82 249.18 141.58"/><path class="cls-14" d="M225.7,244.26v6.26l-5,11a43.86,43.86,0,0,0-3.78,21.16l17.22,242.66h35.68L253.43,291.71l54.19,235.8,32.14-5.22L288.39,263.76l-9.91-14.85-1.12-4.65Z"/><polygon class="cls-5" points="288.39 263.76 278.48 248.91 277.36 244.26 273.49 244.26 274.61 248.91 284.53 263.76 335.89 522.29 307.47 526.91 307.62 527.51 339.76 522.29 288.39 263.76"/><polygon class="cls-4" points="288.39 263.76 278.48 248.91 277.36 244.26 273.49 244.26 274.61 248.91 284.53 263.76 335.89 522.29 307.47 526.91 307.62 527.51 339.76 522.29 288.39 263.76"/><path class="cls-2" d="M225.2,261.55l5-11v-6.26H225.7v6.26l-5,11a43.86,43.86,0,0,0-3.78,21.16l17.22,242.66h4.47L221.42,282.71A43.74,43.74,0,0,1,225.2,261.55Z"/><path class="cls-1" d="M302.77,157.45l3.14,1.62a9.76,9.76,0,0,1,4.91,6l17.76,61-1.85,10.47-3.37,1.35,1.7-1.87-8.05-5.5-10.26,1.71-1.32-10.54-11.82-32.87Z"/><path class="cls-4" d="M302.77,157.45l3.14,1.62a9.76,9.76,0,0,1,4.91,6l17.76,61-1.85,10.47-3.37,1.35,1.7-1.87-8.05-5.5-10.26,1.71-1.32-10.54-11.82-32.87Z"/><path class="cls-5" d="M310.82,165a9.76,9.76,0,0,0-4.91-6l-3.14-1.62-.38,1.3.62.32a9.73,9.73,0,0,1,4.91,6l17.76,61-1.63,9.26,1,.69-1.7,1.87,3.37-1.35L328.58,226Z"/><path class="cls-2" d="M325.06,236l-30.79,33.86a4.32,4.32,0,0,1-3.94,1.34l-.57-.1a4.3,4.3,0,0,1-3.21-2.55l-.83-1.93-7.25,1.07a1.31,1.31,0,0,1-1.25-.54h0a1.29,1.29,0,0,1,.69-2L288.2,262l-.11-.63-4.93.43-9.87,2.78a1.51,1.51,0,0,1-1.82-.94h0a1.5,1.5,0,0,1,.86-1.88l9.83-3.95,4.35.23.09-.53-5.27-.53-9.42,3a1.44,1.44,0,0,1-1.81-.94h0a1.44,1.44,0,0,1,.76-1.73l8.82-4.12,4.78.45.08-.43-2.43-2.86-6.58-2a1,1,0,0,1-.72-1.18h0a1,1,0,0,1,1.2-.85l6.73,1.19a2,2,0,0,1,1.19.7l3.77,4.62a2.25,2.25,0,0,1,.35.62l2,6,18.32-27.51,8.62-1.44Z"/><line class="cls-2" x1="285.72" y1="266.58" x2="289.58" y2="265.76"/><polyline class="cls-12" points="249.5 244.26 238.85 192.92 273.76 168.03 267.96 164.12 280.96 167.25 285.95 147.18"/><polyline class="cls-12" points="238.85 192.92 235.25 166.63 243.24 166.63 231.03 163.65 231.71 149.99"/><path class="cls-12" d="M241.2,525.37v29.77a25.45,25.45,0,0,1-2.87,11.76L225.86,591h9.37a7.42,7.42,0,0,0,4.53-1.54L257.32,576v13.41h5.79V563.72l1.55-7.39a13.62,13.62,0,0,0-1.69-9.9l-4.71-7.75V525.37Z"/><path class="cls-2" d="M238.33,566.9l-8.4,16.2h6.43a9,9,0,0,0,7.57-4.09L256,560.58a14.24,14.24,0,0,0,2.34-7.89l0-13.94-.05-.07V525.37H241.2v29.77A25.45,25.45,0,0,1,238.33,566.9Z"/><polygon class="cls-2" points="249.18 123.58 274.07 123.58 274.07 140.02 248.71 173.82 249.18 123.58"/><path class="cls-11" d="M211.14,309.63c5.39,8,7.86,25.19,7.86,25.19l3.14.33a67.6,67.6,0,0,0-8.76-27.47l-8.52-10.2v6.73"/><ellipse class="cls-2" cx="243.54" cy="108.29" rx="5.25" ry="6.31"/><ellipse class="cls-2" cx="277.11" cy="108.29" rx="5.25" ry="6.31"/><ellipse class="cls-14" cx="260.66" cy="93.73" rx="21.31" ry="22.21"/><path class="cls-2" d="M260.9,131.11c2.93,0,6.48-1.72,9.46-3.59a16.51,16.51,0,0,0,7.44-11.13c.89-5,1.95-11.45,1.95-13.69,0-6.28-2.18-20.33-16.49-20.33h-4.71c-14.31,0-16.5,14-16.5,20.33,0,2.24,1.07,8.68,2,13.69a16.51,16.51,0,0,0,7.44,11.13C254.43,129.39,258,131.11,260.9,131.11Z"/><path class="cls-2" d="M260.35,105.29s-.09,5.29-1.25,7.46,1.35,2.89,2,4.72"/><circle class="cls-14" cx="253.23" cy="106.07" r="1.35"/><circle class="cls-14" cx="267.63" cy="106.07" r="1.35"/><path class="cls-2" d="M249.2,101.94l7.17,1.34a1.28,1.28,0,0,0,1.32-.59h0"/><path class="cls-2" d="M271.46,101.94l-7.18,1.34a1.29,1.29,0,0,1-1.32-.59h0"/><path class="cls-2" d="M257.78,122.23s4,2,7.22-.61"/><path class="cls-14" d="M252.51,85s7.29,7.09,23,15.53c.66.35,4.49,3.19,3.22,10.37,0,0,10.61-35.07-15.65-37.77-26.81-2.76-22.75,31.93-20.29,37.77,0,0-.4-7.2,1.52-10.08S251.89,93.24,252.51,85Z"/><path class="cls-5" d="M242.77,108.93A38.78,38.78,0,0,1,241,97.19c-.11,6.19.93,11.68,1.78,13.7C242.8,110.89,242.76,110.09,242.77,108.93Z"/><path class="cls-4" d="M242.77,108.93A38.78,38.78,0,0,1,241,97.19c-.11,6.19.93,11.68,1.78,13.7C242.8,110.89,242.76,110.09,242.77,108.93Z"/><path class="cls-5" d="M279,108.12a15.71,15.71,0,0,1-.25,2.77A57.65,57.65,0,0,0,280.85,95,59.31,59.31,0,0,1,279,108.12Z"/><path class="cls-4" d="M279,108.12a15.71,15.71,0,0,1-.25,2.77A57.65,57.65,0,0,0,280.85,95,59.31,59.31,0,0,1,279,108.12Z"/><path class="cls-5" d="M275.52,98.64c-15.72-8.43-23.81-16.32-23.81-16.32-.62,8.25-6.27,13.73-8.19,16.61-1.57,2.37-.79,7.64-.74,9.45.06-2.36.36-5.79,1.54-7.57,1.92-2.88,7.57-7.57,8.19-15.82,0,0,7.29,7.09,23,15.53.53.28,3.1,2.18,3.43,6.63C279.31,101.34,276.12,99,275.52,98.64Z"/><path class="cls-4" d="M275.52,98.64c-15.72-8.43-23.81-16.32-23.81-16.32-.62,8.25-6.27,13.73-8.19,16.61-1.57,2.37-.79,7.64-.74,9.45.06-2.36.36-5.79,1.54-7.57,1.92-2.88,7.57-7.57,8.19-15.82,0,0,7.29,7.09,23,15.53.53.28,3.1,2.18,3.43,6.63C279.31,101.34,276.12,99,275.52,98.64Z"/><path class="cls-2" d="M260.66,74.33c11.51,0,20.89,8.32,21.3,20.21,0-.27,0-.54,0-.81,0-12.27-9.55-22.21-21.32-22.21s-21.31,9.94-21.31,22.21c0,.27,0,.54,0,.81C239.78,82.65,249.15,74.33,260.66,74.33Z"/><path class="cls-2" d="M202,241.93l-9.12,55a11.88,11.88,0,0,0,1.23,7.54l2.61,5a3,3,0,0,0,2.33,1.6l1.87.23H206a1.79,1.79,0,0,0,1.64-2.52l-1.88-4.19V301l2.55,3.35,3.51,3.37a1.08,1.08,0,0,0,1.5,0h0a1.06,1.06,0,0,0,.2-1.22L212,303.21,210,295l-4.26-9.57L219,241.93Z"/><line class="cls-2" x1="200.94" y1="311.24" x2="197.83" y2="304.88"/><line class="cls-2" x1="204.86" y1="311.24" x2="201.75" y2="304.88"/><path class="cls-11" d="M221.31,385.58l18.3-4.19L234,339.32a4.18,4.18,0,0,0-4.14-3.63h-1.1l-2.51,4.06Z"/><path class="cls-5" d="M234,339.32a4.18,4.18,0,0,0-4.14-3.63h-1.1l-.16.27a4.18,4.18,0,0,1,2.67,3.36l5.67,42.07-15.51,3.55-.07.64,18.3-4.19Z"/><polygon class="cls-11" points="177.85 330.52 228.71 335.83 226.2 339.75 221.31 385.58 168.63 377.34 177.85 330.52"/><polygon class="cls-5" points="170.9 377.34 180.07 330.76 177.85 330.52 168.63 377.34 221.31 385.58 221.34 385.23 170.9 377.34"/><polygon class="cls-4" points="177.85 330.52 228.71 335.83 226.2 339.75 221.31 385.58 168.63 377.34 177.85 330.52"/><path class="cls-11" d="M182,352.88h4.47s.64-29.57,10.17-43.57l-1.2-2.28S185.4,319.9,182,352.88Z"/><path class="cls-11" d="M205.76,303.21s6.54,3.7,7.06,13.45-.52,39.09-.52,39.09h-3.46L210.43,319a17.57,17.57,0,0,0-1.7-8.32l-3-6.19Z"/><path class="cls-11" d="M195.79,332.4l2.88.3s-2.24-19.81.72-21.65l-2-.8S194.3,311.18,195.79,332.4Z"/><path class="cls-4" d="M302.77,157.45l3.14,1.62a9.76,9.76,0,0,1,4.91,6l17.76,61-1.85,10.47-3.37,1.35,1.7-1.87-8.05-5.5-10.26,1.71-1.32-10.54-11.82-32.87Z"/><path class="cls-4" d="M221.31,385.58l18.3-4.19L234,339.32a4.18,4.18,0,0,0-4.14-3.63h-1.1l-2.51,4.06Z"/></g></g></svg>