<svg xmlns="http://www.w3.org/2000/svg" xmlns:xlink="http://www.w3.org/1999/xlink" viewBox="0 0 864 864"><defs><style>.cls-1,.cls-5{fill:none;}.cls-2{clip-path:url(#clip-path);}.cls-3{fill:#f9f3ff;}.cls-4{fill:#b57aef;}.cls-11,.cls-5,.cls-6,.cls-7{stroke:#041323;stroke-linecap:round;stroke-linejoin:round;}.cls-6,.cls-8{fill:#fff;}.cls-7{fill:#041323;}.cls-11,.cls-9{fill:#4a90ee;}.cls-10{fill:#ee9646;}</style><clipPath id="clip-path"><rect class="cls-1" width="864" height="864" rx="150"/></clipPath></defs><g id="Layer_2" data-name="Layer 2"><g id="Illustrtions"><g class="cls-2"><rect class="cls-3" width="864" height="461.81"/><rect class="cls-4" y="461.81" width="864" height="402.19"/><rect class="cls-5" x="572.14" y="155.67" width="175.24" height="12.99"/><rect class="cls-5" x="572.14" y="168.66" width="175.24" height="12.99"/><rect class="cls-5" x="572.14" y="181.65" width="175.24" height="12.99"/><rect class="cls-5" x="572.14" y="194.64" width="175.24" height="12.99"/><rect class="cls-5" x="572.14" y="207.62" width="175.24" height="12.99"/><rect class="cls-5" x="572.14" y="220.61" width="175.24" height="12.99"/><rect class="cls-5" x="572.14" y="233.6" width="175.24" height="12.99"/><polygon class="cls-5" points="572.14 246.59 572.14 259.57 572.14 272.56 572.14 285.55 572.14 298.53 572.14 311.52 572.14 324.51 572.14 337.5 572.14 350.48 747.38 350.48 747.38 337.5 747.38 324.51 747.38 311.52 747.38 298.53 747.38 285.55 747.38 272.56 747.38 259.57 747.38 246.59 572.14 246.59"/><line class="cls-6" x1="730.36" y1="246.58" x2="730.36" y2="314.75"/><path class="cls-7" d="M502.9,456.17l4.32,16.71a14.87,14.87,0,0,0,3.32,6.18L521,490.75l-5.26,1.36a4.32,4.32,0,0,1-2.77-.2l-11.81-5,1.95,7.52-3.25.85-3.73-14.41L494.23,477a7.88,7.88,0,0,1-.49-5.8l1.51-5-1.93-7.47Z"/><path class="cls-6" d="M510.54,479.06l7.07,7.88-3.61.93a5.25,5.25,0,0,1-4.84-1.2l-9.46-8.59a8.28,8.28,0,0,1-2.46-4.08l-2-7.84v0l-1.93-7.47,9.58-2.48,4.32,16.71A14.87,14.87,0,0,0,510.54,479.06Z"/><path class="cls-7" d="M442.53,256.79s-18.69,1.72-22.48-13.71c-4.94-20.16,19.58-22.32,26.66-35.84,10-19.15,26-14.83,29.85,5.44,3.48,18.48,13.71,16.34,10.79,33.13"/><path class="cls-8" d="M424,247.53c-9.17-21.15,14.17-24.26,20.65-37.22-8.82,10.91-29.16,14.24-24.62,32.77A16.32,16.32,0,0,0,428.46,254,18,18,0,0,1,424,247.53Z"/><path class="cls-5" d="M424,247.53c-9.17-21.15,14.17-24.26,20.65-37.22-8.82,10.91-29.16,14.24-24.62,32.77A16.32,16.32,0,0,0,428.46,254,18,18,0,0,1,424,247.53Z"/><path class="cls-8" d="M476.56,212.68c-3.69-19.53-18.68-24.25-28.73-7.44,11.77-16.31,26.49-10.16,28.18,9.85,1.49,17.73,13.47,17.07,8,31.55l3.37-.83C490.27,229,480,231.16,476.56,212.68Z"/><path class="cls-5" d="M476.56,212.68c-3.69-19.53-18.68-24.25-28.73-7.44,11.77-16.31,26.49-10.16,28.18,9.85,1.49,17.73,13.47,17.07,8,31.55l3.37-.83C490.27,229,480,231.16,476.56,212.68Z"/><path class="cls-6" d="M438.83,293.82H425.71v-7.45l2.1-1.78,6-34.78a8.86,8.86,0,0,1,5.8-6.84l1.25-.43v41.08Z"/><path class="cls-5" d="M438.83,293.82H425.71v-7.45l2.1-1.78,6-34.78a8.86,8.86,0,0,1,5.8-6.84l1.25-.43v41.08Z"/><polygon class="cls-6" points="455.24 235.64 440.9 242.54 437.09 264.14 441.63 295.18 471.57 295.18 486.31 244.84 469.76 234.73 454.97 254.34 455.24 235.64"/><path class="cls-7" d="M441.62,295.18v3.63l-2.89,6.39a25.6,25.6,0,0,0-2.19,12.27l10,140.7h20.69L457.7,322.69l31.42,136.72,18.63-3L478,306.48l-5.75-8.61-.65-2.69Z"/><polygon class="cls-8" points="477.97 306.48 472.22 297.87 471.57 295.18 469.33 295.18 469.98 297.87 475.73 306.48 505.51 456.38 489.04 459.06 489.12 459.41 507.75 456.38 477.97 306.48"/><polygon class="cls-5" points="477.97 306.48 472.22 297.87 471.57 295.18 469.33 295.18 469.98 297.87 475.73 306.48 505.51 456.38 489.04 459.06 489.12 459.41 507.75 456.38 477.97 306.48"/><path class="cls-6" d="M441.33,305.2l2.89-6.39v-3.63h-2.6v3.63l-2.89,6.39a25.6,25.6,0,0,0-2.19,12.27l10,140.7h2.59l-10-140.7A25.37,25.37,0,0,1,441.33,305.2Z"/><path class="cls-6" d="M486.31,244.84l1.82.94a5.69,5.69,0,0,1,2.85,3.45l10.29,35.37-1.07,6.06-1.95.79,1-1.09-4.67-3.19-5.94,1-.77-6.12L481,263Z"/><path class="cls-6" d="M499.23,290.36,481.38,310a2.5,2.5,0,0,1-2.28.77l-.34-.06a2.5,2.5,0,0,1-1.86-1.47l-.48-1.13-4.2.62a.71.71,0,0,1-.72-.31h0a.75.75,0,0,1,.39-1.14l6-1.81-.06-.37-2.86.25L469.21,307a.86.86,0,0,1-1-.54h0a.87.87,0,0,1,.5-1.09l5.7-2.29,2.52.13.05-.31-3.05-.31-5.47,1.74a.84.84,0,0,1-1-.55h0a.82.82,0,0,1,.44-1l5.11-2.39,2.77.26.05-.25-1.41-1.66-3.82-1.17a.62.62,0,0,1-.42-.69h0a.63.63,0,0,1,.71-.49l4.31.77,2.59,3.17L479,304,489.57,288l5-.84Z"/><line class="cls-6" x1="476.42" y1="308.11" x2="478.66" y2="307.64"/><polyline class="cls-6" points="455.42 295.18 449.25 265.41 469.49 250.98 466.13 248.71 473.66 250.53 476.56 238.89"/><polyline class="cls-6" points="449.25 265.41 447.16 250.16 451.79 250.16 444.71 248.44 445.1 240.51"/><path class="cls-7" d="M450.61,458.17v17.26a14.87,14.87,0,0,1-1.66,6.82l-7.23,13.94h5.43a4.32,4.32,0,0,0,2.63-.89L460,487.51v7.78h3.35V480.4l.9-4.28a7.89,7.89,0,0,0-1-5.75l-2.73-4.49v-7.71Z"/><path class="cls-6" d="M449,482.25l-4.87,9.39h3.72a5.28,5.28,0,0,0,4.4-2.37l7-10.69a8.26,8.26,0,0,0,1.35-4.57l0-8.09,0,0v-7.71h-9.89v17.26A14.87,14.87,0,0,1,449,482.25Z"/><polygon class="cls-6" points="455.24 225.2 469.67 225.2 469.67 234.73 454.97 254.34 455.24 225.2"/><ellipse class="cls-6" cx="451.96" cy="216.34" rx="3.04" ry="3.66"/><ellipse class="cls-6" cx="471.43" cy="216.34" rx="3.04" ry="3.66"/><ellipse class="cls-7" cx="461.89" cy="207.89" rx="12.36" ry="12.88"/><path class="cls-6" d="M462,229.57a11.65,11.65,0,0,0,5.49-2.08,9.58,9.58,0,0,0,4.31-6.45A72.7,72.7,0,0,0,473,213.1c0-3.64-1.26-11.79-9.56-11.79h-2.73c-8.3,0-9.57,8.15-9.57,11.79a73.25,73.25,0,0,0,1.14,7.94,9.54,9.54,0,0,0,4.31,6.45C458.28,228.57,460.34,229.57,462,229.57Z"/><path class="cls-7" d="M457.17,202.83s4.22,4.11,13.34,9c.38.21,2.6,1.85,1.86,6,0,0,6.16-20.34-9.07-21.9-15.54-1.61-13.19,18.51-11.76,21.9,0,0-.23-4.18.88-5.85S456.81,207.61,457.17,202.83Z"/><path class="cls-8" d="M451.52,216.71a22.32,22.32,0,0,1-1-6.81,23.78,23.78,0,0,0,1,7.95S451.51,217.38,451.52,216.71Z"/><path class="cls-5" d="M451.52,216.71a22.32,22.32,0,0,1-1-6.81,23.78,23.78,0,0,0,1,7.95S451.51,217.38,451.52,216.71Z"/><path class="cls-8" d="M472.52,216.24a8.69,8.69,0,0,1-.15,1.61,33.54,33.54,0,0,0,1.23-9.24A34.18,34.18,0,0,1,472.52,216.24Z"/><path class="cls-5" d="M472.52,216.24a8.69,8.69,0,0,1-.15,1.61,33.54,33.54,0,0,0,1.23-9.24A34.18,34.18,0,0,1,472.52,216.24Z"/><path class="cls-8" d="M470.51,210.74a66,66,0,0,1-13.81-9.46c-.36,4.78-3.63,8-4.74,9.63-.92,1.37-.46,4.43-.43,5.48a9.49,9.49,0,0,1,.89-4.39c1.11-1.67,4.39-4.39,4.75-9.17,0,0,4.22,4.11,13.34,9a4.81,4.81,0,0,1,2,3.85C472.71,212.31,470.86,210.93,470.51,210.74Z"/><path class="cls-5" d="M470.51,210.74a66,66,0,0,1-13.81-9.46c-.36,4.78-3.63,8-4.74,9.63-.92,1.37-.46,4.43-.43,5.48a9.49,9.49,0,0,1,.89-4.39c1.11-1.67,4.39-4.39,4.75-9.17,0,0,4.22,4.11,13.34,9a4.81,4.81,0,0,1,2,3.85C472.71,212.31,470.86,210.93,470.51,210.74Z"/><path class="cls-6" d="M461.89,196.65a12,12,0,0,1,12.35,11.71c0-.15,0-.31,0-.47a12.37,12.37,0,1,0-24.71,0c0,.16,0,.32,0,.47A12,12,0,0,1,461.89,196.65Z"/><path class="cls-6" d="M427.89,293.82l-5.28,31.89a7,7,0,0,0,.7,4.37l1.52,2.87a1.78,1.78,0,0,0,1.35.93l1.09.13h2.93a1,1,0,0,0,.95-1.46l-1.09-2.43v-2l1.48,1.94,2,1.95a.62.62,0,0,0,.87,0h0a.59.59,0,0,0,.12-.7l-.91-1.93-1.14-4.78L430,319l7.7-25.2Z"/><line class="cls-6" x1="427.27" y1="334.01" x2="425.46" y2="330.32"/><line class="cls-6" x1="429.54" y1="334.01" x2="427.74" y2="330.32"/><rect class="cls-6" x="424.03" y="279.11" width="12.2" height="19.44"/><rect class="cls-7" x="429.29" y="300.53" width="1.68" height="184.32"/><rect class="cls-7" x="425.29" y="300.27" width="9.66" height="3.54"/><path class="cls-6" d="M430.13,242.9a29.28,29.28,0,1,0,29.27,29.27A29.28,29.28,0,0,0,430.13,242.9Zm0,55.19A25.92,25.92,0,1,1,456,272.17,25.91,25.91,0,0,1,430.13,298.09Z"/><rect class="cls-6" x="232.95" y="313.48" width="17.74" height="149.08"/><rect class="cls-7" x="232.95" y="311.91" width="17.74" height="3.98"/><polygon class="cls-6" points="300.29 266.09 315.29 251.09 300.29 177.59 300.29 266.09"/><rect class="cls-7" x="197.78" y="177.59" width="102.52" height="135.89"/><polygon class="cls-6" points="190.86 313.48 290.67 313.48 300.29 177.59 195.97 177.59 190.86 313.48"/><circle class="cls-6" cx="266.99" cy="273.32" r="7.82"/><path class="cls-4" d="M267.27,262.44V269a4.56,4.56,0,0,1,0,9.12v6.59a11.16,11.16,0,1,0,0-22.31Z"/><path class="cls-9" d="M267.27,261.89h.55v7.7h-.55a4,4,0,0,0-4,4s0,.1,0,.16v.56h-7.69l0-.52v-.2A11.72,11.72,0,0,1,267.27,261.89Z"/><circle class="cls-6" cx="238.11" cy="273.32" r="7.82"/><path class="cls-10" d="M238.38,261.89A11.15,11.15,0,0,0,227.23,273h6.59a4.56,4.56,0,0,1,7.87-3.13l4.67-4.66A11.12,11.12,0,0,0,238.38,261.89Z"/><path class="cls-9" d="M226.67,273v-.55h7.71V273a4,4,0,0,0,4,4h.16l.57,0v7.69l-.53,0h-.2A11.73,11.73,0,0,1,226.67,273Z"/><path class="cls-4" d="M256.49,249.56c-1.71,0-3.17-2.49-5.42-6.55-1.07-1.94-3.06-5.54-3.84-5.55-.54.11-1.62,2.38-2.26,3.73-1.31,2.76-2.54,5.36-4.4,5.36-1.54,0-2.74-1.39-3.9-2.73a12.22,12.22,0,0,0-1.56-1.62c-.52-.41-.54-.4-1.17-.19a8.41,8.41,0,0,1-3.05.51c-1.65,0-2.84-2-4.09-4-.86-1.41-2-3.34-2.86-3.34s-1.94,1.9-2.88,3.43c-1.5,2.45-3.06,5-5.29,5s-4.29-2.34-6.25-4.61c-1.19-1.37-2.66-3.07-3.43-3.07a.8.8,0,0,1,0-1.6c1.5,0,3,1.68,4.64,3.63s3.5,4.06,5,4.06c1.34,0,2.71-2.25,3.93-4.23,1.38-2.25,2.57-4.19,4.24-4.19s2.94,2,4.23,4.11c.83,1.37,2,3.24,2.72,3.24a7,7,0,0,0,2.53-.42,2.35,2.35,0,0,1,2.68.44,13.65,13.65,0,0,1,1.79,1.84c.88,1,1.87,2.17,2.68,2.17s2.17-2.78,3-4.44c1.24-2.6,2.21-4.65,3.71-4.65s3.06,2.42,5.24,6.37c1.11,2,3.17,5.73,4,5.73s2.4-1.71,3.65-3.08c1.84-2,3.75-4.11,5.71-4.11l.9,0c2,.05,3,.09,5-3.35.54-1,1-1.87,1.4-2.67,1.33-2.63,2.3-4.53,4.24-4.53,1.26,0,2.29,1.08,3.28,2.13.77.81,1.65,1.74,2.33,1.74,1.29,0,3.56-3.31,4.68-5.54a.8.8,0,1,1,1.43.72c-.54,1.07-3.37,6.42-6.11,6.42-1.37,0-2.45-1.14-3.49-2.24-.73-.76-1.55-1.63-2.12-1.63-.92,0-1.59,1.25-2.81,3.65-.42.82-.88,1.74-1.43,2.73-2.28,4.08-3.92,4.24-6.41,4.17l-.85,0c-1.25,0-3,1.91-4.53,3.59C259.56,247.89,258,249.56,256.49,249.56Z"/><circle class="cls-9" cx="240.39" cy="245.1" r="4.02"/><rect class="cls-9" x="205.72" y="193.79" width="52.61" height="3.92"/><rect class="cls-4" x="205.72" y="203.17" width="86" height="1.96"/><rect class="cls-4" x="205.72" y="209.38" width="39.86" height="1.96"/><polygon class="cls-7" points="211.69 271.93 191.44 298.18 192.06 281.5 211.69 271.93"/><circle class="cls-7" cx="159.61" cy="196.41" r="7.01"/><circle class="cls-7" cx="156.23" cy="191.95" r="7.01"/><rect class="cls-6" x="142.99" y="213.62" width="16.37" height="18.37"/><path class="cls-6" d="M164.4,197.87V216.8a6,6,0,0,1-6,6h-2.49a11.61,11.61,0,0,1-11.62-11.61V200.93a6.32,6.32,0,0,1,6.31-6.31h10.59a3.27,3.27,0,0,1,2.79,1.59h0A3.23,3.23,0,0,1,164.4,197.87Z"/><path class="cls-6" d="M173.47,270.58l7.79,10.1a6.86,6.86,0,0,0,5.43,2.66h0a6.77,6.77,0,0,0,3-.69l22-10.72-5-10.76L186.84,269l-10.29-28.3a5.16,5.16,0,0,0-3.08-3.08h0"/><polygon class="cls-6" points="125.93 238.67 141.81 228.75 143 223.94 158.14 231.99 159.37 229.6 161.34 231.56 161.34 232.91 173.5 237.64 173.5 311.45 128.23 311.45 125.93 238.67"/><line class="cls-5" x1="158.14" y1="233.31" x2="158.14" y2="311.45"/><polyline class="cls-5" points="159.37 229.6 161.34 231.56 161.22 235.32 158.14 233.31 153.54 239.18 141.81 228.75 143 223.94"/><path class="cls-6" d="M206.85,261.44l9.8-7.48a3.3,3.3,0,0,1,1.61-.65l6.77-.75a1.28,1.28,0,0,1,1.41,1.26h0a1.27,1.27,0,0,1-.88,1.21l-5.49,1.76,6.78.65a1.51,1.51,0,0,1,1.23,2.14l-3.35,7.19a1.52,1.52,0,0,1-1.37.87h-9.94l-2.75,2.07Z"/><path class="cls-7" d="M239.51,245.28l.3.31a.64.64,0,0,1-.06.95L224.69,258.6l-2.83-.27,16.81-13.1A.65.65,0,0,1,239.51,245.28Z"/><path class="cls-6" d="M227.06,257.83l-4.83.4a1.22,1.22,0,0,0-1.13,1.22h0a1.22,1.22,0,0,0,1.22,1.22h4.47"/><path class="cls-6" d="M226.74,261.05h-7.27a1.1,1.1,0,0,0-1.1,1.1h0a1.11,1.11,0,0,0,1.1,1.11h6.39"/><path class="cls-6" d="M225.71,263.78h-5.6a.92.92,0,0,0-.91.92h0a.91.91,0,0,0,.91.91h4.35"/><polygon class="cls-7" points="184 287.57 161.34 292.06 156.95 257.27 179.61 252.79 184 287.57"/><path class="cls-6" d="M148.58,275.48l7.57-1.5.71-1.47a1.76,1.76,0,0,1,.82-.82l1-.48.25,1.91,14.09-1.3a1,1,0,0,1,1.13.84h0a1.06,1.06,0,0,1-.8,1.24l-8.8,2,9.28-1.12a1.14,1.14,0,0,1,1.27.91h0a1.16,1.16,0,0,1-1,1.37l-8.7,1.26,7.65-.61a1.07,1.07,0,0,1,1.15,1h0a1.07,1.07,0,0,1-.94,1.14l-8,.94,6.59-.53a.82.82,0,0,1,.87.74h0a.82.82,0,0,1-.66.86l-10.2,1.9-5.79-.43-7,1"/><path class="cls-6" d="M132.11,238.57h0a5.27,5.27,0,0,1,2.23,4.6c-.51,8.64-2,33.46-2,33.45L154,272.85l2.76,11.42-26.14,9.48a7.75,7.75,0,0,1-9.53-3.73h0a7.84,7.84,0,0,1-.86-3.55V247.32a9.24,9.24,0,0,1,4.37-7.84l1.75-1.08A5.25,5.25,0,0,1,132.11,238.57Z"/><path class="cls-7" d="M164.4,197H151.65a6.19,6.19,0,0,0-6.19,6.19V209a1.4,1.4,0,0,1-1.4,1.41h0a2.37,2.37,0,0,0-3.54-2.07l-1.73,1.51L138.45,197a10.27,10.27,0,0,1,10.27-10.27h5.41A10.27,10.27,0,0,1,164.4,197Z"/><polygon class="cls-7" points="139.99 213.62 143 221.34 143 213.62 139.99 213.62"/><ellipse class="cls-6" cx="142.02" cy="210.63" rx="3.57" ry="4.36"/><polygon class="cls-7" points="128.23 311.45 173.5 311.45 173.5 462.55 154.94 462.55 153.76 340.32 115.1 461.11 100.36 457.57 119.16 376.88 128.23 311.45"/><path class="cls-7" d="M115.1,461.1v7.26l1.14,7.17v3.16a4,4,0,0,1-4,4h-1.81a9.27,9.27,0,0,1-9.27-9.27V457.76Z"/><path class="cls-6" d="M248.37,421.13l-46.57,8.46a18.83,18.83,0,0,0-15.46,18.52v15h75.73V421.13Z"/><path class="cls-6" d="M237.9,418l-5.1,4.37a11.51,11.51,0,0,1-5.42,2.57l-18.51,3.36,15.95-21.25"/><path class="cls-6" d="M278.05,332.4h.61v5.35l21.46-5.14V299.66h-27.7v27.1A5.63,5.63,0,0,0,278.05,332.4Z"/><path class="cls-6" d="M252.21,422l-33.9-7.43a6.25,6.25,0,0,0-7.5,7.14l5.4,32.15a11.1,11.1,0,0,0,10.95,9.25h32.49V421.86Z"/><path class="cls-7" d="M298.14,327.43h-6a6.85,6.85,0,0,1-6.85-6.85v-5.95a3.53,3.53,0,0,0-3.53-3.53h0a3.54,3.54,0,0,0-3.54,3.53v.84h-1.67v-8.66a2.13,2.13,0,0,0-.95-1.77c-1.64-1.09-4.86-3.51-5.1-5.82-.33-3.12,8.25-2.35,8.25-2.35s-5.33-1.4-3.66-3.06,15.74-3.07,22-1.48,9.95,8,9.95,13.56c0,4.28-3.88,14.71-5.67,19.3A3.53,3.53,0,0,1,298.14,327.43Z"/><path class="cls-6" d="M321.55,377.51V359a21.42,21.42,0,0,0-11.61-19l-3.56-1.83-2.76-4.84a3.4,3.4,0,0,0-3.74-1.62l-22.56,5.4-2.27,6.44L260,350.15a14.4,14.4,0,0,0-6.94,6.45l-28.47,50.21,14.7,12.32,14-20-4.87,22h64.81Z"/><path class="cls-7" d="M316.2,377.51H267.93a8.57,8.57,0,0,0-8.42,6.94L252.21,422v32.47a8.64,8.64,0,0,0,8.65,8.64h46.58a8.64,8.64,0,0,0,8.55-9.9L311.84,425l12.46-36.12A8.57,8.57,0,0,0,316.2,377.51Z"/><polygon class="cls-7" points="284.12 494.18 284.12 471.25 288.42 471.25 288.42 467.94 293.34 467.94 293.34 463.08 281.03 463.08 268.72 463.08 268.72 467.94 273.64 467.94 273.64 471.25 277.93 471.25 277.93 494.18 241.28 503.61 241.28 505.93 281.03 498.96 320.78 505.93 320.78 503.61 284.12 494.18"/><rect class="cls-6" x="267.62" y="463.08" width="1.82" height="4.85"/><rect class="cls-6" x="272.54" y="467.94" width="1.82" height="3.31"/><polygon class="cls-6" points="242 504.33 278.65 494.9 278.65 471.25 276.84 471.25 276.84 494.18 240.18 503.61 240.18 505.93 242 505.74 242 504.33"/><polygon class="cls-6" points="281.03 498.96 280.48 499.06 319.68 505.93 319.68 505.74 281.03 498.96"/><circle class="cls-7" cx="257.43" cy="495.49" r="2.57"/><polygon class="cls-7" points="276.84 492.98 256.01 491.65 256.01 493.34 269.7 496.02 276.84 494.18 276.84 492.98"/><polygon class="cls-7" points="283.02 492.98 303.85 491.65 303.85 493.34 290.16 496.02 283.02 494.18 283.02 492.98"/><path class="cls-6" d="M549.92,473.75h-6.43a12.2,12.2,0,0,0-12.2,12.2h0a12.2,12.2,0,0,0,12.2,12.2h85a31.41,31.41,0,0,0,31.41-31.41V371.52A28.52,28.52,0,0,0,631.38,343H595a28.52,28.52,0,0,0-28.52,28.53V465"/><path class="cls-6" d="M534.25,489.67h85a31.41,31.41,0,0,0,31.41-31.41V363a28.41,28.41,0,0,0-5.1-16.27,28.51,28.51,0,0,1,14.34,24.75v95.22a31.41,31.41,0,0,1-31.41,31.41h-85a12.2,12.2,0,0,1-11.69-8.72A12.34,12.34,0,0,0,534.25,489.67Z"/><polygon class="cls-7" points="591.45 542.69 591.45 509.84 585.3 509.84 585.3 505.1 578.25 505.1 578.25 498.15 595.89 498.15 613.52 498.15 613.52 505.1 606.47 505.1 606.47 509.84 600.32 509.84 600.32 542.69 652.83 556.2 652.83 559.52 595.89 549.55 538.95 559.52 538.95 556.2 591.45 542.69"/><rect class="cls-6" x="612.49" y="498.15" width="2.6" height="6.95"/><rect class="cls-6" x="605.44" y="505.1" width="2.6" height="4.74"/><polygon class="cls-6" points="651.79 557.23 599.29 543.72 599.29 509.84 601.89 509.84 601.89 542.69 654.4 556.2 654.4 559.52 651.79 559.25 651.79 557.23"/><polygon class="cls-6" points="595.89 549.55 596.67 549.68 540.52 559.52 540.52 559.25 595.89 549.55"/><circle class="cls-7" cx="651.61" cy="563.08" r="4.43"/><circle class="cls-7" cx="629.69" cy="544.57" r="3.68"/><circle class="cls-7" cx="543.38" cy="563.08" r="4.43"/><polygon class="cls-7" points="601.89 540.98 631.72 539.07 631.72 541.48 612.12 545.32 601.89 542.69 601.89 540.98"/><circle class="cls-7" cx="565.24" cy="544.57" r="3.68"/><polygon class="cls-7" points="593.03 540.98 563.2 539.07 563.2 541.48 582.8 545.32 593.03 542.69 593.03 540.98"/><path class="cls-7" d="M630.55,365.91s1.6-18.1-7.47-27.37-9-30.46-26.66-30.4c-19.78.07-17.81,21.16-14.18,32.54s.94,26.55.94,26.55"/><rect class="cls-7" x="416.89" y="458.41" width="346.75" height="6.6" transform="translate(1180.54 923.42) rotate(-180)"/><polygon class="cls-6" points="763.64 458.41 747.09 432.69 433.44 432.69 416.89 458.41 763.64 458.41"/><rect class="cls-6" x="426.21" y="465.01" width="7.91" height="137.19" transform="translate(860.32 1067.2) rotate(-180)"/><rect class="cls-6" x="452.57" y="465.01" width="7.91" height="83.25" transform="translate(913.06 1013.27) rotate(-180)"/><rect class="cls-6" x="743.43" y="465.01" width="7.91" height="137.19" transform="translate(1494.77 1067.2) rotate(-180)"/><rect class="cls-6" x="714.29" y="465.01" width="7.91" height="83.25" transform="translate(1436.49 1013.27) rotate(-180)"/><path class="cls-6" d="M607.58,342.33c-1.21,6.16-8.33,12.44-13.47,11.13C586,351.4,583.18,334,583.18,328s5.6-11.21,5.6-11.21,1.46,9.09,18.28,13.46l1.77,6.06s-.7-7.09,3.42-7.09,2.85,10.93-2.93,10.56v6.11a21,21,0,0,0,6.17,14.87h0l-15.77,21.54-3.3-8V353.58"/><path class="cls-6" d="M615.49,360.8l13.45,4.74a11.73,11.73,0,0,1,6.84,6.35l23.37,53.36a9,9,0,0,1,.75,3.61h0a9,9,0,0,1-9,9h-7.49v-5.72l-8.69-8.57,4-4.07-9.13-17.92L631,432.69H591l-11.08-32.1v-32.1l16.52-7.69v13.57l3.3,8Z"/><polygon class="cls-6" points="599.72 382.34 608.83 388.66 618.37 361.82 615.49 360.81 599.72 382.34"/><polygon class="cls-6" points="599.72 382.34 593.07 388.66 591.31 376.96 592.19 362.77 596.42 360.81 596.42 374.37 599.72 382.34"/><line class="cls-6" x1="599.72" y1="385.2" x2="601.53" y2="432.69"/><path class="cls-6" d="M579.9,368.49h0a10.39,10.39,0,0,0-6.32,6.94l-7.08,25.44h13.4Z"/><line class="cls-6" x1="629.56" y1="401.58" x2="622.31" y2="389.16"/><path class="cls-6" d="M643.42,432.14l-8.69-8.57-21.08,6.07L600.93,426a6.18,6.18,0,0,0-4.56.45l-7,3.6,2.08,9,8.27-4.27,6.35,1.81h37.35Z"/><rect class="cls-6" x="588.67" y="439.02" width="36.28" height="6.53" transform="translate(1213.62 884.57) rotate(-180)"/><line class="cls-6" x1="590.97" y1="436.95" x2="599.56" y2="431.78"/><line class="cls-6" x1="590.45" y1="434.69" x2="597.49" y2="430.5"/><line class="cls-6" x1="589.78" y1="431.78" x2="595.43" y2="429.31"/><path class="cls-7" d="M636.16,465h0a17.6,17.6,0,0,1-16.1,17.53l-30.28,2.58-9.88,55.74H563.83L566,478.51A14,14,0,0,1,580,465Z"/><path class="cls-7" d="M584.24,516.41l8.37,11.47L583,537.56l-47-53.31a14.39,14.39,0,0,1-3.59-9.5h0a14.42,14.42,0,0,1,3-8.79l.74-.95h42.62"/><path class="cls-6" d="M578.78,540.86l-3.63,27.26-11.54,11.54a1.88,1.88,0,0,1-1.33.55H557a1.88,1.88,0,0,1-1.61-2.85l10.16-16.83V540.86Z"/><path class="cls-7" d="M576,562.14v9.22a11.07,11.07,0,0,1-5.3,9.45l-7.36,4.5a17.06,17.06,0,0,1-8.85,2.48h-9a.85.85,0,0,1-.67-1.38l20.77-25.88-10,16.49a2.1,2.1,0,0,0,1.8,3.19h4.75a2.1,2.1,0,0,0,1.49-.62l11.47-11.47Z"/><polygon class="cls-6" points="584 536.51 590.65 543.99 596.83 568.56 601.45 559.9 601.45 540.86 591.53 528.96 584 536.51"/><path class="cls-7" d="M601.45,540.86l1.43.41a2.58,2.58,0,0,1,1.85,2.26l1.42,17.88a13.88,13.88,0,0,1-1.62,7.71l-3.55,6.6a1.54,1.54,0,0,1-2.45.36h0a1.62,1.62,0,0,1-.42-.77l-2.24-10.57L600,559.2Z"/><path class="cls-7" d="M531.57,445.55h58.16a2.57,2.57,0,0,0,2.5-3.15l-9.13-39.54a2.56,2.56,0,0,0-2.5-2H522.44a2.56,2.56,0,0,0-2.5,3.15l9.12,39.54A2.58,2.58,0,0,0,531.57,445.55Z"/><polygon class="cls-7" points="325.4 699.63 325.4 648.61 334.95 648.61 334.95 641.25 345.9 641.25 345.9 630.45 318.51 630.45 291.12 630.45 291.12 641.25 302.08 641.25 302.08 648.61 311.62 648.61 311.62 699.63 230.08 720.61 230.08 725.77 318.51 710.28 406.95 725.77 406.95 720.61 325.4 699.63"/><rect class="cls-6" x="288.68" y="630.45" width="4.04" height="10.8"/><rect class="cls-6" x="299.64" y="641.25" width="4.04" height="7.36"/><polygon class="cls-6" points="231.68 722.21 313.22 701.24 313.22 648.61 309.18 648.61 309.18 699.63 227.63 720.61 227.63 725.77 231.68 725.35 231.68 722.21"/><polygon class="cls-6" points="318.51 710.28 317.29 710.49 404.5 725.77 404.5 725.35 318.51 710.28"/><circle class="cls-7" cx="231.97" cy="731.3" r="6.89"/><circle class="cls-7" cx="266.01" cy="702.56" r="5.72"/><circle class="cls-7" cx="400.06" cy="731.3" r="6.89"/><polygon class="cls-7" points="309.18 696.97 262.85 694 262.85 697.76 293.3 703.72 309.18 699.63 309.18 696.97"/><circle class="cls-7" cx="366.11" cy="702.56" r="5.72"/><polygon class="cls-7" points="322.94 696.97 369.27 694 369.27 697.76 338.83 703.72 322.94 699.63 322.94 696.97"/><path class="cls-6" d="M359.89,516.7l25.7-2.4,16.46,12.89a1.51,1.51,0,0,0,1.39.23h0A1.47,1.47,0,0,0,404,525l-14.57-15.38,11.75,7.59,4.5,7.53a1.46,1.46,0,0,0,1.73.64h0a1.47,1.47,0,0,0,.86-2L404,514l-11-7.11,11.77,6.26,5.05,9.23a1.67,1.67,0,0,0,2,.78h0a1.68,1.68,0,0,0,1-2.31l-5.3-11.18-11.4-7.92,13.49,6.54,8.27,9.36a1.47,1.47,0,0,0,1.58.42h0a1.47,1.47,0,0,0,.75-2.21l-7.56-11.26-17.3-8-32.62.71-4.63,16.14Z"/><path class="cls-6" d="M321.13,502.37l-29.59-72.56a46.88,46.88,0,0,0-50-28.71l-72,10.28a23,23,0,0,0-18.75,16.14h0a23,23,0,0,0,.12,13.58l43.9,137.8a78.32,78.32,0,0,0,74.61,54.53H326a134.49,134.49,0,0,0,56.8-12.59L423,602.12"/><path class="cls-6" d="M392,512.64l-97.18,8a5.05,5.05,0,0,0-4,2.65l-.21.4a5,5,0,0,0,4.87,7.39l97.39-8.36a5,5,0,0,0,4-7.37h0A5,5,0,0,0,392,512.64Z"/><polygon class="cls-6" points="255.29 411.21 274.12 438.09 329.48 517.03 290.01 533.33 213.6 405.09 240.63 428.7 245.63 411.21 257.48 422.02 255.29 411.21"/><path class="cls-6" d="M335.2,619.34H278.64A78.29,78.29,0,0,1,204,564.81L160.13,427a22.81,22.81,0,0,1-.6-11.62,22.91,22.91,0,0,0-8.62,25.71l43.9,137.8a78.32,78.32,0,0,0,74.61,54.53H326a134.49,134.49,0,0,0,56.8-12.59l41.08-18.72-1.31-15.27S366.1,619.34,335.2,619.34Z"/><path class="cls-7" d="M290,593.67l14.34,3.7a60.68,60.68,0,0,0,15.23,1.93h0a60.94,60.94,0,0,0,33.49-10l62.39-41,84.21,58.22,19.72-26.6-76.87-69.08A36.76,36.76,0,0,0,418,501.41h0a36.75,36.75,0,0,0-12.75,2.29l-59.77,22.14a10.67,10.67,0,0,1-12.37-3.79l-3.6-5L290,533.33S290.56,570.19,290,593.67Z"/><path class="cls-11" d="M185.62,425.43l28-20.34,10.9,9.44a58.85,58.85,0,0,1,13.12,16.32l44.54,82a76.27,76.27,0,0,1,9.63,40.6l-2,44.33H242.54L223.1,503.83l-18.42-67.69S199.8,422.08,185.62,425.43Z"/><path class="cls-7" d="M262.27,540.7l-5.06,65.45a25.38,25.38,0,0,0,25.31,27.28h-14.6a25.38,25.38,0,0,1-25.31-27.28l5.06-67.89"/><path class="cls-6" d="M245.56,606.15l5-67.4-2.92-.49-5.06,67.89a25.38,25.38,0,0,0,25.31,27.28h3A25.39,25.39,0,0,1,245.56,606.15Z"/><path class="cls-6" d="M302.45,544.89,206.09,530a5,5,0,0,0-4.54,1.64l-.3.33a5,5,0,0,0,3,8.33l96.66,14.57a5,5,0,0,0,5.63-6.23h0A5,5,0,0,0,302.45,544.89Z"/><polygon class="cls-7" points="351.71 590.15 422.97 600.03 468.37 706.99 503.74 694 465.12 582.61 415.46 548.28 351.71 590.15"/><polygon class="cls-6" points="503.74 694 447.38 570.35 465.12 582.61 503.74 694"/><polygon class="cls-6" points="351.71 590.15 426.18 555.69 415.46 548.28 351.71 590.15"/><path class="cls-7" d="M532.64,592.63l-9.7,15L511.77,609l.79,6.8a22.39,22.39,0,0,0,2.33,7.67l8.68,16.83,22.53-9.49-1.56-4s18.68-1.35,28.59-7.82,21.29-16.49,25-28.28l-1.48-1.26a11.08,11.08,0,0,0-10.27-2.2C576.1,590.27,553.24,595.74,532.64,592.63Z"/><path class="cls-7" d="M532.64,592.63l-9.7,15L511.77,609l.79,6.8a22.39,22.39,0,0,0,2.33,7.67l8.68,16.83,22.53-9.49-1.56-4s18.68-1.35,28.59-7.82,21.29-16.49,25-28.28l-1.48-1.26a11.08,11.08,0,0,0-10.27-2.2C576.1,590.27,553.24,595.74,532.64,592.63Z"/><path class="cls-6" d="M522.94,611.1l9.7-15c20.6,3.11,43.46-2.35,53.78-5.34a11.11,11.11,0,0,1,10.27,2.2l.5.43c.37-.86.7-1.73,1-2.61l-1.48-1.26a11.08,11.08,0,0,0-10.27-2.2c-10.32,3-33.18,8.45-53.78,5.34l-9.7,15L511.77,609l.4,3.39Z"/><polygon class="cls-6" points="532.64 592.63 517.86 581.96 502.96 602.06 511.77 609.01 522.94 607.65 532.64 592.63"/><path class="cls-7" d="M506,711.42l-16,7.92-10.28-4.56L476.82,721a22.59,22.59,0,0,0-1.93,7.79L473.7,747.7l24.22,3.41.69-4.21s16.73,8.42,28.56,8,26.73-3.23,36-11.43l-.62-1.84a11.14,11.14,0,0,0-7.69-7.16C544.47,731.69,522.05,724.66,506,711.42Z"/><path class="cls-6" d="M494.44,746.9l-.6,3.64,4.08.57.4-2.42C495.93,747.65,494.44,746.9,494.44,746.9Z"/><polygon class="cls-6" points="485.75 719.34 487.72 718.37 479.64 714.78 478.94 716.32 485.75 719.34"/><path class="cls-6" d="M562.55,741.58a11.14,11.14,0,0,0-7.69-7.16c-10.39-2.73-32.81-9.76-48.9-23l-2.58,1.28c15.94,12.41,37.26,19.08,47.31,21.72a11.11,11.11,0,0,1,7.68,7.16l.63,1.84c-9,7.93-23.21,10.77-34.83,11.37a27.56,27.56,0,0,0,3,.06c11.83-.47,26.73-3.23,36-11.43Z"/><polygon class="cls-6" points="505.96 711.42 499.17 695.68 475.64 704.3 479.64 714.78 489.92 719.34 505.96 711.42"/><polyline class="cls-11" points="263.49 479.43 220.33 441.84 228.68 433.5 201.81 413.66 213.6 405.09"/><polygon class="cls-6" points="245.63 411.21 240.63 428.7 213.6 405.09 217.75 398.63 245.63 411.21"/><polygon class="cls-6" points="245.63 411.21 257.48 422.02 255.29 411.21 249.13 405.53 245.63 411.21"/><path class="cls-11" d="M255.29,411.21,268,415a20.59,20.59,0,0,1,10.84,7.69l49.48,68.71,46.38,4.16-7.48,17.34.25,4.84L331.57,520Z"/><path class="cls-8" d="M266.71,418.6a20.49,20.49,0,0,1,10.83,7.69L327,495l46.07,4.13,1.56-3.61-46.38-4.16L278.8,422.65A20.59,20.59,0,0,0,268,415l-12.67-3.75,3.54,5.05Z"/><path class="cls-5" d="M255.29,411.21,268,415a20.59,20.59,0,0,1,10.84,7.69l49.48,68.71,46.38,4.16-7.48,17.34.25,4.84L331.57,520Z"/><path class="cls-11" d="M255.29,411.21l92,114-2.08.77a10.17,10.17,0,0,1-11.86-3.7Z"/><line class="cls-6" x1="247.04" y1="415.86" x2="310.82" y2="524.73"/><path class="cls-6" d="M267.17,539.27l25.09,6.07,11.4,17.53a1.47,1.47,0,0,0,1.24.67h0a1.48,1.48,0,0,0,1.34-2.09l-8.8-19.28,8.65,11,1.81,8.58a1.47,1.47,0,0,0,1.44,1.16h0a1.46,1.46,0,0,0,1.45-1.6l-1-10.32-8.09-10.29,9.1,9.74,1.79,10.37a1.68,1.68,0,0,0,1.66,1.4h0a1.69,1.69,0,0,0,1.67-1.87L314.58,548l-8.21-11.19L317,547.42,321.8,559a1.47,1.47,0,0,0,1.36.91h0a1.47,1.47,0,0,0,1.42-1.85l-3.5-13.1L307.3,531.74l-31.08-9.9-9.61,13.76Z"/><path class="cls-11" d="M177.52,444.8l14.71,69.35a23.81,23.81,0,0,0,19.92,18.64l55.24,7.91-.78-5.1L278.19,519,223.1,503.83,204.94,437a17.4,17.4,0,0,0-12.5-12.3l-.05,0a9.7,9.7,0,0,0-8.63,2h0A18.64,18.64,0,0,0,177.52,444.8Z"/><path class="cls-8" d="M266.62,535.58l-50.08-7.17a23.82,23.82,0,0,1-19.93-18.64L181.9,440.42a18.69,18.69,0,0,1,3-14.56,8.67,8.67,0,0,0-1.11.8,18.64,18.64,0,0,0-6.24,18.14l14.71,69.35a23.81,23.81,0,0,0,19.92,18.64l55.24,7.91-.78-5.1Z"/><path class="cls-5" d="M177.52,444.8l14.71,69.35a23.81,23.81,0,0,0,19.92,18.64l55.24,7.91-.78-5.1L278.19,519,223.1,503.83,204.94,437a17.4,17.4,0,0,0-12.5-12.3l-.05,0a9.7,9.7,0,0,0-8.63,2h0A18.64,18.64,0,0,0,177.52,444.8Z"/><path class="cls-7" d="M217.39,373.74s4.31,4.93,4.54,5.16-4.8-15.92-4.8-15.92l.11-.11a9.93,9.93,0,0,0,1.64-11.36h0l17.52-7.95a10.24,10.24,0,0,1,11.27,1.88l.92.88s9.19-11.87.58-23.53c0,0,1.87,5.24,1.87,8.37,0,0-3.75-11.74-13.69-9.78s-11.11,6.57-21.68,7.9-10.49,14.4-10.49,14.4-13.46,4.83-9.28,18.81S218,394.75,218,394.75Z"/><path class="cls-6" d="M221.89,336.24s2.66,9.39-2,14l4.7-2.14S225,339.35,221.89,336.24Z"/><path class="cls-6" d="M227.48,333.69s2.66,9.39-2,14l4.7-2.14S230.58,336.8,227.48,333.69Z"/><path class="cls-6" d="M233.06,331.14s2.66,9.39-2,14l4.69-2.14S236.16,334.25,233.06,331.14Z"/><path class="cls-6" d="M238.64,328.59s2.66,9.39-2,14l2-.92a4.51,4.51,0,0,0,2.63-4.38C241.13,334.49,240.53,330.48,238.64,328.59Z"/><path class="cls-6" d="M252.81,332.4a18,18,0,0,0-3.64-9.61,43.81,43.81,0,0,1,1.6,5.85A20.68,20.68,0,0,1,252.81,332.4Z"/><path class="cls-6" d="M219.47,375.82v.3c1.14,1.3,2.33,2.66,2.45,2.78s0-.1-.07-.35Z"/><path class="cls-6" d="M198,364.57c-4.18-14,9.28-18.81,9.28-18.81s-.07-13.07,10.49-14.4,11.74-5.94,21.68-7.9a9.93,9.93,0,0,1,8.48,2.06c-2.18-2.68-5.6-5.12-10.56-4.14-9.94,2-11.11,6.57-21.68,7.9s-10.49,14.4-10.49,14.4-13.46,4.83-9.28,18.81S218,394.75,218,394.75v-.13C213.17,389.34,201.27,375.62,198,364.57Z"/><polygon class="cls-6" points="217.75 398.63 245.63 411.21 249.13 405.53 249.32 383.44 217.75 383.44 217.75 398.63"/><polygon class="cls-7" points="249.23 394.06 249.23 404.75 236.71 393.85 249.23 394.06"/><path class="cls-6" d="M217.39,373.74l4.54,5.16L217.13,363s4.59-4.24,1.75-11.47l16.37-7.43a12.11,12.11,0,0,1,13.34,2.24h0l7.46,15.59a28,28,0,0,1,2.48,8.23l1.59,11.51a10.17,10.17,0,0,1-5.55,10.49h0a25.21,25.21,0,0,1-27.6-3.48l-4.46-3.84h0a7.9,7.9,0,0,1-7.66-.12l-.89-.52a16.16,16.16,0,0,1-4.9-4.37l-1.14-1.53a4.41,4.41,0,0,1,.43-5.75h0a4.4,4.4,0,0,1,5.14-.8l3.9,2"/><path class="cls-6" d="M247.26,360.18s2.7,5.05,4.46,6.54-2.79,2-2.76,3.81"/><path class="cls-6" d="M239.83,379s7.2,3.7,12.52-.84"/><path class="cls-6" d="M238.09,363.88s-.94,3.24-5.55,3"/><path class="cls-6" d="M252.85,357.5s-.72,1.91-3.68,1.91"/><path class="cls-6" d="M238.48,355.78h0a1.86,1.86,0,0,1-1.57,1.84,18.74,18.74,0,0,0-8.8,4.22"/><path class="cls-6" d="M244.94,354.25h0a1.79,1.79,0,0,0,2.1,0,11.17,11.17,0,0,1,4.31-2.16"/></g></g></g></svg>