<svg xmlns="http://www.w3.org/2000/svg" viewBox="0 0 664.29 600.2"><defs><style>.cls-1{fill:none;}.cls-1,.cls-2,.cls-3,.cls-8{stroke:#041323;stroke-linecap:round;stroke-linejoin:round;}.cls-2,.cls-4{fill:#fff;}.cls-3{fill:#041323;}.cls-5{fill:#b57aef;}.cls-6,.cls-8{fill:#4a90ee;}.cls-7{fill:#ee9646;}</style></defs><g id="Layer_2" data-name="Layer 2"><g id="Illustrtions"><rect class="cls-1" x="472.29" y="0.5" width="175.24" height="12.99"/><rect class="cls-1" x="472.29" y="13.49" width="175.24" height="12.99"/><rect class="cls-1" x="472.29" y="26.47" width="175.24" height="12.99"/><rect class="cls-1" x="472.29" y="39.46" width="175.24" height="12.99"/><rect class="cls-1" x="472.29" y="52.45" width="175.24" height="12.99"/><rect class="cls-1" x="472.29" y="65.44" width="175.24" height="12.99"/><rect class="cls-1" x="472.29" y="78.42" width="175.24" height="12.99"/><polygon class="cls-1" points="472.29 91.41 472.29 104.4 472.29 117.38 472.29 130.37 472.29 143.36 472.29 156.35 472.29 169.33 472.29 182.32 472.29 195.31 647.53 195.31 647.53 182.32 647.53 169.33 647.53 156.35 647.53 143.36 647.53 130.37 647.53 117.38 647.53 104.4 647.53 91.41 472.29 91.41"/><line class="cls-2" x1="630.51" y1="91.41" x2="630.51" y2="159.57"/><path class="cls-3" d="M403,301l4.33,16.71a14.74,14.74,0,0,0,3.32,6.19l10.49,11.69-5.26,1.36a4.32,4.32,0,0,1-2.77-.2l-11.8-5,1.94,7.53-3.25.84-3.73-14.41-1.94-3.92a8,8,0,0,1-.49-5.81l1.52-5-1.93-7.47Z"/><path class="cls-2" d="M410.69,323.89l7.06,7.87-3.6.94a5.27,5.27,0,0,1-4.85-1.2l-9.46-8.59a8.34,8.34,0,0,1-2.46-4.09l-2-7.83,0-.05-1.93-7.47L403,301l4.33,16.71A14.74,14.74,0,0,0,410.69,323.89Z"/><path class="cls-3" d="M342.68,101.61s-18.7,1.73-22.48-13.7c-4.95-20.16,19.57-22.33,26.65-35.85,10-19.15,26-14.83,29.85,5.45,3.49,18.48,13.71,16.33,10.8,33.13"/><path class="cls-4" d="M324.17,92.36C315,71.21,338.33,68.1,344.81,55.14,336,66.05,315.65,69.38,320.2,87.91a16.33,16.33,0,0,0,8.4,10.92A18.19,18.19,0,0,1,324.17,92.36Z"/><path class="cls-1" d="M324.17,92.36C315,71.21,338.33,68.1,344.81,55.14,336,66.05,315.65,69.38,320.2,87.91a16.33,16.33,0,0,0,8.4,10.92A18.19,18.19,0,0,1,324.17,92.36Z"/><path class="cls-4" d="M376.7,57.51C373,38,358,33.25,348,50.07c11.78-16.32,26.49-10.17,28.18,9.84,1.5,17.73,13.47,17.07,8,31.55l3.37-.82C390.41,73.84,380.19,76,376.7,57.51Z"/><path class="cls-1" d="M376.7,57.51C373,38,358,33.25,348,50.07c11.78-16.32,26.49-10.17,28.18,9.84,1.5,17.73,13.47,17.07,8,31.55l3.37-.82C390.41,73.84,380.19,76,376.7,57.51Z"/><path class="cls-2" d="M339,138.65H325.85V131.2l2.11-1.79,6-34.78a8.82,8.82,0,0,1,5.79-6.83l1.25-.44v41.08Z"/><path class="cls-1" d="M339,138.65H325.85V131.2l2.11-1.79,6-34.78a8.82,8.82,0,0,1,5.79-6.83l1.25-.44v41.08Z"/><polygon class="cls-2" points="355.38 80.47 341.04 87.36 337.23 108.96 341.77 140 371.72 140 386.45 89.67 369.9 79.56 355.11 99.16 355.38 80.47"/><path class="cls-3" d="M341.77,140v3.63l-2.89,6.4a25.35,25.35,0,0,0-2.19,12.26l10,140.7h20.69l-9.52-135.48,31.42,136.72,18.64-3-29.78-149.9-5.75-8.61-.65-2.7Z"/><polygon class="cls-4" points="378.12 151.31 372.37 142.7 371.72 140 369.48 140 370.13 142.7 375.87 151.31 405.66 301.21 389.18 303.88 389.26 304.23 407.9 301.21 378.12 151.31"/><polygon class="cls-1" points="378.12 151.31 372.37 142.7 371.72 140 369.48 140 370.13 142.7 375.87 151.31 405.66 301.21 389.18 303.88 389.26 304.23 407.9 301.21 378.12 151.31"/><path class="cls-2" d="M341.47,150l2.89-6.4V140h-2.59v3.63l-2.89,6.4a25.35,25.35,0,0,0-2.19,12.26l10,140.7h2.6l-10-140.7A25.46,25.46,0,0,1,341.47,150Z"/><path class="cls-2" d="M386.45,89.67l1.82.93a5.74,5.74,0,0,1,2.85,3.46l10.3,35.36-1.08,6.07-1.95.78,1-1.08L394.71,132l-5.95,1-.77-6.11-6.85-19.06Z"/><path class="cls-2" d="M399.38,135.19l-17.86,19.63a2.51,2.51,0,0,1-2.28.78l-.33-.06a2.49,2.49,0,0,1-1.86-1.48l-.48-1.12-4.21.62a.75.75,0,0,1-.72-.31h0a.75.75,0,0,1,.4-1.15l6-1.81-.06-.37-2.86.25-5.72,1.62a.87.87,0,0,1-1.05-.55h0a.86.86,0,0,1,.49-1.09l5.7-2.29L377,148l.06-.31-3.06-.31-5.46,1.73a.83.83,0,0,1-1.05-.54h0a.84.84,0,0,1,.44-1l5.12-2.39,2.77.26,0-.24-1.41-1.66-3.81-1.18a.6.6,0,0,1-.42-.68h0a.6.6,0,0,1,.7-.49l4.32.76,2.59,3.17,1.24,3.67,10.62-15.95,5-.83Z"/><line class="cls-2" x1="376.57" y1="152.94" x2="378.81" y2="152.46"/><polyline class="cls-2" points="355.56 140 349.39 110.23 369.63 95.8 366.27 93.53 373.8 95.35 376.7 83.71"/><polyline class="cls-2" points="349.39 110.23 347.3 94.99 351.93 94.99 344.85 93.26 345.25 85.34"/><path class="cls-3" d="M350.75,303v17.26a14.81,14.81,0,0,1-1.66,6.82L341.86,341h5.43a4.3,4.3,0,0,0,2.63-.89l10.18-7.79v7.77h3.36V325.23l.9-4.29a7.91,7.91,0,0,0-1-5.74l-2.72-4.49V303Z"/><path class="cls-2" d="M349.09,327.07l-4.87,9.4H348a5.26,5.26,0,0,0,4.39-2.38l7-10.68a8.36,8.36,0,0,0,1.36-4.58l0-8.08,0,0V303h-9.9v17.26A14.81,14.81,0,0,1,349.09,327.07Z"/><polygon class="cls-2" points="355.38 70.03 369.81 70.03 369.81 79.56 355.11 99.16 355.38 70.03"/><ellipse class="cls-2" cx="352.11" cy="61.17" rx="3.04" ry="3.66"/><ellipse class="cls-2" cx="371.58" cy="61.17" rx="3.04" ry="3.66"/><ellipse class="cls-3" cx="362.04" cy="52.72" rx="12.36" ry="12.88"/><path class="cls-2" d="M362.18,74.4a11.57,11.57,0,0,0,5.48-2.09A9.54,9.54,0,0,0,372,65.86a73.25,73.25,0,0,0,1.14-7.94c0-3.64-1.27-11.79-9.57-11.79h-2.73c-8.3,0-9.56,8.15-9.56,11.79a72.7,72.7,0,0,0,1.13,7.94,9.59,9.59,0,0,0,4.32,6.45A11.5,11.5,0,0,0,362.18,74.4Z"/><path class="cls-3" d="M357.31,47.66s4.23,4.11,13.34,9c.39.2,2.6,1.85,1.87,6,0,0,6.15-20.33-9.08-21.9-15.54-1.6-13.18,18.51-11.76,21.9,0,0-.23-4.17.88-5.84S357,52.44,357.31,47.66Z"/><path class="cls-4" d="M351.66,61.54a22.71,22.71,0,0,1-1-6.81,23.66,23.66,0,0,0,1,7.94S351.66,62.21,351.66,61.54Z"/><path class="cls-1" d="M351.66,61.54a22.71,22.71,0,0,1-1-6.81,23.66,23.66,0,0,0,1,7.94S351.66,62.21,351.66,61.54Z"/><path class="cls-4" d="M372.66,61.06a9.48,9.48,0,0,1-.14,1.61,33.68,33.68,0,0,0,1.22-9.24A34.18,34.18,0,0,1,372.66,61.06Z"/><path class="cls-1" d="M372.66,61.06a9.48,9.48,0,0,1-.14,1.61,33.68,33.68,0,0,0,1.22-9.24A34.18,34.18,0,0,1,372.66,61.06Z"/><path class="cls-4" d="M370.65,55.57a65.85,65.85,0,0,1-13.8-9.47c-.36,4.79-3.64,8-4.75,9.64-.91,1.37-.46,4.43-.43,5.48a9.61,9.61,0,0,1,.89-4.39c1.12-1.67,4.39-4.39,4.75-9.17,0,0,4.23,4.11,13.34,9a4.73,4.73,0,0,1,2,3.84C372.85,57.14,371,55.75,370.65,55.57Z"/><path class="cls-1" d="M370.65,55.57a65.85,65.85,0,0,1-13.8-9.47c-.36,4.79-3.64,8-4.75,9.64-.91,1.37-.46,4.43-.43,5.48a9.61,9.61,0,0,1,.89-4.39c1.12-1.67,4.39-4.39,4.75-9.17,0,0,4.23,4.11,13.34,9a4.73,4.73,0,0,1,2,3.84C372.85,57.14,371,55.75,370.65,55.57Z"/><path class="cls-2" d="M362,41.47a12,12,0,0,1,12.34,11.72c0-.16,0-.31,0-.47a12.37,12.37,0,1,0-24.72,0c0,.16,0,.31,0,.47A12,12,0,0,1,362,41.47Z"/><path class="cls-2" d="M328,138.65l-5.29,31.89a6.91,6.91,0,0,0,.71,4.37l1.51,2.86a1.77,1.77,0,0,0,1.36.94l1.08.13h2.94a1,1,0,0,0,.94-1.47L330.21,175v-2l1.47,2,2,1.95a.63.63,0,0,0,.87,0h0a.64.64,0,0,0,.12-.71l-.92-1.92-1.13-4.78-2.47-5.55,7.69-25.2Z"/><line class="cls-2" x1="327.41" y1="178.84" x2="325.61" y2="175.15"/><line class="cls-2" x1="329.68" y1="178.84" x2="327.88" y2="175.15"/><rect class="cls-2" x="324.17" y="123.94" width="12.2" height="19.44"/><rect class="cls-3" x="329.43" y="145.36" width="1.68" height="184.32"/><rect class="cls-3" x="325.44" y="145.1" width="9.66" height="3.54"/><path class="cls-2" d="M330.27,87.73A29.27,29.27,0,1,0,359.54,117,29.26,29.26,0,0,0,330.27,87.73Zm0,55.19A25.92,25.92,0,1,1,356.19,117,25.92,25.92,0,0,1,330.27,142.92Z"/><rect class="cls-2" x="133.09" y="158.3" width="17.74" height="149.08"/><rect class="cls-3" x="133.09" y="156.74" width="17.74" height="3.98"/><polygon class="cls-2" points="200.44 110.92 215.44 95.92 200.44 22.41 200.44 110.92"/><rect class="cls-3" x="97.92" y="22.41" width="102.52" height="135.89"/><polygon class="cls-2" points="91 158.3 190.82 158.3 200.44 22.41 96.11 22.41 91 158.3"/><circle class="cls-2" cx="167.14" cy="118.15" r="7.82"/><path class="cls-5" d="M167.41,107.27v6.59a4.56,4.56,0,0,1,0,9.12v6.6a11.16,11.16,0,1,0,0-22.31Z"/><path class="cls-6" d="M167.41,106.71H168v7.71h-.56a4,4,0,0,0-4,4v.73h-7.69l0-.53a1.27,1.27,0,0,1,0-.2A11.73,11.73,0,0,1,167.41,106.71Z"/><circle class="cls-2" cx="138.25" cy="118.15" r="7.82"/><path class="cls-7" d="M138.52,106.71a11.16,11.16,0,0,0-11.15,11.16H134a4.56,4.56,0,0,1,7.88-3.13l4.66-4.67A11.12,11.12,0,0,0,138.52,106.71Z"/><path class="cls-6" d="M126.82,117.87v-.56h7.7v.56a4,4,0,0,0,4,4h.72v7.69l-.52,0h-.2A11.72,11.72,0,0,1,126.82,117.87Z"/><path class="cls-5" d="M156.63,94.38c-1.71,0-3.17-2.49-5.41-6.55-1.07-1.93-3.06-5.53-3.85-5.55-.54.11-1.61,2.38-2.26,3.74-1.3,2.75-2.54,5.36-4.4,5.36-1.54,0-2.73-1.39-3.89-2.73A12.25,12.25,0,0,0,135.26,87c-.53-.41-.55-.41-1.17-.19a8.58,8.58,0,0,1-3.06.5c-1.65,0-2.83-1.94-4.09-4-.86-1.41-2-3.34-2.86-3.34s-1.93,1.9-2.87,3.42c-1.51,2.46-3.06,5-5.3,5s-4.29-2.34-6.25-4.61c-1.18-1.37-2.65-3.07-3.42-3.07a.8.8,0,0,1,0-1.6c1.5,0,3,1.68,4.63,3.62s3.51,4.06,5,4.06c1.34,0,2.72-2.24,3.93-4.22,1.38-2.25,2.58-4.19,4.24-4.19s2.94,2,4.23,4.11c.83,1.36,2,3.23,2.72,3.23a6.8,6.8,0,0,0,2.54-.42,2.37,2.37,0,0,1,2.67.44A14.25,14.25,0,0,1,138,87.6c.88,1,1.88,2.18,2.68,2.18s2.17-2.79,3-4.45c1.23-2.59,2.2-4.65,3.7-4.65s3.06,2.43,5.25,6.38c1.1,2,3.16,5.72,4,5.72s2.4-1.7,3.65-3.07c1.85-2,3.75-4.12,5.71-4.12l.9,0c2,.06,3.05.09,5-3.35.53-1,1-1.86,1.4-2.66,1.33-2.63,2.29-4.53,4.23-4.53,1.26,0,2.29,1.08,3.28,2.12.77.82,1.65,1.74,2.33,1.74,1.29,0,3.56-3.3,4.69-5.54a.8.8,0,0,1,1.43.72c-.54,1.08-3.38,6.42-6.12,6.42-1.37,0-2.45-1.13-3.49-2.24-.72-.76-1.54-1.62-2.12-1.62-.91,0-1.59,1.25-2.81,3.65-.41.82-.88,1.74-1.43,2.72-2.28,4.08-3.91,4.25-6.4,4.17l-.86,0c-1.25,0-3,1.91-4.52,3.6C159.71,92.72,158.19,94.38,156.63,94.38Z"/><circle class="cls-6" cx="140.53" cy="89.92" r="4.02"/><rect class="cls-6" x="105.86" y="38.62" width="52.61" height="3.92"/><rect class="cls-5" x="105.86" y="47.99" width="86" height="1.96"/><rect class="cls-5" x="105.86" y="54.2" width="39.86" height="1.96"/><polygon class="cls-3" points="111.84 116.75 91.58 143 92.21 126.32 111.84 116.75"/><circle class="cls-3" cx="59.75" cy="41.23" r="7.01"/><circle class="cls-3" cx="56.38" cy="36.78" r="7.01"/><rect class="cls-2" x="43.14" y="58.45" width="16.37" height="18.37"/><path class="cls-2" d="M64.55,42.7V61.62a6,6,0,0,1-6,6H56A11.61,11.61,0,0,1,44.41,56V45.76a6.3,6.3,0,0,1,6.3-6.31H61.3A3.25,3.25,0,0,1,64.09,41h0A3.22,3.22,0,0,1,64.55,42.7Z"/><path class="cls-2" d="M73.62,115.41,81.4,125.5a6.88,6.88,0,0,0,5.43,2.67h0a7,7,0,0,0,3-.69l22-10.73-5-10.76L87,113.81l-10.3-28.3a5.15,5.15,0,0,0-3.07-3.07h0"/><polygon class="cls-2" points="26.07 83.49 41.95 73.57 43.14 68.76 58.28 76.82 59.51 74.42 61.48 76.39 61.48 77.73 73.64 82.47 73.64 156.27 28.37 156.27 26.07 83.49"/><line class="cls-1" x1="58.29" y1="78.14" x2="58.29" y2="156.27"/><polyline class="cls-1" points="59.51 74.42 61.48 76.39 61.36 80.14 58.28 78.14 53.69 84.01 41.95 73.57 43.14 68.76"/><path class="cls-2" d="M107,106.26l9.81-7.48a3.12,3.12,0,0,1,1.61-.64l6.76-.75a1.27,1.27,0,0,1,1.41,1.26h0a1.28,1.28,0,0,1-.88,1.21l-5.48,1.76,6.77.64a1.52,1.52,0,0,1,1.23,2.15l-3.35,7.18a1.51,1.51,0,0,1-1.37.87h-9.93l-2.76,2.07Z"/><path class="cls-3" d="M139.65,90.11l.3.3a.63.63,0,0,1-.06,1l-15,12.06-2.84-.27,16.82-13.1A.63.63,0,0,1,139.65,90.11Z"/><path class="cls-2" d="M127.2,102.65l-4.83.41a1.23,1.23,0,0,0-1.13,1.22h0a1.23,1.23,0,0,0,1.23,1.22h4.46"/><path class="cls-2" d="M126.88,105.88h-7.26a1.11,1.11,0,0,0-1.11,1.1h0a1.11,1.11,0,0,0,1.11,1.1H126"/><path class="cls-2" d="M125.85,108.61h-5.59a.92.92,0,0,0-.92.91h0a.92.92,0,0,0,.92.92h4.34"/><polygon class="cls-3" points="84.14 132.4 61.48 136.89 57.09 102.1 79.75 97.61 84.14 132.4"/><path class="cls-2" d="M48.72,120.31l7.58-1.5.7-1.47a1.72,1.72,0,0,1,.82-.82l1-.49.24,1.92,14.09-1.31a1.07,1.07,0,0,1,1.14.85h0a1.05,1.05,0,0,1-.8,1.23l-8.81,2L74,119.61a1.15,1.15,0,0,1,1.26.92h0a1.15,1.15,0,0,1-1,1.36l-8.7,1.27,7.66-.61a1.06,1.06,0,0,1,1.14,1h0a1.06,1.06,0,0,1-.93,1.14l-8,1,6.58-.53a.79.79,0,0,1,.87.74h0a.8.8,0,0,1-.65.85L62,128.58l-5.79-.43-7,.95"/><path class="cls-2" d="M32.26,83.39h0A5.25,5.25,0,0,1,34.48,88c-.5,8.64-2,33.45-2,33.45l21.59-3.78,2.76,11.43-26.14,9.48a7.74,7.74,0,0,1-9.52-3.74h0a7.66,7.66,0,0,1-.86-3.55V92.15a9.2,9.2,0,0,1,4.37-7.84l1.74-1.09A5.29,5.29,0,0,1,32.26,83.39Z"/><path class="cls-3" d="M64.55,41.8H51.8A6.19,6.19,0,0,0,45.61,48v5.79a1.4,1.4,0,0,1-1.4,1.4h0a2.38,2.38,0,0,0-3.54-2.07l-1.74,1.51L38.59,41.8A10.27,10.27,0,0,1,48.87,31.53h5.41A10.27,10.27,0,0,1,64.55,41.8Z"/><polygon class="cls-3" points="40.14 58.45 43.14 66.16 43.14 58.45 40.14 58.45"/><ellipse class="cls-2" cx="42.16" cy="55.46" rx="3.57" ry="4.36"/><polygon class="cls-3" points="28.37 156.27 73.64 156.27 73.64 307.38 55.09 307.38 53.91 185.14 15.25 305.93 0.5 302.39 19.3 221.71 28.37 156.27"/><path class="cls-3" d="M15.25,305.93v7.25l1.13,7.17v3.17a4,4,0,0,1-4,4H10.56a9.27,9.27,0,0,1-9.27-9.26V302.58Z"/><path class="cls-2" d="M148.51,266,102,274.41a18.83,18.83,0,0,0-15.46,18.53v15h75.73V266Z"/><path class="cls-2" d="M138.05,262.83l-5.11,4.36a11.53,11.53,0,0,1-5.42,2.58L109,273.13,125,251.88"/><path class="cls-2" d="M178.2,177.23h.61v5.34l21.45-5.13v-33h-27.7v27.11A5.64,5.64,0,0,0,178.2,177.23Z"/><path class="cls-2" d="M152.36,266.79l-33.91-7.43a6.26,6.26,0,0,0-7.5,7.14l5.41,32.16a11.09,11.09,0,0,0,10.94,9.25h32.49V266.69Z"/><path class="cls-3" d="M198.29,172.25h-6a6.84,6.84,0,0,1-6.84-6.84v-5.95a3.55,3.55,0,0,0-3.54-3.54h0a3.54,3.54,0,0,0-3.53,3.54v.84h-1.68v-8.67a2.12,2.12,0,0,0-1-1.77c-1.64-1.09-4.86-3.5-5.1-5.82-.33-3.11,8.25-2.35,8.25-2.35s-5.33-1.39-3.66-3.06,15.75-3.06,22-1.47,9.95,8,9.95,13.55c0,4.29-3.87,14.71-5.67,19.31A3.5,3.5,0,0,1,198.29,172.25Z"/><path class="cls-2" d="M221.69,222.34v-18.5a21.41,21.41,0,0,0-11.61-19L206.52,183l-2.76-4.84A3.39,3.39,0,0,0,200,176.5l-22.55,5.4-2.28,6.45L160.13,195a14.43,14.43,0,0,0-6.93,6.45l-28.48,50.21L139.42,264l14-20L148.51,266h64.81Z"/><path class="cls-3" d="M216.34,222.34H168.07a8.59,8.59,0,0,0-8.42,6.93l-7.29,37.52v32.47a8.64,8.64,0,0,0,8.64,8.65h46.58a8.65,8.65,0,0,0,8.56-9.91L212,269.83l12.47-36.12A8.58,8.58,0,0,0,216.34,222.34Z"/><polygon class="cls-3" points="184.27 339 184.27 316.07 188.56 316.07 188.56 312.76 193.48 312.76 193.48 307.91 181.17 307.91 168.86 307.91 168.86 312.76 173.79 312.76 173.79 316.07 178.08 316.07 178.08 339 141.43 348.43 141.43 350.75 181.17 343.79 220.92 350.75 220.92 348.43 184.27 339"/><rect class="cls-2" x="167.76" y="307.91" width="1.82" height="4.85"/><rect class="cls-2" x="172.69" y="312.76" width="1.82" height="3.31"/><polygon class="cls-2" points="142.14 349.15 178.8 339.72 178.8 316.07 176.98 316.07 176.98 339 140.33 348.43 140.33 350.75 142.14 350.56 142.14 349.15"/><polygon class="cls-2" points="181.17 343.79 180.62 343.88 219.82 350.75 219.82 350.56 181.17 343.79"/><circle class="cls-3" cx="157.58" cy="340.32" r="2.57"/><polygon class="cls-3" points="176.98 337.81 156.16 336.47 156.16 338.16 169.84 340.84 176.98 339 176.98 337.81"/><polygon class="cls-3" points="183.16 337.81 203.99 336.47 203.99 338.16 190.3 340.84 183.16 339 183.16 337.81"/><path class="cls-2" d="M450.07,318.57h-6.43a12.2,12.2,0,0,0-12.2,12.2h0a12.2,12.2,0,0,0,12.2,12.2h85a31.41,31.41,0,0,0,31.41-31.41V216.34a28.52,28.52,0,0,0-28.53-28.52H495.16a28.52,28.52,0,0,0-28.52,28.52v93.49"/><path class="cls-2" d="M434.39,334.5h85a31.41,31.41,0,0,0,31.41-31.41V207.86a28.3,28.3,0,0,0-5.1-16.26,28.5,28.5,0,0,1,14.35,24.74v95.22A31.41,31.41,0,0,1,528.64,343h-85A12.19,12.19,0,0,1,432,334.25,12.24,12.24,0,0,0,434.39,334.5Z"/><polygon class="cls-3" points="491.6 387.52 491.6 354.67 485.45 354.67 485.45 349.93 478.39 349.93 478.39 342.98 496.03 342.98 513.66 342.98 513.66 349.93 506.61 349.93 506.61 354.67 500.46 354.67 500.46 387.52 552.97 401.02 552.97 404.35 496.03 394.37 439.09 404.35 439.09 401.02 491.6 387.52"/><rect class="cls-2" x="512.64" y="342.97" width="2.6" height="6.95"/><rect class="cls-2" x="505.58" y="349.93" width="2.6" height="4.74"/><polygon class="cls-2" points="551.94 402.05 499.43 388.55 499.43 354.67 502.04 354.67 502.04 387.52 554.54 401.02 554.54 404.35 551.94 404.07 551.94 402.05"/><polygon class="cls-2" points="496.03 394.37 496.81 394.51 440.66 404.35 440.66 404.07 496.03 394.37"/><circle class="cls-3" cx="551.75" cy="407.91" r="4.43"/><circle class="cls-3" cx="529.83" cy="389.4" r="3.68"/><circle class="cls-3" cx="443.52" cy="407.91" r="4.43"/><polygon class="cls-3" points="502.04 385.81 531.87 383.89 531.87 386.31 512.26 390.15 502.04 387.52 502.04 385.81"/><circle class="cls-3" cx="465.38" cy="389.4" r="3.68"/><polygon class="cls-3" points="493.18 385.81 463.35 383.89 463.35 386.31 482.95 390.15 493.18 387.52 493.18 385.81"/><path class="cls-3" d="M530.7,210.73s1.59-18.09-7.48-27.37-9-30.45-26.65-30.39c-19.79.07-17.81,21.16-14.18,32.54s.93,26.54.93,26.54"/><rect class="cls-3" x="317.04" y="303.24" width="346.75" height="6.6" transform="translate(980.82 613.07) rotate(-180)"/><polygon class="cls-2" points="663.79 303.24 647.24 277.51 333.59 277.51 317.04 303.24 663.79 303.24"/><rect class="cls-2" x="326.35" y="309.83" width="7.91" height="137.19" transform="translate(660.61 756.85) rotate(-180)"/><rect class="cls-2" x="352.72" y="309.83" width="7.91" height="83.25" transform="translate(713.35 702.92) rotate(-180)"/><rect class="cls-2" x="643.57" y="309.83" width="7.91" height="137.19" transform="translate(1295.05 756.85) rotate(-180)"/><rect class="cls-2" x="614.43" y="309.83" width="7.91" height="83.25" transform="translate(1236.78 702.92) rotate(-180)"/><path class="cls-2" d="M507.72,187.16c-1.21,6.15-8.33,12.44-13.46,11.13-8.08-2.07-10.94-19.49-10.94-25.42s5.61-11.22,5.61-11.22,1.45,9.1,18.27,13.47l1.77,6.06s-.7-7.09,3.42-7.09,2.85,10.92-2.92,10.55v6.11a21,21,0,0,0,6.16,14.88h0l-15.77,21.54-3.29-8V198.4"/><path class="cls-2" d="M515.63,205.63l13.45,4.73a11.73,11.73,0,0,1,6.85,6.36l23.36,53.35a9,9,0,0,1,.76,3.61h0a9,9,0,0,1-9,9h-7.49V277l-8.69-8.57,4-4.07-9.12-17.91,1.43,31.1h-40l-11.07-32.09v-32.1l16.52-7.69V219.2l3.29,8Z"/><polygon class="cls-2" points="499.86 227.17 508.97 233.48 518.52 206.65 515.63 205.63 499.86 227.17"/><polygon class="cls-2" points="499.86 227.17 493.21 233.48 491.45 221.78 492.33 207.6 496.57 205.63 496.57 219.2 499.86 227.17"/><line class="cls-2" x1="499.86" y1="230.03" x2="501.68" y2="277.51"/><path class="cls-2" d="M480.05,213.32h0a10.41,10.41,0,0,0-6.33,6.93l-7.08,25.44h13.41Z"/><line class="cls-2" x1="529.71" y1="246.41" x2="522.45" y2="233.98"/><path class="cls-2" d="M543.56,277l-8.69-8.57-21.07,6.07-12.72-3.68a6.22,6.22,0,0,0-4.56.44l-7,3.6,2.09,9,8.26-4.27,6.35,1.81h37.35Z"/><rect class="cls-2" x="488.82" y="283.85" width="36.28" height="6.53" transform="translate(1013.91 574.22) rotate(-180)"/><line class="cls-2" x1="491.12" y1="281.77" x2="499.7" y2="276.61"/><line class="cls-2" x1="490.59" y1="279.51" x2="497.64" y2="275.33"/><line class="cls-2" x1="489.92" y1="276.61" x2="495.58" y2="274.13"/><path class="cls-3" d="M536.3,309.83h0a17.6,17.6,0,0,1-16.1,17.54L489.92,330l-9.87,55.73H464l2.19-62.35a14,14,0,0,1,14-13.5Z"/><path class="cls-3" d="M484.38,361.23l8.37,11.48-9.65,9.67-47-53.31a14.37,14.37,0,0,1-3.59-9.5h0a14.37,14.37,0,0,1,3-8.78l.74-1h42.62"/><path class="cls-2" d="M478.92,385.68l-3.62,27.26-11.55,11.54a1.84,1.84,0,0,1-1.32.55h-5.24a1.87,1.87,0,0,1-1.61-2.84l10.15-16.83V385.68Z"/><path class="cls-3" d="M476.09,407v9.22a11.07,11.07,0,0,1-5.3,9.44l-7.36,4.5a17,17,0,0,1-8.85,2.49h-8.95a.85.85,0,0,1-.66-1.38l20.76-25.88-10,16.49a2.1,2.1,0,0,0,1.8,3.18h4.75a2.13,2.13,0,0,0,1.49-.61l11.48-11.48Z"/><polygon class="cls-2" points="484.14 381.34 490.8 388.81 496.98 413.38 501.6 404.73 501.6 385.68 491.68 373.79 484.14 381.34"/><path class="cls-3" d="M501.59,385.68l1.44.42a2.56,2.56,0,0,1,1.84,2.25l1.43,17.89a14,14,0,0,1-1.62,7.71l-3.56,6.6a1.55,1.55,0,0,1-2.45.35h0a1.49,1.49,0,0,1-.41-.76L496,409.56l4.12-5.54Z"/><path class="cls-3" d="M431.71,290.38h58.16a2.58,2.58,0,0,0,2.51-3.15l-9.13-39.55a2.58,2.58,0,0,0-2.51-2H422.58a2.57,2.57,0,0,0-2.5,3.15l9.13,39.54A2.57,2.57,0,0,0,431.71,290.38Z"/><polygon class="cls-3" points="225.54 544.46 225.54 493.43 235.09 493.43 235.09 486.08 246.05 486.08 246.05 475.28 218.66 475.28 191.26 475.28 191.26 486.08 202.22 486.08 202.22 493.43 211.77 493.43 211.77 544.46 130.22 565.43 130.22 570.6 218.66 555.1 307.09 570.6 307.09 565.43 225.54 544.46"/><rect class="cls-2" x="188.82" y="475.28" width="4.04" height="10.8"/><rect class="cls-2" x="199.78" y="486.08" width="4.04" height="7.36"/><polygon class="cls-2" points="131.82 567.03 213.37 546.06 213.37 493.43 209.33 493.43 209.33 544.46 127.78 565.43 127.78 570.6 131.82 570.17 131.82 567.03"/><polygon class="cls-2" points="218.66 555.1 217.43 555.32 304.65 570.6 304.65 570.17 218.66 555.1"/><circle class="cls-3" cx="132.11" cy="576.13" r="6.89"/><circle class="cls-3" cx="166.16" cy="547.38" r="5.72"/><circle class="cls-3" cx="300.2" cy="576.13" r="6.89"/><polygon class="cls-3" points="209.33 541.8 163 538.83 163 542.58 193.44 548.55 209.33 544.46 209.33 541.8"/><circle class="cls-3" cx="266.26" cy="547.38" r="5.72"/><polygon class="cls-3" points="223.09 541.8 269.42 538.83 269.42 542.58 238.97 548.55 223.09 544.46 223.09 541.8"/><path class="cls-2" d="M260,361.52l25.7-2.39L302.2,372a1.46,1.46,0,0,0,1.38.24h0a1.48,1.48,0,0,0,.6-2.41l-14.57-15.39,11.74,7.6,4.5,7.53a1.46,1.46,0,0,0,1.73.63h0a1.45,1.45,0,0,0,.86-2l-4.25-9.46-11-7.11L305,357.93l5,9.22a1.7,1.7,0,0,0,2,.79h0a1.69,1.69,0,0,0,1-2.32l-5.3-11.17-11.4-7.93,13.5,6.55,8.27,9.36a1.46,1.46,0,0,0,1.58.41h0a1.47,1.47,0,0,0,.74-2.21l-7.56-11.25-17.3-8-32.62.72-4.62,16.13Z"/><path class="cls-2" d="M221.27,347.19l-29.59-72.56a46.87,46.87,0,0,0-50-28.7l-72,10.28a23,23,0,0,0-18.76,16.14h0a23,23,0,0,0,.12,13.58L95,423.72a78.3,78.3,0,0,0,74.61,54.53h56.55a134.49,134.49,0,0,0,56.81-12.58L323.12,447"/><path class="cls-2" d="M292.17,357.46l-97.17,8a5,5,0,0,0-4,2.66l-.21.39a5,5,0,0,0,4.88,7.39L293,367.5a5,5,0,0,0,4-7.37h0A5.06,5.06,0,0,0,292.17,357.46Z"/><polygon class="cls-2" points="155.43 256.04 174.27 282.91 229.62 361.85 190.15 378.16 113.75 249.91 140.77 273.52 145.78 256.04 157.62 266.84 155.43 256.04"/><path class="cls-2" d="M235.34,464.16H178.79a78.3,78.3,0,0,1-74.61-54.53L60.27,271.84a23,23,0,0,1-.6-11.63,22.93,22.93,0,0,0-8.62,25.72L95,423.72a78.3,78.3,0,0,0,74.61,54.53h56.55a134.49,134.49,0,0,0,56.81-12.58L324,447l-1.3-15.28S266.25,464.16,235.34,464.16Z"/><path class="cls-3" d="M190.15,438.5l14.35,3.7a61.06,61.06,0,0,0,15.22,1.93h0a61,61,0,0,0,33.5-10l62.38-41,84.21,58.23,19.73-26.61-76.87-69.07a36.73,36.73,0,0,0-24.55-9.41h0a36.54,36.54,0,0,0-12.76,2.29L245.6,370.66a10.66,10.66,0,0,1-12.37-3.78l-3.61-5-39.47,16.31S190.7,415,190.15,438.5Z"/><path class="cls-8" d="M85.76,270.25l28-20.33,10.89,9.44a58.49,58.49,0,0,1,13.12,16.31l44.54,82a76.23,76.23,0,0,1,9.63,40.6l-2,44.32H142.68l-19.44-93.91L104.82,281S99.94,266.91,85.76,270.25Z"/><path class="cls-3" d="M162.41,385.52,157.35,451a25.38,25.38,0,0,0,25.32,27.27h-14.6A25.38,25.38,0,0,1,142.75,451l5.06-67.89"/><path class="cls-2" d="M145.71,451l5-67.41-2.92-.48L142.75,451a25.38,25.38,0,0,0,25.32,27.27h3A25.38,25.38,0,0,1,145.71,451Z"/><path class="cls-2" d="M202.59,389.72,106.24,374.8a5,5,0,0,0-4.54,1.64l-.3.34a5,5,0,0,0,3,8.32l96.65,14.58a5,5,0,0,0,5.63-6.23h0A5,5,0,0,0,202.59,389.72Z"/><polygon class="cls-3" points="251.85 434.97 323.12 444.86 368.51 551.82 403.88 538.83 365.26 427.44 315.61 393.1 251.85 434.97"/><polygon class="cls-2" points="403.88 538.83 347.53 415.18 365.26 427.44 403.88 538.83"/><polygon class="cls-2" points="251.85 434.97 326.32 400.51 315.61 393.1 251.85 434.97"/><path class="cls-3" d="M432.79,437.45l-9.71,15-11.16,1.35.78,6.81a22.32,22.32,0,0,0,2.34,7.67l8.67,16.83,22.54-9.5-1.57-4s18.68-1.36,28.59-7.83,21.29-16.49,25.05-28.28l-1.49-1.25a11.1,11.1,0,0,0-10.26-2.21C476.25,435.1,453.39,440.56,432.79,437.45Z"/><path class="cls-3" d="M432.79,437.45l-9.71,15-11.16,1.35.78,6.81a22.32,22.32,0,0,0,2.34,7.67l8.67,16.83,22.54-9.5-1.57-4s18.68-1.36,28.59-7.83,21.29-16.49,25.05-28.28l-1.49-1.25a11.1,11.1,0,0,0-10.26-2.21C476.25,435.1,453.39,440.56,432.79,437.45Z"/><path class="cls-2" d="M423.08,455.92l9.71-15c20.6,3.11,43.46-2.35,53.78-5.34a11.1,11.1,0,0,1,10.26,2.21l.51.43c.36-.87.7-1.73,1-2.62l-1.49-1.25a11.1,11.1,0,0,0-10.26-2.21c-10.32,3-33.18,8.45-53.78,5.34l-9.71,15-11.16,1.35.39,3.4Z"/><polygon class="cls-2" points="432.79 437.45 418.01 426.78 403.11 446.89 411.92 453.83 423.08 452.48 432.79 437.45"/><path class="cls-3" d="M406.1,556.25l-16,7.92-10.28-4.56L377,565.85a22.26,22.26,0,0,0-1.93,7.78l-1.19,18.9,24.22,3.41.69-4.21s16.73,8.42,28.56,7.95,26.73-3.24,36-11.43l-.63-1.84a11.07,11.07,0,0,0-7.68-7.16C444.62,576.52,422.19,569.48,406.1,556.25Z"/><path class="cls-2" d="M394.58,591.73l-.59,3.63,4.08.58.39-2.43C396.07,592.48,394.58,591.73,394.58,591.73Z"/><polygon class="cls-2" points="385.89 564.17 387.87 563.19 379.78 559.61 379.09 561.15 385.89 564.17"/><path class="cls-2" d="M462.69,586.41a11.07,11.07,0,0,0-7.68-7.16c-10.39-2.73-32.82-9.77-48.91-23l-2.58,1.27c16,12.42,37.26,19.09,47.31,21.73a11.1,11.1,0,0,1,7.69,7.16l.62,1.84c-9,7.93-23.2,10.77-34.83,11.37,1,.07,2,.09,3,.06,11.82-.47,26.73-3.24,36-11.43Z"/><polygon class="cls-2" points="406.1 556.25 399.31 540.5 375.78 549.12 379.78 559.61 390.06 564.17 406.1 556.25"/><polyline class="cls-8" points="163.63 324.26 120.47 286.67 128.82 278.32 101.95 258.49 113.75 249.91"/><polygon class="cls-2" points="145.78 256.04 140.77 273.52 113.75 249.91 117.89 243.46 145.78 256.04"/><polygon class="cls-2" points="145.78 256.04 157.62 266.84 155.43 256.04 149.27 250.36 145.78 256.04"/><path class="cls-8" d="M155.43,256l12.67,3.76a20.53,20.53,0,0,1,10.84,7.69l49.48,68.71,46.38,4.16-7.48,17.33.26,4.84-35.86,2.25Z"/><path class="cls-4" d="M166.85,263.42a20.53,20.53,0,0,1,10.84,7.69l49.48,68.71L273.25,344l1.55-3.6-46.38-4.16-49.48-68.71a20.53,20.53,0,0,0-10.84-7.69L155.43,256l3.55,5.06Z"/><path class="cls-1" d="M155.43,256l12.67,3.76a20.53,20.53,0,0,1,10.84,7.69l49.48,68.71,46.38,4.16-7.48,17.33.26,4.84-35.86,2.25Z"/><path class="cls-8" d="M155.43,256l92,114-2.09.77a10.17,10.17,0,0,1-11.86-3.69Z"/><line class="cls-2" x1="147.19" y1="260.69" x2="210.97" y2="369.56"/><path class="cls-2" d="M167.32,384.1l25.08,6.07,11.4,17.52a1.49,1.49,0,0,0,1.24.67h0a1.47,1.47,0,0,0,1.34-2.08L197.59,387l8.65,11,1.81,8.59a1.47,1.47,0,0,0,1.43,1.16h0a1.47,1.47,0,0,0,1.46-1.6l-1-10.32-8.09-10.3,9.11,9.75,1.78,10.37a1.69,1.69,0,0,0,1.66,1.39h0a1.67,1.67,0,0,0,1.67-1.87l-1.38-12.29-8.22-11.19,10.64,10.56,4.79,11.54a1.48,1.48,0,0,0,1.36.91h0a1.47,1.47,0,0,0,1.42-1.85l-3.5-13.1-13.77-13.17-31.09-9.91-9.61,13.77Z"/><path class="cls-8" d="M77.66,289.63,92.37,359a23.82,23.82,0,0,0,19.93,18.64l55.24,7.9-.79-5.09,11.59-16.6-55.1-15.18-18.16-66.82a17.4,17.4,0,0,0-12.49-12.31h-.06a9.7,9.7,0,0,0-8.63,2h0A18.68,18.68,0,0,0,77.66,289.63Z"/><path class="cls-4" d="M166.77,380.4l-50.09-7.16A23.83,23.83,0,0,1,96.75,354.6l-14.7-69.36a18.61,18.61,0,0,1,3-14.55,10.65,10.65,0,0,0-1.11.79,18.68,18.68,0,0,0-6.24,18.15L92.37,359a23.82,23.82,0,0,0,19.93,18.64l55.24,7.9-.79-5.09Z"/><path class="cls-1" d="M77.66,289.63,92.37,359a23.82,23.82,0,0,0,19.93,18.64l55.24,7.9-.79-5.09,11.59-16.6-55.1-15.18-18.16-66.82a17.4,17.4,0,0,0-12.49-12.31h-.06a9.7,9.7,0,0,0-8.63,2h0A18.68,18.68,0,0,0,77.66,289.63Z"/><path class="cls-3" d="M117.54,218.56s4.3,4.93,4.54,5.17-4.81-15.92-4.81-15.92l.11-.12A9.88,9.88,0,0,0,119,196.34h0l17.53-8a10.23,10.23,0,0,1,11.26,1.89l.93.87s9.18-11.87.57-23.53c0,0,1.88,5.25,1.88,8.38,0,0-3.76-11.74-13.7-9.79s-11.11,6.58-21.68,7.91-10.48,14.4-10.48,14.4S91.87,193.34,96,207.32s22.12,32.26,22.12,32.26Z"/><path class="cls-2" d="M122,181.07s2.66,9.39-2,14l4.7-2.14S125.14,184.17,122,181.07Z"/><path class="cls-2" d="M127.62,178.52s2.66,9.39-2,14l4.69-2.14S130.72,181.62,127.62,178.52Z"/><path class="cls-2" d="M133.2,176s2.66,9.39-2,14l4.7-2.14S136.31,179.07,133.2,176Z"/><path class="cls-2" d="M138.78,173.42s2.67,9.39-2,14l2-.92a4.5,4.5,0,0,0,2.63-4.38C141.27,179.31,140.68,175.31,138.78,173.42Z"/><path class="cls-2" d="M153,177.23a18.07,18.07,0,0,0-3.64-9.62,44.33,44.33,0,0,1,1.6,5.85A19.51,19.51,0,0,1,153,177.23Z"/><path class="cls-2" d="M119.62,220.64V221c1.14,1.29,2.33,2.66,2.46,2.78s0-.11-.07-.35Z"/><path class="cls-2" d="M98.12,209.4c-4.17-14,9.29-18.81,9.29-18.81s-.08-13.07,10.48-14.4,11.74-5.95,21.68-7.91a10,10,0,0,1,8.48,2.07c-2.18-2.69-5.6-5.12-10.56-4.15-9.94,2-11.11,6.58-21.68,7.91s-10.48,14.4-10.48,14.4S91.87,193.34,96,207.32s22.12,32.26,22.12,32.26v-.14C113.31,234.17,101.42,220.45,98.12,209.4Z"/><polygon class="cls-2" points="117.89 243.46 145.78 256.04 149.27 250.36 149.47 228.27 117.89 228.27 117.89 243.46"/><polygon class="cls-3" points="149.37 238.89 149.37 249.57 136.85 238.67 149.37 238.89"/><path class="cls-2" d="M117.54,218.56l4.54,5.17-4.81-15.92s4.6-4.25,1.75-11.47l16.37-7.43a12.12,12.12,0,0,1,13.35,2.23h0l7.46,15.59a27.92,27.92,0,0,1,2.47,8.24l1.59,11.51A10.15,10.15,0,0,1,154.71,237h0a25.17,25.17,0,0,1-27.59-3.47l-4.47-3.84h0a7.89,7.89,0,0,1-7.65-.13l-.9-.52a16.13,16.13,0,0,1-4.9-4.37l-1.13-1.52a4.4,4.4,0,0,1,.42-5.75h0a4.41,4.41,0,0,1,5.14-.81l3.91,2"/><path class="cls-2" d="M147.41,205s2.69,5.05,4.46,6.53-2.79,2-2.77,3.81"/><path class="cls-2" d="M140,223.8s7.2,3.71,12.52-.83"/><path class="cls-2" d="M138.24,208.7s-.94,3.25-5.56,3"/><path class="cls-2" d="M153,202.32s-.72,1.92-3.68,1.92"/><path class="cls-2" d="M138.63,200.6h0a1.86,1.86,0,0,1-1.57,1.84,18.74,18.74,0,0,0-8.8,4.23"/><path class="cls-2" d="M145.08,199.07h0a1.79,1.79,0,0,0,2.11,0,11.15,11.15,0,0,1,4.31-2.15"/></g></g></svg>