<svg xmlns="http://www.w3.org/2000/svg" xmlns:xlink="http://www.w3.org/1999/xlink" viewBox="0 0 864 862.3"><defs><style>.cls-1,.cls-5{fill:none;}.cls-2{clip-path:url(#clip-path);}.cls-3{fill:#ebeced;}.cls-4{fill:#b57aef;}.cls-11,.cls-13,.cls-14,.cls-15,.cls-16,.cls-5,.cls-6,.cls-7{stroke:#041323;stroke-linecap:round;stroke-linejoin:round;}.cls-12,.cls-14,.cls-6{fill:#fff;}.cls-7{fill:#041323;}.cls-8{fill:#71b5ff;}.cls-9{fill:#e4eaf9;}.cls-10,.cls-13,.cls-15{fill:#4a90ee;}.cls-11,.cls-16{fill:#f6f8fd;}.cls-14,.cls-15,.cls-16{stroke-width:0.8px;}</style><clipPath id="clip-path" transform="translate(0 -1.7)"><rect class="cls-1" width="864" height="864" rx="150"/></clipPath></defs><g id="Layer_2" data-name="Layer 2"><g id="Layer_2-2" data-name="Layer 2"><g class="cls-2"><rect class="cls-3" width="864" height="660.58"/><rect class="cls-4" y="542.37" width="864" height="319.92"/><rect class="cls-5" x="89.84" y="201.43" width="184.99" height="13.71"/><rect class="cls-5" x="89.84" y="215.14" width="184.99" height="13.71"/><rect class="cls-5" x="89.84" y="228.85" width="184.99" height="13.71"/><rect class="cls-5" x="89.84" y="242.56" width="184.99" height="13.71"/><rect class="cls-5" x="89.84" y="256.27" width="184.99" height="13.71"/><rect class="cls-5" x="89.84" y="269.98" width="184.99" height="13.71"/><rect class="cls-5" x="89.84" y="283.69" width="184.99" height="13.71"/><polygon class="cls-5" points="89.84 297.4 89.84 311.11 89.84 324.81 89.84 338.52 89.84 352.23 89.84 365.94 89.84 379.65 89.84 393.36 89.84 407.07 274.83 407.07 274.83 393.36 274.83 379.65 274.83 365.94 274.83 352.23 274.83 338.52 274.83 324.81 274.83 311.11 274.83 297.4 89.84 297.4"/><line class="cls-6" x1="256.87" y1="297.4" x2="256.87" y2="369.35"/><rect class="cls-6" x="719.53" y="379.42" width="21.32" height="179.22"/><rect class="cls-7" x="719.53" y="377.54" width="21.32" height="4.79"/><polygon class="cls-6" points="800.49 322.46 818.52 304.43 800.49 216.06 800.49 322.46"/><rect class="cls-7" x="677.24" y="216.06" width="123.25" height="163.37"/><polygon class="cls-6" points="668.93 379.42 788.93 379.42 800.49 216.06 675.08 216.06 668.93 379.42"/><circle class="cls-6" cx="747.56" cy="331.15" r="9.4"/><path class="cls-8" d="M747.89,319.77v7.93a5.49,5.49,0,0,1,0,11v7.93a13.42,13.42,0,0,0,0-26.83Z" transform="translate(0 -1.7)"/><path class="cls-9" d="M747.89,319.11h.67v9.26h-.67a4.82,4.82,0,0,0-4.82,4.81c0,.07,0,.13,0,.19v.69h-9.24l0-.64a1.93,1.93,0,0,1,0-.24A14.09,14.09,0,0,1,747.89,319.11Z" transform="translate(0 -1.7)"/><circle class="cls-6" cx="712.83" cy="331.15" r="9.4"/><path class="cls-9" d="M713.16,319.11a13.4,13.4,0,0,0-13.41,13.4h7.93a5.48,5.48,0,0,1,9.46-3.76l5.61-5.6A13.32,13.32,0,0,0,713.16,319.11Z" transform="translate(0 -1.7)"/><path class="cls-8" d="M699.08,332.52v-.67h9.26v.67a4.83,4.83,0,0,0,4.82,4.81h.19l.68,0v9.25l-.63,0h-.24A14.1,14.1,0,0,1,699.08,332.52Z" transform="translate(0 -1.7)"/><path class="cls-9" d="M747.83,304.52c-2.19,0-4-3-6.72-8-1.28-2.32-3.4-6.17-4.39-6.54-.65.38-1.82,2.85-2.52,4.34-1.61,3.38-3.12,6.58-5.51,6.58-2,0-3.43-1.71-4.86-3.37a16.43,16.43,0,0,0-1.84-1.92c-.53-.41-.53-.41-1.19-.18a10.6,10.6,0,0,1-3.74.61c-2.13,0-3.58-2.39-5.13-4.92-.94-1.55-2.37-3.9-3.23-3.9s-2.28,2.41-3.26,4c-1.84,3-3.75,6.11-6.56,6.11s-5.31-2.86-7.7-5.63c-1.32-1.52-3.12-3.6-3.94-3.6a1.2,1.2,0,0,1,0-2.4c1.92,0,3.69,2.05,5.75,4.43,1.85,2.14,4.15,4.8,5.89,4.8,1.47,0,3.16-2.75,4.52-5,1.7-2.77,3.16-5.15,5.3-5.15s3.7,2.45,5.28,5.05c.86,1.41,2.3,3.77,3.08,3.77a8.21,8.21,0,0,0,3-.48,3.07,3.07,0,0,1,3.44.56,16.58,16.58,0,0,1,2.18,2.24c1,1.13,2.19,2.54,3.05,2.54s2.54-3.52,3.34-5.21c1.52-3.2,2.71-5.72,4.66-5.72,2.11,0,3.85,3,6.52,7.78,1.27,2.3,3.64,6.58,4.64,6.76.89,0,2.8-2.09,4.19-3.62,2.25-2.47,4.58-5,7-5l1.09,0c2.35.07,3.52.1,5.75-3.91.65-1.15,1.2-2.23,1.68-3.19,1.64-3.24,2.83-5.58,5.31-5.58,1.62,0,2.88,1.34,4.11,2.63.9.95,1.92,2,2.64,2,1.26,0,3.82-3.38,5.41-6.53a1.2,1.2,0,0,1,2.15,1.08c-.67,1.31-4.13,7.85-7.56,7.85-1.76,0-3.15-1.47-4.38-2.77-.8-.84-1.79-1.88-2.37-1.88-1,0-1.79,1.54-3.17,4.26-.49,1-1,2.09-1.72,3.28-2.75,4.93-4.82,5.23-7.92,5.14l-1,0c-1.4,0-3.54,2.35-5.26,4.24C751.66,302.48,749.81,304.52,747.83,304.52Z" transform="translate(0 -1.7)"/><rect class="cls-10" x="686.79" y="235.54" width="63.25" height="4.71"/><rect class="cls-9" x="686.79" y="246.81" width="103.39" height="2.35"/><rect class="cls-9" x="686.79" y="254.27" width="47.92" height="2.35"/><rect class="cls-6" x="399.31" y="526.01" width="46.9" height="199.8"/><rect class="cls-7" x="399.31" y="526.01" width="46.9" height="21.81"/><path class="cls-6" d="M379.43,705.57h86.66a22.09,22.09,0,0,1,22.09,22.09v0a0,0,0,0,1,0,0H357.33a0,0,0,0,1,0,0v0A22.09,22.09,0,0,1,379.43,705.57Z"/><path class="cls-6" d="M268.13,625.88h49.32a64.31,64.31,0,0,0,64.31-64.31h0a10.33,10.33,0,0,0-5.66-9.22l-78.25-30" transform="translate(0 -1.7)"/><polygon class="cls-7" points="248.76 712.57 248.76 649.26 236.91 649.26 236.91 640.13 223.32 640.13 223.32 624.17 257.31 624.17 291.29 624.17 291.29 640.13 277.7 640.13 277.7 649.26 265.85 649.26 265.85 712.57 367.03 738.59 367.03 745 257.31 725.77 147.58 745 147.58 738.59 248.76 712.57"/><rect class="cls-6" x="289.31" y="624.17" width="5.01" height="15.96"/><rect class="cls-6" x="275.71" y="640.13" width="5.01" height="9.13"/><polygon class="cls-6" points="365.04 740.57 263.87 714.55 263.87 649.26 268.88 649.26 268.88 712.57 370.06 738.59 370.06 745 365.04 744.47 365.04 740.57"/><polygon class="cls-6" points="257.31 725.77 258.82 726.04 150.61 745 150.61 744.47 257.31 725.77"/><circle class="cls-7" cx="364.68" cy="751.86" r="8.54"/><circle class="cls-7" cx="322.44" cy="716.19" r="7.1"/><circle class="cls-7" cx="156.13" cy="751.86" r="8.54"/><polygon class="cls-7" points="268.88 709.26 326.36 705.58 326.36 710.24 288.59 717.63 268.88 712.57 268.88 709.26"/><circle class="cls-7" cx="198.25" cy="716.19" r="7.1"/><polygon class="cls-7" points="251.81 709.26 194.32 705.58 194.32 710.24 232.1 717.63 251.81 712.57 251.81 709.26"/><path class="cls-11" d="M268.13,616.52h43.42c34.76,0,63.7-27.5,64.53-62.25,0-.64,0-1.28,0-1.93l-78.25-30V433.7h-118A50.79,50.79,0,0,0,130.36,473l-2.22,9.6a73.06,73.06,0,0,0,18.65,45.17l53.06,59a79.9,79.9,0,0,0,62.2,29.75Z" transform="translate(0 -1.7)"/><path class="cls-7" d="M195.91,374.64c-13-25.61,13.46-44,22.64-58.22s-4.38-38.82,13.56-63.24c18.81-25.58,73.72-12.83,69.08,31.93-4.8,46.31,9,75.13-11.27,75.13" transform="translate(0 -1.7)"/><path class="cls-12" d="M237.26,251.48c19-18.44,58.36-6.39,63.92,23.27-4.12-36.22-51.81-45.05-69.07-21.57a50.85,50.85,0,0,0-9.71,26.47C224.42,270.27,228.07,260.39,237.26,251.48Z" transform="translate(0 -1.7)"/><path class="cls-5" d="M237.26,251.48c19-18.44,58.36-6.39,63.92,23.27-4.12-36.22-51.81-45.05-69.07-21.57a50.85,50.85,0,0,0-9.71,26.47C224.42,270.27,228.07,260.39,237.26,251.48Z" transform="translate(0 -1.7)"/><path class="cls-12" d="M300.57,292.49c-.15.64-.35,1.29-.5,1.95-6,27,8.43,59.75-11.81,66.06l1.66-.26C309.07,360.24,297.79,334.46,300.57,292.49Z" transform="translate(0 -1.7)"/><path class="cls-5" d="M300.57,292.49c-.15.64-.35,1.29-.5,1.95-6,27,8.43,59.75-11.81,66.06l1.66-.26C309.07,360.24,297.79,334.46,300.57,292.49Z" transform="translate(0 -1.7)"/><path class="cls-6" d="M232.11,259.13c17.6-23.94,66.85-14.3,69.26,23.74C304,239.94,250.6,228,232.11,253.18c-9.87,13.43-10.21,26.93-10,38.71C222.28,281.62,223.87,270.35,232.11,259.13Z" transform="translate(0 -1.7)"/><path class="cls-6" d="M218.55,322.37c3.61-5.58,3.7-12.78,3.58-20.94-.15,5.72-.88,10.81-3.58,15-7.81,12.07-28.17,27.21-26,47.24C194.38,346.54,211.53,333.22,218.55,322.37Z" transform="translate(0 -1.7)"/><path class="cls-6" d="M595.87,625.88H546.55a64.31,64.31,0,0,1-64.31-64.31h0a10.33,10.33,0,0,1,5.66-9.22l59.08-30" transform="translate(0 -1.7)"/><polygon class="cls-7" points="615.24 712.57 615.24 649.26 627.09 649.26 627.09 640.13 640.68 640.13 640.68 624.17 606.7 624.17 572.71 624.17 572.71 640.13 586.3 640.13 586.3 649.26 598.15 649.26 598.15 712.57 496.97 738.59 496.97 745 606.7 725.77 716.42 745 716.42 738.59 615.24 712.57"/><rect class="cls-6" x="569.68" y="624.17" width="5.01" height="15.96"/><rect class="cls-6" x="583.27" y="640.13" width="5.01" height="9.13"/><polygon class="cls-6" points="498.96 740.57 600.13 714.55 600.13 649.26 595.12 649.26 595.12 712.57 493.94 738.59 493.94 745 498.96 744.47 498.96 740.57"/><polygon class="cls-6" points="606.7 725.77 605.18 726.04 713.39 745 713.39 744.47 606.7 725.77"/><circle class="cls-7" cx="499.32" cy="751.86" r="8.54"/><circle class="cls-7" cx="541.56" cy="716.19" r="7.1"/><circle class="cls-7" cx="707.87" cy="751.86" r="8.54"/><polygon class="cls-7" points="595.12 709.26 537.64 705.58 537.64 710.24 575.41 717.63 595.12 712.57 595.12 709.26"/><circle class="cls-7" cx="665.75" cy="716.19" r="7.1"/><polygon class="cls-7" points="612.19 709.26 669.68 705.58 669.68 710.24 631.9 717.63 612.19 712.57 612.19 709.26"/><path class="cls-11" d="M595.87,616.52H552.45c-34.76,0-63.7-27.5-64.53-62.25,0-.64,0-1.28,0-1.93l33.49-17A46.82,46.82,0,0,0,547,493.59V433.7H684.16A50.79,50.79,0,0,1,733.64,473l2.22,9.6a73.06,73.06,0,0,1-18.65,45.17l-53.06,59A79.9,79.9,0,0,1,602,616.52Z" transform="translate(0 -1.7)"/><path class="cls-13" d="M288.8,365.43h0a29.65,29.65,0,0,1,11.92,20.81l9.09,87,22.06,5.14v20.2H282.54" transform="translate(0 -1.7)"/><path class="cls-6" d="M331.87,481.29l14.79,1.13a34.6,34.6,0,0,1,17.64,6.46l1.33,1H331.87Z" transform="translate(0 -1.7)"/><polygon class="cls-6" points="242.21 307.73 242.21 329.71 231.49 344.35 286.79 405.7 286.79 372.94 266.34 342.47 266.34 307.73 242.21 307.73"/><path class="cls-13" d="M242.21,331.42,221.6,350.1,220.53,355l-17.06,11.58a24.94,24.94,0,0,0-10.15,26.89l16.88,65.31-5.95,35.86h89V450.19s11.27-28.17,4.8-54.26-4.82-33-4.82-33l-26.9-25.46v6.67l15.3,52.28-42.36-42.56A12.93,12.93,0,0,1,238,337.14Z" transform="translate(0 -1.7)"/><path class="cls-12" d="M200.74,393.44a24.94,24.94,0,0,1,10.15-26.89L228,355,229,350.1l6.53-5.92a12.86,12.86,0,0,1,2.47-7l4.19-5.72L221.6,350.1,220.53,355l-17.06,11.58a24.94,24.94,0,0,0-10.15,26.89l16.88,65.31-5.95,35.86h7.43l5.94-35.86Z" transform="translate(0 -1.7)"/><path class="cls-5" d="M242.21,331.42,221.6,350.1,220.53,355l-17.06,11.58a24.94,24.94,0,0,0-10.15,26.89l16.88,65.31-5.95,35.86h89V450.19s11.27-28.17,4.8-54.26-4.82-33-4.82-33l-26.9-25.46v6.67l15.3,52.28-42.36-42.56A12.93,12.93,0,0,1,238,337.14Z" transform="translate(0 -1.7)"/><polyline class="cls-5" points="289.85 413.43 289.85 435.85 273.44 492.9"/><polyline class="cls-5" points="222.31 351.03 225.44 382.54 240.25 368.97 285.12 408.63"/><path class="cls-5" d="M286.79,374.64S284.24,363,293.24,363" transform="translate(0 -1.7)"/><path class="cls-7" d="M204.25,494.61,193.8,519.85a55.88,55.88,0,0,0-4.26,21.39h0a55.87,55.87,0,0,0,55.88,55.87h53.37l-25.35,87,29.11,9.39,34.12-68.24,6.58,64.17h31.93l8.12-111.27a33.64,33.64,0,0,0-22.61-34.27l-68.05-23.4V494.61Z" transform="translate(0 -1.7)"/><polygon class="cls-6" points="344.18 609.29 336.67 623.58 343.25 687.76 351.69 687.76 344.18 609.29"/><path class="cls-6" d="M275.11,531.79l5.33-3.23,61.82,16.85A25,25,0,0,1,359.52,577l-3.44,10.89,1.6-9.21A25,25,0,0,0,340,550.43Z" transform="translate(0 -1.7)"/><path class="cls-6" d="M312.88,472.37l64-10.18L407,479.63a4.66,4.66,0,0,0,4.64,0l12.72-7.33a4.63,4.63,0,0,0,.74-7.5L398.53,441.6a5.83,5.83,0,0,0-5.11-1.3l-14.25,3.19-66.29,1.95" transform="translate(0 -1.7)"/><line class="cls-6" x1="413.83" y1="476.66" x2="404.13" y2="466.98"/><line class="cls-6" x1="419.16" y1="473.59" x2="408.28" y2="462.68"/><line class="cls-6" x1="423.98" y1="470.5" x2="411.39" y2="458.47"/><path class="cls-6" d="M385.58,449.75l14.91-11.1a5.57,5.57,0,0,1,4.9-.87l29.66,8.76v23.87H426.4a5.57,5.57,0,0,0-2.17-6.34l-20.1-17.57-8.8,4.81a6.74,6.74,0,0,1-6.12.17Z" transform="translate(0 -1.7)"/><path class="cls-6" d="M384.48,469l6.28-7.05a2.41,2.41,0,0,1,3.21-.35h0a2.41,2.41,0,0,1,.51,3.4l-5.68,7.59a2,2,0,0,1-2.56.6l-.2-.09a4.36,4.36,0,0,1-1.81-1.7h0A2.07,2.07,0,0,1,384.48,469Z" transform="translate(0 -1.7)"/><path class="cls-6" d="M380.29,464.79l6.28-7a2.4,2.4,0,0,1,3.2-.35h0a2.41,2.41,0,0,1,.52,3.4l-5.68,7.58A2.05,2.05,0,0,1,382,469l-.19-.1A4.22,4.22,0,0,1,380,467.2h0A2.05,2.05,0,0,1,380.29,464.79Z" transform="translate(0 -1.7)"/><path class="cls-6" d="M389.25,471.94l6.34-8.23a2.64,2.64,0,0,1,3.49-.63h0a2.64,2.64,0,0,1,.84,3.68l-5.64,8.79a2.28,2.28,0,0,1-2.77.87l-.22-.1a4.7,4.7,0,0,1-2.12-1.72h0A2.27,2.27,0,0,1,389.25,471.94Z" transform="translate(0 -1.7)"/><path class="cls-6" d="M394.31,475.38l5.22-7.89a2.42,2.42,0,0,1,3.13-.81h0a2.41,2.41,0,0,1,1,3.3l-4.54,8.34a2.07,2.07,0,0,1-2.46,1l-.21-.07a4.3,4.3,0,0,1-2-1.43h0A2,2,0,0,1,394.31,475.38Z" transform="translate(0 -1.7)"/><polygon class="cls-6" points="299.32 690.78 294.2 706.43 296.76 750.78 301.17 755.19 278.97 755.19 266.97 701.22 269.99 698.3 274.6 682.81 299.32 690.78"/><path class="cls-13" d="M268.45,701.49l10,45.68a9.8,9.8,0,0,0,9.58,7.72h11.15l15,14.32v1.33H297.2a32,32,0,0,1-30.68-22.94l-5.68-19.32-8.18,22a2.42,2.42,0,0,1-2.27,1.57h0a2.41,2.41,0,0,1-2.32-3.05l7-25.12V720a12.48,12.48,0,0,1,3.69-8.87Z" transform="translate(0 -1.7)"/><polygon class="cls-6" points="345.85 687.76 345.85 709.67 344.18 712.96 365.78 758.19 392.74 758.19 383.98 748.8 370.83 711.24 370.83 687.76 345.85 687.76"/><path class="cls-13" d="M344.56,713.91l19.94,35.86a13.86,13.86,0,0,0,12.12,7.12h4.52a13.89,13.89,0,0,0,6.55-1.64l.47-.26,17.35,11a3.76,3.76,0,0,1,1.75,3.18v.12H374a19.07,19.07,0,0,1-15.07-7.4L342.2,740.17v23.27a2,2,0,0,1-2,2h0a2,2,0,0,1-2-2V740.17l-.83-5.41a19.66,19.66,0,0,1,2.49-12.92Z" transform="translate(0 -1.7)"/><path class="cls-7" d="M574,340.22,566.05,364a59.94,59.94,0,0,0-2.85,17.48l-2,156.33H546.62L547,358.42Z" transform="translate(0 -1.7)"/><polygon class="cls-6" points="546.98 364.43 570.66 348.46 573.97 338.52 546.98 356.72 546.62 536.14 546.63 536.14 546.98 364.43"/><path class="cls-7" d="M546.79,454.87,525,476.49a27.76,27.76,0,0,1-21.51,8l-68.43-5V446.54L502.58,448l35.24-79.12a23.07,23.07,0,0,1,8.1-9.69l1.06-.72Z" transform="translate(0 -1.7)"/><path class="cls-6" d="M439.1,450.6,506.64,452l35.24-79.12a23.25,23.25,0,0,1,5.08-7.23l0-7.24-1.06.72a23.07,23.07,0,0,0-8.1,9.69L502.58,448l-67.53-1.41v32.94l4.05.3Z" transform="translate(0 -1.7)"/><polygon class="cls-6" points="583.56 350.19 568.95 365.01 567.84 356.72 575.7 333.39 583.56 350.19"/><path class="cls-6" d="M561.23,537.84h49.83l2.55-185.94-19.2,16.69L583.56,351.9,569,366.71l-1.11-8.29h0a17.5,17.5,0,0,0-5.11,12.2Z" transform="translate(0 -1.7)"/><polygon class="cls-6" points="583.56 350.19 594.41 366.89 613.61 350.19 619.87 327.86 615.7 323.69 583.56 350.19"/><path class="cls-7" d="M508.22,600l10,113.88H475.66L454.85,601.12A39.6,39.6,0,0,1,483,555.83l63.61-18h32.66v62.4Z" transform="translate(0 -1.7)"/><path class="cls-7" d="M673.51,555.22h0A44.82,44.82,0,0,1,628.69,600H595.87V713.91h-41L536.3,585.13a46.23,46.23,0,0,1,24.93-47.29H673.51Z" transform="translate(0 -1.7)"/><path class="cls-6" d="M565.44,537.84h-4.21a46.23,46.23,0,0,0-24.93,47.29l18.6,128.78h4.21l-18.6-128.78A46.23,46.23,0,0,1,565.44,537.84Z" transform="translate(0 -1.7)"/><path class="cls-7" d="M619.87,329.57l-19.82,67.66a103.44,103.44,0,0,0-4.18,29.09V477.5a120.47,120.47,0,0,0,9.53,47l22.4,52.93,56.66-21.91L667.25,511,661,364.83l-30.26-20.24Z" transform="translate(0 -1.7)"/><polygon class="cls-6" points="603.25 517.36 661.27 472.7 663.49 494.92 603.25 517.36"/><polygon class="cls-6" points="610.27 551.27 670.46 517.62 672.7 523.41 610.27 551.27"/><path class="cls-6" d="M572.71,542.23l-16.78,8.69a3.05,3.05,0,0,0-1.06,4.51h0a3,3,0,0,0,3.89.9l5.75-3a14.46,14.46,0,0,1,6.79-1.68h2.43a14.72,14.72,0,0,1,1.49.07l11.25,1.16a22.58,22.58,0,0,0,2.33.12h0a22.71,22.71,0,0,0,16.21-6.8l.42-.43-11.94-18H567a13.68,13.68,0,0,0-10.3,4.67L543.09,548a2.69,2.69,0,0,0,0,3.52l3.06,3.57a2.69,2.69,0,0,0,3.65.4l5.91-4.42" transform="translate(0 -1.7)"/><path class="cls-6" d="M544.06,552.66l12.6-13.18a10.11,10.11,0,0,1,5-2.85l4.77-1.13" transform="translate(0 -1.7)"/><path class="cls-6" d="M546.62,555.22,559.22,542a10.1,10.1,0,0,1,5-2.85l4.76-1.14" transform="translate(0 -1.7)"/><rect class="cls-6" x="559.78" y="712.21" width="32.03" height="27.2"/><polygon class="cls-6" points="479.92 712.21 511.95 712.21 513.38 739.41 481.35 739.41 479.92 712.21"/><path class="cls-7" d="M512.51,733.13l-.95,1a10.93,10.93,0,0,1-7.73,3.2h0a10.94,10.94,0,0,1-5.68-1.59L490,730.75a9.4,9.4,0,0,0-4.9-1.38h0a9.45,9.45,0,0,0-8,4.38l-6.11,9.65a28.19,28.19,0,0,1-10.92,10L447,760.13a8.7,8.7,0,0,0-4.72,7.73v1.58h45.31a16.55,16.55,0,0,0,9.3-2.85l6-4v3.28h13.93V735.63Z" transform="translate(0 -1.7)"/><line class="cls-6" x1="583.56" y1="350.19" x2="583.56" y2="526.01"/><polygon class="cls-6" points="575.7 333.39 575.7 298.33 615.28 298.33 615.28 323.69 583.56 350.41 575.7 333.39"/><path class="cls-6" d="M590.31,262.06h-39l-1.46,21.08h0l-6.73,14.93a2.86,2.86,0,0,0,2.61,4h2.8l-.25,3.5a5.68,5.68,0,0,0,1.18,3.87l.92,1.2v2.92a2.09,2.09,0,0,0,2.08,2.09h0v5.82a8.06,8.06,0,0,0,8.07,8.06h1a28,28,0,0,0,19.81-8.21L588,314.7a9.82,9.82,0,0,0,2.87-6.94h3.37a6.37,6.37,0,0,0,5.39-3l3.68-5.84a6.07,6.07,0,0,0,1-3.26v-4.8a6.06,6.06,0,0,0-1.79-4.32,6.11,6.11,0,0,0-9.2.66l-3.33,4.44" transform="translate(0 -1.7)"/><path class="cls-6" d="M550.38,310.94h7.81a5.06,5.06,0,0,0,3.58-1.48l1.21-1.21" transform="translate(0 -1.7)"/><path class="cls-6" d="M552,279.16a1.35,1.35,0,0,0,1.62.72l1.07-.34a8.32,8.32,0,0,1,7,.92l3.8,2.44" transform="translate(0 -1.7)"/><circle class="cls-7" cx="557.09" cy="285.3" r="2.22"/><path class="cls-6" d="M595.87,616.52h0A28.75,28.75,0,0,0,620.28,603l18.73-30a93.14,93.14,0,0,1,54-40.46l5-1.48c20-5.89,34.4-23.77,35.07-44.6,0-.56,0-1.11,0-1.67a51,51,0,0,0-51-51h0a56.17,56.17,0,0,1,55,67.81L724.77,559.7a83.47,83.47,0,0,1-81.65,66.18H595.87Z" transform="translate(0 -1.7)"/><path class="cls-6" d="M268.13,616.52h0A28.75,28.75,0,0,1,243.72,603l-18.73-30a93.14,93.14,0,0,0-54.05-40.46l-5-1.48c-20-5.89-34.4-23.77-35.07-44.6,0-.56,0-1.11,0-1.67a51,51,0,0,1,51-51h0a56.17,56.17,0,0,0-55,67.81l12.32,58.19a83.47,83.47,0,0,0,81.65,66.18h47.25Z" transform="translate(0 -1.7)"/><path class="cls-7" d="M661,364.83l8.38,4.89a28.9,28.9,0,0,1,14.27,22.75l7.88,102.14h0a27.7,27.7,0,0,1-14,20.75L610.27,553l-17.84-26.92,61-39.44-6.89-89.84" transform="translate(0 -1.7)"/><path class="cls-13" d="M206.56,413.77l69.69,57.53a13.59,13.59,0,0,0,8.64,3.1h28V443.25l-19.64-2.35L210.4,374.64" transform="translate(0 -1.7)"/><path class="cls-12" d="M293.24,440.9l-82.65-60.14a3.88,3.88,0,0,1-.19-6.12h0Z" transform="translate(0 -1.7)"/><path class="cls-7" d="M605.48,237.35H559.62a16.5,16.5,0,0,0-16.5,16.5h0a8.21,8.21,0,0,0,8.21,8.2h24.54a4,4,0,0,1,3.84,4.85l-3.31,14.17a1.69,1.69,0,0,0,1.64,2.06h0a8,8,0,0,1,8.05,8.05v7.92l7.26-11.57a5.92,5.92,0,0,1,5-2.76h0a5.9,5.9,0,0,1,5.9,5.9v5.08a5.92,5.92,0,0,1-.91,3.14L601,302.64l14.3,18.11v-10.7s22.75-33.7,5.84-56.87a11.36,11.36,0,0,0,0-1.73A15.57,15.57,0,0,0,605.48,237.35Z" transform="translate(0 -1.7)"/><path class="cls-6" d="M566.18,262.05c-9.83-5.29-9.95-17.58-9.95-17.58-6.45,9.94,2,17.58,2,17.58Z" transform="translate(0 -1.7)"/><path class="cls-6" d="M576.59,262.05c-9.83-5.29-10-17.58-10-17.58-6.46,9.94,2,17.58,2,17.58Z" transform="translate(0 -1.7)"/><path class="cls-6" d="M549.15,253.85a16.5,16.5,0,0,1,16.5-16.5h-6a16.5,16.5,0,0,0-16.5,16.5,8.21,8.21,0,0,0,8.21,8.2h6A8.2,8.2,0,0,1,549.15,253.85Z" transform="translate(0 -1.7)"/><path class="cls-6" d="M592,289.73a8.06,8.06,0,0,0-7.91-6.6,1.68,1.68,0,0,1-1.64-2.06l3.31-14.17a4,4,0,0,0-3.85-4.85h-6a4,4,0,0,1,3.84,4.85l-3.31,14.17a1.69,1.69,0,0,0,1.64,2.06h0a8,8,0,0,1,8.05,8.05v7.92Z" transform="translate(0 -1.7)"/><path class="cls-6" d="M272.5,264h7.08a13.67,13.67,0,0,1,13.66,13.66v23.45a30.41,30.41,0,0,1-2,10.88l-4.18,11h0a11.94,11.94,0,0,1-11.42,8.45h0a26.62,26.62,0,0,1-21.8-11.35l-7.24-10.33h-2.17a8.33,8.33,0,0,1-6.34-2.94l-2-2.3a12.31,12.31,0,0,1-2.92-8v-2.79a5.68,5.68,0,0,1,5.68-5.68h0a5.67,5.67,0,0,1,4.89,2.79l4.07,6.88v-9A24.65,24.65,0,0,1,272.5,264Z" transform="translate(0 -1.7)"/><path class="cls-7" d="M266.54,264a18.69,18.69,0,0,0-18.69,18.7v15s-.08-8.65,10.14-12.62c6.36-2.46,10.9-10,13.42-15.35a10,10,0,0,1,9-5.73H266.54Z" transform="translate(0 -1.7)"/><path class="cls-12" d="M270.6,268.59c-3.26,4.94-8.83,11.75-15.47,13.29l-.09,0a9.46,9.46,0,0,0-7.19,9.25v6.58s-.08-8.65,10.14-12.62c6.36-2.46,10.9-10,13.42-15.35a10,10,0,0,1,7.8-5.65A10,10,0,0,0,270.6,268.59Z" transform="translate(0 -1.7)"/><path class="cls-5" d="M270.6,268.59c-3.26,4.94-8.83,11.75-15.47,13.29l-.09,0a9.46,9.46,0,0,0-7.19,9.25v6.58s-.08-8.65,10.14-12.62c6.36-2.46,10.9-10,13.42-15.35a10,10,0,0,1,7.8-5.65A10,10,0,0,0,270.6,268.59Z" transform="translate(0 -1.7)"/><path class="cls-12" d="M279.49,264.08c.31,0,.62-.05.94-.05h-1.28Z" transform="translate(0 -1.7)"/><path class="cls-5" d="M279.49,264.08c.31,0,.62-.05.94-.05h-1.28Z" transform="translate(0 -1.7)"/><path class="cls-6" d="M272.89,313.34s4.15,3.83,12.83,2.43" transform="translate(0 -1.7)"/><path class="cls-6" d="M285.72,289.08l5.58,14.16a2.93,2.93,0,0,1-1.22,3.6l-2.66,1.59a2.9,2.9,0,0,1-3.26-.2l-1.07-.84" transform="translate(0 -1.7)"/><path class="cls-6" d="M281.37,286l-1.57-.5a12.33,12.33,0,0,0-7.69.09l-7.44,2.55" transform="translate(0 -1.7)"/><line class="cls-6" x1="287.99" y1="284.83" x2="293.24" y2="282.89"/><ellipse class="cls-7" cx="275.65" cy="289.25" rx="1.75" ry="2.24"/><ellipse class="cls-7" cx="290.61" cy="289.25" rx="1.75" ry="2.24"/><rect class="cls-6" x="286.79" y="515.49" width="271.93" height="10.52"/><rect class="cls-6" x="282.54" y="488.14" width="280.43" height="29.22"/><path class="cls-7" d="M591.65,733.13l-.95,1a10.93,10.93,0,0,1-7.73,3.2h0a10.94,10.94,0,0,1-5.68-1.59l-8.12-4.94a9.4,9.4,0,0,0-4.9-1.38h0a9.45,9.45,0,0,0-8,4.38l-6.11,9.65a28.19,28.19,0,0,1-10.92,10l-13.19,6.75a8.7,8.7,0,0,0-4.72,7.73v1.58h45.31a16.6,16.6,0,0,0,9.3-2.85l6-4v3.28h13.93V735.63Z" transform="translate(0 -1.7)"/><path class="cls-5" d="M432,120.52h0a38,38,0,0,1,38,38v0a0,0,0,0,1,0,0H394a0,0,0,0,1,0,0v0A38,38,0,0,1,432,120.52Z"/><path class="cls-5" d="M444.83,160.26a12.83,12.83,0,1,1-25.66,0" transform="translate(0 -1.7)"/><line class="cls-5" x1="432" y1="120.52" x2="432" y2="65.32"/><path class="cls-5" d="M206.56,413.77l69.69,57.53a13.59,13.59,0,0,0,8.64,3.1h28V443.25l-19.64-2.35L210.4,374.64" transform="translate(0 -1.7)"/><circle class="cls-14" cx="338.94" cy="194.96" r="32.4"/><path class="cls-15" d="M334.21,209.08a3,3,0,0,1-1.95-.73l-9.46-8.28a3,3,0,0,1,3.9-4.45l7.37,6.46,17-17a3,3,0,0,1,4.17,4.18L336.3,208.21A2.94,2.94,0,0,1,334.21,209.08Z" transform="translate(0 -1.7)"/><circle class="cls-14" cx="496.43" cy="217.86" r="32.4"/><path class="cls-15" d="M484.48,233.52h-.05l-4.69-.08a2.36,2.36,0,0,1,.05-4.71h0l3.4.06,8.3-12.44a2.35,2.35,0,0,1,3.62-.36l5.89,5.89,8.53-12.33a2.36,2.36,0,0,1,3.88,2.68l-10.14,14.65a2.36,2.36,0,0,1-1.73,1,2.3,2.3,0,0,1-1.87-.68l-5.86-5.85-7.41,11.13A2.37,2.37,0,0,1,484.48,233.52Z" transform="translate(0 -1.7)"/><path class="cls-15" d="M513.46,205.73l-6.72,3a1.4,1.4,0,0,0-.25,2.41l6,4.32a1.41,1.41,0,0,0,2.22-1l.75-7.33A1.4,1.4,0,0,0,513.46,205.73Z" transform="translate(0 -1.7)"/><rect class="cls-14" x="386.69" y="259.17" width="58.01" height="73.78" rx="8.26"/><rect class="cls-14" x="399.08" y="254.05" width="33.23" height="10.23" rx="2.72"/><rect class="cls-16" x="408.78" y="272.68" width="28.7" height="4.92" rx="2.46"/><path class="cls-15" d="M398.07,280.9a1,1,0,0,1-.64-.24l-3.09-2.7a1,1,0,0,1,1.27-1.46l2.41,2.11,5.55-5.55a1,1,0,0,1,1.37,0,1,1,0,0,1,0,1.37l-6.19,6.19A.94.94,0,0,1,398.07,280.9Z" transform="translate(0 -1.7)"/><rect class="cls-16" x="408.78" y="287.6" width="28.7" height="4.92" rx="2.46"/><path class="cls-15" d="M398.07,295.82a1,1,0,0,1-.64-.24l-3.09-2.71a1,1,0,1,1,1.27-1.45l2.41,2.11,5.55-5.55a1,1,0,0,1,1.37,1.37l-6.19,6.19A1,1,0,0,1,398.07,295.82Z" transform="translate(0 -1.7)"/><rect class="cls-16" x="408.78" y="302.51" width="28.7" height="4.92" rx="2.46"/><path class="cls-15" d="M398.07,310.74a1,1,0,0,1-.64-.24l-3.09-2.71a1,1,0,1,1,1.27-1.45l2.41,2.11,5.55-5.55a1,1,0,0,1,1.37,1.37l-6.19,6.18A1,1,0,0,1,398.07,310.74Z" transform="translate(0 -1.7)"/><rect class="cls-16" x="408.78" y="317.43" width="28.7" height="4.92" rx="2.46"/><path class="cls-15" d="M398.07,325.66a1,1,0,0,1-.64-.24l-3.09-2.71a1,1,0,0,1,1.27-1.46l2.41,2.12,5.55-5.55a1,1,0,0,1,1.37,1.37l-6.19,6.18A1,1,0,0,1,398.07,325.66Z" transform="translate(0 -1.7)"/></g></g></g></svg>