<svg xmlns="http://www.w3.org/2000/svg" viewBox="0 0 729.68 704.51"><defs><style>.cls-1{fill:none;}.cls-1,.cls-10,.cls-11,.cls-12,.cls-2,.cls-3,.cls-7,.cls-9{stroke:#041323;stroke-linecap:round;stroke-linejoin:round;}.cls-10,.cls-2,.cls-8{fill:#fff;}.cls-3{fill:#041323;}.cls-4{fill:#71b5ff;}.cls-5{fill:#e4eaf9;}.cls-11,.cls-6,.cls-9{fill:#4a90ee;}.cls-12,.cls-7{fill:#f6f8fd;}.cls-10,.cls-11,.cls-12{stroke-width:0.8px;}</style></defs><g id="Layer_2" data-name="Layer 2"><g id="Layer_2-2" data-name="Layer 2"><rect class="cls-1" x="0.5" y="136.61" width="184.99" height="13.71"/><rect class="cls-1" x="0.5" y="150.32" width="184.99" height="13.71"/><rect class="cls-1" x="0.5" y="164.03" width="184.99" height="13.71"/><rect class="cls-1" x="0.5" y="177.74" width="184.99" height="13.71"/><rect class="cls-1" x="0.5" y="191.45" width="184.99" height="13.71"/><rect class="cls-1" x="0.5" y="205.15" width="184.99" height="13.71"/><rect class="cls-1" x="0.5" y="218.86" width="184.99" height="13.71"/><polygon class="cls-1" points="0.5 232.57 0.5 246.28 0.5 259.99 0.5 273.7 0.5 287.41 0.5 301.12 0.5 314.83 0.5 328.54 0.5 342.25 185.49 342.25 185.49 328.54 185.49 314.83 185.49 301.12 185.49 287.41 185.49 273.7 185.49 259.99 185.49 246.28 185.49 232.57 0.5 232.57"/><line class="cls-2" x1="167.52" y1="232.57" x2="167.52" y2="304.53"/><rect class="cls-2" x="630.19" y="314.6" width="21.32" height="179.22"/><rect class="cls-3" x="630.19" y="312.72" width="21.32" height="4.79"/><polygon class="cls-2" points="711.15 257.64 729.18 239.6 711.15 151.23 711.15 257.64"/><rect class="cls-3" x="587.9" y="151.23" width="123.25" height="163.37"/><polygon class="cls-2" points="579.59 314.6 699.58 314.6 711.15 151.23 585.73 151.23 579.59 314.6"/><circle class="cls-2" cx="658.21" cy="266.33" r="9.4"/><path class="cls-4" d="M658.54,253.25v7.93a5.48,5.48,0,1,1,0,11v7.93a13.41,13.41,0,1,0,0-26.82Z"/><path class="cls-5" d="M658.54,252.58h.67v9.26h-.67a4.82,4.82,0,0,0-4.81,4.82v.19l0,.68H644.5l0-.63v-.24A14.09,14.09,0,0,1,658.54,252.58Z"/><circle class="cls-2" cx="623.48" cy="266.32" r="9.4"/><path class="cls-5" d="M623.81,252.58A13.4,13.4,0,0,0,610.41,266h7.92a5.49,5.49,0,0,1,5.48-5.48,5.43,5.43,0,0,1,4,1.72l5.61-5.61A13.35,13.35,0,0,0,623.81,252.58Z"/><path class="cls-4" d="M609.74,266v-.66H619V266a4.82,4.82,0,0,0,4.82,4.82h.87V280l-.63,0h-.24A14.09,14.09,0,0,1,609.74,266Z"/><path class="cls-5" d="M658.48,238c-2.18,0-4-3-6.71-8-1.28-2.32-3.41-6.16-4.39-6.53-.65.37-1.82,2.84-2.53,4.33-1.6,3.38-3.12,6.58-5.51,6.58-2,0-3.43-1.71-4.86-3.36a14.32,14.32,0,0,0-1.84-1.92c-.53-.41-.53-.41-1.18-.19a10.33,10.33,0,0,1-3.75.62c-2.12,0-3.58-2.39-5.12-4.93-1-1.55-2.38-3.9-3.24-3.9s-2.27,2.41-3.25,4c-1.84,3-3.75,6.1-6.57,6.1s-5.3-2.86-7.7-5.62c-1.31-1.53-3.12-3.61-3.93-3.61a1.2,1.2,0,0,1,0-2.4c1.91,0,3.69,2.06,5.75,4.44,1.85,2.14,4.15,4.79,5.88,4.79,1.48,0,3.17-2.75,4.53-5,1.69-2.76,3.16-5.15,5.29-5.15s3.71,2.46,5.29,5.06c.86,1.41,2.3,3.77,3.07,3.77a8,8,0,0,0,3-.49,3.06,3.06,0,0,1,3.44.57,16.6,16.6,0,0,1,2.18,2.24c1,1.13,2.18,2.53,3,2.53s2.54-3.52,3.34-5.21c1.52-3.19,2.72-5.72,4.67-5.72,2.11,0,3.85,3,6.52,7.79,1.27,2.3,3.63,6.57,4.63,6.75.9,0,2.81-2.09,4.2-3.61,2.25-2.47,4.58-5,7-5l1.09,0c2.34.07,3.51.11,5.75-3.9.64-1.15,1.19-2.24,1.68-3.2,1.64-3.24,2.82-5.58,5.31-5.58,1.61,0,2.88,1.34,4.11,2.64.89.94,1.91,2,2.63,2,1.27,0,3.83-3.38,5.42-6.53a1.2,1.2,0,1,1,2.14,1.08c-.66,1.31-4.13,7.85-7.56,7.85-1.75,0-3.14-1.47-4.37-2.77-.8-.84-1.79-1.89-2.37-1.89-1,0-1.79,1.54-3.17,4.27-.5,1-1.06,2.08-1.73,3.28-2.75,4.92-4.81,5.22-7.91,5.13l-1,0c-1.4,0-3.55,2.35-5.27,4.24C662.32,236,660.46,238,658.48,238Z"/><rect class="cls-6" x="597.45" y="170.72" width="63.25" height="4.71"/><rect class="cls-5" x="597.45" y="181.99" width="103.39" height="2.35"/><rect class="cls-5" x="597.45" y="189.45" width="47.92" height="2.35"/><rect class="cls-2" x="309.96" y="461.19" width="46.9" height="199.8"/><rect class="cls-3" x="309.96" y="461.19" width="46.9" height="21.81"/><path class="cls-2" d="M290.08,640.75h86.66a22.09,22.09,0,0,1,22.09,22.09v0a0,0,0,0,1,0,0H268a0,0,0,0,1,0,0v0A22.09,22.09,0,0,1,290.08,640.75Z"/><path class="cls-2" d="M178.78,559.35h49.33A64.31,64.31,0,0,0,292.42,495h0a10.36,10.36,0,0,0-5.66-9.23l-78.25-30"/><polygon class="cls-3" points="159.42 647.74 159.42 584.43 147.57 584.43 147.57 575.31 133.98 575.31 133.98 559.35 167.96 559.35 201.95 559.35 201.95 575.31 188.35 575.31 188.35 584.43 176.5 584.43 176.5 647.74 277.68 673.77 277.68 680.18 167.96 660.95 58.24 680.18 58.24 673.77 159.42 647.74"/><rect class="cls-2" x="199.96" y="559.35" width="5.01" height="15.96"/><rect class="cls-2" x="186.37" y="575.31" width="5.01" height="9.13"/><polygon class="cls-2" points="275.7 675.75 174.52 649.73 174.52 584.43 179.53 584.43 179.53 647.74 280.71 673.77 280.71 680.18 275.7 679.64 275.7 675.75"/><polygon class="cls-2" points="167.96 660.95 169.47 661.22 61.27 680.18 61.27 679.64 167.96 660.95"/><circle class="cls-3" cx="275.34" cy="687.04" r="8.54"/><circle class="cls-3" cx="233.09" cy="651.37" r="7.1"/><circle class="cls-3" cx="66.78" cy="687.04" r="8.54"/><polygon class="cls-3" points="179.53 644.44 237.02 640.75 237.02 645.41 199.24 652.81 179.53 647.74 179.53 644.44"/><circle class="cls-3" cx="108.9" cy="651.37" r="7.1"/><polygon class="cls-3" points="162.46 644.44 104.98 640.75 104.98 645.41 142.75 652.81 162.46 647.74 162.46 644.44"/><path class="cls-7" d="M178.78,550H222.2c34.77,0,63.71-27.51,64.54-62.26,0-.64,0-1.28,0-1.93l-78.25-30V367.18h-118A50.78,50.78,0,0,0,41,406.51L38.8,416.1a73,73,0,0,0,18.65,45.17l53.06,59A79.88,79.88,0,0,0,172.7,550Z"/><path class="cls-3" d="M106.57,308.12c-13-25.62,13.45-44,22.63-58.23s-4.38-38.82,13.57-63.23c18.8-25.58,73.72-12.83,69.08,31.93-4.8,46.3,9,75.13-11.27,75.13"/><path class="cls-8" d="M147.91,185c19-18.43,58.36-6.39,63.92,23.28-4.11-36.23-51.8-45-69.06-21.57a50.85,50.85,0,0,0-9.71,26.47C135.07,203.74,138.72,193.86,147.91,185Z"/><path class="cls-1" d="M147.91,185c19-18.43,58.36-6.39,63.92,23.28-4.11-36.23-51.8-45-69.06-21.57a50.85,50.85,0,0,0-9.71,26.47C135.07,203.74,138.72,193.86,147.91,185Z"/><path class="cls-8" d="M211.23,226c-.16.65-.36,1.29-.5,1.95-6,27,8.42,59.76-11.82,66.06l1.67-.25C219.72,293.72,208.45,267.93,211.23,226Z"/><path class="cls-1" d="M211.23,226c-.16.65-.36,1.29-.5,1.95-6,27,8.42,59.76-11.82,66.06l1.67-.25C219.72,293.72,208.45,267.93,211.23,226Z"/><path class="cls-2" d="M142.77,192.61c17.6-24,66.84-14.3,69.26,23.74,2.61-42.94-50.78-54.84-69.26-29.69-9.87,13.43-10.21,26.92-10,38.71C132.93,215.09,134.52,203.83,142.77,192.61Z"/><path class="cls-2" d="M129.2,255.84c3.62-5.58,3.71-12.77,3.58-20.93-.14,5.72-.87,10.8-3.58,15-7.81,12.08-28.16,27.22-26,47.25C105,280,122.18,266.69,129.2,255.84Z"/><path class="cls-2" d="M506.53,559.35H457.2A64.31,64.31,0,0,1,392.89,495h0a10.36,10.36,0,0,1,5.66-9.23l59.08-30"/><polygon class="cls-3" points="525.89 647.74 525.89 584.43 537.74 584.43 537.74 575.31 551.34 575.31 551.34 559.35 517.35 559.35 483.37 559.35 483.37 575.31 496.96 575.31 496.96 584.43 508.81 584.43 508.81 647.74 407.63 673.77 407.63 680.18 517.35 660.95 627.07 680.18 627.07 673.77 525.89 647.74"/><rect class="cls-2" x="480.34" y="559.35" width="5.01" height="15.96"/><rect class="cls-2" x="493.93" y="575.31" width="5.01" height="9.13"/><polygon class="cls-2" points="409.61 675.75 510.79 649.73 510.79 584.43 505.78 584.43 505.78 647.74 404.6 673.77 404.6 680.18 409.61 679.64 409.61 675.75"/><polygon class="cls-2" points="517.35 660.95 515.84 661.22 624.04 680.18 624.04 679.64 517.35 660.95"/><circle class="cls-3" cx="409.97" cy="687.04" r="8.54"/><circle class="cls-3" cx="452.22" cy="651.37" r="7.1"/><circle class="cls-3" cx="618.53" cy="687.04" r="8.54"/><polygon class="cls-3" points="505.78 644.44 448.29 640.75 448.29 645.41 486.07 652.81 505.78 647.74 505.78 644.44"/><circle class="cls-3" cx="576.41" cy="651.37" r="7.1"/><polygon class="cls-3" points="522.85 644.44 580.33 640.75 580.33 645.41 542.56 652.81 522.85 647.74 522.85 644.44"/><path class="cls-7" d="M506.53,550H463.11c-34.76,0-63.7-27.51-64.54-62.26,0-.64,0-1.28,0-1.93l33.5-17a46.79,46.79,0,0,0,25.58-41.72V367.18H594.82a50.78,50.78,0,0,1,49.47,39.33l2.22,9.59a73,73,0,0,1-18.65,45.17l-53.05,59A79.92,79.92,0,0,1,512.61,550Z"/><path class="cls-9" d="M199.46,298.9h0a29.7,29.7,0,0,1,11.92,20.81l9.09,87,22.06,5.14v20.21H193.2"/><path class="cls-2" d="M242.53,414.76l14.79,1.13A34.68,34.68,0,0,1,275,422.36l1.32,1H242.53Z"/><polygon class="cls-2" points="152.86 242.91 152.86 264.89 142.14 279.53 197.45 340.88 197.45 308.12 177 277.65 177 242.91 152.86 242.91"/><path class="cls-9" d="M152.86,264.89l-20.6,18.68-1.07,4.88L114.12,300A25,25,0,0,0,104,326.91l16.89,65.31-6,35.86h89V383.67s11.27-28.18,4.8-54.27-4.83-33-4.83-33L177,271v6.68l15.3,52.28-42.36-42.57a12.92,12.92,0,0,1-1.27-16.75Z"/><path class="cls-8" d="M111.39,326.91A25,25,0,0,1,121.54,300l17.07-11.57,1.07-4.88,6.52-5.91a12.89,12.89,0,0,1,2.47-7.05l4.19-5.72-20.6,18.68-1.07,4.88L114.12,300A25,25,0,0,0,104,326.91l16.89,65.31-6,35.86h7.42l6-35.86Z"/><path class="cls-1" d="M152.86,264.89l-20.6,18.68-1.07,4.88L114.12,300A25,25,0,0,0,104,326.91l16.89,65.31-6,35.86h89V383.67s11.27-28.18,4.8-54.27-4.83-33-4.83-33L177,271v6.68l15.3,52.28-42.36-42.57a12.92,12.92,0,0,1-1.27-16.75Z"/><polyline class="cls-1" points="200.5 348.6 200.5 371.02 184.09 428.08"/><polyline class="cls-1" points="132.96 286.2 136.09 317.72 150.91 304.15 195.78 343.8"/><path class="cls-1" d="M197.45,308.12s-2.56-11.69,6.44-11.69"/><path class="cls-3" d="M114.91,428.08l-10.46,25.25a55.82,55.82,0,0,0-4.25,21.38h0a55.87,55.87,0,0,0,55.87,55.88h53.38l-25.36,87L213.2,627l34.13-68.24,6.57,64.17h31.93L294,511.67a33.63,33.63,0,0,0-22.62-34.27l-68-23.4V428.08Z"/><polygon class="cls-2" points="254.84 544.47 247.33 558.76 253.9 622.93 262.34 622.93 254.84 544.47"/><path class="cls-2" d="M185.76,465.27l5.33-3.24,61.83,16.85a25,25,0,0,1,17.25,31.63l-3.43,10.89,1.59-9.21a25,25,0,0,0-17.72-28.28Z"/><path class="cls-2" d="M223.54,405.84l64-10.17,30.09,17.44a4.62,4.62,0,0,0,4.63,0L335,405.79a4.63,4.63,0,0,0,.74-7.51l-26.54-23.21a5.87,5.87,0,0,0-5.12-1.3L289.82,377l-66.28,2"/><line class="cls-2" x1="324.48" y1="411.84" x2="314.79" y2="402.16"/><line class="cls-2" x1="329.81" y1="408.77" x2="318.94" y2="397.86"/><line class="cls-2" x1="334.64" y1="405.67" x2="322.05" y2="393.65"/><path class="cls-2" d="M296.24,383.22l14.91-11.09a5.57,5.57,0,0,1,4.9-.88L345.7,380v23.87h-8.65a5.55,5.55,0,0,0-2.16-6.33L314.79,380l-8.8,4.81a6.71,6.71,0,0,1-6.12.17Z"/><path class="cls-2" d="M295.13,402.46l6.28-7a2.41,2.41,0,0,1,3.21-.35h0a2.4,2.4,0,0,1,.52,3.39l-5.68,7.59a2.07,2.07,0,0,1-2.57.61l-.19-.1a4.3,4.3,0,0,1-1.81-1.7h0A2.05,2.05,0,0,1,295.13,402.46Z"/><path class="cls-2" d="M290.94,398.27l6.28-7a2.42,2.42,0,0,1,3.21-.35h0a2.42,2.42,0,0,1,.52,3.4l-5.68,7.59a2.08,2.08,0,0,1-2.57.61l-.2-.1a4.34,4.34,0,0,1-1.8-1.7h0A2.05,2.05,0,0,1,290.94,398.27Z"/><path class="cls-2" d="M299.9,405.42l6.34-8.23a2.65,2.65,0,0,1,3.5-.64h0a2.64,2.64,0,0,1,.83,3.69L304.94,409a2.28,2.28,0,0,1-2.78.87l-.22-.09a4.89,4.89,0,0,1-2.12-1.72h0A2.27,2.27,0,0,1,299.9,405.42Z"/><path class="cls-2" d="M305,408.85l5.22-7.89a2.4,2.4,0,0,1,3.13-.8h0a2.41,2.41,0,0,1,1,3.29l-4.55,8.34a2,2,0,0,1-2.45,1l-.21-.07a4.31,4.31,0,0,1-2-1.42h0A2.07,2.07,0,0,1,305,408.85Z"/><polygon class="cls-2" points="209.97 625.96 204.86 641.61 207.41 685.96 211.82 690.37 189.62 690.37 177.62 636.4 180.65 633.47 185.26 617.99 209.97 625.96"/><path class="cls-9" d="M179.11,635l10,45.68a9.8,9.8,0,0,0,9.58,7.72h11.15l15,14.32V704H207.85a32,32,0,0,1-30.67-22.94l-5.69-19.32-8.18,22a2.41,2.41,0,0,1-2.26,1.57h0a2.42,2.42,0,0,1-2.33-3.06l7-25.12v-3.65a12.5,12.5,0,0,1,3.69-8.87Z"/><polygon class="cls-2" points="256.51 622.93 256.51 644.85 254.84 648.13 276.44 693.37 303.4 693.37 294.63 683.98 281.48 646.41 281.48 622.93 256.51 622.93"/><path class="cls-9" d="M255.22,647.39l19.93,35.85a13.88,13.88,0,0,0,12.12,7.13h4.52a13.84,13.84,0,0,0,6.55-1.65l.48-.25,17.35,11a3.76,3.76,0,0,1,1.75,3.18v.12H284.7a19,19,0,0,1-15.07-7.4l-16.77-21.71v23.27a2,2,0,0,1-2,2h0a2,2,0,0,1-2-2V673.65l-.82-5.41a19.63,19.63,0,0,1,2.48-12.92Z"/><path class="cls-3" d="M484.63,273.7l-7.93,23.8A59.71,59.71,0,0,0,473.86,315l-2,156.33H457.27l.36-179.42Z"/><polygon class="cls-2" points="457.63 299.6 481.32 283.63 484.63 273.7 457.63 291.9 457.27 471.32 457.29 471.32 457.63 299.6"/><path class="cls-3" d="M457.44,388.34,435.64,410a27.66,27.66,0,0,1-21.5,8l-68.44-5V380l67.54,1.41,35.24-79.12a23.06,23.06,0,0,1,8.1-9.69l1.05-.71Z"/><path class="cls-2" d="M349.76,384.07l67.54,1.41,35.24-79.12a22.93,22.93,0,0,1,5.08-7.22V291.9l-1.05.71a23.06,23.06,0,0,0-8.1,9.69l-35.24,79.12L345.7,380V413l4.06.29Z"/><polygon class="cls-2" points="494.21 285.37 479.61 300.19 478.5 291.9 486.36 268.57 494.21 285.37"/><path class="cls-2" d="M471.88,471.32h49.84l2.55-185.95-19.2,16.7-10.86-16.7L479.6,300.19l-1.1-8.29h0a17.47,17.47,0,0,0-5.12,12.2Z"/><polygon class="cls-2" points="494.21 285.37 505.07 302.06 524.27 285.37 530.53 263.04 526.35 258.87 494.21 285.37"/><path class="cls-3" d="M418.87,533.51l10,113.88H386.32L365.5,534.6a39.6,39.6,0,0,1,28.17-45.29l63.6-18h32.67v62.4Z"/><path class="cls-3" d="M584.16,488.69h0a44.82,44.82,0,0,1-44.82,44.82H506.53V647.39h-41L447,518.61a46.23,46.23,0,0,1,24.93-47.29H584.16Z"/><path class="cls-2" d="M476.09,471.32h-4.21A46.23,46.23,0,0,0,447,518.61l18.6,128.78h4.21l-18.6-128.78A46.23,46.23,0,0,1,476.09,471.32Z"/><path class="cls-3" d="M530.53,263,510.7,330.7a103.45,103.45,0,0,0-4.17,29.1V411a120.49,120.49,0,0,0,9.53,47l22.4,52.93L595.12,489,577.9,444.5l-6.26-146.19-30.26-20.24Z"/><polygon class="cls-2" points="513.9 452.54 571.93 407.88 574.14 430.1 513.9 452.54"/><polygon class="cls-2" points="520.93 486.45 581.12 452.8 583.36 458.59 520.93 486.45"/><path class="cls-2" d="M483.36,475.7l-16.77,8.69a3,3,0,0,0-1.06,4.51h0a3.06,3.06,0,0,0,3.89.91l5.75-3a14.57,14.57,0,0,1,6.78-1.68h2.44a14.87,14.87,0,0,1,1.49.08l11.24,1.16a22.73,22.73,0,0,0,2.33.12h.05a22.68,22.68,0,0,0,16.21-6.81l.42-.43-11.94-18H477.67a13.67,13.67,0,0,0-10.29,4.67l-13.63,15.6a2.69,2.69,0,0,0,0,3.52l3,3.57a2.7,2.7,0,0,0,3.66.41l5.9-4.42"/><path class="cls-2" d="M454.71,486.13,467.32,473a10.14,10.14,0,0,1,5-2.85l4.77-1.13"/><path class="cls-2" d="M457.27,488.69l12.61-13.18a10.07,10.07,0,0,1,5-2.85l4.77-1.13"/><rect class="cls-2" x="470.43" y="647.39" width="32.03" height="27.2"/><polygon class="cls-2" points="390.58 647.39 422.61 647.39 424.03 674.59 392 674.59 390.58 647.39"/><path class="cls-3" d="M423.16,666.6l-.94.95a10.93,10.93,0,0,1-7.73,3.2h0a10.92,10.92,0,0,1-5.68-1.59l-8.12-4.94a9.41,9.41,0,0,0-4.9-1.37h0a9.42,9.42,0,0,0-8,4.38l-6.11,9.65a28.13,28.13,0,0,1-10.93,10l-13.18,6.76a8.69,8.69,0,0,0-4.73,7.73v1.58H398.2a16.68,16.68,0,0,0,9.3-2.85l6-4v3.29h13.93V669.11Z"/><line class="cls-2" x1="494.21" y1="285.37" x2="494.21" y2="461.19"/><polygon class="cls-2" points="486.36 268.57 486.36 233.51 525.93 233.51 525.93 258.87 494.21 285.59 486.36 268.57"/><path class="cls-2" d="M501,195.53H462l-1.47,21.08h0l-6.73,14.92a2.88,2.88,0,0,0,2.62,4.05h2.79l-.24,3.49a5.71,5.71,0,0,0,1.17,3.88l.92,1.19v2.92a2.09,2.09,0,0,0,2.09,2.09h0V255a8.06,8.06,0,0,0,8.06,8.06h1A28,28,0,0,0,492,254.83l6.66-6.66a9.8,9.8,0,0,0,2.87-6.94h3.37a6.36,6.36,0,0,0,5.39-3l3.68-5.83a6.1,6.1,0,0,0,.94-3.27v-4.8a6.11,6.11,0,0,0-11-3.66l-3.33,4.45"/><path class="cls-2" d="M461,244.41h7.82a5.06,5.06,0,0,0,3.58-1.48l1.2-1.2"/><path class="cls-2" d="M462.68,212.64a1.32,1.32,0,0,0,1.61.71l1.07-.34a8.31,8.31,0,0,1,7,.92l3.8,2.44"/><circle class="cls-3" cx="467.75" cy="220.48" r="2.22"/><path class="cls-2" d="M506.53,550h0a28.79,28.79,0,0,0,24.41-13.55l18.72-30A93.17,93.17,0,0,1,603.71,466l5-1.48c20-5.89,34.39-23.77,35.06-44.6,0-.55,0-1.11,0-1.67a51,51,0,0,0-51-51h0a56.17,56.17,0,0,1,55,67.81l-12.32,58.19a83.48,83.48,0,0,1-81.66,66.17H506.53Z"/><path class="cls-2" d="M178.78,550h0a28.79,28.79,0,0,1-24.41-13.55l-18.72-30A93.14,93.14,0,0,0,81.6,466l-5-1.48c-20-5.89-34.39-23.77-35.06-44.6,0-.55,0-1.11,0-1.67a51,51,0,0,1,51-51h0A56.17,56.17,0,0,0,37.56,435l12.32,58.19a83.48,83.48,0,0,0,81.66,66.17h47.24Z"/><path class="cls-3" d="M571.64,298.31l8.38,4.88A28.93,28.93,0,0,1,594.28,326l7.88,102.13h0a27.65,27.65,0,0,1-14,20.76l-67.27,37.61-17.85-26.92,61.05-39.45-6.89-89.84"/><path class="cls-9" d="M117.21,347.25l69.7,57.52a13.53,13.53,0,0,0,8.63,3.1h28V376.73l-19.65-2.35-82.83-66.26"/><path class="cls-8" d="M203.89,374.38l-82.64-60.14a3.87,3.87,0,0,1-.19-6.12h0Z"/><path class="cls-3" d="M516.14,170.82H470.28a16.5,16.5,0,0,0-16.5,16.5h0a8.21,8.21,0,0,0,8.2,8.21h24.54a4,4,0,0,1,3.85,4.84l-3.31,14.17a1.67,1.67,0,0,0,1.64,2.06h0a8,8,0,0,1,8,8.05v7.92L504,221a5.9,5.9,0,0,1,5-2.76h0a5.9,5.9,0,0,1,5.9,5.9v5.07a5.84,5.84,0,0,1-.91,3.15l-2.36,3.74,14.31,18.11V243.53s22.74-33.71,5.84-56.87a13.43,13.43,0,0,0,0-1.74A15.59,15.59,0,0,0,516.14,170.82Z"/><path class="cls-2" d="M476.84,195.53c-9.84-5.3-9.95-17.59-9.95-17.59-6.46,9.94,2,17.59,2,17.59Z"/><path class="cls-2" d="M487.25,195.53c-9.84-5.3-9.95-17.59-9.95-17.59-6.46,9.94,2,17.59,2,17.59Z"/><path class="cls-2" d="M459.8,187.32a16.5,16.5,0,0,1,16.5-16.5h-6a16.5,16.5,0,0,0-16.5,16.5,8.21,8.21,0,0,0,8.2,8.21h6A8.22,8.22,0,0,1,459.8,187.32Z"/><path class="cls-2" d="M502.63,223.2a8,8,0,0,0-7.91-6.6,1.67,1.67,0,0,1-1.63-2.06l3.3-14.17a3.94,3.94,0,0,0-3.84-4.84h-6a4,4,0,0,1,3.85,4.84l-3.31,14.17a1.67,1.67,0,0,0,1.64,2.06h0a8,8,0,0,1,8,8.05v7.92Z"/><path class="cls-2" d="M183.15,197.51h7.09a13.65,13.65,0,0,1,13.65,13.66v23.44a30.71,30.71,0,0,1-2,10.89l-4.18,10.94h0a12,12,0,0,1-11.42,8.45h0a26.63,26.63,0,0,1-21.81-11.35l-7.23-10.33h-2.17a8.3,8.3,0,0,1-6.35-2.94l-1.94-2.3a12.27,12.27,0,0,1-2.92-8v-2.79a5.68,5.68,0,0,1,5.68-5.69h0a5.71,5.71,0,0,1,4.89,2.79l4.06,6.88v-9a24.65,24.65,0,0,1,24.65-24.65Z"/><path class="cls-3" d="M177.19,197.51A18.69,18.69,0,0,0,158.5,216.2v15s-.08-8.65,10.15-12.61c6.35-2.47,10.89-10,13.42-15.36a10,10,0,0,1,9-5.72H177.19Z"/><path class="cls-8" d="M181.26,202.06c-3.27,4.94-8.83,11.76-15.47,13.29l-.1,0a9.46,9.46,0,0,0-7.19,9.26v6.57s-.08-8.65,10.15-12.61c6.35-2.47,10.89-10,13.42-15.36a10,10,0,0,1,7.8-5.64A10,10,0,0,0,181.26,202.06Z"/><path class="cls-1" d="M181.26,202.06c-3.27,4.94-8.83,11.76-15.47,13.29l-.1,0a9.46,9.46,0,0,0-7.19,9.26v6.57s-.08-8.65,10.15-12.61c6.35-2.47,10.89-10,13.42-15.36a10,10,0,0,1,7.8-5.64A10,10,0,0,0,181.26,202.06Z"/><path class="cls-8" d="M190.15,197.56c.31,0,.62-.05.93-.05h-1.27Z"/><path class="cls-1" d="M190.15,197.56c.31,0,.62-.05.93-.05h-1.27Z"/><path class="cls-2" d="M183.54,246.81s4.15,3.84,12.84,2.43"/><path class="cls-2" d="M196.38,222.55,202,236.72a2.93,2.93,0,0,1-1.23,3.6l-2.65,1.58a2.9,2.9,0,0,1-3.26-.2l-1.08-.84"/><path class="cls-2" d="M192,219.47l-1.56-.49a12.29,12.29,0,0,0-7.7.08l-7.43,2.55"/><line class="cls-2" x1="198.65" y1="220.01" x2="203.89" y2="218.07"/><ellipse class="cls-3" cx="186.31" cy="224.43" rx="1.75" ry="2.24"/><ellipse class="cls-3" cx="201.27" cy="224.43" rx="1.75" ry="2.24"/><rect class="cls-2" x="197.45" y="450.67" width="271.93" height="10.52"/><rect class="cls-2" x="193.2" y="423.32" width="280.43" height="29.22"/><path class="cls-3" d="M502.3,666.6l-.95.95a10.92,10.92,0,0,1-7.72,3.2h0a11,11,0,0,1-5.69-1.59l-8.11-4.94a9.41,9.41,0,0,0-4.9-1.37h0a9.42,9.42,0,0,0-8,4.38l-6.11,9.65a28.13,28.13,0,0,1-10.93,10l-13.18,6.76a8.69,8.69,0,0,0-4.73,7.73v1.58h45.32a16.68,16.68,0,0,0,9.3-2.85l6-4v3.29h13.93V669.11Z"/><path class="cls-1" d="M342.66,55.7h0a38,38,0,0,1,38,38v0a0,0,0,0,1,0,0H304.62a0,0,0,0,1,0,0v0a38,38,0,0,1,38-38Z"/><path class="cls-1" d="M355.49,93.73a12.84,12.84,0,1,1-25.67,0"/><line class="cls-1" x1="342.66" y1="55.7" x2="342.66" y2="0.5"/><path class="cls-1" d="M117.21,347.25l69.7,57.52a13.53,13.53,0,0,0,8.63,3.1h28V376.73l-19.65-2.35-82.83-66.26"/><circle class="cls-10" cx="249.59" cy="130.14" r="32.4"/><path class="cls-11" d="M244.86,142.55a2.93,2.93,0,0,1-1.94-.73l-9.46-8.28a3,3,0,1,1,3.89-4.44l7.38,6.45,17-17a3,3,0,0,1,4.18,4.18L247,141.69A3,3,0,0,1,244.86,142.55Z"/><circle class="cls-10" cx="407.09" cy="153.04" r="32.4"/><path class="cls-11" d="M395.13,167h0l-4.69-.09a2.36,2.36,0,0,1,0-4.71h.05l3.4.06,8.29-12.44a2.36,2.36,0,0,1,3.63-.36l5.89,5.89L420.23,143a2.35,2.35,0,1,1,3.87,2.68L414,160.35a2.36,2.36,0,0,1-3.61.33l-5.85-5.86L397.09,166A2.35,2.35,0,0,1,395.13,167Z"/><path class="cls-11" d="M424.12,139.2l-6.72,3a1.41,1.41,0,0,0-.25,2.42l6,4.31a1.4,1.4,0,0,0,2.21-1l.76-7.33A1.4,1.4,0,0,0,424.12,139.2Z"/><rect class="cls-10" x="297.35" y="194.35" width="58.01" height="73.78" rx="8.26"/><rect class="cls-10" x="309.74" y="189.23" width="33.23" height="10.23" rx="2.72"/><rect class="cls-12" x="319.43" y="207.86" width="28.7" height="4.92" rx="2.46"/><path class="cls-11" d="M308.72,214.38a1,1,0,0,1-.63-.24l-3.1-2.71a1,1,0,0,1,1.28-1.46l2.41,2.12,5.55-5.55a1,1,0,0,1,1.36,0,1,1,0,0,1,0,1.37l-6.18,6.18A1,1,0,0,1,308.72,214.38Z"/><rect class="cls-12" x="319.43" y="222.77" width="28.7" height="4.92" rx="2.46"/><path class="cls-11" d="M308.72,229.29a1,1,0,0,1-.63-.24l-3.1-2.7a1,1,0,0,1,1.28-1.46l2.41,2.11,5.55-5.54a1,1,0,0,1,1.36,1.36L309.41,229A1,1,0,0,1,308.72,229.29Z"/><rect class="cls-12" x="319.43" y="237.69" width="28.7" height="4.92" rx="2.46"/><path class="cls-11" d="M308.72,244.21a1,1,0,0,1-.63-.24l-3.1-2.7a1,1,0,0,1,1.28-1.46l2.41,2.11,5.55-5.55a1,1,0,0,1,1.36,1.37l-6.18,6.19A1,1,0,0,1,308.72,244.21Z"/><rect class="cls-12" x="319.43" y="252.61" width="28.7" height="4.92" rx="2.46"/><path class="cls-11" d="M308.72,259.13a1,1,0,0,1-.63-.24l-3.1-2.71a1,1,0,0,1-.09-1.36,1,1,0,0,1,1.37-.09l2.41,2.11,5.55-5.55a1,1,0,0,1,1.36,0,1,1,0,0,1,0,1.37l-6.18,6.19A1,1,0,0,1,308.72,259.13Z"/></g></g></svg>