<svg xmlns="http://www.w3.org/2000/svg" viewBox="0 0 521.48 642.66"><defs><style>.cls-1{fill:#ef9747;stroke:#041324;stroke-width:0.5px;}.cls-1,.cls-7{stroke-miterlimit:10;}.cls-2,.cls-6,.cls-8{fill:#fff;}.cls-2,.cls-3,.cls-4,.cls-5,.cls-7,.cls-8{stroke:#041323;}.cls-2,.cls-3,.cls-4,.cls-5,.cls-8{stroke-linecap:round;stroke-linejoin:round;}.cls-3{fill:#041323;}.cls-4{fill:none;}.cls-5{fill:#4a90ee;}.cls-7{fill:#4b90ef;}.cls-8{stroke-width:1.7px;}</style></defs><g id="Layer_2" data-name="Layer 2"><g id="Layer_2-2" data-name="Layer 2"><path class="cls-1" d="M521.23,78.94a6.17,6.17,0,0,1-6.17,6.17,5.84,5.84,0,0,1-2.1-.38L433.33,202.62a6.06,6.06,0,0,1,1.58,4.11,6.17,6.17,0,1,1-10.67-4.21l-34.41-53.4a5.92,5.92,0,0,1-2,.33,6.1,6.1,0,0,1-1.87-.29l-58.52,94.5a6.05,6.05,0,0,1,1.75,4.29,6.17,6.17,0,1,1-12-1.94l-14.62-9.26a6.11,6.11,0,0,1-7.4.83L166,367a6.16,6.16,0,0,1-5.28,9.33,6.17,6.17,0,0,1-6.17-6.17,6.1,6.1,0,0,1,1.34-3.83L111,307.7a6.25,6.25,0,0,1-4.85,0l-94.9,126a6.1,6.1,0,1,1-2.4-1.82l94.9-125.95a6.17,6.17,0,1,1,11-3.87,6.1,6.1,0,0,1-1.34,3.83l44.93,58.61a6.24,6.24,0,0,1,2.45-.5,6.05,6.05,0,0,1,3.16.88l129.16-129.4a6,6,0,0,1-.89-3.17,6.17,6.17,0,1,1,12,1.93l14.62,9.27h0a6.13,6.13,0,0,1,6.11-1.42l58.51-94.5a6.17,6.17,0,1,1,8.92-.08l34.41,53.4a6.08,6.08,0,0,1,4.09.05L510.47,83.05a6.16,6.16,0,1,1,10.76-4.11Z"/></g><g id="Illustrtions"><polygon class="cls-2" points="301.09 432.52 290.24 461.67 303.21 498.86 295.39 498.86 267.26 456.04 277.97 426.11 301.09 432.52"/><path class="cls-3" d="M302.34,496.37h-3.22a10,10,0,0,1-8.31-4.48L267.26,456,262,461.83a15.67,15.67,0,0,0-4.08,10.56v26.47h4.45v-18h4.88l17.67,22.47a13.88,13.88,0,0,0,10.93,5.31h32l-.16-.52a9.22,9.22,0,0,0-6.14-6Z"/><path class="cls-2" d="M176,277.6l1.29,26a10.8,10.8,0,0,1-.17,2.6l-2.32,12.63a1.61,1.61,0,0,1-1.58,1.32h0a1.61,1.61,0,0,1-1.61-1.61v-11l-.63,19.8a1.7,1.7,0,0,1-1.7,1.65h0a1.7,1.7,0,0,1-1.7-1.7V326l-9.27-9.27a10.78,10.78,0,0,1-3.11-8.63l2-21.26V277.6Z"/><line class="cls-4" x1="159.21" y1="317.58" x2="159.21" y2="305.69"/><line class="cls-4" x1="163.09" y1="307.22" x2="163.09" y2="321.47"/><line class="cls-4" x1="167.58" y1="308.96" x2="167.58" y2="325.95"/><path class="cls-2" d="M373.5,227.35a1.26,1.26,0,0,1-2.25.77l-1.41-1.79-1.14-1.46-2.2,5.31a1.7,1.7,0,0,1-3.25-.93l.77-4.53L358.19,229a2,2,0,0,1-2.57-2.95l3.64-3.75-1.31-.78-6.59-3.9h-8.29a12.77,12.77,0,0,1-7-2.08L333.7,214l-5.35-3.49-7.71-2-13.46-3.41,4.61-14.65,7.74,2.81,4.87,1.77,11.16,4.05,2.21.11,18.7.89a6.78,6.78,0,0,1,3.72,1.33l7.89,5.83a7,7,0,0,1,.91.79,9,9,0,0,1,2.7,5.34l1.2,9.2.6,4.57A1,1,0,0,1,373.5,227.35Z"/><path class="cls-2" d="M353.85,215.36l7.33,3.35a1.7,1.7,0,0,0,.74.16h4a1.79,1.79,0,0,0,1.79-1.79h0a2.77,2.77,0,0,0-1.54-2.48l-15.8-7.87"/><polyline class="cls-2" points="362.48 218.87 365.38 223.26 364.02 224.72"/><line class="cls-4" x1="368.7" y1="224.87" x2="367.34" y2="218.22"/><polygon class="cls-5" points="265.98 162.74 338.54 196.42 332.72 217.59 311.48 212.61 289.59 210.97 261.14 196.93 265.98 162.74"/><polygon class="cls-6" points="265.98 168.45 337.15 201.48 338.54 196.42 265.98 162.74 261.14 196.93 261.89 197.3 265.98 168.45"/><line class="cls-4" x1="319.01" y1="214.37" x2="325.69" y2="190.46"/><polygon class="cls-4" points="265.98 162.74 338.54 196.42 332.72 217.59 311.48 212.61 289.59 210.97 261.14 196.93 265.98 162.74"/><polygon class="cls-2" points="176.58 507.5 165.73 536.64 178.7 573.84 170.89 573.84 142.76 531.02 153.46 501.09 176.58 507.5"/><path class="cls-3" d="M177.83,571.35h-3.22a9.94,9.94,0,0,1-8.31-4.49L142.76,531l-5.26,5.78a15.69,15.69,0,0,0-4.08,10.56v26.48h4.45v-18h4.89l17.66,22.47a13.92,13.92,0,0,0,10.93,5.31H203.4l-.17-.52a9.16,9.16,0,0,0-6.14-6Z"/><path class="cls-3" d="M272.69,90.35c12.12-16-6.17-34.81-6.17-34.81l-37.32,9.4,9.9,39.31,19.67-5A25,25,0,0,0,272.69,90.35Z"/><path class="cls-6" d="M266.52,55.54l-.68.17c2.23,3.93,19.48,27-7,43.56h0a24.93,24.93,0,0,0,13-7.91C285.59,75.16,266.52,55.54,266.52,55.54Z"/><path class="cls-4" d="M266.52,55.54l-.68.17c2.23,3.93,19.48,27-7,43.56h0a24.93,24.93,0,0,0,13-7.91C285.59,75.16,266.52,55.54,266.52,55.54Z"/><polygon class="cls-2" points="258.79 64.67 255.1 84.07 244.88 80.67 238.43 55.04 255.29 50.8 258.79 64.67"/><path class="cls-5" d="M223.7,89.68h-5.23a18.86,18.86,0,0,0-17.36,11.48l-41.89,98.59a51.23,51.23,0,0,0-4.07,20v61.93h24.71V265.49l27.4-79.94v4.81l3,11.64h52.37l7.2-47.74A46.17,46.17,0,0,0,268,132.81L256.92,99.46V84.79L235.25,71Z"/><polygon class="cls-6" points="229.18 135.7 216.31 183.75 221.71 202 210.29 202 207.26 190.36 207.26 185.55 229.18 135.7"/><path class="cls-6" d="M160.21,219.75a51.05,51.05,0,0,1,4.07-20l41.89-98.59a18.86,18.86,0,0,1,17.36-11.48h-5.06a18.86,18.86,0,0,0-17.36,11.48l-41.89,98.59a51.23,51.23,0,0,0-4.07,20v61.93h5.06V219.75Z"/><polygon class="cls-6" points="238.88 73.28 235.25 70.97 223.7 89.68 228.76 89.68 238.88 73.28"/><path class="cls-3" d="M262.66,202v41.73l81.45,91.08a24.84,24.84,0,0,1,6.32,16.55h0a24.74,24.74,0,0,1-1.37,8.13l-32.78,94.7L265.19,440l29.08-85.25-37.69-30.86-14.92,68.44L199.42,513.64l-50.85-13.92,45.2-118.3L200.51,284l-2-22.84A63.64,63.64,0,0,1,200.39,239l9.9-37Z"/><path class="cls-3" d="M262.66,202v41.73l81.45,91.08a24.84,24.84,0,0,1,6.32,16.55h0a24.74,24.74,0,0,1-1.37,8.13l-32.78,94.7L265.19,440l29.08-85.25-37.69-30.86-14.92,68.44L199.42,513.64l-50.85-13.92,45.2-118.3L200.51,284l-2-22.84A63.64,63.64,0,0,1,200.39,239l9.9-37Z"/><path class="cls-2" d="M344.11,334.81l-81.45-91.08V202H210.29l-.11.42h46.64v41.73l81.45,91.08a24.88,24.88,0,0,1,5,24.68l-32.14,92.84,5.19,1.44,32.78-94.7a24.74,24.74,0,0,0,1.37-8.13h0A24.84,24.84,0,0,0,344.11,334.81Z"/><polygon class="cls-2" points="256.58 323.92 207.26 276.11 252.47 342.81 256.58 323.92"/><path class="cls-5" d="M207.26,185.55,226.51,143a55,55,0,0,0,4.86-22.59v-9.93"/><line class="cls-4" x1="155.15" y1="263.21" x2="180.64" y2="263.21"/><polyline class="cls-5" points="256.92 84.79 250.26 103.26 230.7 87.41"/><path class="cls-3" d="M238.6,56.43c16.62,41.85-4.38,44.56-4.38,44.56-6.53,1.17-10.66,3.31-13.14,5.16a21.59,21.59,0,0,1-15.16,4.42C188.25,108.64,183.3,89.62,190,79.12c11.58-18.24,9.76-31.16,15.95-54.76s38.6-29.54,55.34-18.5,5.35,27.48,5.35,27.48L262,14.82s2.65,25.55-20.08,28.53l-6.21,1.57Z"/><path class="cls-2" d="M232,101.45c.72-.16,1.47-.32,2.26-.46,0,0,21-2.71,4.38-44.56C238.6,56.43,247.81,95.17,232,101.45Z"/><path class="cls-2" d="M261.65,14.33s-.19,24.29-23.88,26.55L240,43.82l1.87-.47C265.31,40.27,261.65,14.33,261.65,14.33Z"/><path class="cls-2" d="M261.26,5.86a29.87,29.87,0,0,0-4.62-2.45A27.5,27.5,0,0,1,259.44,5c13.26,8.75,8.87,20.88,6.47,25.54l.7,2.78S278,16.91,261.26,5.86Z"/><path class="cls-2" d="M192.82,82.67c11.58-18.23,9.76-31.15,16-54.75s38.6-29.55,55.34-18.5A26,26,0,0,1,268,12.54a21.69,21.69,0,0,0-6.73-6.68c-16.74-11-49.16-5.1-55.34,18.5S201.55,60.88,190,79.12c-4.64,7.31-3.64,18.74,3.35,25.67C189,97.94,188.91,88.84,192.82,82.67Z"/><path class="cls-2" d="M262,14.82,266.9,34.5l7.15,5.36a.9.9,0,0,1,.17,1.27L271,45.2l1.28,5.07a1.28,1.28,0,0,1-.93,1.56l-2.34.43L271,53a.67.67,0,0,1,.32,1l-.92,1.55.47,1.87a6.79,6.79,0,0,1-4.93,8.25h0a6.79,6.79,0,0,1-3.38,0l-12.69-3.32a7.06,7.06,0,0,1-5.07-5.11l-.25-1-.77.2a10.51,10.51,0,0,1-9.28-2.1h0A10.52,10.52,0,0,1,231,48.8l-.83-3.27a5.64,5.64,0,0,1,4.09-6.85h0A5.64,5.64,0,0,1,240.31,41l1.56,2.33C264.07,38.8,262,14.82,262,14.82"/><path class="cls-4" d="M259.13,33.71a10.73,10.73,0,0,1,5.92-2.05,1,1,0,0,1,.82.4l.63.85"/><ellipse class="cls-3" cx="263.52" cy="35.67" rx="1.19" ry="1.53" transform="matrix(0.97, -0.25, 0.25, 0.97, -0.52, 67.25)"/><path class="cls-4" d="M223.7,89.68h-5.23a18.86,18.86,0,0,0-17.36,11.48l-41.89,98.59a51.23,51.23,0,0,0-4.07,20v61.93h24.71V265.49l27.4-79.94v4.81l3,11.64h52.37l7.2-47.74A46.17,46.17,0,0,0,268,132.81L256.92,99.46V84.79L235.25,71Z"/><rect class="cls-7" x="4.35" y="603.3" width="29.77" height="38.86"/><rect class="cls-7" x="41.34" y="583.61" width="29.77" height="58.56"/><rect class="cls-7" x="78.34" y="611.45" width="29.77" height="30.71"/><rect class="cls-7" x="115.33" y="573.84" width="29.77" height="68.32"/><rect class="cls-7" x="152.33" y="583.61" width="29.77" height="58.56"/><rect class="cls-7" x="189.32" y="583.61" width="29.77" height="58.56"/><rect class="cls-7" x="226.32" y="537.47" width="29.77" height="104.7"/><rect class="cls-7" x="263.32" y="508.42" width="29.77" height="133.74"/><rect class="cls-7" x="300.31" y="531.02" width="29.77" height="111.15"/><rect class="cls-7" x="337.31" y="491.22" width="29.77" height="150.95"/><rect class="cls-7" x="374.3" y="508.42" width="29.77" height="133.74"/><rect class="cls-7" x="411.3" y="437.55" width="29.77" height="204.62"/><rect class="cls-7" x="448.29" y="460.34" width="29.77" height="181.82"/><rect class="cls-7" x="485.29" y="334.69" width="29.77" height="307.47"/><path class="cls-8" d="M232.76,81.84h0l.08,0Z"/></g></g></svg>